<svg width="30" height="18" viewBox="0 0 30 18" fill="none" xmlns="http://www.w3.org/2000/svg">
<path d="M6.072 17.264C4.904 17.264 3.832 17.064 2.856 16.664C1.88 16.248 1.056 15.656 0.384 14.888L2.808 12.464C3.112 12.912 3.552 13.28 4.128 13.568C4.72 13.84 5.344 13.976 6 13.976C6.592 13.976 7.104 13.872 7.536 13.664C7.968 13.456 8.304 13.16 8.544 12.776C8.8 12.392 8.928 11.936 8.928 11.408C8.928 10.88 8.8 10.432 8.544 10.064C8.304 9.68 7.944 9.384 7.464 9.176C7 8.968 6.44 8.864 5.784 8.864C5.48 8.864 5.16 8.888 4.824 8.936C4.504 8.968 4.232 9.024 4.008 9.104L5.664 7.016C6.112 6.888 6.536 6.784 6.936 6.704C7.352 6.608 7.736 6.56 8.088 6.56C8.952 6.56 9.728 6.768 10.416 7.184C11.104 7.584 11.648 8.16 12.048 8.912C12.464 9.648 12.672 10.528 12.672 11.552C12.672 12.672 12.392 13.664 11.832 14.528C11.288 15.392 10.52 16.064 9.528 16.544C8.552 17.024 7.4 17.264 6.072 17.264ZM4.008 9.104V7.016L8.136 2.168L12.36 2.144L8.064 7.04L4.008 9.104ZM1.44 3.248V0.0559993H12.36V2.144L9.408 3.248H1.44ZM15.0383 17V0.0559993H17.6783L18.8063 3.44V17H15.0383ZM26.7263 17L16.7423 4.208L17.6783 0.0559993L27.6623 12.848L26.7263 17ZM26.7263 17L25.7183 13.616V0.0559993H29.4863V17H26.7263Z" fill="#16161D"/>
</svg>
