<svg width="540" height="960" viewBox="0 0 540 960" fill="none" xmlns="http://www.w3.org/2000/svg">
<rect width="540" height="960" fill="#161820"/>
<rect x="47" y="401" width="72" height="43" rx="2" fill="#373A41"/>
<rect x="174" y="448" width="72" height="43" rx="2" fill="#373A41"/>
<rect x="354" y="357" width="72" height="43" rx="2" fill="#373A41"/>
<path d="M24.072 38.264C22.904 38.264 21.832 38.064 20.856 37.664C19.88 37.248 19.056 36.656 18.384 35.888L20.808 33.464C21.112 33.912 21.552 34.28 22.128 34.568C22.72 34.84 23.344 34.976 24 34.976C24.592 34.976 25.104 34.872 25.536 34.664C25.968 34.456 26.304 34.16 26.544 33.776C26.8 33.392 26.928 32.936 26.928 32.408C26.928 31.88 26.8 31.432 26.544 31.064C26.304 30.68 25.944 30.384 25.464 30.176C25 29.968 24.44 29.864 23.784 29.864C23.48 29.864 23.16 29.888 22.824 29.936C22.504 29.968 22.232 30.024 22.008 30.104L23.664 28.016C24.112 27.888 24.536 27.784 24.936 27.704C25.352 27.608 25.736 27.56 26.088 27.56C26.952 27.56 27.728 27.768 28.416 28.184C29.104 28.584 29.648 29.16 30.048 29.912C30.464 30.648 30.672 31.528 30.672 32.552C30.672 33.672 30.392 34.664 29.832 35.528C29.288 36.392 28.52 37.064 27.528 37.544C26.552 38.024 25.4 38.264 24.072 38.264ZM22.008 30.104V28.016L26.136 23.168L30.36 23.144L26.064 28.04L22.008 30.104ZM19.44 24.248V21.056H30.36V23.144L27.408 24.248H19.44ZM33.0383 38V21.056H35.6783L36.8063 24.44V38H33.0383ZM44.7263 38L34.7423 25.208L35.6783 21.056L45.6623 33.848L44.7263 38ZM44.7263 38L43.7183 34.616V21.056H47.4863V38H44.7263ZM50.757 38V21.056H54.525V38H50.757ZM53.637 38V34.736H62.925V38H53.637ZM53.637 30.92V27.776H62.085V30.92H53.637ZM53.637 24.296V21.056H62.805V24.296H53.637ZM70.4745 38L63.9465 21.056H67.9785L72.9465 34.76H71.2905L76.3305 21.056H80.3145L73.7145 38H70.4745ZM82.3039 38V21.056H86.0719V38H82.3039ZM85.1839 38V34.736H94.4719V38H85.1839ZM85.1839 30.92V27.776H93.6319V30.92H85.1839ZM85.1839 24.296V21.056H94.3519V24.296H85.1839ZM99.9495 31.016V28.232H103.526C104.278 28.232 104.854 28.04 105.254 27.656C105.67 27.272 105.878 26.752 105.878 26.096C105.878 25.488 105.678 24.984 105.278 24.584C104.878 24.184 104.302 23.984 103.55 23.984H99.9495V21.056H103.982C105.102 21.056 106.086 21.272 106.934 21.704C107.782 22.12 108.446 22.704 108.926 23.456C109.406 24.208 109.646 25.072 109.646 26.048C109.646 27.04 109.406 27.912 108.926 28.664C108.446 29.4 107.774 29.976 106.91 30.392C106.046 30.808 105.03 31.016 103.862 31.016H99.9495ZM97.0695 38V21.056H100.838V38H97.0695ZM106.286 38L101.006 30.704L104.462 29.768L110.75 38H106.286Z" fill="#FEFEFE" fill-opacity="0.54"/>
<path d="M218.324 887.86L218.696 889.252C219.944 888.952 221.54 888.544 223.016 888.16L222.848 886.84C221.24 887.236 219.5 887.644 218.324 887.86ZM218.48 884.008V885.34H222.848V884.008H218.48ZM220.076 881.872V891.532C220.076 891.7 220.016 891.76 219.848 891.76C219.692 891.76 219.188 891.76 218.72 891.748C218.888 892.108 219.08 892.684 219.116 893.056C219.968 893.056 220.544 893.02 220.952 892.792C221.36 892.588 221.492 892.228 221.492 891.532V881.872H220.076ZM222.98 890.956V892.3H228.296V890.956H222.98ZM223.352 886.66V888.088H228.308V886.66H223.352ZM223.076 882.904V884.224H227.66V892.972H229.04V882.904H223.076ZM234.308 883.372V884.668H241.52V883.372H234.308ZM235.688 881.812V886.024H237.068V881.812H235.688ZM238.712 881.812V886.024H240.104V881.812H238.712ZM234.716 886.396V893.008H236.012V887.656H239.78V892.948H241.148V886.396H234.716ZM235.448 888.796V890.02H240.392V888.796H235.448ZM235.484 891.184V892.444H240.428V891.184H235.484ZM237.224 887.02V892.12H238.52V887.02H237.224ZM230.24 887.896L230.564 889.288C231.632 888.988 232.964 888.604 234.212 888.22L234.032 886.924C232.664 887.296 231.212 887.692 230.24 887.896ZM230.432 884.092V885.412H234.08V884.092H230.432ZM231.68 881.824V891.388C231.68 891.556 231.632 891.604 231.488 891.604C231.344 891.604 230.924 891.604 230.48 891.592C230.66 891.976 230.816 892.564 230.852 892.924C231.632 892.924 232.16 892.876 232.52 892.648C232.892 892.432 233 892.06 233 891.4V881.824H231.68ZM243.644 883.468V885.052H252.356V883.468H243.644ZM242.648 890.428V892.084H253.364V890.428H242.648ZM254.78 889.972C254.78 889.732 255.644 889.336 255.644 889.336V889.3C256.784 888.112 257.96 886.468 258.836 884.86L257.732 884.164C256.94 885.832 255.716 887.536 255.308 887.98C254.936 888.424 254.672 888.7 254.36 888.772C254.516 889.108 254.72 889.72 254.78 889.972ZM254.78 889.972C255.104 889.792 255.596 889.648 258.572 889.084C258.56 888.796 258.572 888.244 258.62 887.884L255.308 888.436L254.696 888.856L254.78 889.972ZM254.684 887.044C254.684 886.804 255.428 886.384 255.428 886.384V886.348C256.28 885.292 257.156 883.78 257.732 882.376L256.436 881.776C256.028 883.18 255.224 884.68 254.96 885.064C254.696 885.448 254.492 885.712 254.252 885.772C254.408 886.132 254.624 886.78 254.684 887.044ZM254.684 887.044C254.924 886.936 255.296 886.852 257.096 886.66C257.096 886.384 257.156 885.892 257.228 885.544L255.224 885.7L254.648 886.084L254.684 887.044ZM254.384 891.184L254.648 892.552C255.86 892.228 257.444 891.82 258.932 891.412L258.788 890.212C257.18 890.584 255.488 890.98 254.384 891.184ZM260.216 886.288V887.572H265.148V886.288H260.216ZM260.24 888.592V889.876H265.172V888.592H260.24ZM260.12 890.968V892.3H265.604V890.968H260.12ZM262.304 884.404V891.676H263.636V884.404H262.304ZM260.828 883.96H260.276L259.484 884.788V893.104H260.828V885.256H265.448V883.96H260.828ZM260.456 881.848C260.084 883.24 259.28 885.052 258.368 886.144C258.56 886.492 258.86 887.14 258.992 887.5C260.204 886.132 261.2 884.08 261.836 882.244L260.456 881.848ZM261.968 882.376C262.292 882.928 262.64 883.66 262.76 884.14L264.044 883.552C263.888 883.084 263.54 882.388 263.18 881.86L261.968 882.376ZM276.008 887.02V887.236C275.816 890.152 275.552 891.34 275.264 891.64C275.132 891.772 275.012 891.796 274.82 891.796C274.592 891.796 274.136 891.796 273.632 891.736C273.848 892.096 273.992 892.636 274.016 893.032C274.592 893.044 275.132 893.044 275.468 892.996C275.852 892.96 276.14 892.84 276.416 892.504C276.848 892.048 277.1 890.752 277.352 887.584C277.364 887.404 277.388 887.02 277.388 887.02H276.008ZM271.256 882.424V883.72H275.66V882.424H271.256ZM271.832 884.188C271.748 885.484 271.58 887.176 271.4 888.232H272.756C272.9 887.224 273.08 885.568 273.176 884.26L271.832 884.188ZM271.784 887.02V888.232H276.404V887.02H271.784ZM271.016 889.396V890.668H275.312V889.396H271.016ZM275.12 882.424V882.568C275.048 883.78 274.82 886.084 274.592 887.788L275.948 887.896C276.176 886.204 276.404 884.08 276.512 882.472L275.492 882.376L275.276 882.424H275.12ZM266.516 882.34V883.648H270.836V882.34H266.516ZM267.848 886.084V887.344H269.336V890.356H267.848V891.616H270.572V886.084H267.848ZM267.908 883.012C267.608 884.836 267.092 886.576 266.24 887.704C266.444 888.124 266.696 889.036 266.756 889.42C268.004 887.932 268.76 885.592 269.216 883.312L267.908 883.012ZM267.236 886.084V892.516H268.46V886.084H267.236ZM278.456 886.54V888.112H289.568V886.54H278.456ZM291.716 881.764C291.404 882.88 290.852 883.96 290.192 884.668C290.432 884.944 290.828 885.556 290.972 885.832C291.8 884.92 292.52 883.492 292.952 882.1L291.716 881.764ZM291.74 882.928L291.476 884.224H294.008V882.928H291.74ZM291.824 893.008C292.016 892.744 292.364 892.456 294.296 891.016C294.152 890.776 293.972 890.272 293.888 889.924L291.836 891.4L291.548 891.832L291.824 893.008ZM290.996 885.208V886.444H294.02V885.208H290.996ZM290.564 887.608V888.904H294.104V887.608H290.564ZM291.824 893.008C291.824 892.54 292.916 891.616 292.916 891.616V885.796H291.752V890.704C291.752 891.292 291.356 891.796 291.104 891.988C291.332 892.216 291.704 892.72 291.824 893.008ZM298.196 881.884V891.376H299.288V881.884H298.196ZM296.624 884.26V885.304H301.616V884.26H296.624ZM296.72 889.204V890.272H301.316V889.204H296.72ZM297.008 887.512V888.58H301.088V887.512H297.008ZM294.152 882.376V883.696H295.892V882.376H294.152ZM295.64 885.892V886.108C295.508 889.168 294.86 891.316 293.468 892.192C293.708 892.444 293.984 892.9 294.152 893.212C295.844 891.988 296.576 889.816 296.744 885.94L296.06 885.88L295.856 885.892H295.64ZM294.992 887.956L294.068 888.304C295.016 892.072 296.9 892.876 299.42 892.876H301.34C301.4 892.54 301.556 891.988 301.712 891.7C301.232 891.724 299.876 891.724 299.492 891.724C297.452 891.712 295.724 891.088 294.992 887.956ZM297.056 882.676V883.648H299.96V885.94H297.056V886.912H300.944V882.676H297.056ZM294.764 885.892L294.416 887.056H295.988V885.892H294.764ZM294.392 887.296C294.392 887.068 295.244 886.684 295.244 886.684V886.66C295.808 885.652 296.432 884.164 296.876 882.712L296.132 882.22L295.7 882.4V882.46C295.4 883.768 294.788 885.196 294.596 885.556C294.404 885.94 294.056 886.324 293.828 886.384C293.996 886.6 294.284 887.056 294.392 887.296ZM302.72 882.712V883.936H313.244V882.712H302.72ZM303.488 884.668V885.88H312.704V884.668H303.488ZM304.592 888.976V890.188H311.54V888.976H304.592ZM304.628 886.54V887.716H311.084V890.824H312.524V886.54H304.628ZM303.68 886.54V888.028C303.68 889.264 303.536 890.956 302.216 892.168C302.528 892.348 303.128 892.864 303.344 893.14C304.808 891.772 305.108 889.588 305.108 888.052V886.54H303.68ZM307.232 881.8V885.316H308.696V881.8H307.232ZM307.28 886.948V889.732H308.672V886.948H307.28ZM315.584 882.472V883.768H317.696V888.52H315.584V889.84H319.028V882.472H315.584ZM315.596 885.472V886.756H318.224V885.472H315.596ZM320.72 882.292V883.624H324.404V882.292H320.72ZM320.72 885.16V886.456H324.404V885.16H320.72ZM320.696 888.004V889.288H324.392V888.004H320.696ZM314.816 882.472V890.884H316.148V882.472H314.816ZM323.864 882.292V891.412C323.864 891.628 323.792 891.7 323.576 891.7C323.372 891.7 322.64 891.712 321.992 891.676C322.196 892.048 322.424 892.672 322.484 893.068C323.504 893.068 324.188 893.032 324.668 892.804C325.136 892.576 325.292 892.18 325.292 891.436V882.292H323.864ZM319.856 882.292V886.636C319.856 888.472 319.676 890.728 317.648 892.204C317.96 892.396 318.512 892.888 318.728 893.176C320.948 891.544 321.272 888.724 321.272 886.648V882.292H319.856Z" fill="white" fill-opacity="0.69"/>
<g clip-path="url(#clip0_11526_62731)">
<path d="M302 803H238V867H302V803Z" fill="white"/>
<path d="M243.189 806.459H241.459V808.189H243.189V806.459Z" fill="black"/>
<path d="M244.919 806.459H243.189V808.189H244.919V806.459Z" fill="black"/>
<path d="M246.649 806.459H244.919V808.189H246.649V806.459Z" fill="black"/>
<path d="M248.378 806.459H246.649V808.189H248.378V806.459Z" fill="black"/>
<path d="M250.108 806.459H248.378V808.189H250.108V806.459Z" fill="black"/>
<path d="M251.838 806.459H250.108V808.189H251.838V806.459Z" fill="black"/>
<path d="M253.568 806.459H251.838V808.189H253.568V806.459Z" fill="black"/>
<path d="M257.027 806.459H255.297V808.189H257.027V806.459Z" fill="black"/>
<path d="M269.135 806.459H267.406V808.189H269.135V806.459Z" fill="black"/>
<path d="M270.865 806.459H269.135V808.189H270.865V806.459Z" fill="black"/>
<path d="M272.595 806.459H270.865V808.189H272.595V806.459Z" fill="black"/>
<path d="M277.784 806.459H276.054V808.189H277.784V806.459Z" fill="black"/>
<path d="M281.243 806.459H279.513V808.189H281.243V806.459Z" fill="black"/>
<path d="M282.973 806.459H281.243V808.189H282.973V806.459Z" fill="black"/>
<path d="M284.703 806.459H282.973V808.189H284.703V806.459Z" fill="black"/>
<path d="M288.162 806.459H286.432V808.189H288.162V806.459Z" fill="black"/>
<path d="M289.892 806.459H288.162V808.189H289.892V806.459Z" fill="black"/>
<path d="M291.622 806.459H289.892V808.189H291.622V806.459Z" fill="black"/>
<path d="M293.351 806.459H291.622V808.189H293.351V806.459Z" fill="black"/>
<path d="M295.081 806.459H293.351V808.189H295.081V806.459Z" fill="black"/>
<path d="M296.811 806.459H295.081V808.189H296.811V806.459Z" fill="black"/>
<path d="M298.541 806.459H296.811V808.189H298.541V806.459Z" fill="black"/>
<path d="M243.189 808.189H241.459V809.919H243.189V808.189Z" fill="black"/>
<path d="M253.568 808.189H251.838V809.919H253.568V808.189Z" fill="black"/>
<path d="M263.946 808.189H262.216V809.919H263.946V808.189Z" fill="black"/>
<path d="M265.676 808.189H263.946V809.919H265.676V808.189Z" fill="black"/>
<path d="M267.406 808.189H265.676V809.919H267.406V808.189Z" fill="black"/>
<path d="M270.865 808.189H269.135V809.919H270.865V808.189Z" fill="black"/>
<path d="M272.595 808.189H270.865V809.919H272.595V808.189Z" fill="black"/>
<path d="M274.324 808.189H272.595V809.919H274.324V808.189Z" fill="black"/>
<path d="M279.513 808.189H277.784V809.919H279.513V808.189Z" fill="black"/>
<path d="M281.243 808.189H279.513V809.919H281.243V808.189Z" fill="black"/>
<path d="M282.973 808.189H281.243V809.919H282.973V808.189Z" fill="black"/>
<path d="M288.162 808.189H286.432V809.919H288.162V808.189Z" fill="black"/>
<path d="M298.541 808.189H296.811V809.919H298.541V808.189Z" fill="black"/>
<path d="M243.189 809.919H241.459V811.649H243.189V809.919Z" fill="black"/>
<path d="M246.649 809.919H244.919V811.649H246.649V809.919Z" fill="black"/>
<path d="M248.378 809.919H246.649V811.649H248.378V809.919Z" fill="black"/>
<path d="M250.108 809.919H248.378V811.649H250.108V809.919Z" fill="black"/>
<path d="M253.568 809.919H251.838V811.649H253.568V809.919Z" fill="black"/>
<path d="M258.757 809.919H257.027V811.649H258.757V809.919Z" fill="black"/>
<path d="M260.487 809.919H258.757V811.649H260.487V809.919Z" fill="black"/>
<path d="M262.216 809.919H260.487V811.649H262.216V809.919Z" fill="black"/>
<path d="M263.946 809.919H262.216V811.649H263.946V809.919Z" fill="black"/>
<path d="M277.784 809.919H276.054V811.649H277.784V809.919Z" fill="black"/>
<path d="M282.973 809.919H281.243V811.649H282.973V809.919Z" fill="black"/>
<path d="M284.703 809.919H282.973V811.649H284.703V809.919Z" fill="black"/>
<path d="M288.162 809.919H286.432V811.649H288.162V809.919Z" fill="black"/>
<path d="M291.622 809.919H289.892V811.649H291.622V809.919Z" fill="black"/>
<path d="M293.351 809.919H291.622V811.649H293.351V809.919Z" fill="black"/>
<path d="M295.081 809.919H293.351V811.649H295.081V809.919Z" fill="black"/>
<path d="M298.541 809.919H296.811V811.649H298.541V809.919Z" fill="black"/>
<path d="M243.189 811.649H241.459V813.378H243.189V811.649Z" fill="black"/>
<path d="M246.649 811.649H244.919V813.378H246.649V811.649Z" fill="black"/>
<path d="M248.378 811.649H246.649V813.378H248.378V811.649Z" fill="black"/>
<path d="M250.108 811.649H248.378V813.378H250.108V811.649Z" fill="black"/>
<path d="M253.568 811.649H251.838V813.378H253.568V811.649Z" fill="black"/>
<path d="M257.027 811.649H255.297V813.378H257.027V811.649Z" fill="black"/>
<path d="M258.757 811.649H257.027V813.378H258.757V811.649Z" fill="black"/>
<path d="M262.216 811.649H260.487V813.378H262.216V811.649Z" fill="black"/>
<path d="M263.946 811.649H262.216V813.378H263.946V811.649Z" fill="black"/>
<path d="M267.406 811.649H265.676V813.378H267.406V811.649Z" fill="black"/>
<path d="M274.324 811.649H272.595V813.378H274.324V811.649Z" fill="black"/>
<path d="M276.054 811.649H274.324V813.378H276.054V811.649Z" fill="black"/>
<path d="M288.162 811.649H286.432V813.378H288.162V811.649Z" fill="black"/>
<path d="M291.622 811.649H289.892V813.378H291.622V811.649Z" fill="black"/>
<path d="M293.351 811.649H291.622V813.378H293.351V811.649Z" fill="black"/>
<path d="M295.081 811.649H293.351V813.378H295.081V811.649Z" fill="black"/>
<path d="M298.541 811.649H296.811V813.378H298.541V811.649Z" fill="black"/>
<path d="M243.189 813.378H241.459V815.108H243.189V813.378Z" fill="black"/>
<path d="M246.649 813.378H244.919V815.108H246.649V813.378Z" fill="black"/>
<path d="M248.378 813.378H246.649V815.108H248.378V813.378Z" fill="black"/>
<path d="M250.108 813.378H248.378V815.108H250.108V813.378Z" fill="black"/>
<path d="M253.568 813.378H251.838V815.108H253.568V813.378Z" fill="black"/>
<path d="M258.757 813.378H257.027V815.108H258.757V813.378Z" fill="black"/>
<path d="M260.487 813.378H258.757V815.108H260.487V813.378Z" fill="black"/>
<path d="M263.946 813.378H262.216V815.108H263.946V813.378Z" fill="black"/>
<path d="M267.406 813.378H265.676V815.108H267.406V813.378Z" fill="black"/>
<path d="M272.595 813.378H270.865V815.108H272.595V813.378Z" fill="black"/>
<path d="M279.513 813.378H277.784V815.108H279.513V813.378Z" fill="black"/>
<path d="M281.243 813.378H279.513V815.108H281.243V813.378Z" fill="black"/>
<path d="M288.162 813.378H286.432V815.108H288.162V813.378Z" fill="black"/>
<path d="M291.622 813.378H289.892V815.108H291.622V813.378Z" fill="black"/>
<path d="M293.351 813.378H291.622V815.108H293.351V813.378Z" fill="black"/>
<path d="M295.081 813.378H293.351V815.108H295.081V813.378Z" fill="black"/>
<path d="M298.541 813.378H296.811V815.108H298.541V813.378Z" fill="black"/>
<path d="M243.189 815.108H241.459V816.838H243.189V815.108Z" fill="black"/>
<path d="M253.568 815.108H251.838V816.838H253.568V815.108Z" fill="black"/>
<path d="M260.487 815.108H258.757V816.838H260.487V815.108Z" fill="black"/>
<path d="M262.216 815.108H260.487V816.838H262.216V815.108Z" fill="black"/>
<path d="M265.676 815.108H263.946V816.838H265.676V815.108Z" fill="black"/>
<path d="M267.406 815.108H265.676V816.838H267.406V815.108Z" fill="black"/>
<path d="M274.324 815.108H272.595V816.838H274.324V815.108Z" fill="black"/>
<path d="M276.054 815.108H274.324V816.838H276.054V815.108Z" fill="black"/>
<path d="M277.784 815.108H276.054V816.838H277.784V815.108Z" fill="black"/>
<path d="M279.513 815.108H277.784V816.838H279.513V815.108Z" fill="black"/>
<path d="M281.243 815.108H279.513V816.838H281.243V815.108Z" fill="black"/>
<path d="M288.162 815.108H286.432V816.838H288.162V815.108Z" fill="black"/>
<path d="M298.541 815.108H296.811V816.838H298.541V815.108Z" fill="black"/>
<path d="M243.189 816.838H241.459V818.568H243.189V816.838Z" fill="black"/>
<path d="M244.919 816.838H243.189V818.568H244.919V816.838Z" fill="black"/>
<path d="M246.649 816.838H244.919V818.568H246.649V816.838Z" fill="black"/>
<path d="M248.378 816.838H246.649V818.568H248.378V816.838Z" fill="black"/>
<path d="M250.108 816.838H248.378V818.568H250.108V816.838Z" fill="black"/>
<path d="M251.838 816.838H250.108V818.568H251.838V816.838Z" fill="black"/>
<path d="M253.568 816.838H251.838V818.568H253.568V816.838Z" fill="black"/>
<path d="M257.027 816.838H255.297V818.568H257.027V816.838Z" fill="black"/>
<path d="M260.487 816.838H258.757V818.568H260.487V816.838Z" fill="black"/>
<path d="M263.946 816.838H262.216V818.568H263.946V816.838Z" fill="black"/>
<path d="M267.406 816.838H265.676V818.568H267.406V816.838Z" fill="black"/>
<path d="M270.865 816.838H269.135V818.568H270.865V816.838Z" fill="black"/>
<path d="M274.324 816.838H272.595V818.568H274.324V816.838Z" fill="black"/>
<path d="M277.784 816.838H276.054V818.568H277.784V816.838Z" fill="black"/>
<path d="M281.243 816.838H279.513V818.568H281.243V816.838Z" fill="black"/>
<path d="M284.703 816.838H282.973V818.568H284.703V816.838Z" fill="black"/>
<path d="M288.162 816.838H286.432V818.568H288.162V816.838Z" fill="black"/>
<path d="M289.892 816.838H288.162V818.568H289.892V816.838Z" fill="black"/>
<path d="M291.622 816.838H289.892V818.568H291.622V816.838Z" fill="black"/>
<path d="M293.351 816.838H291.622V818.568H293.351V816.838Z" fill="black"/>
<path d="M295.081 816.838H293.351V818.568H295.081V816.838Z" fill="black"/>
<path d="M296.811 816.838H295.081V818.568H296.811V816.838Z" fill="black"/>
<path d="M298.541 816.838H296.811V818.568H298.541V816.838Z" fill="black"/>
<path d="M262.216 818.568H260.487V820.297H262.216V818.568Z" fill="black"/>
<path d="M265.676 818.568H263.946V820.297H265.676V818.568Z" fill="black"/>
<path d="M267.406 818.568H265.676V820.297H267.406V818.568Z" fill="black"/>
<path d="M270.865 818.568H269.135V820.297H270.865V818.568Z" fill="black"/>
<path d="M272.595 818.568H270.865V820.297H272.595V818.568Z" fill="black"/>
<path d="M277.784 818.568H276.054V820.297H277.784V818.568Z" fill="black"/>
<path d="M279.513 818.568H277.784V820.297H279.513V818.568Z" fill="black"/>
<path d="M284.703 818.568H282.973V820.297H284.703V818.568Z" fill="black"/>
<path d="M246.649 820.297H244.919V822.027H246.649V820.297Z" fill="black"/>
<path d="M250.108 820.297H248.378V822.027H250.108V820.297Z" fill="black"/>
<path d="M251.838 820.297H250.108V822.027H251.838V820.297Z" fill="black"/>
<path d="M253.568 820.297H251.838V822.027H253.568V820.297Z" fill="black"/>
<path d="M257.027 820.297H255.297V822.027H257.027V820.297Z" fill="black"/>
<path d="M258.757 820.297H257.027V822.027H258.757V820.297Z" fill="black"/>
<path d="M265.676 820.297H263.946V822.027H265.676V820.297Z" fill="black"/>
<path d="M270.865 820.297H269.135V822.027H270.865V820.297Z" fill="black"/>
<path d="M272.595 820.297H270.865V822.027H272.595V820.297Z" fill="black"/>
<path d="M274.324 820.297H272.595V822.027H274.324V820.297Z" fill="black"/>
<path d="M279.513 820.297H277.784V822.027H279.513V820.297Z" fill="black"/>
<path d="M282.973 820.297H281.243V822.027H282.973V820.297Z" fill="black"/>
<path d="M284.703 820.297H282.973V822.027H284.703V820.297Z" fill="black"/>
<path d="M286.432 820.297H284.703V822.027H286.432V820.297Z" fill="black"/>
<path d="M293.351 820.297H291.622V822.027H293.351V820.297Z" fill="black"/>
<path d="M298.541 820.297H296.811V822.027H298.541V820.297Z" fill="black"/>
<path d="M246.649 822.027H244.919V823.757H246.649V822.027Z" fill="black"/>
<path d="M250.108 822.027H248.378V823.757H250.108V822.027Z" fill="black"/>
<path d="M255.297 822.027H253.568V823.757H255.297V822.027Z" fill="black"/>
<path d="M258.757 822.027H257.027V823.757H258.757V822.027Z" fill="black"/>
<path d="M260.487 822.027H258.757V823.757H260.487V822.027Z" fill="black"/>
<path d="M262.216 822.027H260.487V823.757H262.216V822.027Z" fill="black"/>
<path d="M263.946 822.027H262.216V823.757H263.946V822.027Z" fill="black"/>
<path d="M276.054 822.027H274.324V823.757H276.054V822.027Z" fill="black"/>
<path d="M279.513 822.027H277.784V823.757H279.513V822.027Z" fill="black"/>
<path d="M284.703 822.027H282.973V823.757H284.703V822.027Z" fill="black"/>
<path d="M288.162 822.027H286.432V823.757H288.162V822.027Z" fill="black"/>
<path d="M295.081 822.027H293.351V823.757H295.081V822.027Z" fill="black"/>
<path d="M296.811 822.027H295.081V823.757H296.811V822.027Z" fill="black"/>
<path d="M298.541 822.027H296.811V823.757H298.541V822.027Z" fill="black"/>
<path d="M251.838 823.757H250.108V825.486H251.838V823.757Z" fill="black"/>
<path d="M253.568 823.757H251.838V825.486H253.568V823.757Z" fill="black"/>
<path d="M257.027 823.757H255.297V825.486H257.027V823.757Z" fill="black"/>
<path d="M258.757 823.757H257.027V825.486H258.757V823.757Z" fill="black"/>
<path d="M260.487 823.757H258.757V825.486H260.487V823.757Z" fill="black"/>
<path d="M263.946 823.757H262.216V825.486H263.946V823.757Z" fill="black"/>
<path d="M265.676 823.757H263.946V825.486H265.676V823.757Z" fill="black"/>
<path d="M270.865 823.757H269.135V825.486H270.865V823.757Z" fill="black"/>
<path d="M274.324 823.757H272.595V825.486H274.324V823.757Z" fill="black"/>
<path d="M277.784 823.757H276.054V825.486H277.784V823.757Z" fill="black"/>
<path d="M281.243 823.757H279.513V825.486H281.243V823.757Z" fill="black"/>
<path d="M284.703 823.757H282.973V825.486H284.703V823.757Z" fill="black"/>
<path d="M286.432 823.757H284.703V825.486H286.432V823.757Z" fill="black"/>
<path d="M291.622 823.757H289.892V825.486H291.622V823.757Z" fill="black"/>
<path d="M296.811 823.757H295.081V825.486H296.811V823.757Z" fill="black"/>
<path d="M298.541 823.757H296.811V825.486H298.541V823.757Z" fill="black"/>
<path d="M243.189 825.486H241.459V827.216H243.189V825.486Z" fill="black"/>
<path d="M246.649 825.486H244.919V827.216H246.649V825.486Z" fill="black"/>
<path d="M250.108 825.486H248.378V827.216H250.108V825.486Z" fill="black"/>
<path d="M255.297 825.486H253.568V827.216H255.297V825.486Z" fill="black"/>
<path d="M258.757 825.486H257.027V827.216H258.757V825.486Z" fill="black"/>
<path d="M260.487 825.486H258.757V827.216H260.487V825.486Z" fill="black"/>
<path d="M262.216 825.486H260.487V827.216H262.216V825.486Z" fill="black"/>
<path d="M263.946 825.486H262.216V827.216H263.946V825.486Z" fill="black"/>
<path d="M265.676 825.486H263.946V827.216H265.676V825.486Z" fill="black"/>
<path d="M269.135 825.486H267.406V827.216H269.135V825.486Z" fill="black"/>
<path d="M274.324 825.486H272.595V827.216H274.324V825.486Z" fill="black"/>
<path d="M276.054 825.486H274.324V827.216H276.054V825.486Z" fill="black"/>
<path d="M277.784 825.486H276.054V827.216H277.784V825.486Z" fill="black"/>
<path d="M279.513 825.486H277.784V827.216H279.513V825.486Z" fill="black"/>
<path d="M281.243 825.486H279.513V827.216H281.243V825.486Z" fill="black"/>
<path d="M284.703 825.486H282.973V827.216H284.703V825.486Z" fill="black"/>
<path d="M286.432 825.486H284.703V827.216H286.432V825.486Z" fill="black"/>
<path d="M296.811 825.486H295.081V827.216H296.811V825.486Z" fill="black"/>
<path d="M243.189 827.216H241.459V828.946H243.189V827.216Z" fill="black"/>
<path d="M244.919 827.216H243.189V828.946H244.919V827.216Z" fill="black"/>
<path d="M248.378 827.216H246.649V828.946H248.378V827.216Z" fill="black"/>
<path d="M250.108 827.216H248.378V828.946H250.108V827.216Z" fill="black"/>
<path d="M253.568 827.216H251.838V828.946H253.568V827.216Z" fill="black"/>
<path d="M255.297 827.216H253.568V828.946H255.297V827.216Z" fill="black"/>
<path d="M258.757 827.216H257.027V828.946H258.757V827.216Z" fill="black"/>
<path d="M260.487 827.216H258.757V828.946H260.487V827.216Z" fill="black"/>
<path d="M265.676 827.216H263.946V828.946H265.676V827.216Z" fill="black"/>
<path d="M267.406 827.216H265.676V828.946H267.406V827.216Z" fill="black"/>
<path d="M269.135 827.216H267.406V828.946H269.135V827.216Z" fill="black"/>
<path d="M274.324 827.216H272.595V828.946H274.324V827.216Z" fill="black"/>
<path d="M276.054 827.216H274.324V828.946H276.054V827.216Z" fill="black"/>
<path d="M281.243 827.216H279.513V828.946H281.243V827.216Z" fill="black"/>
<path d="M282.973 827.216H281.243V828.946H282.973V827.216Z" fill="black"/>
<path d="M284.703 827.216H282.973V828.946H284.703V827.216Z" fill="black"/>
<path d="M286.432 827.216H284.703V828.946H286.432V827.216Z" fill="black"/>
<path d="M288.162 827.216H286.432V828.946H288.162V827.216Z" fill="black"/>
<path d="M289.892 827.216H288.162V828.946H289.892V827.216Z" fill="black"/>
<path d="M291.622 827.216H289.892V828.946H291.622V827.216Z" fill="black"/>
<path d="M296.811 827.216H295.081V828.946H296.811V827.216Z" fill="black"/>
<path d="M298.541 827.216H296.811V828.946H298.541V827.216Z" fill="black"/>
<path d="M246.649 828.946H244.919V830.676H246.649V828.946Z" fill="black"/>
<path d="M248.378 828.946H246.649V830.676H248.378V828.946Z" fill="black"/>
<path d="M250.108 828.946H248.378V830.676H250.108V828.946Z" fill="black"/>
<path d="M251.838 828.946H250.108V830.676H251.838V828.946Z" fill="black"/>
<path d="M263.946 828.946H262.216V830.676H263.946V828.946Z" fill="black"/>
<path d="M265.676 828.946H263.946V830.676H265.676V828.946Z" fill="black"/>
<path d="M270.865 828.946H269.135V830.676H270.865V828.946Z" fill="black"/>
<path d="M272.595 828.946H270.865V830.676H272.595V828.946Z" fill="black"/>
<path d="M276.054 828.946H274.324V830.676H276.054V828.946Z" fill="black"/>
<path d="M277.784 828.946H276.054V830.676H277.784V828.946Z" fill="black"/>
<path d="M281.243 828.946H279.513V830.676H281.243V828.946Z" fill="black"/>
<path d="M284.703 828.946H282.973V830.676H284.703V828.946Z" fill="black"/>
<path d="M286.432 828.946H284.703V830.676H286.432V828.946Z" fill="black"/>
<path d="M288.162 828.946H286.432V830.676H288.162V828.946Z" fill="black"/>
<path d="M289.892 828.946H288.162V830.676H289.892V828.946Z" fill="black"/>
<path d="M296.811 828.946H295.081V830.676H296.811V828.946Z" fill="black"/>
<path d="M298.541 828.946H296.811V830.676H298.541V828.946Z" fill="black"/>
<path d="M243.189 830.676H241.459V832.405H243.189V830.676Z" fill="black"/>
<path d="M248.378 830.676H246.649V832.405H248.378V830.676Z" fill="black"/>
<path d="M251.838 830.676H250.108V832.405H251.838V830.676Z" fill="black"/>
<path d="M253.568 830.676H251.838V832.405H253.568V830.676Z" fill="black"/>
<path d="M257.027 830.676H255.297V832.405H257.027V830.676Z" fill="black"/>
<path d="M258.757 830.676H257.027V832.405H258.757V830.676Z" fill="black"/>
<path d="M260.487 830.676H258.757V832.405H260.487V830.676Z" fill="black"/>
<path d="M262.216 830.676H260.487V832.405H262.216V830.676Z" fill="black"/>
<path d="M274.324 830.676H272.595V832.405H274.324V830.676Z" fill="black"/>
<path d="M279.513 830.676H277.784V832.405H279.513V830.676Z" fill="black"/>
<path d="M284.703 830.676H282.973V832.405H284.703V830.676Z" fill="black"/>
<path d="M286.432 830.676H284.703V832.405H286.432V830.676Z" fill="black"/>
<path d="M288.162 830.676H286.432V832.405H288.162V830.676Z" fill="black"/>
<path d="M289.892 830.676H288.162V832.405H289.892V830.676Z" fill="black"/>
<path d="M291.622 830.676H289.892V832.405H291.622V830.676Z" fill="black"/>
<path d="M293.351 830.676H291.622V832.405H293.351V830.676Z" fill="black"/>
<path d="M295.081 830.676H293.351V832.405H295.081V830.676Z" fill="black"/>
<path d="M296.811 830.676H295.081V832.405H296.811V830.676Z" fill="black"/>
<path d="M298.541 830.676H296.811V832.405H298.541V830.676Z" fill="black"/>
<path d="M248.378 832.405H246.649V834.135H248.378V832.405Z" fill="black"/>
<path d="M250.108 832.405H248.378V834.135H250.108V832.405Z" fill="black"/>
<path d="M255.297 832.405H253.568V834.135H255.297V832.405Z" fill="black"/>
<path d="M260.487 832.405H258.757V834.135H260.487V832.405Z" fill="black"/>
<path d="M263.946 832.405H262.216V834.135H263.946V832.405Z" fill="black"/>
<path d="M265.676 832.405H263.946V834.135H265.676V832.405Z" fill="black"/>
<path d="M267.406 832.405H265.676V834.135H267.406V832.405Z" fill="black"/>
<path d="M269.135 832.405H267.406V834.135H269.135V832.405Z" fill="black"/>
<path d="M270.865 832.405H269.135V834.135H270.865V832.405Z" fill="black"/>
<path d="M277.784 832.405H276.054V834.135H277.784V832.405Z" fill="black"/>
<path d="M279.513 832.405H277.784V834.135H279.513V832.405Z" fill="black"/>
<path d="M281.243 832.405H279.513V834.135H281.243V832.405Z" fill="black"/>
<path d="M289.892 832.405H288.162V834.135H289.892V832.405Z" fill="black"/>
<path d="M293.351 832.405H291.622V834.135H293.351V832.405Z" fill="black"/>
<path d="M298.541 832.405H296.811V834.135H298.541V832.405Z" fill="black"/>
<path d="M246.649 834.135H244.919V835.865H246.649V834.135Z" fill="black"/>
<path d="M248.378 834.135H246.649V835.865H248.378V834.135Z" fill="black"/>
<path d="M251.838 834.135H250.108V835.865H251.838V834.135Z" fill="black"/>
<path d="M253.568 834.135H251.838V835.865H253.568V834.135Z" fill="black"/>
<path d="M262.216 834.135H260.487V835.865H262.216V834.135Z" fill="black"/>
<path d="M263.946 834.135H262.216V835.865H263.946V834.135Z" fill="black"/>
<path d="M270.865 834.135H269.135V835.865H270.865V834.135Z" fill="black"/>
<path d="M272.595 834.135H270.865V835.865H272.595V834.135Z" fill="black"/>
<path d="M276.054 834.135H274.324V835.865H276.054V834.135Z" fill="black"/>
<path d="M279.513 834.135H277.784V835.865H279.513V834.135Z" fill="black"/>
<path d="M281.243 834.135H279.513V835.865H281.243V834.135Z" fill="black"/>
<path d="M286.432 834.135H284.703V835.865H286.432V834.135Z" fill="black"/>
<path d="M288.162 834.135H286.432V835.865H288.162V834.135Z" fill="black"/>
<path d="M295.081 834.135H293.351V835.865H295.081V834.135Z" fill="black"/>
<path d="M243.189 835.865H241.459V837.595H243.189V835.865Z" fill="black"/>
<path d="M246.649 835.865H244.919V837.595H246.649V835.865Z" fill="black"/>
<path d="M250.108 835.865H248.378V837.595H250.108V835.865Z" fill="black"/>
<path d="M251.838 835.865H250.108V837.595H251.838V835.865Z" fill="black"/>
<path d="M255.297 835.865H253.568V837.595H255.297V835.865Z" fill="black"/>
<path d="M258.757 835.865H257.027V837.595H258.757V835.865Z" fill="black"/>
<path d="M265.676 835.865H263.946V837.595H265.676V835.865Z" fill="black"/>
<path d="M267.406 835.865H265.676V837.595H267.406V835.865Z" fill="black"/>
<path d="M269.135 835.865H267.406V837.595H269.135V835.865Z" fill="black"/>
<path d="M272.595 835.865H270.865V837.595H272.595V835.865Z" fill="black"/>
<path d="M276.054 835.865H274.324V837.595H276.054V835.865Z" fill="black"/>
<path d="M277.784 835.865H276.054V837.595H277.784V835.865Z" fill="black"/>
<path d="M288.162 835.865H286.432V837.595H288.162V835.865Z" fill="black"/>
<path d="M293.351 835.865H291.622V837.595H293.351V835.865Z" fill="black"/>
<path d="M295.081 835.865H293.351V837.595H295.081V835.865Z" fill="black"/>
<path d="M296.811 835.865H295.081V837.595H296.811V835.865Z" fill="black"/>
<path d="M298.541 835.865H296.811V837.595H298.541V835.865Z" fill="black"/>
<path d="M244.919 837.595H243.189V839.324H244.919V837.595Z" fill="black"/>
<path d="M246.649 837.595H244.919V839.324H246.649V837.595Z" fill="black"/>
<path d="M250.108 837.595H248.378V839.324H250.108V837.595Z" fill="black"/>
<path d="M251.838 837.595H250.108V839.324H251.838V837.595Z" fill="black"/>
<path d="M253.568 837.595H251.838V839.324H253.568V837.595Z" fill="black"/>
<path d="M258.757 837.595H257.027V839.324H258.757V837.595Z" fill="black"/>
<path d="M260.487 837.595H258.757V839.324H260.487V837.595Z" fill="black"/>
<path d="M262.216 837.595H260.487V839.324H262.216V837.595Z" fill="black"/>
<path d="M265.676 837.595H263.946V839.324H265.676V837.595Z" fill="black"/>
<path d="M267.406 837.595H265.676V839.324H267.406V837.595Z" fill="black"/>
<path d="M276.054 837.595H274.324V839.324H276.054V837.595Z" fill="black"/>
<path d="M279.513 837.595H277.784V839.324H279.513V837.595Z" fill="black"/>
<path d="M286.432 837.595H284.703V839.324H286.432V837.595Z" fill="black"/>
<path d="M295.081 837.595H293.351V839.324H295.081V837.595Z" fill="black"/>
<path d="M296.811 837.595H295.081V839.324H296.811V837.595Z" fill="black"/>
<path d="M298.541 837.595H296.811V839.324H298.541V837.595Z" fill="black"/>
<path d="M243.189 839.324H241.459V841.054H243.189V839.324Z" fill="black"/>
<path d="M244.919 839.324H243.189V841.054H244.919V839.324Z" fill="black"/>
<path d="M250.108 839.324H248.378V841.054H250.108V839.324Z" fill="black"/>
<path d="M255.297 839.324H253.568V841.054H255.297V839.324Z" fill="black"/>
<path d="M257.027 839.324H255.297V841.054H257.027V839.324Z" fill="black"/>
<path d="M262.216 839.324H260.487V841.054H262.216V839.324Z" fill="black"/>
<path d="M265.676 839.324H263.946V841.054H265.676V839.324Z" fill="black"/>
<path d="M269.135 839.324H267.406V841.054H269.135V839.324Z" fill="black"/>
<path d="M270.865 839.324H269.135V841.054H270.865V839.324Z" fill="black"/>
<path d="M276.054 839.324H274.324V841.054H276.054V839.324Z" fill="black"/>
<path d="M279.513 839.324H277.784V841.054H279.513V839.324Z" fill="black"/>
<path d="M286.432 839.324H284.703V841.054H286.432V839.324Z" fill="black"/>
<path d="M288.162 839.324H286.432V841.054H288.162V839.324Z" fill="black"/>
<path d="M296.811 839.324H295.081V841.054H296.811V839.324Z" fill="black"/>
<path d="M298.541 839.324H296.811V841.054H298.541V839.324Z" fill="black"/>
<path d="M243.189 841.054H241.459V842.784H243.189V841.054Z" fill="black"/>
<path d="M244.919 841.054H243.189V842.784H244.919V841.054Z" fill="black"/>
<path d="M246.649 841.054H244.919V842.784H246.649V841.054Z" fill="black"/>
<path d="M251.838 841.054H250.108V842.784H251.838V841.054Z" fill="black"/>
<path d="M253.568 841.054H251.838V842.784H253.568V841.054Z" fill="black"/>
<path d="M257.027 841.054H255.297V842.784H257.027V841.054Z" fill="black"/>
<path d="M258.757 841.054H257.027V842.784H258.757V841.054Z" fill="black"/>
<path d="M274.324 841.054H272.595V842.784H274.324V841.054Z" fill="black"/>
<path d="M276.054 841.054H274.324V842.784H276.054V841.054Z" fill="black"/>
<path d="M279.513 841.054H277.784V842.784H279.513V841.054Z" fill="black"/>
<path d="M281.243 841.054H279.513V842.784H281.243V841.054Z" fill="black"/>
<path d="M286.432 841.054H284.703V842.784H286.432V841.054Z" fill="black"/>
<path d="M293.351 841.054H291.622V842.784H293.351V841.054Z" fill="black"/>
<path d="M296.811 841.054H295.081V842.784H296.811V841.054Z" fill="black"/>
<path d="M298.541 841.054H296.811V842.784H298.541V841.054Z" fill="black"/>
<path d="M244.919 842.784H243.189V844.514H244.919V842.784Z" fill="black"/>
<path d="M246.649 842.784H244.919V844.514H246.649V842.784Z" fill="black"/>
<path d="M250.108 842.784H248.378V844.514H250.108V842.784Z" fill="black"/>
<path d="M260.487 842.784H258.757V844.514H260.487V842.784Z" fill="black"/>
<path d="M262.216 842.784H260.487V844.514H262.216V842.784Z" fill="black"/>
<path d="M263.946 842.784H262.216V844.514H263.946V842.784Z" fill="black"/>
<path d="M270.865 842.784H269.135V844.514H270.865V842.784Z" fill="black"/>
<path d="M276.054 842.784H274.324V844.514H276.054V842.784Z" fill="black"/>
<path d="M277.784 842.784H276.054V844.514H277.784V842.784Z" fill="black"/>
<path d="M281.243 842.784H279.513V844.514H281.243V842.784Z" fill="black"/>
<path d="M282.973 842.784H281.243V844.514H282.973V842.784Z" fill="black"/>
<path d="M286.432 842.784H284.703V844.514H286.432V842.784Z" fill="black"/>
<path d="M296.811 842.784H295.081V844.514H296.811V842.784Z" fill="black"/>
<path d="M298.541 842.784H296.811V844.514H298.541V842.784Z" fill="black"/>
<path d="M243.189 844.514H241.459V846.243H243.189V844.514Z" fill="black"/>
<path d="M250.108 844.514H248.378V846.243H250.108V844.514Z" fill="black"/>
<path d="M253.568 844.514H251.838V846.243H253.568V844.514Z" fill="black"/>
<path d="M255.297 844.514H253.568V846.243H255.297V844.514Z" fill="black"/>
<path d="M260.487 844.514H258.757V846.243H260.487V844.514Z" fill="black"/>
<path d="M262.216 844.514H260.487V846.243H262.216V844.514Z" fill="black"/>
<path d="M263.946 844.514H262.216V846.243H263.946V844.514Z" fill="black"/>
<path d="M265.676 844.514H263.946V846.243H265.676V844.514Z" fill="black"/>
<path d="M267.406 844.514H265.676V846.243H267.406V844.514Z" fill="black"/>
<path d="M269.135 844.514H267.406V846.243H269.135V844.514Z" fill="black"/>
<path d="M274.324 844.514H272.595V846.243H274.324V844.514Z" fill="black"/>
<path d="M276.054 844.514H274.324V846.243H276.054V844.514Z" fill="black"/>
<path d="M281.243 844.514H279.513V846.243H281.243V844.514Z" fill="black"/>
<path d="M288.162 844.514H286.432V846.243H288.162V844.514Z" fill="black"/>
<path d="M289.892 844.514H288.162V846.243H289.892V844.514Z" fill="black"/>
<path d="M293.351 844.514H291.622V846.243H293.351V844.514Z" fill="black"/>
<path d="M295.081 844.514H293.351V846.243H295.081V844.514Z" fill="black"/>
<path d="M296.811 844.514H295.081V846.243H296.811V844.514Z" fill="black"/>
<path d="M298.541 844.514H296.811V846.243H298.541V844.514Z" fill="black"/>
<path d="M244.919 846.243H243.189V847.973H244.919V846.243Z" fill="black"/>
<path d="M246.649 846.243H244.919V847.973H246.649V846.243Z" fill="black"/>
<path d="M260.487 846.243H258.757V847.973H260.487V846.243Z" fill="black"/>
<path d="M262.216 846.243H260.487V847.973H262.216V846.243Z" fill="black"/>
<path d="M267.406 846.243H265.676V847.973H267.406V846.243Z" fill="black"/>
<path d="M269.135 846.243H267.406V847.973H269.135V846.243Z" fill="black"/>
<path d="M270.865 846.243H269.135V847.973H270.865V846.243Z" fill="black"/>
<path d="M272.595 846.243H270.865V847.973H272.595V846.243Z" fill="black"/>
<path d="M274.324 846.243H272.595V847.973H274.324V846.243Z" fill="black"/>
<path d="M279.513 846.243H277.784V847.973H279.513V846.243Z" fill="black"/>
<path d="M281.243 846.243H279.513V847.973H281.243V846.243Z" fill="black"/>
<path d="M282.973 846.243H281.243V847.973H282.973V846.243Z" fill="black"/>
<path d="M286.432 846.243H284.703V847.973H286.432V846.243Z" fill="black"/>
<path d="M289.892 846.243H288.162V847.973H289.892V846.243Z" fill="black"/>
<path d="M298.541 846.243H296.811V847.973H298.541V846.243Z" fill="black"/>
<path d="M243.189 847.973H241.459V849.703H243.189V847.973Z" fill="black"/>
<path d="M246.649 847.973H244.919V849.703H246.649V847.973Z" fill="black"/>
<path d="M248.378 847.973H246.649V849.703H248.378V847.973Z" fill="black"/>
<path d="M253.568 847.973H251.838V849.703H253.568V847.973Z" fill="black"/>
<path d="M255.297 847.973H253.568V849.703H255.297V847.973Z" fill="black"/>
<path d="M257.027 847.973H255.297V849.703H257.027V847.973Z" fill="black"/>
<path d="M260.487 847.973H258.757V849.703H260.487V847.973Z" fill="black"/>
<path d="M262.216 847.973H260.487V849.703H262.216V847.973Z" fill="black"/>
<path d="M265.676 847.973H263.946V849.703H265.676V847.973Z" fill="black"/>
<path d="M269.135 847.973H267.406V849.703H269.135V847.973Z" fill="black"/>
<path d="M274.324 847.973H272.595V849.703H274.324V847.973Z" fill="black"/>
<path d="M279.513 847.973H277.784V849.703H279.513V847.973Z" fill="black"/>
<path d="M284.703 847.973H282.973V849.703H284.703V847.973Z" fill="black"/>
<path d="M286.432 847.973H284.703V849.703H286.432V847.973Z" fill="black"/>
<path d="M288.162 847.973H286.432V849.703H288.162V847.973Z" fill="black"/>
<path d="M289.892 847.973H288.162V849.703H289.892V847.973Z" fill="black"/>
<path d="M291.622 847.973H289.892V849.703H291.622V847.973Z" fill="black"/>
<path d="M298.541 847.973H296.811V849.703H298.541V847.973Z" fill="black"/>
<path d="M257.027 849.703H255.297V851.432H257.027V849.703Z" fill="black"/>
<path d="M260.487 849.703H258.757V851.432H260.487V849.703Z" fill="black"/>
<path d="M262.216 849.703H260.487V851.432H262.216V849.703Z" fill="black"/>
<path d="M269.135 849.703H267.406V851.432H269.135V849.703Z" fill="black"/>
<path d="M270.865 849.703H269.135V851.432H270.865V849.703Z" fill="black"/>
<path d="M272.595 849.703H270.865V851.432H272.595V849.703Z" fill="black"/>
<path d="M277.784 849.703H276.054V851.432H277.784V849.703Z" fill="black"/>
<path d="M282.973 849.703H281.243V851.432H282.973V849.703Z" fill="black"/>
<path d="M284.703 849.703H282.973V851.432H284.703V849.703Z" fill="black"/>
<path d="M291.622 849.703H289.892V851.432H291.622V849.703Z" fill="black"/>
<path d="M296.811 849.703H295.081V851.432H296.811V849.703Z" fill="black"/>
<path d="M298.541 849.703H296.811V851.432H298.541V849.703Z" fill="black"/>
<path d="M243.189 851.432H241.459V853.162H243.189V851.432Z" fill="black"/>
<path d="M244.919 851.432H243.189V853.162H244.919V851.432Z" fill="black"/>
<path d="M246.649 851.432H244.919V853.162H246.649V851.432Z" fill="black"/>
<path d="M248.378 851.432H246.649V853.162H248.378V851.432Z" fill="black"/>
<path d="M250.108 851.432H248.378V853.162H250.108V851.432Z" fill="black"/>
<path d="M251.838 851.432H250.108V853.162H251.838V851.432Z" fill="black"/>
<path d="M253.568 851.432H251.838V853.162H253.568V851.432Z" fill="black"/>
<path d="M258.757 851.432H257.027V853.162H258.757V851.432Z" fill="black"/>
<path d="M265.676 851.432H263.946V853.162H265.676V851.432Z" fill="black"/>
<path d="M269.135 851.432H267.406V853.162H269.135V851.432Z" fill="black"/>
<path d="M272.595 851.432H270.865V853.162H272.595V851.432Z" fill="black"/>
<path d="M274.324 851.432H272.595V853.162H274.324V851.432Z" fill="black"/>
<path d="M276.054 851.432H274.324V853.162H276.054V851.432Z" fill="black"/>
<path d="M279.513 851.432H277.784V853.162H279.513V851.432Z" fill="black"/>
<path d="M282.973 851.432H281.243V853.162H282.973V851.432Z" fill="black"/>
<path d="M284.703 851.432H282.973V853.162H284.703V851.432Z" fill="black"/>
<path d="M288.162 851.432H286.432V853.162H288.162V851.432Z" fill="black"/>
<path d="M291.622 851.432H289.892V853.162H291.622V851.432Z" fill="black"/>
<path d="M293.351 851.432H291.622V853.162H293.351V851.432Z" fill="black"/>
<path d="M295.081 851.432H293.351V853.162H295.081V851.432Z" fill="black"/>
<path d="M296.811 851.432H295.081V853.162H296.811V851.432Z" fill="black"/>
<path d="M298.541 851.432H296.811V853.162H298.541V851.432Z" fill="black"/>
<path d="M243.189 853.162H241.459V854.892H243.189V853.162Z" fill="black"/>
<path d="M253.568 853.162H251.838V854.892H253.568V853.162Z" fill="black"/>
<path d="M257.027 853.162H255.297V854.892H257.027V853.162Z" fill="black"/>
<path d="M260.487 853.162H258.757V854.892H260.487V853.162Z" fill="black"/>
<path d="M267.406 853.162H265.676V854.892H267.406V853.162Z" fill="black"/>
<path d="M269.135 853.162H267.406V854.892H269.135V853.162Z" fill="black"/>
<path d="M272.595 853.162H270.865V854.892H272.595V853.162Z" fill="black"/>
<path d="M274.324 853.162H272.595V854.892H274.324V853.162Z" fill="black"/>
<path d="M276.054 853.162H274.324V854.892H276.054V853.162Z" fill="black"/>
<path d="M282.973 853.162H281.243V854.892H282.973V853.162Z" fill="black"/>
<path d="M284.703 853.162H282.973V854.892H284.703V853.162Z" fill="black"/>
<path d="M291.622 853.162H289.892V854.892H291.622V853.162Z" fill="black"/>
<path d="M298.541 853.162H296.811V854.892H298.541V853.162Z" fill="black"/>
<path d="M243.189 854.892H241.459V856.622H243.189V854.892Z" fill="black"/>
<path d="M246.649 854.892H244.919V856.622H246.649V854.892Z" fill="black"/>
<path d="M248.378 854.892H246.649V856.622H248.378V854.892Z" fill="black"/>
<path d="M250.108 854.892H248.378V856.622H250.108V854.892Z" fill="black"/>
<path d="M253.568 854.892H251.838V856.622H253.568V854.892Z" fill="black"/>
<path d="M257.027 854.892H255.297V856.622H257.027V854.892Z" fill="black"/>
<path d="M258.757 854.892H257.027V856.622H258.757V854.892Z" fill="black"/>
<path d="M262.216 854.892H260.487V856.622H262.216V854.892Z" fill="black"/>
<path d="M263.946 854.892H262.216V856.622H263.946V854.892Z" fill="black"/>
<path d="M265.676 854.892H263.946V856.622H265.676V854.892Z" fill="black"/>
<path d="M272.595 854.892H270.865V856.622H272.595V854.892Z" fill="black"/>
<path d="M274.324 854.892H272.595V856.622H274.324V854.892Z" fill="black"/>
<path d="M276.054 854.892H274.324V856.622H276.054V854.892Z" fill="black"/>
<path d="M284.703 854.892H282.973V856.622H284.703V854.892Z" fill="black"/>
<path d="M286.432 854.892H284.703V856.622H286.432V854.892Z" fill="black"/>
<path d="M288.162 854.892H286.432V856.622H288.162V854.892Z" fill="black"/>
<path d="M289.892 854.892H288.162V856.622H289.892V854.892Z" fill="black"/>
<path d="M291.622 854.892H289.892V856.622H291.622V854.892Z" fill="black"/>
<path d="M293.351 854.892H291.622V856.622H293.351V854.892Z" fill="black"/>
<path d="M296.811 854.892H295.081V856.622H296.811V854.892Z" fill="black"/>
<path d="M243.189 856.622H241.459V858.351H243.189V856.622Z" fill="black"/>
<path d="M246.649 856.622H244.919V858.351H246.649V856.622Z" fill="black"/>
<path d="M248.378 856.622H246.649V858.351H248.378V856.622Z" fill="black"/>
<path d="M250.108 856.622H248.378V858.351H250.108V856.622Z" fill="black"/>
<path d="M253.568 856.622H251.838V858.351H253.568V856.622Z" fill="black"/>
<path d="M262.216 856.622H260.487V858.351H262.216V856.622Z" fill="black"/>
<path d="M263.946 856.622H262.216V858.351H263.946V856.622Z" fill="black"/>
<path d="M265.676 856.622H263.946V858.351H265.676V856.622Z" fill="black"/>
<path d="M269.135 856.622H267.406V858.351H269.135V856.622Z" fill="black"/>
<path d="M272.595 856.622H270.865V858.351H272.595V856.622Z" fill="black"/>
<path d="M276.054 856.622H274.324V858.351H276.054V856.622Z" fill="black"/>
<path d="M277.784 856.622H276.054V858.351H277.784V856.622Z" fill="black"/>
<path d="M282.973 856.622H281.243V858.351H282.973V856.622Z" fill="black"/>
<path d="M284.703 856.622H282.973V858.351H284.703V856.622Z" fill="black"/>
<path d="M291.622 856.622H289.892V858.351H291.622V856.622Z" fill="black"/>
<path d="M295.081 856.622H293.351V858.351H295.081V856.622Z" fill="black"/>
<path d="M243.189 858.351H241.459V860.081H243.189V858.351Z" fill="black"/>
<path d="M246.649 858.351H244.919V860.081H246.649V858.351Z" fill="black"/>
<path d="M248.378 858.351H246.649V860.081H248.378V858.351Z" fill="black"/>
<path d="M250.108 858.351H248.378V860.081H250.108V858.351Z" fill="black"/>
<path d="M253.568 858.351H251.838V860.081H253.568V858.351Z" fill="black"/>
<path d="M257.027 858.351H255.297V860.081H257.027V858.351Z" fill="black"/>
<path d="M258.757 858.351H257.027V860.081H258.757V858.351Z" fill="black"/>
<path d="M260.487 858.351H258.757V860.081H260.487V858.351Z" fill="black"/>
<path d="M262.216 858.351H260.487V860.081H262.216V858.351Z" fill="black"/>
<path d="M265.676 858.351H263.946V860.081H265.676V858.351Z" fill="black"/>
<path d="M267.406 858.351H265.676V860.081H267.406V858.351Z" fill="black"/>
<path d="M270.865 858.351H269.135V860.081H270.865V858.351Z" fill="black"/>
<path d="M276.054 858.351H274.324V860.081H276.054V858.351Z" fill="black"/>
<path d="M277.784 858.351H276.054V860.081H277.784V858.351Z" fill="black"/>
<path d="M279.513 858.351H277.784V860.081H279.513V858.351Z" fill="black"/>
<path d="M284.703 858.351H282.973V860.081H284.703V858.351Z" fill="black"/>
<path d="M286.432 858.351H284.703V860.081H286.432V858.351Z" fill="black"/>
<path d="M289.892 858.351H288.162V860.081H289.892V858.351Z" fill="black"/>
<path d="M291.622 858.351H289.892V860.081H291.622V858.351Z" fill="black"/>
<path d="M298.541 858.351H296.811V860.081H298.541V858.351Z" fill="black"/>
<path d="M243.189 860.081H241.459V861.811H243.189V860.081Z" fill="black"/>
<path d="M253.568 860.081H251.838V861.811H253.568V860.081Z" fill="black"/>
<path d="M262.216 860.081H260.487V861.811H262.216V860.081Z" fill="black"/>
<path d="M265.676 860.081H263.946V861.811H265.676V860.081Z" fill="black"/>
<path d="M269.135 860.081H267.406V861.811H269.135V860.081Z" fill="black"/>
<path d="M279.513 860.081H277.784V861.811H279.513V860.081Z" fill="black"/>
<path d="M281.243 860.081H279.513V861.811H281.243V860.081Z" fill="black"/>
<path d="M284.703 860.081H282.973V861.811H284.703V860.081Z" fill="black"/>
<path d="M286.432 860.081H284.703V861.811H286.432V860.081Z" fill="black"/>
<path d="M289.892 860.081H288.162V861.811H289.892V860.081Z" fill="black"/>
<path d="M295.081 860.081H293.351V861.811H295.081V860.081Z" fill="black"/>
<path d="M296.811 860.081H295.081V861.811H296.811V860.081Z" fill="black"/>
<path d="M243.189 861.811H241.459V863.541H243.189V861.811Z" fill="black"/>
<path d="M244.919 861.811H243.189V863.541H244.919V861.811Z" fill="black"/>
<path d="M246.649 861.811H244.919V863.541H246.649V861.811Z" fill="black"/>
<path d="M248.378 861.811H246.649V863.541H248.378V861.811Z" fill="black"/>
<path d="M250.108 861.811H248.378V863.541H250.108V861.811Z" fill="black"/>
<path d="M251.838 861.811H250.108V863.541H251.838V861.811Z" fill="black"/>
<path d="M253.568 861.811H251.838V863.541H253.568V861.811Z" fill="black"/>
<path d="M260.487 861.811H258.757V863.541H260.487V861.811Z" fill="black"/>
<path d="M262.216 861.811H260.487V863.541H262.216V861.811Z" fill="black"/>
<path d="M263.946 861.811H262.216V863.541H263.946V861.811Z" fill="black"/>
<path d="M269.135 861.811H267.406V863.541H269.135V861.811Z" fill="black"/>
<path d="M279.513 861.811H277.784V863.541H279.513V861.811Z" fill="black"/>
<path d="M282.973 861.811H281.243V863.541H282.973V861.811Z" fill="black"/>
<path d="M284.703 861.811H282.973V863.541H284.703V861.811Z" fill="black"/>
<path d="M286.432 861.811H284.703V863.541H286.432V861.811Z" fill="black"/>
<path d="M288.162 861.811H286.432V863.541H288.162V861.811Z" fill="black"/>
<path d="M289.892 861.811H288.162V863.541H289.892V861.811Z" fill="black"/>
<path d="M291.622 861.811H289.892V863.541H291.622V861.811Z" fill="black"/>
<path d="M295.081 861.811H293.351V863.541H295.081V861.811Z" fill="black"/>
<path d="M296.811 861.811H295.081V863.541H296.811V861.811Z" fill="black"/>
<path d="M298.541 861.811H296.811V863.541H298.541V861.811Z" fill="black"/>
</g>
<path d="M209.84 155.464V161.992H265.968V155.464H209.84ZM213.936 165.896V172.36H263.088V165.896H213.936ZM219.824 188.872V195.336H256.88V188.872H219.824ZM220.016 175.88V182.152H254.448V198.728H262.128V175.88H220.016ZM214.96 175.88V183.816C214.96 190.408 214.192 199.432 207.152 205.896C208.816 206.856 212.016 209.608 213.168 211.08C220.976 203.784 222.576 192.136 222.576 183.944V175.88H214.96ZM233.904 150.6V169.352H241.712V150.6H233.904ZM234.16 178.056V192.904H241.584V178.056H234.16ZM278.448 154.184V161.096H289.712V186.44H278.448V193.48H296.816V154.184H278.448ZM278.512 170.184V177.032H292.528V170.184H278.512ZM305.84 153.224V160.328H325.488V153.224H305.84ZM305.84 168.52V175.432H325.488V168.52H305.84ZM305.712 183.688V190.536H325.424V183.688H305.712ZM274.352 154.184V199.048H281.456V154.184H274.352ZM322.608 153.224V201.864C322.608 203.016 322.224 203.4 321.072 203.4C319.984 203.4 316.08 203.464 312.624 203.272C313.712 205.256 314.928 208.584 315.248 210.696C320.688 210.696 324.336 210.504 326.896 209.288C329.392 208.072 330.224 205.96 330.224 201.992V153.224H322.608ZM301.232 153.224V176.392C301.232 186.184 300.272 198.216 289.456 206.088C291.12 207.112 294.064 209.736 295.216 211.272C307.056 202.568 308.784 187.528 308.784 176.456V153.224H301.232Z" fill="url(#paint0_linear_11526_62731)"/>
<path d="M115.505 278.8V281.68H141.815V278.8H115.505ZM120.395 292.27V295.15H136.775V292.27H120.395ZM127.115 272.71V300.52H130.115V272.71H127.115ZM124.565 279.79C122.645 285.34 118.835 290.86 114.575 293.59C115.235 294.16 116.165 295.18 116.675 295.9C121.145 292.63 124.955 286.87 127.145 280.57L124.565 279.79ZM132.575 279.88L130.025 280.63C132.185 286.87 135.935 292.63 140.435 295.81C140.945 295 141.935 293.89 142.685 293.32C138.305 290.65 134.495 285.34 132.575 279.88ZM156.875 272.77C156.755 277.6 157.115 291.76 144.725 298.18C145.625 298.81 146.555 299.71 147.065 300.46C159.725 293.38 159.935 278.47 160.085 272.77H156.875ZM159.785 276.43L157.055 276.73C157.475 279.52 158.615 294.61 170.675 300.31C171.095 299.5 171.905 298.54 172.745 297.88C161.135 292.69 160.025 278.71 159.785 276.43ZM180.245 278.74H197.135V284.26H180.245V278.74ZM177.395 276.55V286.45H200.105V276.55H177.395ZM187.205 278.08V285.31H189.875V278.08H187.205ZM181.205 280C182.285 281.17 183.485 282.76 183.965 283.87L185.795 282.7C185.285 281.65 184.055 280.09 182.945 279.01L181.205 280ZM193.925 279.07C193.265 280.24 192.035 281.95 191.135 283L192.905 283.9C193.835 282.91 194.975 281.44 195.965 280.06L193.925 279.07ZM181.295 292.6V294.61H196.145V292.6H181.295ZM181.265 296.92V299.11H196.115V296.92H181.265ZM180.845 273.46C181.745 274.48 182.795 275.92 183.245 276.82L185.825 275.77C185.315 274.84 184.205 273.49 183.305 272.53L180.845 273.46ZM193.685 272.47C192.995 273.82 191.735 275.68 190.685 276.88L193.025 277.66C194.075 276.55 195.425 274.9 196.595 273.28L193.685 272.47ZM179.375 288.22V300.61H182.315V290.35H195.215V300.49H198.245V288.22H179.375ZM221.885 295.12V297.85H229.835V295.12H221.885ZM205.175 278.23V281.02H216.485V278.23H205.175ZM220.625 276.28V300.01H223.355V279.04H228.305V299.8H231.155V276.28H220.625ZM215.765 278.23V278.89C215.525 291.43 215.285 295.81 214.625 296.71C214.355 297.13 214.055 297.25 213.605 297.22C213.065 297.22 211.865 297.22 210.545 297.1C211.025 297.91 211.325 299.14 211.355 299.95C212.735 300.04 214.085 300.04 214.955 299.89C215.885 299.74 216.485 299.44 217.085 298.57C218.045 297.22 218.255 292.72 218.495 279.61C218.495 279.22 218.495 278.23 218.495 278.23H215.765ZM209.135 273.1C209.105 283.81 209.225 293.26 204.365 298.54C205.085 298.96 206.045 299.89 206.495 300.55C211.745 294.73 211.895 284.5 211.925 273.1H209.135ZM242.165 275.56C251.105 281.65 251.105 294.52 261.335 300.25C261.515 299.38 262.265 297.79 262.745 297.01C252.875 290.98 253.535 280.03 243.935 273.13L242.165 275.56ZM247.055 279.79C245.255 288.37 241.505 294.55 234.755 297.97C235.505 298.51 236.825 299.68 237.335 300.28C244.085 296.32 248.105 289.75 250.295 280.36L247.055 279.79ZM266.405 277.99V292.66H269.255V280.78H287.885V292.51H290.855V277.99H266.405ZM267.905 288.1V290.89H289.565V288.1H267.905ZM277.055 272.68V300.52H280.055V272.68H277.055ZM300.965 278.74V281.23H316.115V278.74H300.965ZM301.805 284.89V287.32H315.425V284.89H301.805ZM300.605 291.73V294.1H316.715V291.73H300.605ZM307.145 279.52V292.99H309.785V279.52H307.145ZM311.255 288.49C312.245 289.48 313.415 290.86 313.955 291.76L315.875 290.65C315.305 289.78 314.105 288.43 313.085 287.53L311.255 288.49ZM296.075 273.97V300.52H298.955V276.58H318.125V300.52H321.155V273.97H296.075ZM297.635 296.41V299.02H319.535V296.41H297.635ZM330.305 277.3C329.045 280.72 327.065 284.5 325.085 286.9C325.775 287.2 327.005 287.86 327.545 288.28C329.435 285.7 331.565 281.71 333.005 278.02L330.305 277.3ZM344.405 278.38C346.415 281.41 348.815 285.52 349.925 288.07L352.355 286.66C351.185 284.14 348.755 280.21 346.715 277.21L344.405 278.38ZM346.175 288.22C342.395 294.22 334.685 296.8 324.515 297.79C325.025 298.51 325.595 299.68 325.835 300.49C336.515 299.2 344.585 296.17 348.755 289.39L346.175 288.22ZM336.815 272.71V291.31H339.635V272.71H336.815ZM361.565 272.56C360.185 276.58 357.755 280.45 354.965 282.85C355.685 283.27 356.885 284.2 357.425 284.68C360.155 282.01 362.825 277.75 364.445 273.31L361.565 272.56ZM361.595 276.16L360.215 278.92H380.825V276.16H361.595ZM359.825 283.09V292.51H362.675V285.76H380.135V283.09H359.825ZM354.965 291.1V293.83H382.325V291.1H354.965ZM368.765 277.6V300.55H371.675V277.6H368.765ZM401.015 287.41V296.29C401.015 299.17 401.735 300.07 404.735 300.07C405.335 300.07 408.005 300.07 408.635 300.07C411.215 300.07 411.995 298.84 412.295 294.19C411.515 293.98 410.285 293.53 409.685 293.05C409.565 296.8 409.415 297.37 408.395 297.37C407.765 297.37 405.575 297.37 405.095 297.37C404.045 297.37 403.865 297.22 403.865 296.29V287.41H401.015ZM385.385 285.37V288.13H411.935V285.37H385.385ZM390.335 277.09V279.82H409.685V277.09H390.335ZM392.975 287.5C392.495 292.3 391.445 296.2 384.935 298.24C385.595 298.81 386.405 299.95 386.735 300.7C393.875 298.12 395.375 293.44 395.945 287.5H392.975ZM390.635 273.28C389.945 276.37 388.475 280.42 386.465 282.91C387.155 283.18 388.295 283.78 388.955 284.23C391.025 281.56 392.585 277.33 393.515 273.85L390.635 273.28ZM397.205 272.68V286.24H400.085V272.68H397.205ZM427.115 291.25V293.29H440.105V291.25H427.115ZM425.645 295.06V297.22H441.695V295.06H425.645ZM426.635 287.5V289.63H440.555V287.5H426.635ZM432.215 285.52V300.52H434.975V285.52H432.215ZM430.955 275.62L429.755 277.84H438.335V275.62H430.955ZM437.615 275.62V276.01C435.515 280.75 429.905 284.02 424.355 285.31C424.835 285.82 425.435 286.78 425.705 287.41C431.765 285.76 437.675 282.28 440.285 276.34L438.575 275.5L438.095 275.62H437.615ZM430.595 277.63L428.345 278.5C431.045 282.79 435.845 285.94 441.395 287.32C441.755 286.63 442.505 285.58 443.075 285.07C437.705 283.93 432.905 281.23 430.595 277.63ZM431.315 272.71C429.965 275.59 427.535 278.17 424.865 279.79C425.405 280.24 426.245 281.29 426.575 281.8C429.425 279.85 432.125 276.82 433.715 273.4L431.315 272.71ZM418.115 272.74C417.365 275.47 416.075 278.08 414.485 279.85C414.935 280.48 415.655 281.95 415.895 282.55C417.905 280.3 419.615 276.82 420.635 273.46L418.115 272.74ZM418.175 275.86L417.695 278.35H425.135V275.86H418.175ZM418.895 300.28C419.375 299.65 420.245 298.9 425.735 295.12C425.465 294.55 425.105 293.41 424.955 292.66L419.075 296.53L418.325 297.58L418.895 300.28ZM416.795 281.35V283.9H424.265V281.35H416.795ZM415.295 287.47V290.05H425.195V287.47H415.295ZM418.895 300.28C418.895 299.23 421.625 297.49 421.625 297.49V281.86H418.985V295.18C418.985 296.47 418.145 297.4 417.515 297.76C417.995 298.36 418.685 299.59 418.895 300.28ZM446.405 273.91V300.46H449.105V276.46H454.415V273.91H446.405ZM453.785 273.91V274.72C453.155 276.73 451.985 280.39 450.875 283C453.095 285.25 453.695 287.26 453.695 288.79C453.695 289.66 453.515 290.38 453.035 290.68C452.765 290.86 452.435 290.92 452.045 290.95C451.595 290.98 451.025 290.95 450.335 290.92C450.815 291.64 451.055 292.81 451.085 293.56C451.835 293.59 452.615 293.56 453.275 293.5C453.935 293.41 454.535 293.2 455.015 292.87C455.975 292.21 456.395 290.89 456.395 289.09C456.395 287.26 455.915 285.1 453.635 282.67C454.685 280.36 455.855 277.45 456.755 274.99L454.745 273.79L454.325 273.91H453.785ZM461.975 272.77C461.945 282.85 462.185 293.14 453.785 298.42C454.565 298.96 455.465 299.86 455.915 300.58C464.735 294.7 464.825 283.54 464.885 272.77H461.975ZM464.645 281.62L462.065 281.86C462.605 285.16 463.835 295.66 470.855 300.55C471.305 299.83 472.145 298.96 472.955 298.42C466.175 293.95 465.035 284.47 464.645 281.62ZM69.74 338.98V341.71H78.92V338.98H69.74ZM68.72 320.5V344.14H71.48V323.2H77.36V343.93H80.27V320.5H68.72ZM60.08 320.41V345.49H62.9V320.41H60.08ZM54.41 326.59V329.23H67.79V326.59H54.41ZM59.9 327.55C58.79 331.57 56.24 336.28 53.72 338.89C54.2 339.61 54.89 340.72 55.19 341.53C57.92 338.59 60.5 332.98 61.85 328.24L59.9 327.55ZM65.84 317.95C63.17 319.03 58.58 319.96 54.62 320.5C54.92 321.13 55.28 322.12 55.4 322.75C59.51 322.27 64.37 321.4 67.73 320.17L65.84 317.95ZM62.69 329.62L61.28 331C62.42 332.44 65.09 336.1 66.08 337.78L67.76 335.44C67.01 334.48 63.62 330.55 62.69 329.62ZM85.76 322.99V337.66H88.61V325.78H107.24V337.51H110.21V322.99H85.76ZM87.26 333.1V335.89H108.92V333.1H87.26ZM96.41 317.68V345.52H99.41V317.68H96.41ZM120.32 323.74V326.23H135.47V323.74H120.32ZM121.16 329.89V332.32H134.78V329.89H121.16ZM119.96 336.73V339.1H136.07V336.73H119.96ZM126.5 324.52V337.99H129.14V324.52H126.5ZM130.61 333.49C131.6 334.48 132.77 335.86 133.31 336.76L135.23 335.65C134.66 334.78 133.46 333.43 132.44 332.53L130.61 333.49ZM115.43 318.97V345.52H118.31V321.58H137.48V345.52H140.51V318.97H115.43ZM116.99 341.41V344.02H138.89V341.41H116.99ZM151.13 317.92V334.9H154.07V317.92H151.13ZM161.9 317.92V334.9H164.87V317.92H161.9ZM144.38 333.07V335.83H171.71V333.07H144.38ZM145.52 323.8V326.53H170.69V323.8H145.52ZM160.37 338.68C163.13 340.78 166.76 343.72 168.5 345.52L171.26 343.84C169.34 342.01 165.59 339.19 162.92 337.24L160.37 338.68ZM152.51 337.33C150.89 339.46 147.59 342.01 144.68 343.57C145.34 344.05 146.39 344.95 146.96 345.55C149.96 343.84 153.32 341.08 155.51 338.47L152.51 337.33ZM178.16 328.99V331.78H200.93V328.99H178.16ZM176.18 321.07V323.77H200.21V321.07H176.18ZM176.54 328.99V333.13C176.54 336.25 176.27 340.63 173.9 343.81C174.53 344.17 175.79 345.25 176.27 345.82C178.97 342.28 179.51 336.85 179.51 333.19V328.99H176.54ZM180.65 324.88C181.64 326.2 182.69 328.03 183.11 329.2L185.75 328.03C185.24 326.86 184.1 325.09 183.14 323.83L180.65 324.88ZM193.43 324.04C192.89 325.57 191.87 327.73 191 329.14L193.25 330.04C194.21 328.78 195.44 326.83 196.58 325.06L193.43 324.04ZM185.45 318.34C186.29 319.48 187.16 321.04 187.46 322.09L190.49 321.19C190.1 320.17 189.2 318.67 188.33 317.62L185.45 318.34ZM205.97 323.53V326.32H229.97V323.53H205.97ZM207.44 332.32V335.08H228.65V332.32H207.44ZM204.62 341.77V344.56H231.47V341.77H204.62ZM216.44 325.87V343.24H219.53V325.87H216.44ZM213.83 319.33C215.81 320.77 218.21 322.87 219.32 324.25L221.81 322.45C220.58 321.04 218.09 319.03 216.17 317.74L213.83 319.33ZM239.78 321.37L237.14 322.21C241.37 333.43 248.6 341.89 260.09 345.49C260.51 344.71 261.38 343.51 262.04 342.91C251 339.73 243.47 331.57 239.78 321.37ZM256.55 319.9C253.22 330.61 246.74 339.1 233.96 343.09C234.47 343.72 235.16 344.83 235.49 345.55C248.96 341.08 255.59 332.2 259.49 320.8L256.55 319.9ZM245 318.49C246.11 320.77 247.46 323.86 248.03 325.87L250.64 324.82C249.98 322.84 248.66 319.87 247.46 317.59L245 318.49ZM268.79 331.15V345.58H271.61V333.25H285.41V331.15H268.79ZM284.54 331.15V342.61C284.54 343.06 284.39 343.18 283.85 343.21C283.37 343.24 281.51 343.24 279.83 343.18C280.19 343.84 280.58 344.77 280.73 345.46C283.19 345.46 284.87 345.46 285.98 345.1C287.03 344.74 287.39 344.08 287.39 342.64V331.15H284.54ZM270.53 335.02V336.97H285.41V335.02H270.53ZM264.71 327.31V329.5H291.26V327.31H264.71ZM266.6 319.48V321.67H289.67V319.48H266.6ZM267.68 323.38V325.48H288.38V323.38H267.68ZM270.53 338.8V340.72H285.44V338.8H270.53ZM276.47 317.68V328.72H279.35V317.68H276.47ZM300.92 317.56C299.54 321.58 297.11 325.45 294.32 327.85C295.04 328.27 296.24 329.2 296.78 329.68C299.51 327.01 302.18 322.75 303.8 318.31L300.92 317.56ZM300.95 321.16L299.57 323.92H320.18V321.16H300.95ZM299.18 328.09V337.51H302.03V330.76H319.49V328.09H299.18ZM294.32 336.1V338.83H321.68V336.1H294.32ZM308.12 322.6V345.55H311.03V322.6H308.12ZM325.34 318.94V345.55H328.25V321.55H347.57V345.55H350.6V318.94H325.34ZM326.99 341.8V344.38H349.4V341.8H326.99ZM329.93 326.23V328.75H346.13V326.23H329.93ZM339.17 322.66V337.48C339.17 337.81 339.05 337.9 338.66 337.9C338.27 337.93 337.04 337.93 335.78 337.9C336.14 338.59 336.56 339.7 336.71 340.45C338.6 340.45 339.86 340.39 340.76 339.97C341.66 339.55 341.9 338.83 341.9 337.48V322.66H339.17ZM339.32 327.04C337.01 330.82 332.96 334.18 329.36 336.13C329.99 336.64 330.77 337.51 331.13 338.05C334.88 335.98 339.05 332.56 341.66 328.66L339.32 327.04ZM358.19 346.63C361.58 345.52 363.68 342.94 363.68 339.61C363.68 337.33 362.69 335.86 360.83 335.86C359.45 335.86 358.25 336.73 358.25 338.26C358.25 339.82 359.42 340.63 360.77 340.63C361.4 340.63 362 340.48 362.45 339.97L360.8 337.51L361.22 340.24C361.22 342.25 359.87 343.75 357.38 344.68L358.19 346.63ZM384.29 323.77V326.38H395.63V323.77H384.29ZM394.76 323.77V324.28C394.04 334.96 390.47 340.93 384.2 343.24C384.8 343.81 385.49 344.89 385.91 345.61C392.9 342.49 396.68 336.43 397.55 323.95L395.78 323.68L395.27 323.77H394.76ZM385.55 334.12C389.03 336.79 393.53 340.6 395.6 343.09L397.52 340.72C395.39 338.32 390.71 334.66 387.29 332.08L385.55 334.12ZM400.4 339.82V342.49H409.34V339.82H400.4ZM398.84 320.86V344.77H401.54V323.56H408.02V344.29H410.84V320.86H398.84ZM385.55 334.12L388.07 335.08C389.45 330.61 391.07 323.56 391.85 317.95L389.03 317.74C388.49 323.08 386.93 329.98 385.55 334.12ZM417.74 332.35V335.26H436.19V332.35H417.74ZM424.58 327.34C426.53 328.84 429.11 331 430.28 332.35L432.32 330.31C431.03 328.99 428.36 326.98 426.47 325.6L424.58 327.34ZM429.17 318.82L426.71 320.05C429.98 324.16 435.38 328.48 439.85 330.76C440.36 329.98 441.32 328.78 442.07 328.18C437.54 326.23 432.05 322.36 429.17 318.82ZM427.64 317.41C424.64 322.03 419.27 326.08 413.9 328.45C414.74 329.14 415.61 330.22 416.09 331C421.58 328.21 426.98 323.86 430.43 318.73L427.64 317.41ZM435.86 332.35V332.68C433.85 335.41 429.8 340.54 426.53 344.32L429.47 345.67C432.68 341.74 436.55 336.82 439.1 333.28L436.88 332.2L436.37 332.35H435.86ZM445.01 321.52V324.22H455.06V321.52H445.01ZM454.13 321.52V322.18C453.08 332.08 449.42 339.7 444.17 343.18C444.83 343.69 445.73 344.77 446.15 345.46C452 341.17 455.75 333.55 456.95 321.94L455.09 321.4L454.61 321.52H454.13ZM445.37 329.56C449.42 333.16 453.98 338.26 455.84 341.74L458.06 339.61C456.11 336.13 451.4 331.24 447.32 327.76L445.37 329.56ZM457.52 324.67V327.4H471.86V324.67H457.52ZM465.62 317.68V341.86C465.62 342.37 465.41 342.52 464.9 342.55C464.39 342.55 462.74 342.58 460.94 342.49C461.33 343.36 461.75 344.71 461.84 345.52C464.39 345.52 466.04 345.43 467.03 344.92C468.05 344.44 468.44 343.6 468.44 341.86V317.68H465.62ZM457.73 331.3C459.14 333.4 460.46 336.19 460.91 337.99L463.4 336.76C462.92 334.93 461.48 332.23 460.04 330.22L457.73 331.3ZM54.56 375.53V378.35H81.44V375.53H54.56ZM66.77 366.71V387.65C66.77 388.25 66.53 388.43 65.87 388.46C65.18 388.49 62.87 388.49 60.5 388.4C60.95 389.24 61.49 390.56 61.67 391.4C64.7 391.4 66.8 391.34 68.03 390.86C69.32 390.41 69.77 389.57 69.77 387.68V366.71H66.77ZM56.63 365.72V368.54H79.34V365.72H56.63ZM96.41 363.68V375.71H99.53V363.68H96.41ZM86.42 365.96C87.95 368.09 89.51 371 90.14 372.95L92.87 371.75C92.18 369.86 90.62 367.04 89 364.94L86.42 365.96ZM106.61 364.67C105.8 367.01 104.24 370.16 102.98 372.17L105.47 373.1C106.79 371.18 108.44 368.27 109.73 365.66L106.61 364.67ZM86.96 374.21V377.06H106.28V391.55H109.28V374.21H86.96ZM87.98 380.72V383.45H107.39V380.72H87.98ZM86.33 387.44V390.26H107.81V387.44H86.33ZM125.63 366.14V368.87H139.64V366.14H125.63ZM137.99 366.14V366.83C137.69 381.59 137.33 387.05 136.37 388.16C136.04 388.61 135.74 388.73 135.2 388.73C134.48 388.73 132.92 388.7 131.21 388.55C131.69 389.33 132.02 390.5 132.05 391.28C133.73 391.37 135.38 391.37 136.43 391.25C137.51 391.1 138.2 390.77 138.92 389.75C140.06 388.19 140.39 382.97 140.75 367.61C140.75 367.25 140.78 366.14 140.78 366.14H137.99ZM130.07 367.49C129.86 377.72 128.81 385.13 123.32 389.3C123.98 389.81 125.15 390.98 125.54 391.52C131.3 386.6 132.62 378.83 132.98 367.55L130.07 367.49ZM118.67 378.23V391.52H121.58V374.78L118.67 378.23ZM124.73 374.75C124.07 375.74 122.81 377.27 121.94 378.17L123.26 379.37C124.22 378.59 125.42 377.42 126.65 376.31L124.73 374.75ZM114.56 368.9V371.45H123.41V368.9H114.56ZM121.04 376.43L119.66 377.72C120.86 379.04 123.47 382.28 124.49 383.84L126.14 381.59C125.36 380.72 122.06 377.24 121.04 376.43ZM122.51 368.9V369.5C120.95 373.7 117.32 378.41 113.87 380.87C114.32 381.41 115.04 382.88 115.28 383.66C119 380.66 123.11 375.29 125.18 369.92L123.59 368.78L123.08 368.9H122.51ZM117.56 364.85C118.52 366.14 119.66 367.91 120.17 369.05L122.45 367.58C121.91 366.5 120.77 364.85 119.78 363.62L117.56 364.85ZM147.08 368.54V371.03H153.65V385.88H147.08V388.4H156.23V368.54H147.08ZM145.4 368.54V390.71H148.01V368.54H145.4ZM146.93 376.73V379.22H154.94V376.73H146.93ZM149.87 363.65C149.66 365.24 149.15 367.52 148.67 369.02L150.95 369.56C151.55 368.18 152.3 366.08 152.93 364.13L149.87 363.65ZM160.37 368.39V371H169.4V368.39H160.37ZM168.41 368.39V368.96C168.05 381.86 167.6 386.93 166.61 387.98C166.28 388.4 165.92 388.49 165.32 388.49C164.6 388.49 162.8 388.46 160.85 388.31C161.36 389.06 161.72 390.26 161.78 391.07C163.49 391.13 165.29 391.19 166.37 391.07C167.51 390.92 168.26 390.62 168.98 389.63C170.21 388.1 170.6 383.39 171.02 369.74C171.05 369.38 171.05 368.39 171.05 368.39H168.41ZM160.76 363.62C159.8 367.7 158.15 371.81 156.11 374.42C156.77 374.78 157.94 375.59 158.45 376.04C160.49 373.19 162.35 368.72 163.49 364.25L160.76 363.62ZM159.35 376.55C160.91 378.74 162.86 381.71 163.73 383.54L166.16 382.07C165.2 380.3 163.16 377.39 161.57 375.29L159.35 376.55ZM191.24 386.12V388.85H199.19V386.12H191.24ZM174.53 369.23V372.02H185.84V369.23H174.53ZM189.98 367.28V391.01H192.71V370.04H197.66V390.8H200.51V367.28H189.98ZM185.12 369.23V369.89C184.88 382.43 184.64 386.81 183.98 387.71C183.71 388.13 183.41 388.25 182.96 388.22C182.42 388.22 181.22 388.22 179.9 388.1C180.38 388.91 180.68 390.14 180.71 390.95C182.09 391.04 183.44 391.04 184.31 390.89C185.24 390.74 185.84 390.44 186.44 389.57C187.4 388.22 187.61 383.72 187.85 370.61C187.85 370.22 187.85 369.23 187.85 369.23H185.12ZM178.49 364.1C178.46 374.81 178.58 384.26 173.72 389.54C174.44 389.96 175.4 390.89 175.85 391.55C181.1 385.73 181.25 375.5 181.28 364.1H178.49ZM211.52 366.56C220.46 372.65 220.46 385.52 230.69 391.25C230.87 390.38 231.62 388.79 232.1 388.01C222.23 381.98 222.89 371.03 213.29 364.13L211.52 366.56ZM216.41 370.79C214.61 379.37 210.86 385.55 204.11 388.97C204.86 389.51 206.18 390.68 206.69 391.28C213.44 387.32 217.46 380.75 219.65 371.36L216.41 370.79ZM254.15 364.82C255.32 365.51 256.79 366.53 257.54 367.28L259.28 365.87C258.5 365.15 257 364.19 255.8 363.59L254.15 364.82ZM237.95 366.62V368.93H261.5V366.62H237.95ZM240.23 370.64V372.59H249.59V370.64H240.23ZM257.54 370.07C255.95 374.54 252.86 378.23 248.96 380.45C249.5 380.9 250.52 381.86 250.91 382.37C254.87 379.82 258.23 375.77 260.12 370.7L257.54 370.07ZM250.16 363.68C250.4 374.33 253.04 382.67 258.44 382.67C260.63 382.67 261.53 381.59 261.89 377.57C261.23 377.39 260.27 376.91 259.7 376.37C259.55 379.04 259.28 380.12 258.56 380.12C255.44 380.15 252.92 373.1 252.86 363.68H250.16ZM236.6 366.62V371.15C236.6 374.18 236.33 378.41 234.11 381.5C234.68 381.77 235.79 382.73 236.21 383.24C238.73 379.82 239.24 374.72 239.24 371.18V366.62H236.6ZM240.74 383.3V388.04C240.74 390.5 241.73 391.19 245.51 391.19C246.29 391.19 251.06 391.19 251.9 391.19C255.08 391.19 255.95 390.26 256.31 386.36C255.53 386.21 254.3 385.85 253.67 385.46C253.52 388.52 253.28 388.94 251.69 388.94C250.58 388.94 246.59 388.94 245.72 388.94C243.89 388.94 243.59 388.82 243.59 387.98V383.3H240.74ZM245.42 382.94C246.77 384.35 248.45 386.27 249.23 387.47L251.6 386.27C250.76 385.1 248.99 383.21 247.64 381.92L245.42 382.94ZM255.68 384.14C256.85 385.97 258.23 388.46 258.8 389.96L261.5 389.03C260.84 387.5 259.4 385.07 258.2 383.33L255.68 384.14ZM237.2 383.93C236.51 385.64 235.34 387.89 234.2 389.36L236.84 390.44C237.86 388.91 238.94 386.57 239.69 384.83L237.2 383.93ZM242.78 376.13H246.92V378.89H242.78V376.13ZM240.47 374.18V380.84H249.14V374.18H240.47ZM265.73 379.31V381.8H279.89V379.31H265.73ZM271.46 376.31V388.16H274.16V376.31H271.46ZM264.71 387.53L265.34 390.2C269.33 389.45 275.06 388.37 280.37 387.35L280.22 384.89C274.58 385.91 268.55 386.96 264.71 387.53ZM264.98 365.57V368.06H280.52V365.57H264.98ZM274.04 369.8C275.66 371.87 277.52 374.69 278.33 376.46L280.49 375.05C279.68 373.31 277.73 370.58 276.08 368.57L274.04 369.8ZM281.99 366.38V384.56H284.6V366.38H281.99ZM287.84 364.1V387.59C287.84 388.1 287.69 388.25 287.15 388.25C286.64 388.28 284.99 388.28 283.31 388.22C283.73 388.97 284.18 390.23 284.33 390.98C286.58 390.98 288.2 390.89 289.25 390.44C290.24 389.99 290.6 389.21 290.6 387.59V364.1H287.84ZM266.54 376.04C266.54 375.47 268.16 374.63 268.16 374.63V374.57C269.78 372.71 271.58 369.92 272.81 367.31L270.05 366.23C269.15 368.81 267.56 371.42 267.05 372.11C266.54 372.83 266.09 373.31 265.61 373.43C265.94 374.15 266.36 375.47 266.54 376.04ZM266.54 376.04C267.38 375.68 268.64 375.56 278.69 374.66C278.36 374.09 277.85 373.16 277.52 372.44L267.86 373.19L266.48 374.03L266.54 376.04ZM294.56 374.72V377.66H321.65V374.72H294.56ZM306.5 363.71V391.52H309.56V363.71H306.5ZM328.7 374.9V377.69H345.47V374.9H328.7ZM344.51 374.9V375.41C344.18 383.96 343.79 387.32 343.04 388.1C342.71 388.4 342.38 388.49 341.78 388.49C341.06 388.49 339.35 388.49 337.52 388.31C338.03 389.12 338.39 390.32 338.45 391.16C340.28 391.25 342.08 391.28 343.1 391.16C344.18 391.07 344.93 390.8 345.62 389.96C346.67 388.76 347.06 385.28 347.45 376.19C347.48 375.8 347.48 374.9 347.48 374.9H344.51ZM332.48 364.19C330.77 368.75 327.71 372.95 324.14 375.5C324.83 376.01 326.06 377.15 326.57 377.72C330.14 374.81 333.47 370.16 335.54 365.06L332.48 364.19ZM343.37 364.13L340.73 365.18C342.92 369.68 346.49 374.57 349.67 377.45C350.21 376.7 351.26 375.62 351.98 375.05C348.86 372.62 345.23 368.09 343.37 364.13ZM334.28 375.68C333.74 381.2 332.75 386.57 324.83 389.15C325.49 389.75 326.27 390.89 326.6 391.61C335.18 388.49 336.65 382.31 337.28 375.68H334.28ZM443.217 384.98V387.71H452.397V384.98H443.217ZM442.197 366.5V390.14H444.957V369.2H450.837V389.93H453.747V366.5H442.197ZM433.557 366.41V391.49H436.377V366.41H433.557ZM427.887 372.59V375.23H441.267V372.59H427.887ZM433.377 373.55C432.267 377.57 429.717 382.28 427.197 384.89C427.677 385.61 428.367 386.72 428.667 387.53C431.397 384.59 433.977 378.98 435.327 374.24L433.377 373.55ZM439.317 363.95C436.647 365.03 432.057 365.96 428.097 366.5C428.397 367.13 428.757 368.12 428.877 368.75C432.987 368.27 437.847 367.4 441.207 366.17L439.317 363.95ZM436.167 375.62L434.757 377C435.897 378.44 438.567 382.1 439.557 383.78L441.237 381.44C440.487 380.48 437.097 376.55 436.167 375.62ZM125.528 426.65C122.978 426.65 120.848 428.75 120.848 431.33C120.848 433.94 122.978 436.04 125.528 436.04C128.138 436.04 130.238 433.94 130.238 431.33C130.238 428.75 128.138 426.65 125.528 426.65ZM125.528 434.24C123.968 434.24 122.648 432.95 122.648 431.33C122.648 429.74 123.968 428.45 125.528 428.45C127.148 428.45 128.438 429.74 128.438 431.33C128.438 432.95 127.148 434.24 125.528 434.24ZM151.028 414.77V417.38H162.368V414.77H151.028ZM161.498 414.77V415.28C160.778 425.96 157.208 431.93 150.938 434.24C151.538 434.81 152.228 435.89 152.648 436.61C159.638 433.49 163.418 427.43 164.288 414.95L162.518 414.68L162.008 414.77H161.498ZM152.288 425.12C155.768 427.79 160.268 431.6 162.338 434.09L164.258 431.72C162.128 429.32 157.448 425.66 154.028 423.08L152.288 425.12ZM167.138 430.82V433.49H176.078V430.82H167.138ZM165.578 411.86V435.77H168.278V414.56H174.758V435.29H177.578V411.86H165.578ZM152.288 425.12L154.808 426.08C156.188 421.61 157.808 414.56 158.588 408.95L155.768 408.74C155.228 414.08 153.668 420.98 152.288 425.12ZM181.478 424.55V427.16H208.028V424.55H181.478ZM193.268 411.05V436.52H196.268V411.05H193.268ZM192.368 425.75C189.908 428.9 185.078 431.87 180.638 433.28C181.268 433.88 182.138 434.93 182.588 435.62C187.088 433.94 191.918 430.58 194.738 426.77L192.368 425.75ZM196.928 425.6L194.708 426.62C197.588 430.31 202.508 433.73 206.918 435.47C207.338 434.75 208.208 433.67 208.838 433.07C204.458 431.66 199.478 428.69 196.928 425.6ZM187.328 417.32H202.178V419.93H187.328V417.32ZM187.328 412.52H202.178V415.07H187.328V412.52ZM184.388 410.12V422.33H205.268V410.12H184.388ZM231.668 411.59V432.68C231.668 433.31 231.458 433.52 230.768 433.55C230.048 433.55 227.528 433.58 225.218 433.46C225.668 434.27 226.238 435.65 226.418 436.49C229.448 436.49 231.578 436.46 232.898 435.98C234.188 435.5 234.638 434.6 234.638 432.74V411.59H231.668ZM214.238 417.59V431.33H216.998V417.59H214.238ZM215.408 417.59V420.29H223.958V426.26H215.408V428.99H226.748V417.59H215.408ZM211.298 410.75V413.63H238.238V410.75H211.298ZM250.748 412.94C252.458 415.1 254.348 418.16 255.158 420.11L257.738 418.55C256.838 416.63 254.918 413.78 253.178 411.62L250.748 412.94ZM258.998 427.79C261.698 430.43 264.968 434.09 266.408 436.43L268.898 434.57C267.338 432.23 263.918 428.72 261.278 426.2L258.998 427.79ZM262.298 409.91C261.728 422.99 259.598 430.46 250.208 434.24C250.868 434.81 252.008 436.1 252.368 436.7C262.058 432.17 264.548 424.16 265.328 410.03L262.298 409.91ZM243.878 433.76C244.688 433.01 245.918 432.26 254.558 427.91C254.318 427.28 253.958 426.05 253.808 425.24L244.388 429.8L243.338 430.85L243.878 433.76ZM243.878 433.76C243.878 432.65 247.388 430.31 247.388 430.31V410.9H244.298V428.42C244.298 429.89 243.038 431 242.318 431.45C242.798 431.96 243.608 433.1 243.878 433.76ZM270.788 426.8V429.44H298.688V426.8H270.788ZM271.958 410.42V413.06H297.548V410.42H271.958ZM276.218 421.19V423.65H293.378V421.19H276.218ZM292.328 415.58V433.25C292.328 433.76 292.148 433.91 291.578 433.91C291.068 433.94 289.118 433.97 287.288 433.88C287.708 434.6 288.128 435.83 288.308 436.58C290.858 436.58 292.598 436.55 293.678 436.1C294.788 435.65 295.148 434.84 295.148 433.28V415.58H292.328ZM274.298 415.58V436.58H277.088V418.16H293.468V415.58H274.298ZM283.178 411.23V427.76H286.028V411.23H283.178ZM311.858 409.04V423.56H314.558V409.04H311.858ZM308.018 414.35V416.93H318.158V414.35H308.018ZM308.648 422.3V435.26H311.138V422.3H308.648ZM310.148 422.3V424.76H315.218V430.76H310.148V433.22H317.708V422.3H310.148ZM320.528 408.71C319.868 413.54 318.668 418.28 316.628 421.34C317.108 421.88 317.978 423.11 318.278 423.65C320.708 420.14 322.208 414.68 323.078 409.13L320.528 408.71ZM320.708 414.41L319.988 416.81H328.658V414.41H320.708ZM324.908 415.4C324.158 424.73 322.118 431.03 316.028 434.57C316.568 435.02 317.468 436.04 317.798 436.52C324.098 432.41 326.438 425.75 327.398 415.55L324.908 415.4ZM320.978 416.06L318.968 417.11C319.658 423.74 321.248 432.23 327.188 436.49C327.548 435.8 328.388 434.75 328.868 434.24C323.138 430.61 321.608 422.48 320.978 416.06ZM306.398 408.8C305.018 413.3 302.708 417.8 300.188 420.71C300.638 421.46 301.358 423.05 301.598 423.71C304.598 420.2 307.328 414.74 309.038 409.55L306.398 408.8ZM303.998 416.54V436.52H306.608V414.05L306.548 413.99L303.998 416.54ZM330.968 420.77V423.86H358.568V420.77H330.968ZM373.118 408.68C372.188 413.54 370.448 418.25 368.048 421.16C368.798 421.49 370.238 422.3 370.838 422.72C373.148 419.54 375.038 414.5 376.178 409.25L373.118 408.68ZM373.238 413.6L371.918 416.42H385.778V413.6H373.238ZM384.878 413.6V414.29C384.458 416.72 383.288 419.99 382.388 421.88C383.048 422.15 384.188 422.72 384.788 423.05C385.868 420.89 387.188 417.68 387.938 414.62L385.868 413.45L385.298 413.6H384.878ZM361.208 412.79C363.278 413.96 365.888 415.79 367.118 417.05L368.918 414.74C367.628 413.48 364.958 411.8 362.918 410.72L361.208 412.79ZM360.788 431.69L363.428 433.64C365.288 430.85 367.418 427.43 369.158 424.31L366.938 422.42C364.988 425.78 362.528 429.5 360.788 431.69ZM379.208 420.35L376.748 420.74C378.218 428.3 380.948 433.79 386.858 436.34C387.248 435.56 388.118 434.36 388.748 433.82C383.228 431.78 380.438 426.8 379.208 420.35ZM376.538 417.65V419.51C376.538 423.65 375.818 430.16 366.938 434.48C367.658 434.99 368.678 436.04 369.128 436.73C378.668 431.87 379.568 424.4 379.568 419.57V417.65H376.538ZM399.278 419.09V421.58H418.358V419.09H399.278ZM402.818 412.67V415.1H417.098V412.67H402.818ZM407.648 408.83V420.11H410.468V408.83H407.648ZM402.788 409.61C402.068 412.25 400.808 414.89 399.188 416.6C399.848 416.93 401.018 417.68 401.558 418.1C403.148 416.18 404.648 413.21 405.488 410.18L402.788 409.61ZM409.928 420.47V427.82C409.928 430.49 410.498 431.33 413.018 431.33C413.498 431.33 415.148 431.33 415.658 431.33C417.698 431.33 418.418 430.34 418.688 426.44C417.908 426.23 416.738 425.81 416.198 425.33C416.108 428.3 415.988 428.69 415.358 428.69C415.028 428.69 413.708 428.69 413.468 428.69C412.808 428.69 412.748 428.6 412.748 427.79V420.47H409.928ZM404.618 420.47C404.228 424.52 403.328 427.55 398.558 429.26C399.188 429.8 399.968 430.85 400.298 431.57C405.728 429.38 406.988 425.54 407.468 420.47H404.618ZM391.328 411.2C393.038 412.67 395.048 414.77 395.918 416.24L398.258 414.47C397.298 413.03 395.228 411.02 393.488 409.64L391.328 411.2ZM397.538 420.23H391.268V422.87H394.808V431.72H397.538V420.23ZM397.268 430.61C395.468 430.61 393.098 432.2 390.908 434.21L392.798 436.67C394.448 434.78 396.098 433.16 397.208 433.16C397.868 433.16 398.798 434.03 399.998 434.78C401.978 435.92 404.438 436.25 407.948 436.25C410.888 436.25 415.718 436.1 417.998 435.95C418.028 435.17 418.478 433.76 418.778 433.01C415.838 433.37 411.248 433.61 408.008 433.61C404.858 433.61 402.308 433.43 400.418 432.29C398.918 431.39 398.198 430.61 397.268 430.61ZM420.668 424.19L421.328 426.92C424.028 426.11 427.508 425.03 430.808 424.01L430.448 421.43C426.848 422.48 423.158 423.56 420.668 424.19ZM421.028 414.56V417.17H430.868V414.56H421.028ZM424.718 408.71V433.31C424.718 433.7 424.568 433.82 424.208 433.82C423.848 433.85 422.708 433.85 421.538 433.79C421.898 434.57 422.228 435.74 422.318 436.49C424.268 436.49 425.528 436.4 426.368 435.95C427.208 435.5 427.478 434.75 427.478 433.31V408.71H424.718ZM431.648 410.12V412.64H445.088V410.12H431.648ZM444.518 410.12V410.54C442.238 415.37 436.148 419 430.208 420.5C430.748 421.04 431.408 422.09 431.708 422.78C438.008 420.86 444.338 416.93 447.188 410.93L445.478 410L444.998 410.12H444.518ZM435.428 411.32L433.238 412.1C436.028 417.38 441.068 421.13 447.368 422.81C447.758 422.09 448.538 421.01 449.108 420.44C442.928 419.12 437.888 415.82 435.428 411.32ZM432.188 424.13V426.65H446.468V424.13H432.188ZM430.658 429.29V431.84H448.508V429.29H430.658ZM438.038 421.61V436.58H440.888V421.61H438.038ZM453.818 413.54V416.03H460.388V430.88H453.818V433.4H462.968V413.54H453.818ZM452.138 413.54V435.71H454.748V413.54H452.138ZM453.668 421.73V424.22H461.678V421.73H453.668ZM456.608 408.65C456.398 410.24 455.888 412.52 455.408 414.02L457.688 414.56C458.288 413.18 459.038 411.08 459.668 409.13L456.608 408.65ZM467.108 413.39V416H476.138V413.39H467.108ZM475.148 413.39V413.96C474.788 426.86 474.338 431.93 473.348 432.98C473.018 433.4 472.658 433.49 472.058 433.49C471.338 433.49 469.538 433.46 467.588 433.31C468.098 434.06 468.458 435.26 468.518 436.07C470.228 436.13 472.028 436.19 473.108 436.07C474.248 435.92 474.998 435.62 475.718 434.63C476.948 433.1 477.338 428.39 477.758 414.74C477.788 414.38 477.788 413.39 477.788 413.39H475.148ZM467.498 408.62C466.538 412.7 464.888 416.81 462.848 419.42C463.508 419.78 464.678 420.59 465.188 421.04C467.228 418.19 469.088 413.72 470.228 409.25L467.498 408.62ZM466.088 421.55C467.648 423.74 469.598 426.71 470.468 428.54L472.898 427.07C471.938 425.3 469.898 422.39 468.308 420.29L466.088 421.55ZM78.53 454.86C75.05 455.94 69.08 456.84 63.92 457.32C64.22 457.92 64.58 459 64.7 459.66C69.95 459.24 76.19 458.4 80.45 457.14L78.53 454.86ZM63.77 463.83V466.53H81.86V463.83H63.77ZM65.42 471.18V482.52H68.27V473.76H77.33V482.4H80.3V471.18H65.42ZM66.95 478.8V481.38H78.65V478.8H66.95ZM71.33 457.56V472.59H74.18V457.56H71.33ZM55.67 457.08C57.23 458.46 59.24 460.44 60.14 461.7L62.09 459.69C61.1 458.49 59.06 456.63 57.5 455.34L55.67 457.08ZM58.01 481.86C58.52 481.17 59.42 480.42 64.67 476.1C64.34 475.56 63.83 474.45 63.56 473.7L57.98 478.2L57.41 479.22L58.01 481.86ZM54.17 464.04V466.77H59.54V464.04H54.17ZM58.01 481.86C58.01 480.78 60.74 478.56 60.74 478.56V464.04H58.07V476.49C58.07 477.96 57.02 479.13 56.42 479.61C56.9 480.12 57.74 481.23 58.01 481.86ZM88.19 483.63C91.58 482.52 93.68 479.94 93.68 476.61C93.68 474.33 92.69 472.86 90.83 472.86C89.45 472.86 88.25 473.73 88.25 475.26C88.25 476.82 89.42 477.63 90.77 477.63C91.4 477.63 92 477.48 92.45 476.97L90.8 474.51L91.22 477.24C91.22 479.25 89.87 480.75 87.38 481.68L88.19 483.63ZM114.86 460.8V463.68H141.17V460.8H114.86ZM119.75 474.27V477.15H136.13V474.27H119.75ZM126.47 454.71V482.52H129.47V454.71H126.47ZM123.92 461.79C122 467.34 118.19 472.86 113.93 475.59C114.59 476.16 115.52 477.18 116.03 477.9C120.5 474.63 124.31 468.87 126.5 462.57L123.92 461.79ZM131.93 461.88L129.38 462.63C131.54 468.87 135.29 474.63 139.79 477.81C140.3 477 141.29 475.89 142.04 475.32C137.66 472.65 133.85 467.34 131.93 461.88ZM156.23 454.77C156.11 459.6 156.47 473.76 144.08 480.18C144.98 480.81 145.91 481.71 146.42 482.46C159.08 475.38 159.29 460.47 159.44 454.77H156.23ZM159.14 458.43L156.41 458.73C156.83 461.52 157.97 476.61 170.03 482.31C170.45 481.5 171.26 480.54 172.1 479.88C160.49 474.69 159.38 460.71 159.14 458.43ZM264.717 477.12V479.85H272.667V477.12H264.717ZM248.007 460.23V463.02H259.317V460.23H248.007ZM263.457 458.28V482.01H266.187V461.04H271.137V481.8H273.987V458.28H263.457ZM258.597 460.23V460.89C258.357 473.43 258.117 477.81 257.457 478.71C257.187 479.13 256.887 479.25 256.437 479.22C255.897 479.22 254.697 479.22 253.377 479.1C253.857 479.91 254.157 481.14 254.187 481.95C255.567 482.04 256.917 482.04 257.787 481.89C258.717 481.74 259.317 481.44 259.917 480.57C260.877 479.22 261.087 474.72 261.327 461.61C261.327 461.22 261.327 460.23 261.327 460.23H258.597ZM251.967 455.1C251.937 465.81 252.057 475.26 247.197 480.54C247.917 480.96 248.877 481.89 249.327 482.55C254.577 476.73 254.727 466.5 254.757 455.1H251.967ZM284.997 457.56C293.937 463.65 293.937 476.52 304.167 482.25C304.347 481.38 305.097 479.79 305.577 479.01C295.707 472.98 296.367 462.03 286.767 455.13L284.997 457.56ZM289.887 461.79C288.087 470.37 284.337 476.55 277.587 479.97C278.337 480.51 279.657 481.68 280.167 482.28C286.917 478.32 290.937 471.75 293.127 462.36L289.887 461.79ZM320.577 464.1V466.95H332.967V464.1H320.577ZM307.887 478.23V481.08H335.067V478.23H307.887ZM318.957 455.1V479.79H321.987V455.1H318.957ZM346.047 460.35V463.02H364.737V460.35H346.047ZM357.987 456.45C359.217 457.59 360.777 459.21 361.497 460.23L363.747 458.76C362.967 457.74 361.347 456.21 360.147 455.13L357.987 456.45ZM353.997 454.98V477.81H356.847V454.98H353.997ZM344.607 465.42H337.767V468.06H341.877V477.42H344.607V465.42ZM338.217 457.26C339.807 459 341.757 461.4 342.597 462.93L344.997 461.4C344.067 459.87 342.057 457.59 340.467 455.94L338.217 457.26ZM343.407 476.22C341.757 476.22 339.567 477.72 337.467 479.7L339.237 482.13C340.737 480.36 342.297 478.68 343.377 478.68C344.097 478.68 345.057 479.55 346.377 480.24C348.537 481.41 351.117 481.74 354.687 481.74C357.567 481.74 362.607 481.56 364.677 481.41C364.737 480.66 365.157 479.31 365.457 478.59C362.547 478.95 358.047 479.19 354.777 479.19C351.567 479.19 348.897 478.98 346.917 477.93C345.207 477.03 344.457 476.22 343.407 476.22ZM353.187 461.37C351.687 466.17 348.717 471.18 345.507 473.73C346.107 474.21 347.037 475.2 347.487 475.86C350.817 472.86 353.787 467.49 355.497 462L353.187 461.37ZM354.747 463.83C357.777 467.1 361.317 471.66 362.817 474.54L365.037 472.92C363.447 470.01 359.757 465.63 356.757 462.45L354.747 463.83ZM368.217 456.72V459.45H394.767V456.72H368.217ZM369.357 463.11V482.55H372.207V465.78H392.577V463.11H369.357ZM390.747 463.11V479.13C390.747 479.61 390.567 479.79 389.997 479.79C389.427 479.82 387.387 479.85 385.437 479.73C385.857 480.51 386.247 481.77 386.397 482.58C389.067 482.58 390.927 482.52 392.067 482.1C393.237 481.62 393.597 480.78 393.597 479.16V463.11H390.747ZM376.347 469.8C377.667 471.33 379.317 473.46 380.037 474.84L381.717 472.56C380.997 471.27 379.287 469.29 377.907 467.82L376.347 469.8ZM376.227 458.58V464.25C376.227 467.79 375.957 473.07 372.147 476.61C372.807 477.06 373.707 477.99 374.157 478.59C378.387 474.45 379.017 468.57 379.017 464.25V458.58H376.227ZM384.027 469.8C385.917 471.87 388.197 474.78 389.217 476.61L390.897 474.39C389.847 472.65 387.477 469.86 385.587 467.82L384.027 469.8ZM383.817 458.58V464.25C383.817 467.79 383.547 473.07 379.737 476.61C380.397 477.06 381.297 477.99 381.747 478.59C385.947 474.45 386.607 468.57 386.607 464.25V458.58H383.817ZM411.537 454.65C408.507 459.69 403.047 463.77 397.347 466.11C398.157 466.86 398.997 467.94 399.447 468.81C405.237 466.05 410.757 461.52 414.087 455.85L411.537 454.65ZM412.527 456.48L410.037 457.77C414.957 463.65 419.247 466.59 423.627 468.84C424.047 467.91 424.947 466.83 425.727 466.2C421.377 464.25 416.967 461.52 412.527 456.48ZM409.947 463.89V482.49H412.917V463.89H409.947ZM437.967 479.34V481.92H455.337V479.34H437.967ZM442.347 463.8V466.35H451.857V463.8H442.347ZM442.377 471.54V474.06H451.887V471.54H442.377ZM440.817 456.18V480.69H443.517V458.76H449.997V480.69H452.817V456.18H440.817ZM428.697 474.72C428.697 474.21 430.467 473.4 430.467 473.4V473.34C433.497 470.46 436.587 466.44 439.077 462.39L436.857 460.98C434.637 465.09 431.337 469.26 430.287 470.34C429.297 471.42 428.547 472.14 427.857 472.29C428.157 472.95 428.577 474.18 428.697 474.72ZM428.697 474.72C429.417 474.33 430.557 474 438.567 472.41C438.537 471.87 438.537 470.82 438.627 470.1L429.837 471.66L428.547 472.56L428.697 474.72ZM428.487 467.46C428.487 466.95 430.077 466.08 430.077 466.08V465.99C432.297 463.32 434.547 459.48 436.167 455.82L433.617 454.62C432.357 458.22 430.137 462.09 429.417 463.05C428.727 464.07 428.187 464.73 427.617 464.88C427.917 465.6 428.337 466.92 428.487 467.46ZM428.487 467.46C429.027 467.19 429.927 466.98 435.057 466.38C435.057 465.81 435.177 464.82 435.297 464.13L429.657 464.67L428.427 465.48L428.487 467.46ZM427.857 478.02L428.397 480.72C431.247 479.97 434.967 479.01 438.537 478.05L438.237 475.68C434.427 476.58 430.467 477.51 427.857 478.02ZM55.04 519.99C55.04 519.48 56.84 518.64 56.84 518.64V518.58C59.81 515.67 62.84 511.65 65.24 507.6L62.93 506.19C60.83 510.27 57.59 514.44 56.54 515.52C55.58 516.63 54.89 517.32 54.17 517.47C54.47 518.19 54.89 519.45 55.04 519.99ZM55.04 519.99C55.79 519.57 56.93 519.24 64.91 517.68C64.85 517.08 64.88 515.97 64.94 515.22L56.18 516.78L54.86 517.71L55.04 519.99ZM54.83 512.73C54.83 512.19 56.45 511.29 56.45 511.29V511.2C58.64 508.53 60.89 504.66 62.45 501L59.72 499.77C58.55 503.34 56.36 507.21 55.7 508.2C55.04 509.22 54.5 509.88 53.9 510.03C54.23 510.78 54.68 512.16 54.83 512.73ZM54.83 512.73C55.37 512.46 56.24 512.28 61.19 511.68C61.19 511.11 61.31 510.12 61.43 509.43L56 509.94L54.77 510.75L54.83 512.73ZM54.08 523.23L54.62 526.02C57.53 525.27 61.34 524.34 65 523.41L64.73 520.92C60.8 521.82 56.75 522.69 54.08 523.23ZM68.84 504.42H77.03V512.76H68.84V504.42ZM66.05 501.72V515.46H79.94V501.72H66.05ZM74.87 519C76.46 521.64 78.11 525.15 78.74 527.31L81.56 526.2C80.93 524.04 79.13 520.65 77.48 518.07L74.87 519ZM68.06 518.16C67.22 521.13 65.69 524.04 63.71 525.87C64.43 526.26 65.69 527.07 66.23 527.52C68.21 525.45 70.01 522.18 71.03 518.82L68.06 518.16ZM88.79 517.65C86.24 517.65 84.11 519.75 84.11 522.33C84.11 524.94 86.24 527.04 88.79 527.04C91.4 527.04 93.5 524.94 93.5 522.33C93.5 519.75 91.4 517.65 88.79 517.65ZM88.79 525.24C87.23 525.24 85.91 523.95 85.91 522.33C85.91 520.74 87.23 519.45 88.79 519.45C90.41 519.45 91.7 520.74 91.7 522.33C91.7 523.95 90.41 525.24 88.79 525.24Z" fill="white"/>
<path d="M368.528 372.32V374.33H387.968V372.32H368.528ZM376.958 363.71V373.43H379.658V363.71H376.958ZM372.938 367.34H383.678V368.96H372.938V367.34ZM370.358 365.39V370.85H386.438V365.39H370.358ZM367.448 373.79H360.998V376.4H364.718V387.02H367.448V373.79ZM361.808 365.57C363.398 367.19 365.378 369.41 366.278 370.82L368.528 369.08C367.538 367.7 365.498 365.6 363.908 364.1L361.808 365.57ZM365.798 385.13C364.298 385.13 362.258 386.72 360.218 389L362.138 391.52C363.458 389.51 364.808 387.59 365.738 387.59C366.398 387.59 367.448 388.64 368.738 389.45C370.928 390.77 373.478 391.1 377.378 391.1C380.468 391.1 385.898 390.92 388.088 390.77C388.118 389.99 388.568 388.64 388.868 387.92C385.838 388.28 381.098 388.55 377.468 388.55C373.958 388.55 371.288 388.34 369.278 387.08C367.538 386.03 366.818 385.13 365.798 385.13ZM376.748 378.53V380.93C376.748 382.4 376.118 384.32 369.188 385.49C369.758 386 370.508 386.93 370.838 387.53C377.978 385.85 379.538 383.15 379.538 380.96V378.53H376.748ZM379.358 384.44C381.728 385.22 384.878 386.51 386.468 387.47L387.638 385.34C385.988 384.47 382.838 383.27 380.498 382.61L379.358 384.44ZM370.688 375.56V383.15H373.418V377.6H382.838V382.79H385.658V375.56H370.688ZM401.618 367.22V369.47H418.268V367.22H401.618ZM400.268 367.22V372.68C400.268 375.38 400.088 378.98 398.498 381.65C399.038 381.89 400.028 382.67 400.418 383.12C402.278 380.15 402.578 375.8 402.578 372.71V367.22H400.268ZM415.658 370.46C414.518 374.66 412.328 378.35 409.388 380.69C409.868 381.08 410.648 382.01 410.948 382.46C414.008 379.79 416.438 375.68 417.818 370.94L415.658 370.46ZM406.208 382.67C407.348 383.93 408.758 385.7 409.388 386.84L411.338 385.52C410.678 384.44 409.208 382.73 408.038 381.53L406.208 382.67ZM412.898 364.7C413.858 365.57 414.998 366.77 415.568 367.55L417.218 366.29C416.648 365.54 415.448 364.37 414.518 363.59L412.898 364.7ZM413.528 383.87C414.728 385.64 416.048 388.1 416.588 389.66L418.598 388.64C418.028 387.14 416.648 384.74 415.448 383L413.528 383.87ZM402.818 383.24V388.1C402.818 390.44 403.568 391.1 406.448 391.1C407.018 391.1 410.348 391.1 410.948 391.1C413.258 391.1 413.948 390.23 414.218 386.63C413.558 386.48 412.538 386.12 412.028 385.73C411.908 388.55 411.758 388.94 410.738 388.94C409.988 388.94 407.258 388.94 406.688 388.94C405.428 388.94 405.248 388.79 405.248 388.04V383.24H402.818ZM399.938 383.33C399.518 385.19 398.678 387.62 397.718 389.09L399.848 390.2C400.838 388.58 401.588 386.06 402.068 384.14L399.938 383.33ZM403.358 371.06V372.98H409.898V371.06H403.358ZM405.338 376.37H408.128V378.98H405.338V376.37ZM403.568 374.48V380.9H409.838V374.48H403.568ZM410.108 363.44C410.468 375.71 412.628 382.76 416.078 382.76C417.758 382.76 418.538 381.98 418.808 378.14C418.268 377.96 417.578 377.51 417.128 377.03C417.008 379.61 416.738 380.39 416.258 380.39C414.728 380.39 412.598 374.69 412.538 363.44H410.108ZM394.208 363.68V391.52H396.758V363.68H394.208ZM391.808 369.53C391.628 371.93 391.148 375.26 390.488 377.33L392.498 377.99C393.158 375.74 393.638 372.23 393.728 369.8L391.808 369.53ZM396.638 369.2C397.298 371.06 397.958 373.49 398.198 374.96L400.148 374.18C399.878 372.8 399.128 370.4 398.438 368.6L396.638 369.2ZM58.79 416.99V419.69H81.8V416.99H58.79ZM63.74 432.44V435.08H77.81V432.44H63.74ZM77.45 408.86C72.71 410.06 64.49 410.9 57.35 411.32C57.65 411.95 58.01 413.09 58.07 413.81C65.39 413.45 73.88 412.61 79.79 411.17L77.45 408.86ZM62.39 423.56V436.55H65.24V426.2H76.67V436.49H79.67V423.56H62.39ZM57.35 411.32V419.3C57.35 423.89 57.05 430.22 53.81 434.66C54.47 435.02 55.67 436.01 56.18 436.58C59.72 431.81 60.26 424.34 60.26 419.33V411.32H57.35ZM96.05 416.9C95.6 421.73 94.7 428.27 93.92 432.23H96.68C97.34 428.39 98.18 421.88 98.72 416.9H96.05ZM99.44 426.74C100.82 427.64 102.53 428.96 103.34 429.83L104.69 428.15C103.82 427.34 102.08 426.11 100.76 425.27L99.44 426.74ZM100.1 420.41C101.3 421.25 102.83 422.48 103.55 423.29L104.93 421.7C104.18 420.92 102.62 419.75 101.42 418.97L100.1 420.41ZM97.94 411.89L96.71 414.41H111.53V411.89H97.94ZM97.88 408.47C96.89 411.62 95.18 414.71 93.11 416.72C93.74 417.05 94.85 417.86 95.36 418.28C97.4 416.09 99.32 412.61 100.49 409.1L97.88 408.47ZM97.58 416.9V419.21H108.44V416.9H97.58ZM95.48 429.89V432.23H111.47V429.89H95.48ZM92.48 423.08V425.57H111.95V423.08H92.48ZM107.36 416.9V417.47C106.91 428.57 106.37 432.68 105.56 433.61C105.29 434 104.99 434.09 104.51 434.09C103.97 434.09 102.89 434.06 101.66 433.97C102.05 434.63 102.32 435.65 102.38 436.37C103.7 436.4 104.93 436.43 105.74 436.31C106.64 436.22 107.3 435.95 107.93 435.11C108.92 433.85 109.46 429.77 109.97 418.16C110.03 417.8 110.03 416.9 110.03 416.9H107.36ZM87.65 408.68V436.52H90.35V408.68H87.65ZM84.98 414.53C84.89 416.99 84.5 420.35 83.78 422.33L86 423.14C86.72 420.86 87.14 417.38 87.17 414.8L84.98 414.53ZM90.14 414.17C90.95 416.09 91.82 418.64 92.15 420.17L94.19 419.21C93.83 417.77 92.9 415.28 92.06 413.39L90.14 414.17ZM181.748 456.75V459.66H207.728V456.75H181.748ZM196.358 466.08C199.808 468.54 204.278 472.14 206.348 474.48L208.718 472.29C206.498 469.95 201.908 466.53 198.518 464.25L196.358 466.08ZM195.518 457.8C192.848 463.29 187.388 469.08 180.908 472.23C181.508 472.89 182.408 474.03 182.858 474.78C189.698 471.18 195.218 465.18 198.638 458.91L195.518 457.8ZM193.178 464.34V482.49H196.268V461.28L193.178 464.34ZM212.378 469.68V472.44H237.278V469.68H212.378ZM217.688 463.89V466.5H231.878V463.89H217.688ZM227.978 474.42C230.558 476.82 233.408 480.24 234.668 482.52L237.218 480.96C235.868 478.71 233.048 475.5 230.408 473.16L227.978 474.42ZM224.738 454.62C221.948 458.58 216.608 462.33 210.788 464.67C211.448 465.21 212.438 466.44 212.828 467.16C218.858 464.43 224.048 460.53 227.378 455.82L224.738 454.62ZM225.308 455.91L223.418 457.47C226.088 460.56 231.518 464.7 236.798 466.83C237.248 466.08 238.178 464.91 238.808 464.34C233.408 462.54 227.828 458.82 225.308 455.91ZM214.448 481.95C214.448 481.35 216.488 480.48 216.488 480.48V480.39C219.308 478.23 222.218 475.17 224.588 472.08L221.918 470.31C219.848 473.52 216.818 476.67 215.828 477.48C214.868 478.35 214.208 478.89 213.488 479.04C213.818 479.82 214.298 481.32 214.448 481.95ZM214.448 481.95C215.798 481.44 217.688 481.32 234.278 480C234.098 479.4 233.828 478.23 233.738 477.45L216.338 478.62L214.418 479.67L214.448 481.95Z" fill="#DDE4EE"/>
<defs>
<linearGradient id="paint0_linear_11526_62731" x1="206" y1="181" x2="334" y2="181" gradientUnits="userSpaceOnUse">
<stop stop-color="#FAE28F"/>
<stop offset="1" stop-color="#E39FF0"/>
</linearGradient>
<clipPath id="clip0_11526_62731">
<rect width="64" height="64" fill="white" transform="translate(238 803)"/>
</clipPath>
</defs>
</svg>
