<svg width="540" height="960" viewBox="0 0 540 960" fill="none" xmlns="http://www.w3.org/2000/svg">
<rect width="540" height="960" fill="#161820"/>
<rect x="84" y="311" width="72" height="43" rx="2" fill="#373A41"/>
<rect x="414" y="265" width="72" height="43" rx="2" fill="#373A41"/>
<path d="M24.072 38.264C22.904 38.264 21.832 38.064 20.856 37.664C19.88 37.248 19.056 36.656 18.384 35.888L20.808 33.464C21.112 33.912 21.552 34.28 22.128 34.568C22.72 34.84 23.344 34.976 24 34.976C24.592 34.976 25.104 34.872 25.536 34.664C25.968 34.456 26.304 34.16 26.544 33.776C26.8 33.392 26.928 32.936 26.928 32.408C26.928 31.88 26.8 31.432 26.544 31.064C26.304 30.68 25.944 30.384 25.464 30.176C25 29.968 24.44 29.864 23.784 29.864C23.48 29.864 23.16 29.888 22.824 29.936C22.504 29.968 22.232 30.024 22.008 30.104L23.664 28.016C24.112 27.888 24.536 27.784 24.936 27.704C25.352 27.608 25.736 27.56 26.088 27.56C26.952 27.56 27.728 27.768 28.416 28.184C29.104 28.584 29.648 29.16 30.048 29.912C30.464 30.648 30.672 31.528 30.672 32.552C30.672 33.672 30.392 34.664 29.832 35.528C29.288 36.392 28.52 37.064 27.528 37.544C26.552 38.024 25.4 38.264 24.072 38.264ZM22.008 30.104V28.016L26.136 23.168L30.36 23.144L26.064 28.04L22.008 30.104ZM19.44 24.248V21.056H30.36V23.144L27.408 24.248H19.44ZM33.0383 38V21.056H35.6783L36.8063 24.44V38H33.0383ZM44.7263 38L34.7423 25.208L35.6783 21.056L45.6623 33.848L44.7263 38ZM44.7263 38L43.7183 34.616V21.056H47.4863V38H44.7263ZM50.757 38V21.056H54.525V38H50.757ZM53.637 38V34.736H62.925V38H53.637ZM53.637 30.92V27.776H62.085V30.92H53.637ZM53.637 24.296V21.056H62.805V24.296H53.637ZM70.4745 38L63.9465 21.056H67.9785L72.9465 34.76H71.2905L76.3305 21.056H80.3145L73.7145 38H70.4745ZM82.3039 38V21.056H86.0719V38H82.3039ZM85.1839 38V34.736H94.4719V38H85.1839ZM85.1839 30.92V27.776H93.6319V30.92H85.1839ZM85.1839 24.296V21.056H94.3519V24.296H85.1839ZM99.9495 31.016V28.232H103.526C104.278 28.232 104.854 28.04 105.254 27.656C105.67 27.272 105.878 26.752 105.878 26.096C105.878 25.488 105.678 24.984 105.278 24.584C104.878 24.184 104.302 23.984 103.55 23.984H99.9495V21.056H103.982C105.102 21.056 106.086 21.272 106.934 21.704C107.782 22.12 108.446 22.704 108.926 23.456C109.406 24.208 109.646 25.072 109.646 26.048C109.646 27.04 109.406 27.912 108.926 28.664C108.446 29.4 107.774 29.976 106.91 30.392C106.046 30.808 105.03 31.016 103.862 31.016H99.9495ZM97.0695 38V21.056H100.838V38H97.0695ZM106.286 38L101.006 30.704L104.462 29.768L110.75 38H106.286Z" fill="#FEFEFE" fill-opacity="0.54"/>
<path d="M218.324 887.86L218.696 889.252C219.944 888.952 221.54 888.544 223.016 888.16L222.848 886.84C221.24 887.236 219.5 887.644 218.324 887.86ZM218.48 884.008V885.34H222.848V884.008H218.48ZM220.076 881.872V891.532C220.076 891.7 220.016 891.76 219.848 891.76C219.692 891.76 219.188 891.76 218.72 891.748C218.888 892.108 219.08 892.684 219.116 893.056C219.968 893.056 220.544 893.02 220.952 892.792C221.36 892.588 221.492 892.228 221.492 891.532V881.872H220.076ZM222.98 890.956V892.3H228.296V890.956H222.98ZM223.352 886.66V888.088H228.308V886.66H223.352ZM223.076 882.904V884.224H227.66V892.972H229.04V882.904H223.076ZM234.308 883.372V884.668H241.52V883.372H234.308ZM235.688 881.812V886.024H237.068V881.812H235.688ZM238.712 881.812V886.024H240.104V881.812H238.712ZM234.716 886.396V893.008H236.012V887.656H239.78V892.948H241.148V886.396H234.716ZM235.448 888.796V890.02H240.392V888.796H235.448ZM235.484 891.184V892.444H240.428V891.184H235.484ZM237.224 887.02V892.12H238.52V887.02H237.224ZM230.24 887.896L230.564 889.288C231.632 888.988 232.964 888.604 234.212 888.22L234.032 886.924C232.664 887.296 231.212 887.692 230.24 887.896ZM230.432 884.092V885.412H234.08V884.092H230.432ZM231.68 881.824V891.388C231.68 891.556 231.632 891.604 231.488 891.604C231.344 891.604 230.924 891.604 230.48 891.592C230.66 891.976 230.816 892.564 230.852 892.924C231.632 892.924 232.16 892.876 232.52 892.648C232.892 892.432 233 892.06 233 891.4V881.824H231.68ZM243.644 883.468V885.052H252.356V883.468H243.644ZM242.648 890.428V892.084H253.364V890.428H242.648ZM254.78 889.972C254.78 889.732 255.644 889.336 255.644 889.336V889.3C256.784 888.112 257.96 886.468 258.836 884.86L257.732 884.164C256.94 885.832 255.716 887.536 255.308 887.98C254.936 888.424 254.672 888.7 254.36 888.772C254.516 889.108 254.72 889.72 254.78 889.972ZM254.78 889.972C255.104 889.792 255.596 889.648 258.572 889.084C258.56 888.796 258.572 888.244 258.62 887.884L255.308 888.436L254.696 888.856L254.78 889.972ZM254.684 887.044C254.684 886.804 255.428 886.384 255.428 886.384V886.348C256.28 885.292 257.156 883.78 257.732 882.376L256.436 881.776C256.028 883.18 255.224 884.68 254.96 885.064C254.696 885.448 254.492 885.712 254.252 885.772C254.408 886.132 254.624 886.78 254.684 887.044ZM254.684 887.044C254.924 886.936 255.296 886.852 257.096 886.66C257.096 886.384 257.156 885.892 257.228 885.544L255.224 885.7L254.648 886.084L254.684 887.044ZM254.384 891.184L254.648 892.552C255.86 892.228 257.444 891.82 258.932 891.412L258.788 890.212C257.18 890.584 255.488 890.98 254.384 891.184ZM260.216 886.288V887.572H265.148V886.288H260.216ZM260.24 888.592V889.876H265.172V888.592H260.24ZM260.12 890.968V892.3H265.604V890.968H260.12ZM262.304 884.404V891.676H263.636V884.404H262.304ZM260.828 883.96H260.276L259.484 884.788V893.104H260.828V885.256H265.448V883.96H260.828ZM260.456 881.848C260.084 883.24 259.28 885.052 258.368 886.144C258.56 886.492 258.86 887.14 258.992 887.5C260.204 886.132 261.2 884.08 261.836 882.244L260.456 881.848ZM261.968 882.376C262.292 882.928 262.64 883.66 262.76 884.14L264.044 883.552C263.888 883.084 263.54 882.388 263.18 881.86L261.968 882.376ZM276.008 887.02V887.236C275.816 890.152 275.552 891.34 275.264 891.64C275.132 891.772 275.012 891.796 274.82 891.796C274.592 891.796 274.136 891.796 273.632 891.736C273.848 892.096 273.992 892.636 274.016 893.032C274.592 893.044 275.132 893.044 275.468 892.996C275.852 892.96 276.14 892.84 276.416 892.504C276.848 892.048 277.1 890.752 277.352 887.584C277.364 887.404 277.388 887.02 277.388 887.02H276.008ZM271.256 882.424V883.72H275.66V882.424H271.256ZM271.832 884.188C271.748 885.484 271.58 887.176 271.4 888.232H272.756C272.9 887.224 273.08 885.568 273.176 884.26L271.832 884.188ZM271.784 887.02V888.232H276.404V887.02H271.784ZM271.016 889.396V890.668H275.312V889.396H271.016ZM275.12 882.424V882.568C275.048 883.78 274.82 886.084 274.592 887.788L275.948 887.896C276.176 886.204 276.404 884.08 276.512 882.472L275.492 882.376L275.276 882.424H275.12ZM266.516 882.34V883.648H270.836V882.34H266.516ZM267.848 886.084V887.344H269.336V890.356H267.848V891.616H270.572V886.084H267.848ZM267.908 883.012C267.608 884.836 267.092 886.576 266.24 887.704C266.444 888.124 266.696 889.036 266.756 889.42C268.004 887.932 268.76 885.592 269.216 883.312L267.908 883.012ZM267.236 886.084V892.516H268.46V886.084H267.236ZM278.456 886.54V888.112H289.568V886.54H278.456ZM291.716 881.764C291.404 882.88 290.852 883.96 290.192 884.668C290.432 884.944 290.828 885.556 290.972 885.832C291.8 884.92 292.52 883.492 292.952 882.1L291.716 881.764ZM291.74 882.928L291.476 884.224H294.008V882.928H291.74ZM291.824 893.008C292.016 892.744 292.364 892.456 294.296 891.016C294.152 890.776 293.972 890.272 293.888 889.924L291.836 891.4L291.548 891.832L291.824 893.008ZM290.996 885.208V886.444H294.02V885.208H290.996ZM290.564 887.608V888.904H294.104V887.608H290.564ZM291.824 893.008C291.824 892.54 292.916 891.616 292.916 891.616V885.796H291.752V890.704C291.752 891.292 291.356 891.796 291.104 891.988C291.332 892.216 291.704 892.72 291.824 893.008ZM298.196 881.884V891.376H299.288V881.884H298.196ZM296.624 884.26V885.304H301.616V884.26H296.624ZM296.72 889.204V890.272H301.316V889.204H296.72ZM297.008 887.512V888.58H301.088V887.512H297.008ZM294.152 882.376V883.696H295.892V882.376H294.152ZM295.64 885.892V886.108C295.508 889.168 294.86 891.316 293.468 892.192C293.708 892.444 293.984 892.9 294.152 893.212C295.844 891.988 296.576 889.816 296.744 885.94L296.06 885.88L295.856 885.892H295.64ZM294.992 887.956L294.068 888.304C295.016 892.072 296.9 892.876 299.42 892.876H301.34C301.4 892.54 301.556 891.988 301.712 891.7C301.232 891.724 299.876 891.724 299.492 891.724C297.452 891.712 295.724 891.088 294.992 887.956ZM297.056 882.676V883.648H299.96V885.94H297.056V886.912H300.944V882.676H297.056ZM294.764 885.892L294.416 887.056H295.988V885.892H294.764ZM294.392 887.296C294.392 887.068 295.244 886.684 295.244 886.684V886.66C295.808 885.652 296.432 884.164 296.876 882.712L296.132 882.22L295.7 882.4V882.46C295.4 883.768 294.788 885.196 294.596 885.556C294.404 885.94 294.056 886.324 293.828 886.384C293.996 886.6 294.284 887.056 294.392 887.296ZM302.72 882.712V883.936H313.244V882.712H302.72ZM303.488 884.668V885.88H312.704V884.668H303.488ZM304.592 888.976V890.188H311.54V888.976H304.592ZM304.628 886.54V887.716H311.084V890.824H312.524V886.54H304.628ZM303.68 886.54V888.028C303.68 889.264 303.536 890.956 302.216 892.168C302.528 892.348 303.128 892.864 303.344 893.14C304.808 891.772 305.108 889.588 305.108 888.052V886.54H303.68ZM307.232 881.8V885.316H308.696V881.8H307.232ZM307.28 886.948V889.732H308.672V886.948H307.28ZM315.584 882.472V883.768H317.696V888.52H315.584V889.84H319.028V882.472H315.584ZM315.596 885.472V886.756H318.224V885.472H315.596ZM320.72 882.292V883.624H324.404V882.292H320.72ZM320.72 885.16V886.456H324.404V885.16H320.72ZM320.696 888.004V889.288H324.392V888.004H320.696ZM314.816 882.472V890.884H316.148V882.472H314.816ZM323.864 882.292V891.412C323.864 891.628 323.792 891.7 323.576 891.7C323.372 891.7 322.64 891.712 321.992 891.676C322.196 892.048 322.424 892.672 322.484 893.068C323.504 893.068 324.188 893.032 324.668 892.804C325.136 892.576 325.292 892.18 325.292 891.436V882.292H323.864ZM319.856 882.292V886.636C319.856 888.472 319.676 890.728 317.648 892.204C317.96 892.396 318.512 892.888 318.728 893.176C320.948 891.544 321.272 888.724 321.272 886.648V882.292H319.856Z" fill="white" fill-opacity="0.69"/>
<g clip-path="url(#clip0_11534_62731)">
<path d="M302 803H238V867H302V803Z" fill="white"/>
<path d="M243.189 806.459H241.459V808.189H243.189V806.459Z" fill="black"/>
<path d="M244.919 806.459H243.189V808.189H244.919V806.459Z" fill="black"/>
<path d="M246.649 806.459H244.919V808.189H246.649V806.459Z" fill="black"/>
<path d="M248.378 806.459H246.649V808.189H248.378V806.459Z" fill="black"/>
<path d="M250.108 806.459H248.378V808.189H250.108V806.459Z" fill="black"/>
<path d="M251.838 806.459H250.108V808.189H251.838V806.459Z" fill="black"/>
<path d="M253.568 806.459H251.838V808.189H253.568V806.459Z" fill="black"/>
<path d="M257.027 806.459H255.297V808.189H257.027V806.459Z" fill="black"/>
<path d="M269.135 806.459H267.405V808.189H269.135V806.459Z" fill="black"/>
<path d="M270.865 806.459H269.135V808.189H270.865V806.459Z" fill="black"/>
<path d="M272.595 806.459H270.865V808.189H272.595V806.459Z" fill="black"/>
<path d="M277.784 806.459H276.054V808.189H277.784V806.459Z" fill="black"/>
<path d="M281.243 806.459H279.514V808.189H281.243V806.459Z" fill="black"/>
<path d="M282.973 806.459H281.243V808.189H282.973V806.459Z" fill="black"/>
<path d="M284.703 806.459H282.973V808.189H284.703V806.459Z" fill="black"/>
<path d="M288.162 806.459H286.432V808.189H288.162V806.459Z" fill="black"/>
<path d="M289.892 806.459H288.162V808.189H289.892V806.459Z" fill="black"/>
<path d="M291.622 806.459H289.892V808.189H291.622V806.459Z" fill="black"/>
<path d="M293.351 806.459H291.622V808.189H293.351V806.459Z" fill="black"/>
<path d="M295.081 806.459H293.351V808.189H295.081V806.459Z" fill="black"/>
<path d="M296.811 806.459H295.081V808.189H296.811V806.459Z" fill="black"/>
<path d="M298.541 806.459H296.811V808.189H298.541V806.459Z" fill="black"/>
<path d="M243.189 808.189H241.459V809.919H243.189V808.189Z" fill="black"/>
<path d="M253.568 808.189H251.838V809.919H253.568V808.189Z" fill="black"/>
<path d="M263.946 808.189H262.216V809.919H263.946V808.189Z" fill="black"/>
<path d="M265.676 808.189H263.946V809.919H265.676V808.189Z" fill="black"/>
<path d="M267.405 808.189H265.676V809.919H267.405V808.189Z" fill="black"/>
<path d="M270.865 808.189H269.135V809.919H270.865V808.189Z" fill="black"/>
<path d="M272.595 808.189H270.865V809.919H272.595V808.189Z" fill="black"/>
<path d="M274.324 808.189H272.595V809.919H274.324V808.189Z" fill="black"/>
<path d="M279.514 808.189H277.784V809.919H279.514V808.189Z" fill="black"/>
<path d="M281.243 808.189H279.514V809.919H281.243V808.189Z" fill="black"/>
<path d="M282.973 808.189H281.243V809.919H282.973V808.189Z" fill="black"/>
<path d="M288.162 808.189H286.432V809.919H288.162V808.189Z" fill="black"/>
<path d="M298.541 808.189H296.811V809.919H298.541V808.189Z" fill="black"/>
<path d="M243.189 809.919H241.459V811.649H243.189V809.919Z" fill="black"/>
<path d="M246.649 809.919H244.919V811.649H246.649V809.919Z" fill="black"/>
<path d="M248.378 809.919H246.649V811.649H248.378V809.919Z" fill="black"/>
<path d="M250.108 809.919H248.378V811.649H250.108V809.919Z" fill="black"/>
<path d="M253.568 809.919H251.838V811.649H253.568V809.919Z" fill="black"/>
<path d="M258.757 809.919H257.027V811.649H258.757V809.919Z" fill="black"/>
<path d="M260.487 809.919H258.757V811.649H260.487V809.919Z" fill="black"/>
<path d="M262.216 809.919H260.487V811.649H262.216V809.919Z" fill="black"/>
<path d="M263.946 809.919H262.216V811.649H263.946V809.919Z" fill="black"/>
<path d="M277.784 809.919H276.054V811.649H277.784V809.919Z" fill="black"/>
<path d="M282.973 809.919H281.243V811.649H282.973V809.919Z" fill="black"/>
<path d="M284.703 809.919H282.973V811.649H284.703V809.919Z" fill="black"/>
<path d="M288.162 809.919H286.432V811.649H288.162V809.919Z" fill="black"/>
<path d="M291.622 809.919H289.892V811.649H291.622V809.919Z" fill="black"/>
<path d="M293.351 809.919H291.622V811.649H293.351V809.919Z" fill="black"/>
<path d="M295.081 809.919H293.351V811.649H295.081V809.919Z" fill="black"/>
<path d="M298.541 809.919H296.811V811.649H298.541V809.919Z" fill="black"/>
<path d="M243.189 811.649H241.459V813.378H243.189V811.649Z" fill="black"/>
<path d="M246.649 811.649H244.919V813.378H246.649V811.649Z" fill="black"/>
<path d="M248.378 811.649H246.649V813.378H248.378V811.649Z" fill="black"/>
<path d="M250.108 811.649H248.378V813.378H250.108V811.649Z" fill="black"/>
<path d="M253.568 811.649H251.838V813.378H253.568V811.649Z" fill="black"/>
<path d="M257.027 811.649H255.297V813.378H257.027V811.649Z" fill="black"/>
<path d="M258.757 811.649H257.027V813.378H258.757V811.649Z" fill="black"/>
<path d="M262.216 811.649H260.487V813.378H262.216V811.649Z" fill="black"/>
<path d="M263.946 811.649H262.216V813.378H263.946V811.649Z" fill="black"/>
<path d="M267.405 811.649H265.676V813.378H267.405V811.649Z" fill="black"/>
<path d="M274.324 811.649H272.595V813.378H274.324V811.649Z" fill="black"/>
<path d="M276.054 811.649H274.324V813.378H276.054V811.649Z" fill="black"/>
<path d="M288.162 811.649H286.432V813.378H288.162V811.649Z" fill="black"/>
<path d="M291.622 811.649H289.892V813.378H291.622V811.649Z" fill="black"/>
<path d="M293.351 811.649H291.622V813.378H293.351V811.649Z" fill="black"/>
<path d="M295.081 811.649H293.351V813.378H295.081V811.649Z" fill="black"/>
<path d="M298.541 811.649H296.811V813.378H298.541V811.649Z" fill="black"/>
<path d="M243.189 813.378H241.459V815.108H243.189V813.378Z" fill="black"/>
<path d="M246.649 813.378H244.919V815.108H246.649V813.378Z" fill="black"/>
<path d="M248.378 813.378H246.649V815.108H248.378V813.378Z" fill="black"/>
<path d="M250.108 813.378H248.378V815.108H250.108V813.378Z" fill="black"/>
<path d="M253.568 813.378H251.838V815.108H253.568V813.378Z" fill="black"/>
<path d="M258.757 813.378H257.027V815.108H258.757V813.378Z" fill="black"/>
<path d="M260.487 813.378H258.757V815.108H260.487V813.378Z" fill="black"/>
<path d="M263.946 813.378H262.216V815.108H263.946V813.378Z" fill="black"/>
<path d="M267.405 813.378H265.676V815.108H267.405V813.378Z" fill="black"/>
<path d="M272.595 813.378H270.865V815.108H272.595V813.378Z" fill="black"/>
<path d="M279.514 813.378H277.784V815.108H279.514V813.378Z" fill="black"/>
<path d="M281.243 813.378H279.514V815.108H281.243V813.378Z" fill="black"/>
<path d="M288.162 813.378H286.432V815.108H288.162V813.378Z" fill="black"/>
<path d="M291.622 813.378H289.892V815.108H291.622V813.378Z" fill="black"/>
<path d="M293.351 813.378H291.622V815.108H293.351V813.378Z" fill="black"/>
<path d="M295.081 813.378H293.351V815.108H295.081V813.378Z" fill="black"/>
<path d="M298.541 813.378H296.811V815.108H298.541V813.378Z" fill="black"/>
<path d="M243.189 815.108H241.459V816.838H243.189V815.108Z" fill="black"/>
<path d="M253.568 815.108H251.838V816.838H253.568V815.108Z" fill="black"/>
<path d="M260.487 815.108H258.757V816.838H260.487V815.108Z" fill="black"/>
<path d="M262.216 815.108H260.487V816.838H262.216V815.108Z" fill="black"/>
<path d="M265.676 815.108H263.946V816.838H265.676V815.108Z" fill="black"/>
<path d="M267.405 815.108H265.676V816.838H267.405V815.108Z" fill="black"/>
<path d="M274.324 815.108H272.595V816.838H274.324V815.108Z" fill="black"/>
<path d="M276.054 815.108H274.324V816.838H276.054V815.108Z" fill="black"/>
<path d="M277.784 815.108H276.054V816.838H277.784V815.108Z" fill="black"/>
<path d="M279.514 815.108H277.784V816.838H279.514V815.108Z" fill="black"/>
<path d="M281.243 815.108H279.514V816.838H281.243V815.108Z" fill="black"/>
<path d="M288.162 815.108H286.432V816.838H288.162V815.108Z" fill="black"/>
<path d="M298.541 815.108H296.811V816.838H298.541V815.108Z" fill="black"/>
<path d="M243.189 816.838H241.459V818.568H243.189V816.838Z" fill="black"/>
<path d="M244.919 816.838H243.189V818.568H244.919V816.838Z" fill="black"/>
<path d="M246.649 816.838H244.919V818.568H246.649V816.838Z" fill="black"/>
<path d="M248.378 816.838H246.649V818.568H248.378V816.838Z" fill="black"/>
<path d="M250.108 816.838H248.378V818.568H250.108V816.838Z" fill="black"/>
<path d="M251.838 816.838H250.108V818.568H251.838V816.838Z" fill="black"/>
<path d="M253.568 816.838H251.838V818.568H253.568V816.838Z" fill="black"/>
<path d="M257.027 816.838H255.297V818.568H257.027V816.838Z" fill="black"/>
<path d="M260.487 816.838H258.757V818.568H260.487V816.838Z" fill="black"/>
<path d="M263.946 816.838H262.216V818.568H263.946V816.838Z" fill="black"/>
<path d="M267.405 816.838H265.676V818.568H267.405V816.838Z" fill="black"/>
<path d="M270.865 816.838H269.135V818.568H270.865V816.838Z" fill="black"/>
<path d="M274.324 816.838H272.595V818.568H274.324V816.838Z" fill="black"/>
<path d="M277.784 816.838H276.054V818.568H277.784V816.838Z" fill="black"/>
<path d="M281.243 816.838H279.514V818.568H281.243V816.838Z" fill="black"/>
<path d="M284.703 816.838H282.973V818.568H284.703V816.838Z" fill="black"/>
<path d="M288.162 816.838H286.432V818.568H288.162V816.838Z" fill="black"/>
<path d="M289.892 816.838H288.162V818.568H289.892V816.838Z" fill="black"/>
<path d="M291.622 816.838H289.892V818.568H291.622V816.838Z" fill="black"/>
<path d="M293.351 816.838H291.622V818.568H293.351V816.838Z" fill="black"/>
<path d="M295.081 816.838H293.351V818.568H295.081V816.838Z" fill="black"/>
<path d="M296.811 816.838H295.081V818.568H296.811V816.838Z" fill="black"/>
<path d="M298.541 816.838H296.811V818.568H298.541V816.838Z" fill="black"/>
<path d="M262.216 818.568H260.487V820.297H262.216V818.568Z" fill="black"/>
<path d="M265.676 818.568H263.946V820.297H265.676V818.568Z" fill="black"/>
<path d="M267.405 818.568H265.676V820.297H267.405V818.568Z" fill="black"/>
<path d="M270.865 818.568H269.135V820.297H270.865V818.568Z" fill="black"/>
<path d="M272.595 818.568H270.865V820.297H272.595V818.568Z" fill="black"/>
<path d="M277.784 818.568H276.054V820.297H277.784V818.568Z" fill="black"/>
<path d="M279.514 818.568H277.784V820.297H279.514V818.568Z" fill="black"/>
<path d="M284.703 818.568H282.973V820.297H284.703V818.568Z" fill="black"/>
<path d="M246.649 820.297H244.919V822.027H246.649V820.297Z" fill="black"/>
<path d="M250.108 820.297H248.378V822.027H250.108V820.297Z" fill="black"/>
<path d="M251.838 820.297H250.108V822.027H251.838V820.297Z" fill="black"/>
<path d="M253.568 820.297H251.838V822.027H253.568V820.297Z" fill="black"/>
<path d="M257.027 820.297H255.297V822.027H257.027V820.297Z" fill="black"/>
<path d="M258.757 820.297H257.027V822.027H258.757V820.297Z" fill="black"/>
<path d="M265.676 820.297H263.946V822.027H265.676V820.297Z" fill="black"/>
<path d="M270.865 820.297H269.135V822.027H270.865V820.297Z" fill="black"/>
<path d="M272.595 820.297H270.865V822.027H272.595V820.297Z" fill="black"/>
<path d="M274.324 820.297H272.595V822.027H274.324V820.297Z" fill="black"/>
<path d="M279.514 820.297H277.784V822.027H279.514V820.297Z" fill="black"/>
<path d="M282.973 820.297H281.243V822.027H282.973V820.297Z" fill="black"/>
<path d="M284.703 820.297H282.973V822.027H284.703V820.297Z" fill="black"/>
<path d="M286.432 820.297H284.703V822.027H286.432V820.297Z" fill="black"/>
<path d="M293.351 820.297H291.622V822.027H293.351V820.297Z" fill="black"/>
<path d="M298.541 820.297H296.811V822.027H298.541V820.297Z" fill="black"/>
<path d="M246.649 822.027H244.919V823.757H246.649V822.027Z" fill="black"/>
<path d="M250.108 822.027H248.378V823.757H250.108V822.027Z" fill="black"/>
<path d="M255.297 822.027H253.568V823.757H255.297V822.027Z" fill="black"/>
<path d="M258.757 822.027H257.027V823.757H258.757V822.027Z" fill="black"/>
<path d="M260.487 822.027H258.757V823.757H260.487V822.027Z" fill="black"/>
<path d="M262.216 822.027H260.487V823.757H262.216V822.027Z" fill="black"/>
<path d="M263.946 822.027H262.216V823.757H263.946V822.027Z" fill="black"/>
<path d="M276.054 822.027H274.324V823.757H276.054V822.027Z" fill="black"/>
<path d="M279.514 822.027H277.784V823.757H279.514V822.027Z" fill="black"/>
<path d="M284.703 822.027H282.973V823.757H284.703V822.027Z" fill="black"/>
<path d="M288.162 822.027H286.432V823.757H288.162V822.027Z" fill="black"/>
<path d="M295.081 822.027H293.351V823.757H295.081V822.027Z" fill="black"/>
<path d="M296.811 822.027H295.081V823.757H296.811V822.027Z" fill="black"/>
<path d="M298.541 822.027H296.811V823.757H298.541V822.027Z" fill="black"/>
<path d="M251.838 823.757H250.108V825.486H251.838V823.757Z" fill="black"/>
<path d="M253.568 823.757H251.838V825.486H253.568V823.757Z" fill="black"/>
<path d="M257.027 823.757H255.297V825.486H257.027V823.757Z" fill="black"/>
<path d="M258.757 823.757H257.027V825.486H258.757V823.757Z" fill="black"/>
<path d="M260.487 823.757H258.757V825.486H260.487V823.757Z" fill="black"/>
<path d="M263.946 823.757H262.216V825.486H263.946V823.757Z" fill="black"/>
<path d="M265.676 823.757H263.946V825.486H265.676V823.757Z" fill="black"/>
<path d="M270.865 823.757H269.135V825.486H270.865V823.757Z" fill="black"/>
<path d="M274.324 823.757H272.595V825.486H274.324V823.757Z" fill="black"/>
<path d="M277.784 823.757H276.054V825.486H277.784V823.757Z" fill="black"/>
<path d="M281.243 823.757H279.514V825.486H281.243V823.757Z" fill="black"/>
<path d="M284.703 823.757H282.973V825.486H284.703V823.757Z" fill="black"/>
<path d="M286.432 823.757H284.703V825.486H286.432V823.757Z" fill="black"/>
<path d="M291.622 823.757H289.892V825.486H291.622V823.757Z" fill="black"/>
<path d="M296.811 823.757H295.081V825.486H296.811V823.757Z" fill="black"/>
<path d="M298.541 823.757H296.811V825.486H298.541V823.757Z" fill="black"/>
<path d="M243.189 825.486H241.459V827.216H243.189V825.486Z" fill="black"/>
<path d="M246.649 825.486H244.919V827.216H246.649V825.486Z" fill="black"/>
<path d="M250.108 825.486H248.378V827.216H250.108V825.486Z" fill="black"/>
<path d="M255.297 825.486H253.568V827.216H255.297V825.486Z" fill="black"/>
<path d="M258.757 825.486H257.027V827.216H258.757V825.486Z" fill="black"/>
<path d="M260.487 825.486H258.757V827.216H260.487V825.486Z" fill="black"/>
<path d="M262.216 825.486H260.487V827.216H262.216V825.486Z" fill="black"/>
<path d="M263.946 825.486H262.216V827.216H263.946V825.486Z" fill="black"/>
<path d="M265.676 825.486H263.946V827.216H265.676V825.486Z" fill="black"/>
<path d="M269.135 825.486H267.405V827.216H269.135V825.486Z" fill="black"/>
<path d="M274.324 825.486H272.595V827.216H274.324V825.486Z" fill="black"/>
<path d="M276.054 825.486H274.324V827.216H276.054V825.486Z" fill="black"/>
<path d="M277.784 825.486H276.054V827.216H277.784V825.486Z" fill="black"/>
<path d="M279.514 825.486H277.784V827.216H279.514V825.486Z" fill="black"/>
<path d="M281.243 825.486H279.514V827.216H281.243V825.486Z" fill="black"/>
<path d="M284.703 825.486H282.973V827.216H284.703V825.486Z" fill="black"/>
<path d="M286.432 825.486H284.703V827.216H286.432V825.486Z" fill="black"/>
<path d="M296.811 825.486H295.081V827.216H296.811V825.486Z" fill="black"/>
<path d="M243.189 827.216H241.459V828.946H243.189V827.216Z" fill="black"/>
<path d="M244.919 827.216H243.189V828.946H244.919V827.216Z" fill="black"/>
<path d="M248.378 827.216H246.649V828.946H248.378V827.216Z" fill="black"/>
<path d="M250.108 827.216H248.378V828.946H250.108V827.216Z" fill="black"/>
<path d="M253.568 827.216H251.838V828.946H253.568V827.216Z" fill="black"/>
<path d="M255.297 827.216H253.568V828.946H255.297V827.216Z" fill="black"/>
<path d="M258.757 827.216H257.027V828.946H258.757V827.216Z" fill="black"/>
<path d="M260.487 827.216H258.757V828.946H260.487V827.216Z" fill="black"/>
<path d="M265.676 827.216H263.946V828.946H265.676V827.216Z" fill="black"/>
<path d="M267.405 827.216H265.676V828.946H267.405V827.216Z" fill="black"/>
<path d="M269.135 827.216H267.405V828.946H269.135V827.216Z" fill="black"/>
<path d="M274.324 827.216H272.595V828.946H274.324V827.216Z" fill="black"/>
<path d="M276.054 827.216H274.324V828.946H276.054V827.216Z" fill="black"/>
<path d="M281.243 827.216H279.514V828.946H281.243V827.216Z" fill="black"/>
<path d="M282.973 827.216H281.243V828.946H282.973V827.216Z" fill="black"/>
<path d="M284.703 827.216H282.973V828.946H284.703V827.216Z" fill="black"/>
<path d="M286.432 827.216H284.703V828.946H286.432V827.216Z" fill="black"/>
<path d="M288.162 827.216H286.432V828.946H288.162V827.216Z" fill="black"/>
<path d="M289.892 827.216H288.162V828.946H289.892V827.216Z" fill="black"/>
<path d="M291.622 827.216H289.892V828.946H291.622V827.216Z" fill="black"/>
<path d="M296.811 827.216H295.081V828.946H296.811V827.216Z" fill="black"/>
<path d="M298.541 827.216H296.811V828.946H298.541V827.216Z" fill="black"/>
<path d="M246.649 828.946H244.919V830.676H246.649V828.946Z" fill="black"/>
<path d="M248.378 828.946H246.649V830.676H248.378V828.946Z" fill="black"/>
<path d="M250.108 828.946H248.378V830.676H250.108V828.946Z" fill="black"/>
<path d="M251.838 828.946H250.108V830.676H251.838V828.946Z" fill="black"/>
<path d="M263.946 828.946H262.216V830.676H263.946V828.946Z" fill="black"/>
<path d="M265.676 828.946H263.946V830.676H265.676V828.946Z" fill="black"/>
<path d="M270.865 828.946H269.135V830.676H270.865V828.946Z" fill="black"/>
<path d="M272.595 828.946H270.865V830.676H272.595V828.946Z" fill="black"/>
<path d="M276.054 828.946H274.324V830.676H276.054V828.946Z" fill="black"/>
<path d="M277.784 828.946H276.054V830.676H277.784V828.946Z" fill="black"/>
<path d="M281.243 828.946H279.514V830.676H281.243V828.946Z" fill="black"/>
<path d="M284.703 828.946H282.973V830.676H284.703V828.946Z" fill="black"/>
<path d="M286.432 828.946H284.703V830.676H286.432V828.946Z" fill="black"/>
<path d="M288.162 828.946H286.432V830.676H288.162V828.946Z" fill="black"/>
<path d="M289.892 828.946H288.162V830.676H289.892V828.946Z" fill="black"/>
<path d="M296.811 828.946H295.081V830.676H296.811V828.946Z" fill="black"/>
<path d="M298.541 828.946H296.811V830.676H298.541V828.946Z" fill="black"/>
<path d="M243.189 830.676H241.459V832.405H243.189V830.676Z" fill="black"/>
<path d="M248.378 830.676H246.649V832.405H248.378V830.676Z" fill="black"/>
<path d="M251.838 830.676H250.108V832.405H251.838V830.676Z" fill="black"/>
<path d="M253.568 830.676H251.838V832.405H253.568V830.676Z" fill="black"/>
<path d="M257.027 830.676H255.297V832.405H257.027V830.676Z" fill="black"/>
<path d="M258.757 830.676H257.027V832.405H258.757V830.676Z" fill="black"/>
<path d="M260.487 830.676H258.757V832.405H260.487V830.676Z" fill="black"/>
<path d="M262.216 830.676H260.487V832.405H262.216V830.676Z" fill="black"/>
<path d="M274.324 830.676H272.595V832.405H274.324V830.676Z" fill="black"/>
<path d="M279.514 830.676H277.784V832.405H279.514V830.676Z" fill="black"/>
<path d="M284.703 830.676H282.973V832.405H284.703V830.676Z" fill="black"/>
<path d="M286.432 830.676H284.703V832.405H286.432V830.676Z" fill="black"/>
<path d="M288.162 830.676H286.432V832.405H288.162V830.676Z" fill="black"/>
<path d="M289.892 830.676H288.162V832.405H289.892V830.676Z" fill="black"/>
<path d="M291.622 830.676H289.892V832.405H291.622V830.676Z" fill="black"/>
<path d="M293.351 830.676H291.622V832.405H293.351V830.676Z" fill="black"/>
<path d="M295.081 830.676H293.351V832.405H295.081V830.676Z" fill="black"/>
<path d="M296.811 830.676H295.081V832.405H296.811V830.676Z" fill="black"/>
<path d="M298.541 830.676H296.811V832.405H298.541V830.676Z" fill="black"/>
<path d="M248.378 832.405H246.649V834.135H248.378V832.405Z" fill="black"/>
<path d="M250.108 832.405H248.378V834.135H250.108V832.405Z" fill="black"/>
<path d="M255.297 832.405H253.568V834.135H255.297V832.405Z" fill="black"/>
<path d="M260.487 832.405H258.757V834.135H260.487V832.405Z" fill="black"/>
<path d="M263.946 832.405H262.216V834.135H263.946V832.405Z" fill="black"/>
<path d="M265.676 832.405H263.946V834.135H265.676V832.405Z" fill="black"/>
<path d="M267.405 832.405H265.676V834.135H267.405V832.405Z" fill="black"/>
<path d="M269.135 832.405H267.405V834.135H269.135V832.405Z" fill="black"/>
<path d="M270.865 832.405H269.135V834.135H270.865V832.405Z" fill="black"/>
<path d="M277.784 832.405H276.054V834.135H277.784V832.405Z" fill="black"/>
<path d="M279.514 832.405H277.784V834.135H279.514V832.405Z" fill="black"/>
<path d="M281.243 832.405H279.514V834.135H281.243V832.405Z" fill="black"/>
<path d="M289.892 832.405H288.162V834.135H289.892V832.405Z" fill="black"/>
<path d="M293.351 832.405H291.622V834.135H293.351V832.405Z" fill="black"/>
<path d="M298.541 832.405H296.811V834.135H298.541V832.405Z" fill="black"/>
<path d="M246.649 834.135H244.919V835.865H246.649V834.135Z" fill="black"/>
<path d="M248.378 834.135H246.649V835.865H248.378V834.135Z" fill="black"/>
<path d="M251.838 834.135H250.108V835.865H251.838V834.135Z" fill="black"/>
<path d="M253.568 834.135H251.838V835.865H253.568V834.135Z" fill="black"/>
<path d="M262.216 834.135H260.487V835.865H262.216V834.135Z" fill="black"/>
<path d="M263.946 834.135H262.216V835.865H263.946V834.135Z" fill="black"/>
<path d="M270.865 834.135H269.135V835.865H270.865V834.135Z" fill="black"/>
<path d="M272.595 834.135H270.865V835.865H272.595V834.135Z" fill="black"/>
<path d="M276.054 834.135H274.324V835.865H276.054V834.135Z" fill="black"/>
<path d="M279.514 834.135H277.784V835.865H279.514V834.135Z" fill="black"/>
<path d="M281.243 834.135H279.514V835.865H281.243V834.135Z" fill="black"/>
<path d="M286.432 834.135H284.703V835.865H286.432V834.135Z" fill="black"/>
<path d="M288.162 834.135H286.432V835.865H288.162V834.135Z" fill="black"/>
<path d="M295.081 834.135H293.351V835.865H295.081V834.135Z" fill="black"/>
<path d="M243.189 835.865H241.459V837.595H243.189V835.865Z" fill="black"/>
<path d="M246.649 835.865H244.919V837.595H246.649V835.865Z" fill="black"/>
<path d="M250.108 835.865H248.378V837.595H250.108V835.865Z" fill="black"/>
<path d="M251.838 835.865H250.108V837.595H251.838V835.865Z" fill="black"/>
<path d="M255.297 835.865H253.568V837.595H255.297V835.865Z" fill="black"/>
<path d="M258.757 835.865H257.027V837.595H258.757V835.865Z" fill="black"/>
<path d="M265.676 835.865H263.946V837.595H265.676V835.865Z" fill="black"/>
<path d="M267.405 835.865H265.676V837.595H267.405V835.865Z" fill="black"/>
<path d="M269.135 835.865H267.405V837.595H269.135V835.865Z" fill="black"/>
<path d="M272.595 835.865H270.865V837.595H272.595V835.865Z" fill="black"/>
<path d="M276.054 835.865H274.324V837.595H276.054V835.865Z" fill="black"/>
<path d="M277.784 835.865H276.054V837.595H277.784V835.865Z" fill="black"/>
<path d="M288.162 835.865H286.432V837.595H288.162V835.865Z" fill="black"/>
<path d="M293.351 835.865H291.622V837.595H293.351V835.865Z" fill="black"/>
<path d="M295.081 835.865H293.351V837.595H295.081V835.865Z" fill="black"/>
<path d="M296.811 835.865H295.081V837.595H296.811V835.865Z" fill="black"/>
<path d="M298.541 835.865H296.811V837.595H298.541V835.865Z" fill="black"/>
<path d="M244.919 837.595H243.189V839.324H244.919V837.595Z" fill="black"/>
<path d="M246.649 837.595H244.919V839.324H246.649V837.595Z" fill="black"/>
<path d="M250.108 837.595H248.378V839.324H250.108V837.595Z" fill="black"/>
<path d="M251.838 837.595H250.108V839.324H251.838V837.595Z" fill="black"/>
<path d="M253.568 837.595H251.838V839.324H253.568V837.595Z" fill="black"/>
<path d="M258.757 837.595H257.027V839.324H258.757V837.595Z" fill="black"/>
<path d="M260.487 837.595H258.757V839.324H260.487V837.595Z" fill="black"/>
<path d="M262.216 837.595H260.487V839.324H262.216V837.595Z" fill="black"/>
<path d="M265.676 837.595H263.946V839.324H265.676V837.595Z" fill="black"/>
<path d="M267.405 837.595H265.676V839.324H267.405V837.595Z" fill="black"/>
<path d="M276.054 837.595H274.324V839.324H276.054V837.595Z" fill="black"/>
<path d="M279.514 837.595H277.784V839.324H279.514V837.595Z" fill="black"/>
<path d="M286.432 837.595H284.703V839.324H286.432V837.595Z" fill="black"/>
<path d="M295.081 837.595H293.351V839.324H295.081V837.595Z" fill="black"/>
<path d="M296.811 837.595H295.081V839.324H296.811V837.595Z" fill="black"/>
<path d="M298.541 837.595H296.811V839.324H298.541V837.595Z" fill="black"/>
<path d="M243.189 839.324H241.459V841.054H243.189V839.324Z" fill="black"/>
<path d="M244.919 839.324H243.189V841.054H244.919V839.324Z" fill="black"/>
<path d="M250.108 839.324H248.378V841.054H250.108V839.324Z" fill="black"/>
<path d="M255.297 839.324H253.568V841.054H255.297V839.324Z" fill="black"/>
<path d="M257.027 839.324H255.297V841.054H257.027V839.324Z" fill="black"/>
<path d="M262.216 839.324H260.487V841.054H262.216V839.324Z" fill="black"/>
<path d="M265.676 839.324H263.946V841.054H265.676V839.324Z" fill="black"/>
<path d="M269.135 839.324H267.405V841.054H269.135V839.324Z" fill="black"/>
<path d="M270.865 839.324H269.135V841.054H270.865V839.324Z" fill="black"/>
<path d="M276.054 839.324H274.324V841.054H276.054V839.324Z" fill="black"/>
<path d="M279.514 839.324H277.784V841.054H279.514V839.324Z" fill="black"/>
<path d="M286.432 839.324H284.703V841.054H286.432V839.324Z" fill="black"/>
<path d="M288.162 839.324H286.432V841.054H288.162V839.324Z" fill="black"/>
<path d="M296.811 839.324H295.081V841.054H296.811V839.324Z" fill="black"/>
<path d="M298.541 839.324H296.811V841.054H298.541V839.324Z" fill="black"/>
<path d="M243.189 841.054H241.459V842.784H243.189V841.054Z" fill="black"/>
<path d="M244.919 841.054H243.189V842.784H244.919V841.054Z" fill="black"/>
<path d="M246.649 841.054H244.919V842.784H246.649V841.054Z" fill="black"/>
<path d="M251.838 841.054H250.108V842.784H251.838V841.054Z" fill="black"/>
<path d="M253.568 841.054H251.838V842.784H253.568V841.054Z" fill="black"/>
<path d="M257.027 841.054H255.297V842.784H257.027V841.054Z" fill="black"/>
<path d="M258.757 841.054H257.027V842.784H258.757V841.054Z" fill="black"/>
<path d="M274.324 841.054H272.595V842.784H274.324V841.054Z" fill="black"/>
<path d="M276.054 841.054H274.324V842.784H276.054V841.054Z" fill="black"/>
<path d="M279.514 841.054H277.784V842.784H279.514V841.054Z" fill="black"/>
<path d="M281.243 841.054H279.514V842.784H281.243V841.054Z" fill="black"/>
<path d="M286.432 841.054H284.703V842.784H286.432V841.054Z" fill="black"/>
<path d="M293.351 841.054H291.622V842.784H293.351V841.054Z" fill="black"/>
<path d="M296.811 841.054H295.081V842.784H296.811V841.054Z" fill="black"/>
<path d="M298.541 841.054H296.811V842.784H298.541V841.054Z" fill="black"/>
<path d="M244.919 842.784H243.189V844.514H244.919V842.784Z" fill="black"/>
<path d="M246.649 842.784H244.919V844.514H246.649V842.784Z" fill="black"/>
<path d="M250.108 842.784H248.378V844.514H250.108V842.784Z" fill="black"/>
<path d="M260.487 842.784H258.757V844.514H260.487V842.784Z" fill="black"/>
<path d="M262.216 842.784H260.487V844.514H262.216V842.784Z" fill="black"/>
<path d="M263.946 842.784H262.216V844.514H263.946V842.784Z" fill="black"/>
<path d="M270.865 842.784H269.135V844.514H270.865V842.784Z" fill="black"/>
<path d="M276.054 842.784H274.324V844.514H276.054V842.784Z" fill="black"/>
<path d="M277.784 842.784H276.054V844.514H277.784V842.784Z" fill="black"/>
<path d="M281.243 842.784H279.514V844.514H281.243V842.784Z" fill="black"/>
<path d="M282.973 842.784H281.243V844.514H282.973V842.784Z" fill="black"/>
<path d="M286.432 842.784H284.703V844.514H286.432V842.784Z" fill="black"/>
<path d="M296.811 842.784H295.081V844.514H296.811V842.784Z" fill="black"/>
<path d="M298.541 842.784H296.811V844.514H298.541V842.784Z" fill="black"/>
<path d="M243.189 844.514H241.459V846.243H243.189V844.514Z" fill="black"/>
<path d="M250.108 844.514H248.378V846.243H250.108V844.514Z" fill="black"/>
<path d="M253.568 844.514H251.838V846.243H253.568V844.514Z" fill="black"/>
<path d="M255.297 844.514H253.568V846.243H255.297V844.514Z" fill="black"/>
<path d="M260.487 844.514H258.757V846.243H260.487V844.514Z" fill="black"/>
<path d="M262.216 844.514H260.487V846.243H262.216V844.514Z" fill="black"/>
<path d="M263.946 844.514H262.216V846.243H263.946V844.514Z" fill="black"/>
<path d="M265.676 844.514H263.946V846.243H265.676V844.514Z" fill="black"/>
<path d="M267.405 844.514H265.676V846.243H267.405V844.514Z" fill="black"/>
<path d="M269.135 844.514H267.405V846.243H269.135V844.514Z" fill="black"/>
<path d="M274.324 844.514H272.595V846.243H274.324V844.514Z" fill="black"/>
<path d="M276.054 844.514H274.324V846.243H276.054V844.514Z" fill="black"/>
<path d="M281.243 844.514H279.514V846.243H281.243V844.514Z" fill="black"/>
<path d="M288.162 844.514H286.432V846.243H288.162V844.514Z" fill="black"/>
<path d="M289.892 844.514H288.162V846.243H289.892V844.514Z" fill="black"/>
<path d="M293.351 844.514H291.622V846.243H293.351V844.514Z" fill="black"/>
<path d="M295.081 844.514H293.351V846.243H295.081V844.514Z" fill="black"/>
<path d="M296.811 844.514H295.081V846.243H296.811V844.514Z" fill="black"/>
<path d="M298.541 844.514H296.811V846.243H298.541V844.514Z" fill="black"/>
<path d="M244.919 846.243H243.189V847.973H244.919V846.243Z" fill="black"/>
<path d="M246.649 846.243H244.919V847.973H246.649V846.243Z" fill="black"/>
<path d="M260.487 846.243H258.757V847.973H260.487V846.243Z" fill="black"/>
<path d="M262.216 846.243H260.487V847.973H262.216V846.243Z" fill="black"/>
<path d="M267.405 846.243H265.676V847.973H267.405V846.243Z" fill="black"/>
<path d="M269.135 846.243H267.405V847.973H269.135V846.243Z" fill="black"/>
<path d="M270.865 846.243H269.135V847.973H270.865V846.243Z" fill="black"/>
<path d="M272.595 846.243H270.865V847.973H272.595V846.243Z" fill="black"/>
<path d="M274.324 846.243H272.595V847.973H274.324V846.243Z" fill="black"/>
<path d="M279.514 846.243H277.784V847.973H279.514V846.243Z" fill="black"/>
<path d="M281.243 846.243H279.514V847.973H281.243V846.243Z" fill="black"/>
<path d="M282.973 846.243H281.243V847.973H282.973V846.243Z" fill="black"/>
<path d="M286.432 846.243H284.703V847.973H286.432V846.243Z" fill="black"/>
<path d="M289.892 846.243H288.162V847.973H289.892V846.243Z" fill="black"/>
<path d="M298.541 846.243H296.811V847.973H298.541V846.243Z" fill="black"/>
<path d="M243.189 847.973H241.459V849.703H243.189V847.973Z" fill="black"/>
<path d="M246.649 847.973H244.919V849.703H246.649V847.973Z" fill="black"/>
<path d="M248.378 847.973H246.649V849.703H248.378V847.973Z" fill="black"/>
<path d="M253.568 847.973H251.838V849.703H253.568V847.973Z" fill="black"/>
<path d="M255.297 847.973H253.568V849.703H255.297V847.973Z" fill="black"/>
<path d="M257.027 847.973H255.297V849.703H257.027V847.973Z" fill="black"/>
<path d="M260.487 847.973H258.757V849.703H260.487V847.973Z" fill="black"/>
<path d="M262.216 847.973H260.487V849.703H262.216V847.973Z" fill="black"/>
<path d="M265.676 847.973H263.946V849.703H265.676V847.973Z" fill="black"/>
<path d="M269.135 847.973H267.405V849.703H269.135V847.973Z" fill="black"/>
<path d="M274.324 847.973H272.595V849.703H274.324V847.973Z" fill="black"/>
<path d="M279.514 847.973H277.784V849.703H279.514V847.973Z" fill="black"/>
<path d="M284.703 847.973H282.973V849.703H284.703V847.973Z" fill="black"/>
<path d="M286.432 847.973H284.703V849.703H286.432V847.973Z" fill="black"/>
<path d="M288.162 847.973H286.432V849.703H288.162V847.973Z" fill="black"/>
<path d="M289.892 847.973H288.162V849.703H289.892V847.973Z" fill="black"/>
<path d="M291.622 847.973H289.892V849.703H291.622V847.973Z" fill="black"/>
<path d="M298.541 847.973H296.811V849.703H298.541V847.973Z" fill="black"/>
<path d="M257.027 849.703H255.297V851.432H257.027V849.703Z" fill="black"/>
<path d="M260.487 849.703H258.757V851.432H260.487V849.703Z" fill="black"/>
<path d="M262.216 849.703H260.487V851.432H262.216V849.703Z" fill="black"/>
<path d="M269.135 849.703H267.405V851.432H269.135V849.703Z" fill="black"/>
<path d="M270.865 849.703H269.135V851.432H270.865V849.703Z" fill="black"/>
<path d="M272.595 849.703H270.865V851.432H272.595V849.703Z" fill="black"/>
<path d="M277.784 849.703H276.054V851.432H277.784V849.703Z" fill="black"/>
<path d="M282.973 849.703H281.243V851.432H282.973V849.703Z" fill="black"/>
<path d="M284.703 849.703H282.973V851.432H284.703V849.703Z" fill="black"/>
<path d="M291.622 849.703H289.892V851.432H291.622V849.703Z" fill="black"/>
<path d="M296.811 849.703H295.081V851.432H296.811V849.703Z" fill="black"/>
<path d="M298.541 849.703H296.811V851.432H298.541V849.703Z" fill="black"/>
<path d="M243.189 851.432H241.459V853.162H243.189V851.432Z" fill="black"/>
<path d="M244.919 851.432H243.189V853.162H244.919V851.432Z" fill="black"/>
<path d="M246.649 851.432H244.919V853.162H246.649V851.432Z" fill="black"/>
<path d="M248.378 851.432H246.649V853.162H248.378V851.432Z" fill="black"/>
<path d="M250.108 851.432H248.378V853.162H250.108V851.432Z" fill="black"/>
<path d="M251.838 851.432H250.108V853.162H251.838V851.432Z" fill="black"/>
<path d="M253.568 851.432H251.838V853.162H253.568V851.432Z" fill="black"/>
<path d="M258.757 851.432H257.027V853.162H258.757V851.432Z" fill="black"/>
<path d="M265.676 851.432H263.946V853.162H265.676V851.432Z" fill="black"/>
<path d="M269.135 851.432H267.405V853.162H269.135V851.432Z" fill="black"/>
<path d="M272.595 851.432H270.865V853.162H272.595V851.432Z" fill="black"/>
<path d="M274.324 851.432H272.595V853.162H274.324V851.432Z" fill="black"/>
<path d="M276.054 851.432H274.324V853.162H276.054V851.432Z" fill="black"/>
<path d="M279.514 851.432H277.784V853.162H279.514V851.432Z" fill="black"/>
<path d="M282.973 851.432H281.243V853.162H282.973V851.432Z" fill="black"/>
<path d="M284.703 851.432H282.973V853.162H284.703V851.432Z" fill="black"/>
<path d="M288.162 851.432H286.432V853.162H288.162V851.432Z" fill="black"/>
<path d="M291.622 851.432H289.892V853.162H291.622V851.432Z" fill="black"/>
<path d="M293.351 851.432H291.622V853.162H293.351V851.432Z" fill="black"/>
<path d="M295.081 851.432H293.351V853.162H295.081V851.432Z" fill="black"/>
<path d="M296.811 851.432H295.081V853.162H296.811V851.432Z" fill="black"/>
<path d="M298.541 851.432H296.811V853.162H298.541V851.432Z" fill="black"/>
<path d="M243.189 853.162H241.459V854.892H243.189V853.162Z" fill="black"/>
<path d="M253.568 853.162H251.838V854.892H253.568V853.162Z" fill="black"/>
<path d="M257.027 853.162H255.297V854.892H257.027V853.162Z" fill="black"/>
<path d="M260.487 853.162H258.757V854.892H260.487V853.162Z" fill="black"/>
<path d="M267.405 853.162H265.676V854.892H267.405V853.162Z" fill="black"/>
<path d="M269.135 853.162H267.405V854.892H269.135V853.162Z" fill="black"/>
<path d="M272.595 853.162H270.865V854.892H272.595V853.162Z" fill="black"/>
<path d="M274.324 853.162H272.595V854.892H274.324V853.162Z" fill="black"/>
<path d="M276.054 853.162H274.324V854.892H276.054V853.162Z" fill="black"/>
<path d="M282.973 853.162H281.243V854.892H282.973V853.162Z" fill="black"/>
<path d="M284.703 853.162H282.973V854.892H284.703V853.162Z" fill="black"/>
<path d="M291.622 853.162H289.892V854.892H291.622V853.162Z" fill="black"/>
<path d="M298.541 853.162H296.811V854.892H298.541V853.162Z" fill="black"/>
<path d="M243.189 854.892H241.459V856.622H243.189V854.892Z" fill="black"/>
<path d="M246.649 854.892H244.919V856.622H246.649V854.892Z" fill="black"/>
<path d="M248.378 854.892H246.649V856.622H248.378V854.892Z" fill="black"/>
<path d="M250.108 854.892H248.378V856.622H250.108V854.892Z" fill="black"/>
<path d="M253.568 854.892H251.838V856.622H253.568V854.892Z" fill="black"/>
<path d="M257.027 854.892H255.297V856.622H257.027V854.892Z" fill="black"/>
<path d="M258.757 854.892H257.027V856.622H258.757V854.892Z" fill="black"/>
<path d="M262.216 854.892H260.487V856.622H262.216V854.892Z" fill="black"/>
<path d="M263.946 854.892H262.216V856.622H263.946V854.892Z" fill="black"/>
<path d="M265.676 854.892H263.946V856.622H265.676V854.892Z" fill="black"/>
<path d="M272.595 854.892H270.865V856.622H272.595V854.892Z" fill="black"/>
<path d="M274.324 854.892H272.595V856.622H274.324V854.892Z" fill="black"/>
<path d="M276.054 854.892H274.324V856.622H276.054V854.892Z" fill="black"/>
<path d="M284.703 854.892H282.973V856.622H284.703V854.892Z" fill="black"/>
<path d="M286.432 854.892H284.703V856.622H286.432V854.892Z" fill="black"/>
<path d="M288.162 854.892H286.432V856.622H288.162V854.892Z" fill="black"/>
<path d="M289.892 854.892H288.162V856.622H289.892V854.892Z" fill="black"/>
<path d="M291.622 854.892H289.892V856.622H291.622V854.892Z" fill="black"/>
<path d="M293.351 854.892H291.622V856.622H293.351V854.892Z" fill="black"/>
<path d="M296.811 854.892H295.081V856.622H296.811V854.892Z" fill="black"/>
<path d="M243.189 856.622H241.459V858.351H243.189V856.622Z" fill="black"/>
<path d="M246.649 856.622H244.919V858.351H246.649V856.622Z" fill="black"/>
<path d="M248.378 856.622H246.649V858.351H248.378V856.622Z" fill="black"/>
<path d="M250.108 856.622H248.378V858.351H250.108V856.622Z" fill="black"/>
<path d="M253.568 856.622H251.838V858.351H253.568V856.622Z" fill="black"/>
<path d="M262.216 856.622H260.487V858.351H262.216V856.622Z" fill="black"/>
<path d="M263.946 856.622H262.216V858.351H263.946V856.622Z" fill="black"/>
<path d="M265.676 856.622H263.946V858.351H265.676V856.622Z" fill="black"/>
<path d="M269.135 856.622H267.405V858.351H269.135V856.622Z" fill="black"/>
<path d="M272.595 856.622H270.865V858.351H272.595V856.622Z" fill="black"/>
<path d="M276.054 856.622H274.324V858.351H276.054V856.622Z" fill="black"/>
<path d="M277.784 856.622H276.054V858.351H277.784V856.622Z" fill="black"/>
<path d="M282.973 856.622H281.243V858.351H282.973V856.622Z" fill="black"/>
<path d="M284.703 856.622H282.973V858.351H284.703V856.622Z" fill="black"/>
<path d="M291.622 856.622H289.892V858.351H291.622V856.622Z" fill="black"/>
<path d="M295.081 856.622H293.351V858.351H295.081V856.622Z" fill="black"/>
<path d="M243.189 858.351H241.459V860.081H243.189V858.351Z" fill="black"/>
<path d="M246.649 858.351H244.919V860.081H246.649V858.351Z" fill="black"/>
<path d="M248.378 858.351H246.649V860.081H248.378V858.351Z" fill="black"/>
<path d="M250.108 858.351H248.378V860.081H250.108V858.351Z" fill="black"/>
<path d="M253.568 858.351H251.838V860.081H253.568V858.351Z" fill="black"/>
<path d="M257.027 858.351H255.297V860.081H257.027V858.351Z" fill="black"/>
<path d="M258.757 858.351H257.027V860.081H258.757V858.351Z" fill="black"/>
<path d="M260.487 858.351H258.757V860.081H260.487V858.351Z" fill="black"/>
<path d="M262.216 858.351H260.487V860.081H262.216V858.351Z" fill="black"/>
<path d="M265.676 858.351H263.946V860.081H265.676V858.351Z" fill="black"/>
<path d="M267.405 858.351H265.676V860.081H267.405V858.351Z" fill="black"/>
<path d="M270.865 858.351H269.135V860.081H270.865V858.351Z" fill="black"/>
<path d="M276.054 858.351H274.324V860.081H276.054V858.351Z" fill="black"/>
<path d="M277.784 858.351H276.054V860.081H277.784V858.351Z" fill="black"/>
<path d="M279.514 858.351H277.784V860.081H279.514V858.351Z" fill="black"/>
<path d="M284.703 858.351H282.973V860.081H284.703V858.351Z" fill="black"/>
<path d="M286.432 858.351H284.703V860.081H286.432V858.351Z" fill="black"/>
<path d="M289.892 858.351H288.162V860.081H289.892V858.351Z" fill="black"/>
<path d="M291.622 858.351H289.892V860.081H291.622V858.351Z" fill="black"/>
<path d="M298.541 858.351H296.811V860.081H298.541V858.351Z" fill="black"/>
<path d="M243.189 860.081H241.459V861.811H243.189V860.081Z" fill="black"/>
<path d="M253.568 860.081H251.838V861.811H253.568V860.081Z" fill="black"/>
<path d="M262.216 860.081H260.487V861.811H262.216V860.081Z" fill="black"/>
<path d="M265.676 860.081H263.946V861.811H265.676V860.081Z" fill="black"/>
<path d="M269.135 860.081H267.405V861.811H269.135V860.081Z" fill="black"/>
<path d="M279.514 860.081H277.784V861.811H279.514V860.081Z" fill="black"/>
<path d="M281.243 860.081H279.514V861.811H281.243V860.081Z" fill="black"/>
<path d="M284.703 860.081H282.973V861.811H284.703V860.081Z" fill="black"/>
<path d="M286.432 860.081H284.703V861.811H286.432V860.081Z" fill="black"/>
<path d="M289.892 860.081H288.162V861.811H289.892V860.081Z" fill="black"/>
<path d="M295.081 860.081H293.351V861.811H295.081V860.081Z" fill="black"/>
<path d="M296.811 860.081H295.081V861.811H296.811V860.081Z" fill="black"/>
<path d="M243.189 861.811H241.459V863.541H243.189V861.811Z" fill="black"/>
<path d="M244.919 861.811H243.189V863.541H244.919V861.811Z" fill="black"/>
<path d="M246.649 861.811H244.919V863.541H246.649V861.811Z" fill="black"/>
<path d="M248.378 861.811H246.649V863.541H248.378V861.811Z" fill="black"/>
<path d="M250.108 861.811H248.378V863.541H250.108V861.811Z" fill="black"/>
<path d="M251.838 861.811H250.108V863.541H251.838V861.811Z" fill="black"/>
<path d="M253.568 861.811H251.838V863.541H253.568V861.811Z" fill="black"/>
<path d="M260.487 861.811H258.757V863.541H260.487V861.811Z" fill="black"/>
<path d="M262.216 861.811H260.487V863.541H262.216V861.811Z" fill="black"/>
<path d="M263.946 861.811H262.216V863.541H263.946V861.811Z" fill="black"/>
<path d="M269.135 861.811H267.405V863.541H269.135V861.811Z" fill="black"/>
<path d="M279.514 861.811H277.784V863.541H279.514V861.811Z" fill="black"/>
<path d="M282.973 861.811H281.243V863.541H282.973V861.811Z" fill="black"/>
<path d="M284.703 861.811H282.973V863.541H284.703V861.811Z" fill="black"/>
<path d="M286.432 861.811H284.703V863.541H286.432V861.811Z" fill="black"/>
<path d="M288.162 861.811H286.432V863.541H288.162V861.811Z" fill="black"/>
<path d="M289.892 861.811H288.162V863.541H289.892V861.811Z" fill="black"/>
<path d="M291.622 861.811H289.892V863.541H291.622V861.811Z" fill="black"/>
<path d="M295.081 861.811H293.351V863.541H295.081V861.811Z" fill="black"/>
<path d="M296.811 861.811H295.081V863.541H296.811V861.811Z" fill="black"/>
<path d="M298.541 861.811H296.811V863.541H298.541V861.811Z" fill="black"/>
</g>
<path d="M209.84 155.464V161.992H265.968V155.464H209.84ZM213.936 165.896V172.36H263.088V165.896H213.936ZM219.824 188.872V195.336H256.88V188.872H219.824ZM220.016 175.88V182.152H254.448V198.728H262.128V175.88H220.016ZM214.96 175.88V183.816C214.96 190.408 214.192 199.432 207.152 205.896C208.816 206.856 212.016 209.608 213.168 211.08C220.976 203.784 222.576 192.136 222.576 183.944V175.88H214.96ZM233.904 150.6V169.352H241.712V150.6H233.904ZM234.16 178.056V192.904H241.584V178.056H234.16ZM278.448 154.184V161.096H289.712V186.44H278.448V193.48H296.816V154.184H278.448ZM278.512 170.184V177.032H292.528V170.184H278.512ZM305.84 153.224V160.328H325.488V153.224H305.84ZM305.84 168.52V175.432H325.488V168.52H305.84ZM305.712 183.688V190.536H325.424V183.688H305.712ZM274.352 154.184V199.048H281.456V154.184H274.352ZM322.608 153.224V201.864C322.608 203.016 322.224 203.4 321.072 203.4C319.984 203.4 316.08 203.464 312.624 203.272C313.712 205.256 314.928 208.584 315.248 210.696C320.688 210.696 324.336 210.504 326.896 209.288C329.392 208.072 330.224 205.96 330.224 201.992V153.224H322.608ZM301.232 153.224V176.392C301.232 186.184 300.272 198.216 289.456 206.088C291.12 207.112 294.064 209.736 295.216 211.272C307.056 202.568 308.784 187.528 308.784 176.456V153.224H301.232Z" fill="url(#paint0_linear_11534_62731)"/>
<path d="M115.505 278.8V281.68H141.815V278.8H115.505ZM120.395 292.27V295.15H136.775V292.27H120.395ZM127.115 272.71V300.52H130.115V272.71H127.115ZM124.565 279.79C122.645 285.34 118.835 290.86 114.575 293.59C115.235 294.16 116.165 295.18 116.675 295.9C121.145 292.63 124.955 286.87 127.145 280.57L124.565 279.79ZM132.575 279.88L130.025 280.63C132.185 286.87 135.935 292.63 140.435 295.81C140.945 295 141.935 293.89 142.685 293.32C138.305 290.65 134.495 285.34 132.575 279.88ZM156.875 272.77C156.755 277.6 157.115 291.76 144.725 298.18C145.625 298.81 146.555 299.71 147.065 300.46C159.725 293.38 159.935 278.47 160.085 272.77H156.875ZM159.785 276.43L157.055 276.73C157.475 279.52 158.615 294.61 170.675 300.31C171.095 299.5 171.905 298.54 172.745 297.88C161.135 292.69 160.025 278.71 159.785 276.43ZM176.165 278.8V281.53H201.305V278.8H176.165ZM175.115 287.5V290.23H202.205V287.5H175.115ZM192.485 280.3V300.52H195.455V280.3H192.485ZM181.925 280.3V286.9C181.925 290.98 181.235 295.45 175.205 298.45C175.835 298.99 176.825 300.1 177.275 300.76C184.025 297.28 184.895 291.91 184.895 286.96V280.3H181.925ZM179.975 273.64C181.205 275.29 182.465 277.54 182.945 278.98L185.765 277.78C185.225 276.31 183.875 274.18 182.645 272.59L179.975 273.64ZM194.375 272.56C193.715 274.69 192.455 277.57 191.405 279.43L193.955 280.3C195.095 278.59 196.475 275.89 197.675 273.46L194.375 272.56ZM222.155 277.03V279.79H231.965V277.03H222.155ZM222.125 290.74V293.53H232.475V290.74H222.125ZM221.975 283.87V286.57H231.305V283.87H221.975ZM205.865 277V279.79H215.045V277H205.865ZM206.285 283.84V286.54H214.925V283.84H206.285ZM220.745 272.83V300.52H223.715V272.83H220.745ZM213.845 272.8V300.49H216.785V272.8H213.845ZM205.175 290.8V293.59H215.525V290.8H205.175ZM245.405 278.83C244.475 285.82 242.555 291.76 238.835 295.33C239.435 295.66 240.575 296.47 241.025 296.86C244.745 292.87 246.845 286.69 247.955 279.13L245.405 278.83ZM253.805 278.89C252.875 286.03 250.925 292 247.055 295.57C247.685 295.9 248.795 296.71 249.275 297.1C253.145 293.11 255.245 286.9 256.355 279.19L253.805 278.89ZM239.375 282.43C242.225 285.79 245.645 290.41 247.265 293.29L249.035 291.37C247.385 288.58 243.995 284.14 241.025 280.78L239.375 282.43ZM247.955 282.43C251.015 285.97 254.315 290.89 255.755 294.13L257.675 292.39C256.205 289.18 252.875 284.44 249.725 280.9L247.955 282.43ZM236.135 274.42V300.46H238.985V277.12H260.135V274.42H236.135ZM258.365 274.42V296.92C258.365 297.49 258.155 297.67 257.555 297.7C256.985 297.7 254.885 297.73 252.935 297.61C253.355 298.39 253.865 299.68 254.015 300.46C256.805 300.46 258.545 300.4 259.685 299.95C260.795 299.5 261.215 298.66 261.215 296.95V274.42H258.365ZM271.265 272.8C269.645 277.24 266.945 281.65 264.095 284.47C264.575 285.13 265.355 286.66 265.625 287.35C268.895 283.96 271.985 278.74 273.965 273.64L271.265 272.8ZM268.145 280.78V300.49H270.905V278.08L270.875 278.05L268.145 280.78ZM278.015 287.47V290.11H289.085V287.47H278.015ZM288.155 287.47V287.77C286.505 289.75 283.295 293.29 280.625 295.96L282.965 297.4C285.665 294.61 288.815 291.16 291.095 288.55L289.085 287.29L288.665 287.47H288.155ZM280.505 272.92C279.245 278.35 277.175 285.73 275.645 290.11H278.675C279.995 285.97 281.975 278.77 283.325 273.28L280.505 272.92ZM274.115 276.04V278.65H290.915V276.04H274.115ZM272.375 281.68V284.32H292.385V281.68H272.375ZM277.445 294.4C280.325 296.17 283.805 298.84 285.485 300.58L287.555 298.45C285.815 296.77 282.395 294.37 279.455 292.66L277.445 294.4ZM307.745 282.1V284.95H320.135V282.1H307.745ZM295.055 296.23V299.08H322.235V296.23H295.055ZM306.125 273.1V297.79H309.155V273.1H306.125ZM336.005 280.96C335.555 285.76 334.655 292.21 333.875 296.08H336.635C337.265 292.33 338.135 285.91 338.675 280.96H336.005ZM340.445 284.17C341.615 285.13 342.965 286.48 343.565 287.41L345.155 286.3C344.495 285.4 343.115 284.08 341.975 283.18L340.445 284.17ZM339.665 290.47C340.895 291.49 342.395 292.99 343.085 293.98L344.735 292.81C344.015 291.85 342.485 290.41 341.255 289.45L339.665 290.47ZM336.365 275.92V278.5H351.875V275.92H336.365ZM337.175 280.96V283.42H348.815V280.96H337.175ZM332.225 287.05V289.63H352.655V287.05H332.225ZM335.315 293.65V296.08H351.845V293.65H335.315ZM336.725 272.65C335.675 276.1 333.845 279.58 331.775 281.8C332.465 282.16 333.665 282.91 334.235 283.36C336.245 280.93 338.225 277.12 339.485 273.37L336.725 272.65ZM348.005 280.96V281.53C347.615 292.54 347.105 296.62 346.295 297.55C345.995 297.91 345.695 298 345.185 298C344.585 298 343.295 297.97 341.825 297.85C342.245 298.51 342.515 299.53 342.575 300.22C344.015 300.31 345.485 300.34 346.355 300.22C347.315 300.1 348.005 299.86 348.635 299.02C349.655 297.73 350.135 293.74 350.585 282.25C350.615 281.86 350.645 280.96 350.645 280.96H348.005ZM326.435 275.05C328.235 275.95 330.515 277.36 331.655 278.35L333.305 276.19C332.135 275.23 329.795 273.91 328.025 273.13L326.435 275.05ZM324.785 283.69C326.495 284.56 328.685 285.94 329.705 286.93L331.325 284.77C330.245 283.81 328.055 282.55 326.345 281.77L324.785 283.69ZM325.655 298.48L328.145 300.04C329.435 297.16 330.875 293.5 331.985 290.32L329.825 288.76C328.565 292.24 326.885 296.14 325.655 298.48ZM360.665 298.09V299.65H376.655V298.09H360.665ZM359.225 292.15V293.68H378.185V292.15H359.225ZM359.225 289.54V291.07H378.185V289.54H359.225ZM355.565 286.57V288.43H381.695V286.57H355.565ZM358.955 294.76V300.52H361.625V296.32H375.755V300.49H378.545V294.76H358.955ZM355.205 273.97V275.71H369.485V273.97H355.205ZM358.535 272.74V276.7H360.905V272.74H358.535ZM363.845 272.74V276.7H366.245V272.74H363.845ZM372.365 275.14V277.12H382.145V275.14H372.365ZM358.175 277.48V279.07H366.665V277.48H358.175ZM372.545 272.62C371.705 275.23 370.115 277.6 368.135 279.16C368.705 279.52 369.605 280.21 369.995 280.6C371.975 278.86 373.775 276.13 374.795 273.16L372.545 272.62ZM377.885 276.01C376.925 280.09 373.715 282.37 369.245 283.51C369.695 283.99 370.385 285.01 370.625 285.49C375.515 283.93 379.025 281.2 380.345 276.22L377.885 276.01ZM372.935 276.64L370.895 277.21C372.755 281.44 376.295 284.44 381.095 285.76C381.395 285.1 382.085 284.17 382.655 283.63C378.065 282.67 374.555 280.12 372.935 276.64ZM357.875 279.94V281.38H362.015V282.94H357.875V284.35H364.025V279.94H357.875ZM365.885 277.48V277.84C365.705 281.59 365.495 282.97 365.195 283.39C365.015 283.6 364.835 283.63 364.565 283.63C364.265 283.63 363.725 283.63 363.005 283.54C363.275 284.08 363.485 284.89 363.515 285.46C364.385 285.49 365.255 285.46 365.735 285.43C366.365 285.37 366.815 285.19 367.235 284.71C367.775 284.08 368.015 282.46 368.255 278.38C368.285 278.08 368.285 277.48 368.285 277.48H365.885ZM357.905 276.43C357.305 277.87 356.195 279.46 354.485 280.66C354.965 280.96 355.715 281.68 356.045 282.16C358.025 280.6 359.255 278.77 360.065 276.79L357.905 276.43ZM357.035 279.94V285.13H359.015V279.94H357.035ZM366.605 285.25C367.085 286.06 367.595 287.17 367.805 287.89L370.445 287.14C370.205 286.42 369.635 285.34 369.095 284.59L366.605 285.25ZM391.685 277.9C390.545 280.03 388.265 282.37 384.755 284.02C385.265 284.38 385.985 285.19 386.315 285.76C390.125 283.75 392.615 281.14 394.175 278.32L391.685 277.9ZM391.895 279.73L390.365 281.56H396.875V279.73H391.895ZM396.245 279.7V280.12C394.475 284.89 389.645 288.43 384.695 289.9C385.175 290.38 385.805 291.31 386.105 291.91C391.475 290.05 396.545 286.27 398.735 280.36L397.145 279.61L396.725 279.7H396.245ZM400.685 279.7V281.89H408.605V279.7H400.685ZM393.695 286.48V288.85H403.895V286.48H393.695ZM388.505 290.74V293.17H408.905V290.74H388.505ZM400.295 277.9L398.075 278.47C400.295 284.83 404.435 289.12 411.095 290.95C411.455 290.26 412.175 289.21 412.745 288.67C406.385 287.23 402.215 283.36 400.295 277.9ZM397.595 291.73V297.58C397.595 297.91 397.475 298.03 397.055 298.03C396.635 298.06 395.165 298.06 393.635 298C393.965 298.69 394.355 299.65 394.475 300.4C396.575 300.4 398.075 300.4 399.065 300.04C400.085 299.65 400.355 298.99 400.355 297.64V291.73H397.595ZM392.195 293.59C390.665 295.33 387.905 296.95 385.295 297.94C385.895 298.42 386.825 299.5 387.245 300.04C389.915 298.78 392.975 296.71 394.775 294.49L392.195 293.59ZM402.515 295.24C405.005 296.59 408.245 298.6 409.805 299.89L411.815 297.97C410.105 296.65 406.835 294.76 404.405 293.56L402.515 295.24ZM390.605 283.75C391.655 284.44 392.915 285.46 393.515 286.12L395.045 284.8C394.385 284.11 393.125 283.18 392.075 282.55L390.605 283.75ZM387.635 285.88C388.625 286.66 389.765 287.74 390.305 288.49L392.105 287.35C391.535 286.6 390.335 285.55 389.375 284.86L387.635 285.88ZM407.765 279.7V280.18C407.015 281.89 405.365 284.17 403.805 285.52C404.285 285.91 405.005 286.63 405.365 287.14C407.255 285.55 409.205 282.97 410.435 280.6L408.815 279.55L408.305 279.7H407.765ZM385.595 275.05V279.88H388.295V277.39H408.815V279.88H411.665V275.05H385.595ZM396.485 273.16C397.055 274.18 397.655 275.59 397.865 276.46L400.775 275.77C400.535 274.84 399.875 273.52 399.245 272.5L396.485 273.16ZM428.843 278.77V279.25C428.333 289.42 425.783 295.72 420.983 298.27C421.523 298.78 422.213 299.74 422.573 300.43C428.033 297.07 430.733 290.8 431.303 278.89L429.743 278.71L429.293 278.77H428.843ZM421.493 278.77V281.38H429.383V278.77H421.493ZM422.003 289.12C425.153 291.43 428.813 294.76 430.403 297.1L432.173 294.88C430.553 292.63 426.743 289.42 423.653 287.17L422.003 289.12ZM422.003 289.12L424.373 290.02C425.573 285.55 426.893 278.41 427.463 272.86L424.853 272.71C424.463 277.99 423.173 284.98 422.003 289.12ZM436.313 272.8V286.36C436.313 291.61 435.653 295.81 430.283 298.66C430.913 299.08 431.933 300.01 432.413 300.58C438.143 297.34 438.893 292.33 438.893 286.39V272.8H436.313ZM431.543 277.9C432.653 279.82 433.793 282.46 434.183 284.14L436.493 283.15C436.043 281.47 434.903 278.89 433.673 277L431.543 277.9ZM430.703 289.9L432.083 292.42C433.793 291.1 435.803 289.54 437.723 287.98L436.973 285.97C434.663 287.5 432.263 289.03 430.703 289.9ZM441.173 272.74V296.23C441.173 299.44 441.773 300.28 444.053 300.28C444.503 300.28 446.153 300.28 446.633 300.28C448.613 300.28 449.273 298.96 449.573 295.27C448.793 295.09 447.803 294.64 447.233 294.16C447.143 297.01 447.023 297.79 446.453 297.79C446.093 297.79 444.803 297.79 444.533 297.79C443.903 297.79 443.813 297.61 443.813 296.29V272.74H441.173ZM446.843 276.76C446.093 278.65 444.653 281.26 443.543 282.91L445.403 283.96C446.573 282.4 448.013 280.03 449.213 277.96L446.843 276.76ZM442.913 287.02C444.623 288.61 446.603 290.83 447.473 292.3L449.393 290.56C448.463 289.12 446.393 287.02 444.683 285.52L442.913 287.02ZM458.213 283.09H451.583V285.73H455.453V295.51H458.213V283.09ZM452.183 276.01C453.893 277.24 456.293 279.04 457.463 280.12L459.353 277.99C458.093 276.97 455.663 275.29 453.983 274.15L452.183 276.01ZM457.163 294.34C455.573 294.34 453.413 295.9 451.403 298.03L453.263 300.55C454.673 298.63 456.143 296.83 457.103 296.83C457.793 296.83 458.813 297.79 460.013 298.54C462.083 299.77 464.573 300.13 468.263 300.13C471.473 300.13 476.513 299.98 478.673 299.83C478.703 299.02 479.153 297.67 479.483 296.89C476.393 297.28 471.653 297.52 468.353 297.52C465.053 297.52 462.443 297.34 460.493 296.11C458.813 295.15 458.123 294.34 457.163 294.34ZM459.773 281.17V283.72H478.703V281.17H459.773ZM461.753 274.51V277.06H476.843V274.51H461.753ZM464.633 282.64C464.393 288.07 463.853 291.43 458.933 293.35C459.563 293.86 460.343 294.94 460.643 295.63C466.253 293.26 467.153 289.09 467.423 282.64H464.633ZM470.363 282.67V291.64C470.363 294.25 470.933 295.06 473.363 295.06C473.843 295.06 475.493 295.06 475.973 295.06C477.983 295.06 478.673 294.01 478.913 290.05C478.193 289.87 477.053 289.42 476.543 288.97C476.453 292.09 476.333 292.54 475.673 292.54C475.343 292.54 474.053 292.54 473.783 292.54C473.153 292.54 473.063 292.42 473.063 291.61V282.67H470.363ZM57.08 322.54V325.03H63.65V339.88H57.08V342.4H66.23V322.54H57.08ZM55.4 322.54V344.71H58.01V322.54H55.4ZM56.93 330.73V333.22H64.94V330.73H56.93ZM59.87 317.65C59.66 319.24 59.15 321.52 58.67 323.02L60.95 323.56C61.55 322.18 62.3 320.08 62.93 318.13L59.87 317.65ZM70.37 322.39V325H79.4V322.39H70.37ZM78.41 322.39V322.96C78.05 335.86 77.6 340.93 76.61 341.98C76.28 342.4 75.92 342.49 75.32 342.49C74.6 342.49 72.8 342.46 70.85 342.31C71.36 343.06 71.72 344.26 71.78 345.07C73.49 345.13 75.29 345.19 76.37 345.07C77.51 344.92 78.26 344.62 78.98 343.63C80.21 342.1 80.6 337.39 81.02 323.74C81.05 323.38 81.05 322.39 81.05 322.39H78.41ZM70.76 317.62C69.8 321.7 68.15 325.81 66.11 328.42C66.77 328.78 67.94 329.59 68.45 330.04C70.49 327.19 72.35 322.72 73.49 318.25L70.76 317.62ZM69.35 330.55C70.91 332.74 72.86 335.71 73.73 337.54L76.16 336.07C75.2 334.3 73.16 331.39 71.57 329.29L69.35 330.55ZM94.0883 326.41H102.458V329.26H94.0883V326.41ZM94.0883 321.46H102.458V324.25H94.0883V321.46ZM91.7483 319.15V331.57H104.888V319.15H91.7483ZM91.7483 334.54V337.12H104.918V334.54H91.7483ZM90.7583 341.74L91.1183 344.5C94.9583 343.99 100.448 343.24 105.608 342.49L105.548 339.97C100.118 340.66 94.4183 341.35 90.7583 341.74ZM105.878 319.18V321.73H116.558V319.18H105.878ZM105.548 328.9V331.6H117.008V328.9H105.548ZM115.328 319.18V319.72C114.398 321.49 112.418 323.98 110.618 325.45C111.038 325.81 111.818 326.56 112.178 327.07C114.488 325.42 116.888 322.72 118.448 320.29L116.618 319.03L116.018 319.18H115.328ZM106.748 325C109.418 326.35 112.538 328.51 114.158 330.13L115.958 328.15C114.308 326.65 111.188 324.52 108.518 323.26L106.748 325ZM116.168 328.9V329.35C115.718 331.6 114.938 334.39 114.308 336.07L116.618 336.64C117.428 334.78 118.268 331.84 118.958 329.26L117.008 328.81L116.588 328.9H116.168ZM109.988 330.25V342.22C109.988 342.64 109.868 342.76 109.418 342.76C108.938 342.79 107.378 342.79 105.788 342.7C106.178 343.51 106.568 344.71 106.658 345.52C108.878 345.52 110.468 345.49 111.488 345.04C112.538 344.59 112.808 343.75 112.808 342.31V330.25H109.988ZM97.0883 319.99V330.34H96.9383V341.47H99.6683V330.34H99.4883V319.99H97.0883ZM138.248 320.35C134.948 323.86 127.718 325.69 120.668 326.5C121.178 327.07 121.928 328.24 122.228 328.84C129.278 327.73 136.838 325.66 140.768 321.43L138.248 320.35ZM129.548 317.62C127.628 319.21 124.358 320.74 121.418 321.64C121.988 322.12 122.948 323.14 123.338 323.68C126.278 322.54 129.788 320.62 132.038 318.61L129.548 317.62ZM130.928 320.5L128.738 321.49C132.608 325.51 139.538 327.7 147.128 328.42C147.458 327.73 148.118 326.65 148.658 326.08C141.218 325.57 134.228 323.74 130.928 320.5ZM137.258 319.24C140.288 320.38 144.068 322.3 145.928 323.65L147.908 321.85C145.898 320.47 142.028 318.67 139.118 317.62L137.258 319.24ZM129.728 331.84C130.838 332.59 132.188 333.64 132.818 334.36L134.828 333.25C134.138 332.5 132.758 331.48 131.648 330.82L129.728 331.84ZM138.488 327.97V328.36C135.818 332.02 128.978 334.45 122.888 335.32C123.338 335.86 123.908 336.82 124.148 337.42C130.688 336.25 137.828 333.64 141.158 328.87L139.448 327.85L138.968 327.97H138.488ZM133.148 327.97L131.288 329.95H139.028V327.97H133.148ZM132.938 339.55C134.078 340.39 135.398 341.65 136.028 342.49L138.248 341.44C137.558 340.6 136.178 339.37 135.038 338.56L132.938 339.55ZM144.458 334.33V334.72C141.128 340.3 132.068 342.61 122.978 343.24C123.398 343.87 123.878 344.92 124.088 345.64C133.688 344.71 143.168 342.19 147.308 335.32L145.538 334.21L145.028 334.33H144.458ZM138.428 334.33L136.448 336.46H144.848V334.33H138.428ZM133.988 326.11C131.648 328.45 127.028 330.16 122.768 331.12C123.248 331.6 123.998 332.65 124.268 333.16C128.618 331.93 133.478 329.86 136.238 326.98L133.988 326.11ZM139.448 332.11C136.688 335.23 131.318 337.51 126.098 338.74C126.578 339.22 127.328 340.3 127.628 340.81C132.848 339.28 138.488 336.73 141.698 333.07L139.448 332.11ZM161.667 346.63C165.057 345.52 167.157 342.94 167.157 339.61C167.157 337.33 166.167 335.86 164.307 335.86C162.927 335.86 161.727 336.73 161.727 338.26C161.727 339.82 162.897 340.63 164.247 340.63C164.877 340.63 165.477 340.48 165.927 339.97L164.277 337.51L164.697 340.24C164.697 342.25 163.347 343.75 160.857 344.68L161.667 346.63ZM201.837 327.04L199.527 327.76C202.257 332.29 207.267 334.96 213.747 336.01C214.137 335.26 214.857 334.15 215.457 333.55C209.187 332.8 204.177 330.64 201.837 327.04ZM212.037 326.32C210.357 327.85 207.477 329.92 205.347 331.12L206.847 332.53C209.007 331.42 211.827 329.62 214.047 328L212.037 326.32ZM193.857 318.64V320.65H207.957V325.93H193.857V327.97H210.657V318.64H193.857ZM193.767 322.39V324.19H208.827V322.39H193.767ZM191.727 335.71C192.477 335.29 193.677 334.99 202.017 333.46C201.897 332.83 201.777 331.72 201.777 330.94L192.897 332.44L191.547 333.37L191.727 335.71ZM191.127 336.94C190.467 339.07 189.297 341.83 188.067 343.66L190.707 344.71C191.847 342.82 192.927 339.88 193.677 337.78L191.127 336.94ZM195.297 336.73V341.65C195.297 344.35 196.137 345.13 199.647 345.13C200.367 345.13 204.357 345.13 205.137 345.13C207.927 345.13 208.737 344.2 209.097 340.36C208.317 340.21 207.117 339.79 206.547 339.34C206.397 342.19 206.187 342.58 204.897 342.58C203.967 342.58 200.607 342.58 199.917 342.58C198.357 342.58 198.087 342.46 198.087 341.62V336.73H195.297ZM198.837 335.98C200.487 337.42 202.677 339.46 203.727 340.69L205.887 339.07C204.747 337.87 202.497 335.92 200.907 334.57L198.837 335.98ZM208.377 337.75C209.847 339.88 211.737 342.79 212.637 344.47L215.127 343.24C214.167 341.56 212.157 338.74 210.717 336.73L208.377 337.75ZM191.727 335.71C191.727 334.72 194.607 332.92 194.607 332.92V318.61H191.697V331.24C191.697 332.59 191.067 333.25 190.497 333.61C190.947 334.06 191.517 335.11 191.727 335.71ZM219.327 319.99C220.917 321.43 222.957 323.44 223.917 324.73L225.837 322.72C224.847 321.49 222.747 319.6 221.157 318.25L219.327 319.99ZM221.727 345.1C222.177 344.44 223.077 343.72 228.297 339.64C227.997 339.1 227.547 337.99 227.367 337.24L221.787 341.44L221.127 342.46L221.727 345.1ZM217.617 327.04V329.77H223.467V327.04H217.617ZM221.727 345.1C221.727 344.08 224.487 342.13 224.487 342.13V327.04H221.757V340C221.757 341.35 220.887 342.31 220.287 342.7C220.767 343.24 221.487 344.44 221.727 345.1ZM231.147 334.99V336.91H241.107V334.99H231.147ZM227.847 319.9V322H244.437V319.9H227.847ZM228.627 323.62V325.6H243.537V323.62H228.627ZM226.947 327.31V329.41H245.367V327.31H226.947ZM231.087 339.04V340.99H241.107V339.04H231.087ZM229.047 330.91V345.52H231.687V333.04H241.137V330.91H229.047ZM240.417 330.91V342.58C240.417 342.94 240.267 343.06 239.877 343.06C239.457 343.09 238.017 343.09 236.637 343.03C236.967 343.72 237.327 344.77 237.417 345.46C239.547 345.49 240.957 345.46 241.887 345.04C242.847 344.65 243.117 343.93 243.117 342.61V330.91H240.417ZM234.627 317.68V328H237.447V317.68H234.627ZM251.937 322.18V324.94H274.737V322.18H251.937ZM250.587 322.18V331.06C250.587 335.05 250.347 340.21 247.467 343.81C248.127 344.2 249.327 345.31 249.807 345.88C253.077 341.92 253.617 335.59 253.617 331.09V322.18H250.587ZM260.307 318.19C260.877 319.63 261.477 321.61 261.747 322.87L264.837 322.18C264.537 320.95 263.877 319.06 263.277 317.62L260.307 318.19ZM278.247 326.08V328.99H304.767V326.08H278.247ZM293.217 327.25L290.367 327.91C292.617 336.07 296.547 342.34 303.207 345.46C303.687 344.65 304.617 343.42 305.337 342.79C299.067 340.21 295.107 334.33 293.217 327.25ZM289.917 317.71C289.827 325.3 290.217 337.57 277.677 343.09C278.487 343.69 279.357 344.71 279.807 345.46C292.827 339.37 292.887 326.14 293.007 317.71H289.917ZM318.237 323.83C317.307 330.82 315.387 336.76 311.667 340.33C312.267 340.66 313.407 341.47 313.857 341.86C317.577 337.87 319.677 331.69 320.787 324.13L318.237 323.83ZM326.637 323.89C325.707 331.03 323.757 337 319.887 340.57C320.517 340.9 321.627 341.71 322.107 342.1C325.977 338.11 328.077 331.9 329.187 324.19L326.637 323.89ZM312.207 327.43C315.057 330.79 318.477 335.41 320.097 338.29L321.867 336.37C320.217 333.58 316.827 329.14 313.857 325.78L312.207 327.43ZM320.787 327.43C323.847 330.97 327.147 335.89 328.587 339.13L330.507 337.39C329.037 334.18 325.707 329.44 322.557 325.9L320.787 327.43ZM308.967 319.42V345.46H311.817V322.12H332.967V319.42H308.967ZM331.197 319.42V341.92C331.197 342.49 330.987 342.67 330.387 342.7C329.817 342.7 327.717 342.73 325.767 342.61C326.187 343.39 326.697 344.68 326.847 345.46C329.637 345.46 331.377 345.4 332.517 344.95C333.627 344.5 334.047 343.66 334.047 341.95V319.42H331.197ZM350.127 327.91C350.667 337.24 354.927 345.22 360.327 345.19C362.757 345.19 363.837 344.05 364.287 339.4C363.507 339.16 362.427 338.59 361.797 338.02C361.617 341.11 361.317 342.37 360.477 342.4C357.177 342.4 353.457 335.8 353.037 327.91H350.127ZM341.397 332.41V335.08H363.687V332.41H341.397ZM341.367 319.18V321.79H358.617V325.72H341.367V328.36H361.497V319.18H341.367ZM339.717 345.7C340.557 345.19 341.877 344.86 350.997 342.37C350.847 341.74 350.697 340.48 350.667 339.7L340.887 342.22L339.537 343.24L339.717 345.7ZM339.717 345.7C339.717 344.62 342.807 342.94 342.807 342.94V319.18H339.867V340.78C339.867 342.07 339.027 342.82 338.397 343.15C338.877 343.72 339.507 344.95 339.717 345.7ZM384.387 319.18V321.79H392.397V319.18H384.387ZM384.387 325.93V328.45H392.397V325.93H384.387ZM384.297 332.71V335.26H392.427V332.71H384.297ZM391.107 319.18V341.92C391.107 342.37 390.957 342.52 390.477 342.52C390.027 342.55 388.527 342.58 386.997 342.49C387.387 343.24 387.777 344.53 387.867 345.31C390.147 345.31 391.647 345.25 392.607 344.77C393.567 344.29 393.837 343.48 393.837 341.95V319.18H391.107ZM383.067 319.18V329.44C383.067 333.97 382.797 340 379.737 344.17C380.397 344.44 381.597 345.19 382.077 345.64C385.287 341.23 385.767 334.33 385.767 329.44V319.18H383.067ZM371.127 319.18V321.79H378.927V319.18H371.127ZM371.127 325.93V328.45H378.927V325.93H371.127ZM371.097 332.71V335.26H378.897V332.71H371.097ZM377.397 319.18V341.92C377.397 342.31 377.277 342.43 376.857 342.46C376.497 342.46 375.237 342.46 373.977 342.4C374.337 343.09 374.697 344.26 374.787 344.98C376.737 344.98 378.057 344.92 378.927 344.5C379.797 344.05 380.067 343.27 380.067 341.92V319.18H377.397ZM370.017 319.18V329.98C370.017 334.33 369.807 340.15 367.197 344.17C367.857 344.44 368.997 345.16 369.507 345.58C372.237 341.32 372.627 334.66 372.627 329.95V319.18H370.017ZM408.327 330.19L405.867 330.94C408.927 338.74 414.477 343.57 423.447 345.49C423.837 344.71 424.647 343.51 425.277 342.91C416.547 341.35 410.937 336.97 408.327 330.19ZM418.587 328.81V329.35C416.547 336.85 410.547 341.32 403.467 343.12C404.067 343.69 404.757 344.8 405.087 345.52C412.827 343.21 419.127 338.56 421.587 329.53L419.667 328.69L419.127 328.81H418.587ZM398.457 322.45V325.21H424.497V322.45H398.457ZM406.707 328.81L405.897 331.57H418.887V328.81H406.707ZM406.257 317.68C406.107 320.83 405.987 335.59 397.377 342.52C398.307 343.06 399.237 343.78 399.837 344.5C408.507 336.88 408.987 321.67 409.197 317.68H406.257ZM447.147 339.52C449.277 341.23 452.067 343.69 453.387 345.25L455.547 343.39C454.167 341.86 451.317 339.49 449.187 337.87L447.147 339.52ZM449.937 326.35C447.867 330.4 443.367 334.45 438.207 336.7C438.717 337.24 439.467 338.23 439.797 338.86C445.287 336.31 449.937 331.99 452.637 327.25L449.937 326.35ZM451.977 331.87C449.427 336.82 443.727 341.05 436.707 343.18C437.217 343.78 438.027 344.89 438.357 345.55C445.737 343.12 451.587 338.59 454.887 332.92L451.977 331.87ZM438.417 321.55V324.16H455.277V321.55H438.417ZM439.437 332.26C439.437 331.51 442.737 330.55 442.737 330.55C444.087 328.69 446.337 324.97 447.567 322.93H444.567C443.757 324.31 441.537 327.94 440.847 328.69C440.337 329.26 439.377 329.47 438.717 329.62C438.957 330.22 439.347 331.57 439.437 332.26ZM439.437 332.26C440.157 331.96 441.297 331.78 448.737 331.3C448.857 330.73 449.217 329.65 449.547 328.96L440.847 329.41L439.407 330.22L439.437 332.26ZM444.627 318.31C445.317 319.63 445.947 321.4 446.157 322.54L448.977 321.58C448.767 320.47 447.987 318.76 447.267 317.5L444.627 318.31ZM428.007 323.41V326.02H437.817V323.41H428.007ZM431.877 317.68V345.52H434.577V317.68H431.877ZM431.937 325.24C431.127 329.29 429.267 334.3 427.287 336.91C427.767 337.63 428.427 338.92 428.697 339.73C430.797 336.64 432.687 330.73 433.557 325.84L431.937 325.24ZM434.427 326.95L433.137 327.97C433.917 329.32 435.747 332.83 436.407 334.45L438.087 332.5C437.547 331.57 435.117 327.79 434.427 326.95ZM472.497 340.33C476.427 341.68 480.387 343.66 482.757 345.37L484.497 343.15C482.037 341.5 477.807 339.55 473.847 338.26L472.497 340.33ZM469.077 318.28C469.857 319.57 470.697 321.34 471.027 322.42L473.997 321.46C473.637 320.35 472.737 318.67 471.927 317.41L469.077 318.28ZM458.997 320.83V327.28H461.817V323.5H481.047V327.28H484.017V320.83H458.997ZM471.297 324.91C470.997 334.9 470.637 340.48 458.817 343C459.417 343.63 460.137 344.71 460.437 345.46C473.037 342.49 473.907 335.83 474.267 324.91H471.297ZM458.547 335.11V337.51H484.557V335.11H458.547ZM463.557 326.47C465.147 327.4 467.067 328.87 467.937 329.89L469.707 327.85C468.777 326.8 466.827 325.48 465.237 324.64L463.557 326.47ZM460.527 331.06C462.177 331.96 464.187 333.4 465.117 334.45L466.827 332.32C465.837 331.3 463.827 329.98 462.177 329.17L460.527 331.06ZM64.46 372.92V375.2H79.28V372.92H64.46ZM64.46 377.24V379.49H79.28V377.24H64.46ZM65.78 388.13V390.44H77.96V388.13H65.78ZM62.33 368.54V370.88H81.59V368.54H62.33ZM64.04 381.68V391.52H66.47V383.96H77.09V391.43H79.64V381.68H64.04ZM69.2 364.58C69.98 365.87 70.91 367.61 71.3 368.72L73.82 367.61C73.37 366.53 72.47 364.88 71.63 363.65L69.2 364.58ZM60.38 363.8C58.91 368.21 56.45 372.62 53.84 375.47C54.32 376.13 55.1 377.57 55.34 378.2C58.34 374.81 61.16 369.62 62.93 364.58L60.38 363.8ZM57.92 371.84V391.61H60.53V369.29L60.5 369.26L57.92 371.84ZM91.37 372.65H104.42V374.63H91.37V372.65ZM91.37 376.73H104.42V378.71H91.37V376.73ZM91.37 368.63H104.42V370.58H91.37V368.63ZM88.64 366.41V380.93H107.27V366.41H88.64ZM96.59 363.38C96.35 364.4 95.87 365.81 95.45 366.86L98.03 367.4C98.57 366.5 99.32 365.24 99.98 363.86L96.59 363.38ZM90.74 382.88V387.44C90.74 390.23 91.7 391.01 95.54 391.01C96.32 391.01 101.09 391.01 101.93 391.01C105.05 391.01 105.92 390.05 106.28 386.06C105.5 385.91 104.27 385.49 103.64 385.04C103.49 388.01 103.25 388.4 101.72 388.4C100.58 388.4 96.59 388.4 95.75 388.4C93.89 388.4 93.59 388.28 93.59 387.41V382.88H90.74ZM95.48 381.86C96.95 383.27 98.63 385.25 99.32 386.6L101.63 385.22C100.88 383.87 99.17 381.95 97.67 380.63L95.48 381.86ZM105.59 383.18C106.94 385.13 108.35 387.8 108.83 389.48L111.53 388.31C110.99 386.57 109.52 384.02 108.14 382.13L105.59 383.18ZM87.14 382.64C86.45 384.62 85.28 387.17 84.14 388.85L86.75 390.11C87.83 388.34 88.85 385.64 89.63 383.69L87.14 382.64ZM118.79 371.99V374.69H141.8V371.99H118.79ZM123.74 387.44V390.08H137.81V387.44H123.74ZM137.45 363.86C132.71 365.06 124.49 365.9 117.35 366.32C117.65 366.95 118.01 368.09 118.07 368.81C125.39 368.45 133.88 367.61 139.79 366.17L137.45 363.86ZM122.39 378.56V391.55H125.24V381.2H136.67V391.49H139.67V378.56H122.39ZM117.35 366.32V374.3C117.35 378.89 117.05 385.22 113.81 389.66C114.47 390.02 115.67 391.01 116.18 391.58C119.72 386.81 120.26 379.34 120.26 374.33V366.32H117.35ZM144.95 383.72C144.95 383.21 146.75 382.37 146.75 382.37V382.31C149.57 379.4 152.42 375.35 154.67 371.33L152.39 369.98C150.44 374.03 147.35 378.2 146.39 379.28C145.46 380.39 144.8 381.11 144.11 381.26C144.38 381.95 144.8 383.18 144.95 383.72ZM144.95 383.72C145.61 383.33 146.72 383 153.98 381.56C153.95 380.99 153.95 379.94 154.04 379.19L146.06 380.6L144.8 381.5L144.95 383.72ZM144.77 376.46C144.77 375.92 146.36 375.05 146.36 375.05V374.96C148.4 372.26 150.47 368.39 151.85 364.79L149.18 363.56C148.16 367.13 146.18 371 145.52 371.99C144.92 373.01 144.41 373.67 143.84 373.82C144.17 374.54 144.62 375.89 144.77 376.46ZM144.77 376.43C145.28 376.19 146.15 375.98 150.89 375.41C150.89 374.87 151.01 373.85 151.13 373.19L145.88 373.67L144.68 374.45L144.77 376.43ZM144.11 387.08L144.59 389.69C147.35 389 150.95 388.1 154.37 387.23L154.1 384.89C150.41 385.76 146.6 386.6 144.11 387.08ZM158.51 373.07V375.47H171.5V373.07H158.51ZM163.7 363.92V386.69H166.04V363.92H163.7ZM163.55 373.91C162.56 376.85 160.46 380.39 158.48 382.25C158.87 382.88 159.44 383.9 159.68 384.62C161.9 382.4 163.97 378.14 165.14 374.54L163.55 373.91ZM168.89 365.81C168.47 367.49 167.6 369.89 166.88 371.42L168.56 371.99C169.34 370.55 170.33 368.33 171.14 366.41L168.89 365.81ZM158.9 366.35C159.53 368.12 160.28 370.43 160.58 371.96L162.53 371.39C162.2 369.92 161.42 367.64 160.76 365.87L158.9 366.35ZM165.92 375.02L164.6 376.07C165.83 377.66 168.77 381.86 169.73 383.75L171.5 381.86C170.66 380.72 166.97 376.1 165.92 375.02ZM155.18 364.82V390.14H171.77V387.65H157.79V364.82H155.18ZM186.08 366.29V368.66H199.67V366.29H186.08ZM191.36 363.68V372.08H194.18V363.68H191.36ZM187.04 375.62C188.36 376.34 189.92 377.45 190.7 378.26L191.96 376.76C191.18 375.95 189.56 374.9 188.27 374.27L187.04 375.62ZM184.85 378.29C186.23 379.07 187.88 380.3 188.66 381.14L190.01 379.58C189.17 378.74 187.49 377.6 186.14 376.88L184.85 378.29ZM185 371V373.4H199.25V371H185ZM198.68 371V371.39C198.29 373.19 197.6 375.41 197.06 376.79L199.28 377.33C199.97 375.83 200.72 373.43 201.32 371.3L199.52 370.91L199.07 371H198.68ZM184.37 381.23V383.69H201.17V381.23H184.37ZM192.17 374.42V377.81C192.17 381.47 191.39 386.3 183.74 389.51C184.28 390.02 185.06 390.98 185.42 391.58C193.79 387.95 194.81 382.28 194.81 377.9V374.42H192.17ZM193.61 386.06C195.92 387.65 198.68 390.02 200 391.58L201.83 389.84C200.48 388.28 197.6 386.03 195.32 384.53L193.61 386.06ZM175.01 383.72C175.01 383.21 176.72 382.43 176.72 382.43V382.37C179.42 379.43 182.21 375.32 184.34 371.27L182.18 369.98C180.32 374.06 177.35 378.29 176.42 379.37C175.52 380.51 174.86 381.23 174.2 381.38C174.47 382.01 174.89 383.21 175.01 383.72ZM175.01 383.72C175.64 383.27 176.72 382.88 183.65 380.99C183.56 380.42 183.5 379.34 183.5 378.62L175.94 380.48L174.77 381.38L175.01 383.72ZM174.8 376.46C174.8 375.95 176.3 375.11 176.3 375.11V375.05C178.4 372.35 180.56 368.51 182.03 364.85L179.6 363.71C178.46 367.31 176.33 371.18 175.67 372.17C175.01 373.16 174.5 373.85 173.93 374C174.26 374.69 174.65 375.92 174.8 376.46ZM174.8 376.46C175.31 376.19 176.18 376.01 180.77 375.47C180.77 374.93 180.86 373.91 180.98 373.22L175.94 373.67L174.71 374.48L174.8 376.46ZM174.14 387.02L174.77 389.66C177.41 388.64 180.77 387.32 183.92 386.06L183.47 383.75C180.02 385.01 176.48 386.27 174.14 387.02ZM207.32 364.61V366.5H216.14V368.3H207.32V370.19H218.72V364.61H207.32ZM219.5 368.54V371.06H231.62V368.54H219.5ZM209.6 371.45V373.25H217.85V371.45H209.6ZM207.98 374.54V376.34H219.62V374.54H207.98ZM225.98 363.8V380.03C225.98 380.42 225.86 380.54 225.47 380.54C225.11 380.57 223.85 380.57 222.56 380.54C222.92 381.2 223.34 382.28 223.46 382.97C225.38 383 226.64 382.94 227.51 382.52C228.41 382.1 228.65 381.41 228.65 380.06V363.8H225.98ZM212.45 375.32V380.54C212.45 380.78 212.39 380.87 212.09 380.87C211.85 380.9 211.1 380.9 210.23 380.87C210.5 381.44 210.8 382.25 210.92 382.85C212.3 382.85 213.29 382.85 213.98 382.52C214.73 382.19 214.88 381.68 214.88 380.6V375.32H212.45ZM206.18 364.61V369.83C206.18 373.13 205.94 377.81 203.87 381.2C204.44 381.47 205.55 382.31 206 382.76C208.25 379.07 208.7 373.58 208.7 369.86V364.61H206.18ZM209.72 377.09C209.3 378.41 208.61 379.7 207.65 380.72C208.13 380.96 208.91 381.5 209.24 381.8C210.2 380.75 211.1 379.07 211.61 377.51L209.72 377.09ZM215.78 377.69C216.65 378.8 217.55 380.3 217.94 381.32L219.8 380.48C219.44 379.49 218.45 378.02 217.55 377L215.78 377.69ZM220.16 373.25C221.3 374.81 222.44 376.88 222.83 378.23L225.14 377.27C224.69 375.86 223.49 373.85 222.29 372.38L220.16 373.25ZM210.74 383.45V388.01C210.74 390.38 211.7 391.04 215.48 391.04C216.23 391.04 220.94 391.04 221.75 391.04C224.81 391.04 225.68 390.2 226.07 386.75C225.26 386.6 224.06 386.24 223.43 385.88C223.28 388.52 223.04 388.91 221.54 388.91C220.46 388.91 216.53 388.91 215.69 388.91C213.89 388.91 213.59 388.76 213.59 387.98V383.45H210.74ZM215.45 383.27C216.95 384.53 218.66 386.36 219.35 387.56L221.54 386.27C220.79 385.07 219.02 383.36 217.49 382.1L215.45 383.27ZM225.47 384.32C226.79 386.06 228.08 388.37 228.5 389.87L231.2 388.97C230.69 387.5 229.31 385.22 227.96 383.57L225.47 384.32ZM207.2 384.05C206.54 385.7 205.37 387.92 204.23 389.33L206.84 390.53C207.89 388.94 208.94 386.57 209.72 384.92L207.2 384.05ZM235.52 370.64V391.52H238.34V370.64H235.52ZM235.82 365.36C237.29 366.95 239.3 369.17 240.29 370.49L242.45 368.93C241.43 367.64 239.36 365.51 237.86 364.01L235.82 365.36ZM243.53 365.3V367.94H259.58V365.3H243.53ZM257.63 365.3V387.86C257.63 388.37 257.45 388.55 256.91 388.58C256.4 388.58 254.57 388.61 252.89 388.52C253.25 389.27 253.7 390.53 253.79 391.34C256.28 391.37 257.96 391.31 259.04 390.86C260.09 390.38 260.45 389.57 260.45 387.89V365.3H257.63ZM243.89 372.86V375.41H250.58V381.53H243.89V384.08H253.34V372.86H243.89ZM242.45 372.86V385.91H245.03V372.86H242.45ZM268.79 381.65C266.24 381.65 264.11 383.75 264.11 386.33C264.11 388.94 266.24 391.04 268.79 391.04C271.4 391.04 273.5 388.94 273.5 386.33C273.5 383.75 271.4 381.65 268.79 381.65ZM268.79 389.24C267.23 389.24 265.91 387.95 265.91 386.33C265.91 384.74 267.23 383.45 268.79 383.45C270.41 383.45 271.7 384.74 271.7 386.33C271.7 387.95 270.41 389.24 268.79 389.24Z" fill="white"/>
<defs>
<linearGradient id="paint0_linear_11534_62731" x1="206" y1="181" x2="334" y2="181" gradientUnits="userSpaceOnUse">
<stop stop-color="#FAE28F"/>
<stop offset="1" stop-color="#E39FF0"/>
</linearGradient>
<clipPath id="clip0_11534_62731">
<rect width="64" height="64" fill="white" transform="translate(238 803)"/>
</clipPath>
</defs>
</svg>
