<svg width="540" height="960" viewBox="0 0 540 960" fill="none" xmlns="http://www.w3.org/2000/svg">
<rect width="540" height="960" fill="#161820"/>
<rect x="166" y="401" width="72" height="43" rx="2" fill="#373A41"/>
<rect x="174" y="265" width="72" height="43" rx="2" fill="#373A41"/>
<rect x="137" y="357" width="72" height="43" rx="2" fill="#373A41"/>
<path d="M24.072 38.264C22.904 38.264 21.832 38.064 20.856 37.664C19.88 37.248 19.056 36.656 18.384 35.888L20.808 33.464C21.112 33.912 21.552 34.28 22.128 34.568C22.72 34.84 23.344 34.976 24 34.976C24.592 34.976 25.104 34.872 25.536 34.664C25.968 34.456 26.304 34.16 26.544 33.776C26.8 33.392 26.928 32.936 26.928 32.408C26.928 31.88 26.8 31.432 26.544 31.064C26.304 30.68 25.944 30.384 25.464 30.176C25 29.968 24.44 29.864 23.784 29.864C23.48 29.864 23.16 29.888 22.824 29.936C22.504 29.968 22.232 30.024 22.008 30.104L23.664 28.016C24.112 27.888 24.536 27.784 24.936 27.704C25.352 27.608 25.736 27.56 26.088 27.56C26.952 27.56 27.728 27.768 28.416 28.184C29.104 28.584 29.648 29.16 30.048 29.912C30.464 30.648 30.672 31.528 30.672 32.552C30.672 33.672 30.392 34.664 29.832 35.528C29.288 36.392 28.52 37.064 27.528 37.544C26.552 38.024 25.4 38.264 24.072 38.264ZM22.008 30.104V28.016L26.136 23.168L30.36 23.144L26.064 28.04L22.008 30.104ZM19.44 24.248V21.056H30.36V23.144L27.408 24.248H19.44ZM33.0383 38V21.056H35.6783L36.8063 24.44V38H33.0383ZM44.7263 38L34.7423 25.208L35.6783 21.056L45.6623 33.848L44.7263 38ZM44.7263 38L43.7183 34.616V21.056H47.4863V38H44.7263ZM50.757 38V21.056H54.525V38H50.757ZM53.637 38V34.736H62.925V38H53.637ZM53.637 30.92V27.776H62.085V30.92H53.637ZM53.637 24.296V21.056H62.805V24.296H53.637ZM70.4745 38L63.9465 21.056H67.9785L72.9465 34.76H71.2905L76.3305 21.056H80.3145L73.7145 38H70.4745ZM82.3039 38V21.056H86.0719V38H82.3039ZM85.1839 38V34.736H94.4719V38H85.1839ZM85.1839 30.92V27.776H93.6319V30.92H85.1839ZM85.1839 24.296V21.056H94.3519V24.296H85.1839ZM99.9495 31.016V28.232H103.526C104.278 28.232 104.854 28.04 105.254 27.656C105.67 27.272 105.878 26.752 105.878 26.096C105.878 25.488 105.678 24.984 105.278 24.584C104.878 24.184 104.302 23.984 103.55 23.984H99.9495V21.056H103.982C105.102 21.056 106.086 21.272 106.934 21.704C107.782 22.12 108.446 22.704 108.926 23.456C109.406 24.208 109.646 25.072 109.646 26.048C109.646 27.04 109.406 27.912 108.926 28.664C108.446 29.4 107.774 29.976 106.91 30.392C106.046 30.808 105.03 31.016 103.862 31.016H99.9495ZM97.0695 38V21.056H100.838V38H97.0695ZM106.286 38L101.006 30.704L104.462 29.768L110.75 38H106.286Z" fill="#FEFEFE" fill-opacity="0.54"/>
<path d="M218.324 887.86L218.696 889.252C219.944 888.952 221.54 888.544 223.016 888.16L222.848 886.84C221.24 887.236 219.5 887.644 218.324 887.86ZM218.48 884.008V885.34H222.848V884.008H218.48ZM220.076 881.872V891.532C220.076 891.7 220.016 891.76 219.848 891.76C219.692 891.76 219.188 891.76 218.72 891.748C218.888 892.108 219.08 892.684 219.116 893.056C219.968 893.056 220.544 893.02 220.952 892.792C221.36 892.588 221.492 892.228 221.492 891.532V881.872H220.076ZM222.98 890.956V892.3H228.296V890.956H222.98ZM223.352 886.66V888.088H228.308V886.66H223.352ZM223.076 882.904V884.224H227.66V892.972H229.04V882.904H223.076ZM234.308 883.372V884.668H241.52V883.372H234.308ZM235.688 881.812V886.024H237.068V881.812H235.688ZM238.712 881.812V886.024H240.104V881.812H238.712ZM234.716 886.396V893.008H236.012V887.656H239.78V892.948H241.148V886.396H234.716ZM235.448 888.796V890.02H240.392V888.796H235.448ZM235.484 891.184V892.444H240.428V891.184H235.484ZM237.224 887.02V892.12H238.52V887.02H237.224ZM230.24 887.896L230.564 889.288C231.632 888.988 232.964 888.604 234.212 888.22L234.032 886.924C232.664 887.296 231.212 887.692 230.24 887.896ZM230.432 884.092V885.412H234.08V884.092H230.432ZM231.68 881.824V891.388C231.68 891.556 231.632 891.604 231.488 891.604C231.344 891.604 230.924 891.604 230.48 891.592C230.66 891.976 230.816 892.564 230.852 892.924C231.632 892.924 232.16 892.876 232.52 892.648C232.892 892.432 233 892.06 233 891.4V881.824H231.68ZM243.644 883.468V885.052H252.356V883.468H243.644ZM242.648 890.428V892.084H253.364V890.428H242.648ZM254.78 889.972C254.78 889.732 255.644 889.336 255.644 889.336V889.3C256.784 888.112 257.96 886.468 258.836 884.86L257.732 884.164C256.94 885.832 255.716 887.536 255.308 887.98C254.936 888.424 254.672 888.7 254.36 888.772C254.516 889.108 254.72 889.72 254.78 889.972ZM254.78 889.972C255.104 889.792 255.596 889.648 258.572 889.084C258.56 888.796 258.572 888.244 258.62 887.884L255.308 888.436L254.696 888.856L254.78 889.972ZM254.684 887.044C254.684 886.804 255.428 886.384 255.428 886.384V886.348C256.28 885.292 257.156 883.78 257.732 882.376L256.436 881.776C256.028 883.18 255.224 884.68 254.96 885.064C254.696 885.448 254.492 885.712 254.252 885.772C254.408 886.132 254.624 886.78 254.684 887.044ZM254.684 887.044C254.924 886.936 255.296 886.852 257.096 886.66C257.096 886.384 257.156 885.892 257.228 885.544L255.224 885.7L254.648 886.084L254.684 887.044ZM254.384 891.184L254.648 892.552C255.86 892.228 257.444 891.82 258.932 891.412L258.788 890.212C257.18 890.584 255.488 890.98 254.384 891.184ZM260.216 886.288V887.572H265.148V886.288H260.216ZM260.24 888.592V889.876H265.172V888.592H260.24ZM260.12 890.968V892.3H265.604V890.968H260.12ZM262.304 884.404V891.676H263.636V884.404H262.304ZM260.828 883.96H260.276L259.484 884.788V893.104H260.828V885.256H265.448V883.96H260.828ZM260.456 881.848C260.084 883.24 259.28 885.052 258.368 886.144C258.56 886.492 258.86 887.14 258.992 887.5C260.204 886.132 261.2 884.08 261.836 882.244L260.456 881.848ZM261.968 882.376C262.292 882.928 262.64 883.66 262.76 884.14L264.044 883.552C263.888 883.084 263.54 882.388 263.18 881.86L261.968 882.376ZM276.008 887.02V887.236C275.816 890.152 275.552 891.34 275.264 891.64C275.132 891.772 275.012 891.796 274.82 891.796C274.592 891.796 274.136 891.796 273.632 891.736C273.848 892.096 273.992 892.636 274.016 893.032C274.592 893.044 275.132 893.044 275.468 892.996C275.852 892.96 276.14 892.84 276.416 892.504C276.848 892.048 277.1 890.752 277.352 887.584C277.364 887.404 277.388 887.02 277.388 887.02H276.008ZM271.256 882.424V883.72H275.66V882.424H271.256ZM271.832 884.188C271.748 885.484 271.58 887.176 271.4 888.232H272.756C272.9 887.224 273.08 885.568 273.176 884.26L271.832 884.188ZM271.784 887.02V888.232H276.404V887.02H271.784ZM271.016 889.396V890.668H275.312V889.396H271.016ZM275.12 882.424V882.568C275.048 883.78 274.82 886.084 274.592 887.788L275.948 887.896C276.176 886.204 276.404 884.08 276.512 882.472L275.492 882.376L275.276 882.424H275.12ZM266.516 882.34V883.648H270.836V882.34H266.516ZM267.848 886.084V887.344H269.336V890.356H267.848V891.616H270.572V886.084H267.848ZM267.908 883.012C267.608 884.836 267.092 886.576 266.24 887.704C266.444 888.124 266.696 889.036 266.756 889.42C268.004 887.932 268.76 885.592 269.216 883.312L267.908 883.012ZM267.236 886.084V892.516H268.46V886.084H267.236ZM278.456 886.54V888.112H289.568V886.54H278.456ZM291.716 881.764C291.404 882.88 290.852 883.96 290.192 884.668C290.432 884.944 290.828 885.556 290.972 885.832C291.8 884.92 292.52 883.492 292.952 882.1L291.716 881.764ZM291.74 882.928L291.476 884.224H294.008V882.928H291.74ZM291.824 893.008C292.016 892.744 292.364 892.456 294.296 891.016C294.152 890.776 293.972 890.272 293.888 889.924L291.836 891.4L291.548 891.832L291.824 893.008ZM290.996 885.208V886.444H294.02V885.208H290.996ZM290.564 887.608V888.904H294.104V887.608H290.564ZM291.824 893.008C291.824 892.54 292.916 891.616 292.916 891.616V885.796H291.752V890.704C291.752 891.292 291.356 891.796 291.104 891.988C291.332 892.216 291.704 892.72 291.824 893.008ZM298.196 881.884V891.376H299.288V881.884H298.196ZM296.624 884.26V885.304H301.616V884.26H296.624ZM296.72 889.204V890.272H301.316V889.204H296.72ZM297.008 887.512V888.58H301.088V887.512H297.008ZM294.152 882.376V883.696H295.892V882.376H294.152ZM295.64 885.892V886.108C295.508 889.168 294.86 891.316 293.468 892.192C293.708 892.444 293.984 892.9 294.152 893.212C295.844 891.988 296.576 889.816 296.744 885.94L296.06 885.88L295.856 885.892H295.64ZM294.992 887.956L294.068 888.304C295.016 892.072 296.9 892.876 299.42 892.876H301.34C301.4 892.54 301.556 891.988 301.712 891.7C301.232 891.724 299.876 891.724 299.492 891.724C297.452 891.712 295.724 891.088 294.992 887.956ZM297.056 882.676V883.648H299.96V885.94H297.056V886.912H300.944V882.676H297.056ZM294.764 885.892L294.416 887.056H295.988V885.892H294.764ZM294.392 887.296C294.392 887.068 295.244 886.684 295.244 886.684V886.66C295.808 885.652 296.432 884.164 296.876 882.712L296.132 882.22L295.7 882.4V882.46C295.4 883.768 294.788 885.196 294.596 885.556C294.404 885.94 294.056 886.324 293.828 886.384C293.996 886.6 294.284 887.056 294.392 887.296ZM302.72 882.712V883.936H313.244V882.712H302.72ZM303.488 884.668V885.88H312.704V884.668H303.488ZM304.592 888.976V890.188H311.54V888.976H304.592ZM304.628 886.54V887.716H311.084V890.824H312.524V886.54H304.628ZM303.68 886.54V888.028C303.68 889.264 303.536 890.956 302.216 892.168C302.528 892.348 303.128 892.864 303.344 893.14C304.808 891.772 305.108 889.588 305.108 888.052V886.54H303.68ZM307.232 881.8V885.316H308.696V881.8H307.232ZM307.28 886.948V889.732H308.672V886.948H307.28ZM315.584 882.472V883.768H317.696V888.52H315.584V889.84H319.028V882.472H315.584ZM315.596 885.472V886.756H318.224V885.472H315.596ZM320.72 882.292V883.624H324.404V882.292H320.72ZM320.72 885.16V886.456H324.404V885.16H320.72ZM320.696 888.004V889.288H324.392V888.004H320.696ZM314.816 882.472V890.884H316.148V882.472H314.816ZM323.864 882.292V891.412C323.864 891.628 323.792 891.7 323.576 891.7C323.372 891.7 322.64 891.712 321.992 891.676C322.196 892.048 322.424 892.672 322.484 893.068C323.504 893.068 324.188 893.032 324.668 892.804C325.136 892.576 325.292 892.18 325.292 891.436V882.292H323.864ZM319.856 882.292V886.636C319.856 888.472 319.676 890.728 317.648 892.204C317.96 892.396 318.512 892.888 318.728 893.176C320.948 891.544 321.272 888.724 321.272 886.648V882.292H319.856Z" fill="white" fill-opacity="0.69"/>
<g clip-path="url(#clip0_11450_63835)">
<path d="M302 803H238V867H302V803Z" fill="white"/>
<path d="M243.189 806.459H241.459V808.189H243.189V806.459Z" fill="black"/>
<path d="M244.919 806.459H243.189V808.189H244.919V806.459Z" fill="black"/>
<path d="M246.649 806.459H244.919V808.189H246.649V806.459Z" fill="black"/>
<path d="M248.378 806.459H246.649V808.189H248.378V806.459Z" fill="black"/>
<path d="M250.108 806.459H248.378V808.189H250.108V806.459Z" fill="black"/>
<path d="M251.838 806.459H250.108V808.189H251.838V806.459Z" fill="black"/>
<path d="M253.568 806.459H251.838V808.189H253.568V806.459Z" fill="black"/>
<path d="M257.027 806.459H255.297V808.189H257.027V806.459Z" fill="black"/>
<path d="M269.135 806.459H267.406V808.189H269.135V806.459Z" fill="black"/>
<path d="M270.865 806.459H269.135V808.189H270.865V806.459Z" fill="black"/>
<path d="M272.595 806.459H270.865V808.189H272.595V806.459Z" fill="black"/>
<path d="M277.784 806.459H276.054V808.189H277.784V806.459Z" fill="black"/>
<path d="M281.243 806.459H279.513V808.189H281.243V806.459Z" fill="black"/>
<path d="M282.973 806.459H281.243V808.189H282.973V806.459Z" fill="black"/>
<path d="M284.703 806.459H282.973V808.189H284.703V806.459Z" fill="black"/>
<path d="M288.162 806.459H286.432V808.189H288.162V806.459Z" fill="black"/>
<path d="M289.892 806.459H288.162V808.189H289.892V806.459Z" fill="black"/>
<path d="M291.622 806.459H289.892V808.189H291.622V806.459Z" fill="black"/>
<path d="M293.351 806.459H291.622V808.189H293.351V806.459Z" fill="black"/>
<path d="M295.081 806.459H293.351V808.189H295.081V806.459Z" fill="black"/>
<path d="M296.811 806.459H295.081V808.189H296.811V806.459Z" fill="black"/>
<path d="M298.541 806.459H296.811V808.189H298.541V806.459Z" fill="black"/>
<path d="M243.189 808.189H241.459V809.919H243.189V808.189Z" fill="black"/>
<path d="M253.568 808.189H251.838V809.919H253.568V808.189Z" fill="black"/>
<path d="M263.946 808.189H262.216V809.919H263.946V808.189Z" fill="black"/>
<path d="M265.676 808.189H263.946V809.919H265.676V808.189Z" fill="black"/>
<path d="M267.406 808.189H265.676V809.919H267.406V808.189Z" fill="black"/>
<path d="M270.865 808.189H269.135V809.919H270.865V808.189Z" fill="black"/>
<path d="M272.595 808.189H270.865V809.919H272.595V808.189Z" fill="black"/>
<path d="M274.324 808.189H272.595V809.919H274.324V808.189Z" fill="black"/>
<path d="M279.513 808.189H277.784V809.919H279.513V808.189Z" fill="black"/>
<path d="M281.243 808.189H279.513V809.919H281.243V808.189Z" fill="black"/>
<path d="M282.973 808.189H281.243V809.919H282.973V808.189Z" fill="black"/>
<path d="M288.162 808.189H286.432V809.919H288.162V808.189Z" fill="black"/>
<path d="M298.541 808.189H296.811V809.919H298.541V808.189Z" fill="black"/>
<path d="M243.189 809.919H241.459V811.649H243.189V809.919Z" fill="black"/>
<path d="M246.649 809.919H244.919V811.649H246.649V809.919Z" fill="black"/>
<path d="M248.378 809.919H246.649V811.649H248.378V809.919Z" fill="black"/>
<path d="M250.108 809.919H248.378V811.649H250.108V809.919Z" fill="black"/>
<path d="M253.568 809.919H251.838V811.649H253.568V809.919Z" fill="black"/>
<path d="M258.757 809.919H257.027V811.649H258.757V809.919Z" fill="black"/>
<path d="M260.487 809.919H258.757V811.649H260.487V809.919Z" fill="black"/>
<path d="M262.216 809.919H260.487V811.649H262.216V809.919Z" fill="black"/>
<path d="M263.946 809.919H262.216V811.649H263.946V809.919Z" fill="black"/>
<path d="M277.784 809.919H276.054V811.649H277.784V809.919Z" fill="black"/>
<path d="M282.973 809.919H281.243V811.649H282.973V809.919Z" fill="black"/>
<path d="M284.703 809.919H282.973V811.649H284.703V809.919Z" fill="black"/>
<path d="M288.162 809.919H286.432V811.649H288.162V809.919Z" fill="black"/>
<path d="M291.622 809.919H289.892V811.649H291.622V809.919Z" fill="black"/>
<path d="M293.351 809.919H291.622V811.649H293.351V809.919Z" fill="black"/>
<path d="M295.081 809.919H293.351V811.649H295.081V809.919Z" fill="black"/>
<path d="M298.541 809.919H296.811V811.649H298.541V809.919Z" fill="black"/>
<path d="M243.189 811.649H241.459V813.378H243.189V811.649Z" fill="black"/>
<path d="M246.649 811.649H244.919V813.378H246.649V811.649Z" fill="black"/>
<path d="M248.378 811.649H246.649V813.378H248.378V811.649Z" fill="black"/>
<path d="M250.108 811.649H248.378V813.378H250.108V811.649Z" fill="black"/>
<path d="M253.568 811.649H251.838V813.378H253.568V811.649Z" fill="black"/>
<path d="M257.027 811.649H255.297V813.378H257.027V811.649Z" fill="black"/>
<path d="M258.757 811.649H257.027V813.378H258.757V811.649Z" fill="black"/>
<path d="M262.216 811.649H260.487V813.378H262.216V811.649Z" fill="black"/>
<path d="M263.946 811.649H262.216V813.378H263.946V811.649Z" fill="black"/>
<path d="M267.406 811.649H265.676V813.378H267.406V811.649Z" fill="black"/>
<path d="M274.324 811.649H272.595V813.378H274.324V811.649Z" fill="black"/>
<path d="M276.054 811.649H274.324V813.378H276.054V811.649Z" fill="black"/>
<path d="M288.162 811.649H286.432V813.378H288.162V811.649Z" fill="black"/>
<path d="M291.622 811.649H289.892V813.378H291.622V811.649Z" fill="black"/>
<path d="M293.351 811.649H291.622V813.378H293.351V811.649Z" fill="black"/>
<path d="M295.081 811.649H293.351V813.378H295.081V811.649Z" fill="black"/>
<path d="M298.541 811.649H296.811V813.378H298.541V811.649Z" fill="black"/>
<path d="M243.189 813.378H241.459V815.108H243.189V813.378Z" fill="black"/>
<path d="M246.649 813.378H244.919V815.108H246.649V813.378Z" fill="black"/>
<path d="M248.378 813.378H246.649V815.108H248.378V813.378Z" fill="black"/>
<path d="M250.108 813.378H248.378V815.108H250.108V813.378Z" fill="black"/>
<path d="M253.568 813.378H251.838V815.108H253.568V813.378Z" fill="black"/>
<path d="M258.757 813.378H257.027V815.108H258.757V813.378Z" fill="black"/>
<path d="M260.487 813.378H258.757V815.108H260.487V813.378Z" fill="black"/>
<path d="M263.946 813.378H262.216V815.108H263.946V813.378Z" fill="black"/>
<path d="M267.406 813.378H265.676V815.108H267.406V813.378Z" fill="black"/>
<path d="M272.595 813.378H270.865V815.108H272.595V813.378Z" fill="black"/>
<path d="M279.513 813.378H277.784V815.108H279.513V813.378Z" fill="black"/>
<path d="M281.243 813.378H279.513V815.108H281.243V813.378Z" fill="black"/>
<path d="M288.162 813.378H286.432V815.108H288.162V813.378Z" fill="black"/>
<path d="M291.622 813.378H289.892V815.108H291.622V813.378Z" fill="black"/>
<path d="M293.351 813.378H291.622V815.108H293.351V813.378Z" fill="black"/>
<path d="M295.081 813.378H293.351V815.108H295.081V813.378Z" fill="black"/>
<path d="M298.541 813.378H296.811V815.108H298.541V813.378Z" fill="black"/>
<path d="M243.189 815.108H241.459V816.838H243.189V815.108Z" fill="black"/>
<path d="M253.568 815.108H251.838V816.838H253.568V815.108Z" fill="black"/>
<path d="M260.487 815.108H258.757V816.838H260.487V815.108Z" fill="black"/>
<path d="M262.216 815.108H260.487V816.838H262.216V815.108Z" fill="black"/>
<path d="M265.676 815.108H263.946V816.838H265.676V815.108Z" fill="black"/>
<path d="M267.406 815.108H265.676V816.838H267.406V815.108Z" fill="black"/>
<path d="M274.324 815.108H272.595V816.838H274.324V815.108Z" fill="black"/>
<path d="M276.054 815.108H274.324V816.838H276.054V815.108Z" fill="black"/>
<path d="M277.784 815.108H276.054V816.838H277.784V815.108Z" fill="black"/>
<path d="M279.513 815.108H277.784V816.838H279.513V815.108Z" fill="black"/>
<path d="M281.243 815.108H279.513V816.838H281.243V815.108Z" fill="black"/>
<path d="M288.162 815.108H286.432V816.838H288.162V815.108Z" fill="black"/>
<path d="M298.541 815.108H296.811V816.838H298.541V815.108Z" fill="black"/>
<path d="M243.189 816.838H241.459V818.568H243.189V816.838Z" fill="black"/>
<path d="M244.919 816.838H243.189V818.568H244.919V816.838Z" fill="black"/>
<path d="M246.649 816.838H244.919V818.568H246.649V816.838Z" fill="black"/>
<path d="M248.378 816.838H246.649V818.568H248.378V816.838Z" fill="black"/>
<path d="M250.108 816.838H248.378V818.568H250.108V816.838Z" fill="black"/>
<path d="M251.838 816.838H250.108V818.568H251.838V816.838Z" fill="black"/>
<path d="M253.568 816.838H251.838V818.568H253.568V816.838Z" fill="black"/>
<path d="M257.027 816.838H255.297V818.568H257.027V816.838Z" fill="black"/>
<path d="M260.487 816.838H258.757V818.568H260.487V816.838Z" fill="black"/>
<path d="M263.946 816.838H262.216V818.568H263.946V816.838Z" fill="black"/>
<path d="M267.406 816.838H265.676V818.568H267.406V816.838Z" fill="black"/>
<path d="M270.865 816.838H269.135V818.568H270.865V816.838Z" fill="black"/>
<path d="M274.324 816.838H272.595V818.568H274.324V816.838Z" fill="black"/>
<path d="M277.784 816.838H276.054V818.568H277.784V816.838Z" fill="black"/>
<path d="M281.243 816.838H279.513V818.568H281.243V816.838Z" fill="black"/>
<path d="M284.703 816.838H282.973V818.568H284.703V816.838Z" fill="black"/>
<path d="M288.162 816.838H286.432V818.568H288.162V816.838Z" fill="black"/>
<path d="M289.892 816.838H288.162V818.568H289.892V816.838Z" fill="black"/>
<path d="M291.622 816.838H289.892V818.568H291.622V816.838Z" fill="black"/>
<path d="M293.351 816.838H291.622V818.568H293.351V816.838Z" fill="black"/>
<path d="M295.081 816.838H293.351V818.568H295.081V816.838Z" fill="black"/>
<path d="M296.811 816.838H295.081V818.568H296.811V816.838Z" fill="black"/>
<path d="M298.541 816.838H296.811V818.568H298.541V816.838Z" fill="black"/>
<path d="M262.216 818.568H260.487V820.297H262.216V818.568Z" fill="black"/>
<path d="M265.676 818.568H263.946V820.297H265.676V818.568Z" fill="black"/>
<path d="M267.406 818.568H265.676V820.297H267.406V818.568Z" fill="black"/>
<path d="M270.865 818.568H269.135V820.297H270.865V818.568Z" fill="black"/>
<path d="M272.595 818.568H270.865V820.297H272.595V818.568Z" fill="black"/>
<path d="M277.784 818.568H276.054V820.297H277.784V818.568Z" fill="black"/>
<path d="M279.513 818.568H277.784V820.297H279.513V818.568Z" fill="black"/>
<path d="M284.703 818.568H282.973V820.297H284.703V818.568Z" fill="black"/>
<path d="M246.649 820.297H244.919V822.027H246.649V820.297Z" fill="black"/>
<path d="M250.108 820.297H248.378V822.027H250.108V820.297Z" fill="black"/>
<path d="M251.838 820.297H250.108V822.027H251.838V820.297Z" fill="black"/>
<path d="M253.568 820.297H251.838V822.027H253.568V820.297Z" fill="black"/>
<path d="M257.027 820.297H255.297V822.027H257.027V820.297Z" fill="black"/>
<path d="M258.757 820.297H257.027V822.027H258.757V820.297Z" fill="black"/>
<path d="M265.676 820.297H263.946V822.027H265.676V820.297Z" fill="black"/>
<path d="M270.865 820.297H269.135V822.027H270.865V820.297Z" fill="black"/>
<path d="M272.595 820.297H270.865V822.027H272.595V820.297Z" fill="black"/>
<path d="M274.324 820.297H272.595V822.027H274.324V820.297Z" fill="black"/>
<path d="M279.513 820.297H277.784V822.027H279.513V820.297Z" fill="black"/>
<path d="M282.973 820.297H281.243V822.027H282.973V820.297Z" fill="black"/>
<path d="M284.703 820.297H282.973V822.027H284.703V820.297Z" fill="black"/>
<path d="M286.432 820.297H284.703V822.027H286.432V820.297Z" fill="black"/>
<path d="M293.351 820.297H291.622V822.027H293.351V820.297Z" fill="black"/>
<path d="M298.541 820.297H296.811V822.027H298.541V820.297Z" fill="black"/>
<path d="M246.649 822.027H244.919V823.757H246.649V822.027Z" fill="black"/>
<path d="M250.108 822.027H248.378V823.757H250.108V822.027Z" fill="black"/>
<path d="M255.297 822.027H253.568V823.757H255.297V822.027Z" fill="black"/>
<path d="M258.757 822.027H257.027V823.757H258.757V822.027Z" fill="black"/>
<path d="M260.487 822.027H258.757V823.757H260.487V822.027Z" fill="black"/>
<path d="M262.216 822.027H260.487V823.757H262.216V822.027Z" fill="black"/>
<path d="M263.946 822.027H262.216V823.757H263.946V822.027Z" fill="black"/>
<path d="M276.054 822.027H274.324V823.757H276.054V822.027Z" fill="black"/>
<path d="M279.513 822.027H277.784V823.757H279.513V822.027Z" fill="black"/>
<path d="M284.703 822.027H282.973V823.757H284.703V822.027Z" fill="black"/>
<path d="M288.162 822.027H286.432V823.757H288.162V822.027Z" fill="black"/>
<path d="M295.081 822.027H293.351V823.757H295.081V822.027Z" fill="black"/>
<path d="M296.811 822.027H295.081V823.757H296.811V822.027Z" fill="black"/>
<path d="M298.541 822.027H296.811V823.757H298.541V822.027Z" fill="black"/>
<path d="M251.838 823.757H250.108V825.487H251.838V823.757Z" fill="black"/>
<path d="M253.568 823.757H251.838V825.487H253.568V823.757Z" fill="black"/>
<path d="M257.027 823.757H255.297V825.487H257.027V823.757Z" fill="black"/>
<path d="M258.757 823.757H257.027V825.487H258.757V823.757Z" fill="black"/>
<path d="M260.487 823.757H258.757V825.487H260.487V823.757Z" fill="black"/>
<path d="M263.946 823.757H262.216V825.487H263.946V823.757Z" fill="black"/>
<path d="M265.676 823.757H263.946V825.487H265.676V823.757Z" fill="black"/>
<path d="M270.865 823.757H269.135V825.487H270.865V823.757Z" fill="black"/>
<path d="M274.324 823.757H272.595V825.487H274.324V823.757Z" fill="black"/>
<path d="M277.784 823.757H276.054V825.487H277.784V823.757Z" fill="black"/>
<path d="M281.243 823.757H279.513V825.487H281.243V823.757Z" fill="black"/>
<path d="M284.703 823.757H282.973V825.487H284.703V823.757Z" fill="black"/>
<path d="M286.432 823.757H284.703V825.487H286.432V823.757Z" fill="black"/>
<path d="M291.622 823.757H289.892V825.487H291.622V823.757Z" fill="black"/>
<path d="M296.811 823.757H295.081V825.487H296.811V823.757Z" fill="black"/>
<path d="M298.541 823.757H296.811V825.487H298.541V823.757Z" fill="black"/>
<path d="M243.189 825.487H241.459V827.216H243.189V825.487Z" fill="black"/>
<path d="M246.649 825.487H244.919V827.216H246.649V825.487Z" fill="black"/>
<path d="M250.108 825.487H248.378V827.216H250.108V825.487Z" fill="black"/>
<path d="M255.297 825.487H253.568V827.216H255.297V825.487Z" fill="black"/>
<path d="M258.757 825.487H257.027V827.216H258.757V825.487Z" fill="black"/>
<path d="M260.487 825.487H258.757V827.216H260.487V825.487Z" fill="black"/>
<path d="M262.216 825.487H260.487V827.216H262.216V825.487Z" fill="black"/>
<path d="M263.946 825.487H262.216V827.216H263.946V825.487Z" fill="black"/>
<path d="M265.676 825.487H263.946V827.216H265.676V825.487Z" fill="black"/>
<path d="M269.135 825.487H267.406V827.216H269.135V825.487Z" fill="black"/>
<path d="M274.324 825.487H272.595V827.216H274.324V825.487Z" fill="black"/>
<path d="M276.054 825.487H274.324V827.216H276.054V825.487Z" fill="black"/>
<path d="M277.784 825.487H276.054V827.216H277.784V825.487Z" fill="black"/>
<path d="M279.513 825.487H277.784V827.216H279.513V825.487Z" fill="black"/>
<path d="M281.243 825.487H279.513V827.216H281.243V825.487Z" fill="black"/>
<path d="M284.703 825.487H282.973V827.216H284.703V825.487Z" fill="black"/>
<path d="M286.432 825.487H284.703V827.216H286.432V825.487Z" fill="black"/>
<path d="M296.811 825.487H295.081V827.216H296.811V825.487Z" fill="black"/>
<path d="M243.189 827.216H241.459V828.946H243.189V827.216Z" fill="black"/>
<path d="M244.919 827.216H243.189V828.946H244.919V827.216Z" fill="black"/>
<path d="M248.378 827.216H246.649V828.946H248.378V827.216Z" fill="black"/>
<path d="M250.108 827.216H248.378V828.946H250.108V827.216Z" fill="black"/>
<path d="M253.568 827.216H251.838V828.946H253.568V827.216Z" fill="black"/>
<path d="M255.297 827.216H253.568V828.946H255.297V827.216Z" fill="black"/>
<path d="M258.757 827.216H257.027V828.946H258.757V827.216Z" fill="black"/>
<path d="M260.487 827.216H258.757V828.946H260.487V827.216Z" fill="black"/>
<path d="M265.676 827.216H263.946V828.946H265.676V827.216Z" fill="black"/>
<path d="M267.406 827.216H265.676V828.946H267.406V827.216Z" fill="black"/>
<path d="M269.135 827.216H267.406V828.946H269.135V827.216Z" fill="black"/>
<path d="M274.324 827.216H272.595V828.946H274.324V827.216Z" fill="black"/>
<path d="M276.054 827.216H274.324V828.946H276.054V827.216Z" fill="black"/>
<path d="M281.243 827.216H279.513V828.946H281.243V827.216Z" fill="black"/>
<path d="M282.973 827.216H281.243V828.946H282.973V827.216Z" fill="black"/>
<path d="M284.703 827.216H282.973V828.946H284.703V827.216Z" fill="black"/>
<path d="M286.432 827.216H284.703V828.946H286.432V827.216Z" fill="black"/>
<path d="M288.162 827.216H286.432V828.946H288.162V827.216Z" fill="black"/>
<path d="M289.892 827.216H288.162V828.946H289.892V827.216Z" fill="black"/>
<path d="M291.622 827.216H289.892V828.946H291.622V827.216Z" fill="black"/>
<path d="M296.811 827.216H295.081V828.946H296.811V827.216Z" fill="black"/>
<path d="M298.541 827.216H296.811V828.946H298.541V827.216Z" fill="black"/>
<path d="M246.649 828.946H244.919V830.676H246.649V828.946Z" fill="black"/>
<path d="M248.378 828.946H246.649V830.676H248.378V828.946Z" fill="black"/>
<path d="M250.108 828.946H248.378V830.676H250.108V828.946Z" fill="black"/>
<path d="M251.838 828.946H250.108V830.676H251.838V828.946Z" fill="black"/>
<path d="M263.946 828.946H262.216V830.676H263.946V828.946Z" fill="black"/>
<path d="M265.676 828.946H263.946V830.676H265.676V828.946Z" fill="black"/>
<path d="M270.865 828.946H269.135V830.676H270.865V828.946Z" fill="black"/>
<path d="M272.595 828.946H270.865V830.676H272.595V828.946Z" fill="black"/>
<path d="M276.054 828.946H274.324V830.676H276.054V828.946Z" fill="black"/>
<path d="M277.784 828.946H276.054V830.676H277.784V828.946Z" fill="black"/>
<path d="M281.243 828.946H279.513V830.676H281.243V828.946Z" fill="black"/>
<path d="M284.703 828.946H282.973V830.676H284.703V828.946Z" fill="black"/>
<path d="M286.432 828.946H284.703V830.676H286.432V828.946Z" fill="black"/>
<path d="M288.162 828.946H286.432V830.676H288.162V828.946Z" fill="black"/>
<path d="M289.892 828.946H288.162V830.676H289.892V828.946Z" fill="black"/>
<path d="M296.811 828.946H295.081V830.676H296.811V828.946Z" fill="black"/>
<path d="M298.541 828.946H296.811V830.676H298.541V828.946Z" fill="black"/>
<path d="M243.189 830.676H241.459V832.405H243.189V830.676Z" fill="black"/>
<path d="M248.378 830.676H246.649V832.405H248.378V830.676Z" fill="black"/>
<path d="M251.838 830.676H250.108V832.405H251.838V830.676Z" fill="black"/>
<path d="M253.568 830.676H251.838V832.405H253.568V830.676Z" fill="black"/>
<path d="M257.027 830.676H255.297V832.405H257.027V830.676Z" fill="black"/>
<path d="M258.757 830.676H257.027V832.405H258.757V830.676Z" fill="black"/>
<path d="M260.487 830.676H258.757V832.405H260.487V830.676Z" fill="black"/>
<path d="M262.216 830.676H260.487V832.405H262.216V830.676Z" fill="black"/>
<path d="M274.324 830.676H272.595V832.405H274.324V830.676Z" fill="black"/>
<path d="M279.513 830.676H277.784V832.405H279.513V830.676Z" fill="black"/>
<path d="M284.703 830.676H282.973V832.405H284.703V830.676Z" fill="black"/>
<path d="M286.432 830.676H284.703V832.405H286.432V830.676Z" fill="black"/>
<path d="M288.162 830.676H286.432V832.405H288.162V830.676Z" fill="black"/>
<path d="M289.892 830.676H288.162V832.405H289.892V830.676Z" fill="black"/>
<path d="M291.622 830.676H289.892V832.405H291.622V830.676Z" fill="black"/>
<path d="M293.351 830.676H291.622V832.405H293.351V830.676Z" fill="black"/>
<path d="M295.081 830.676H293.351V832.405H295.081V830.676Z" fill="black"/>
<path d="M296.811 830.676H295.081V832.405H296.811V830.676Z" fill="black"/>
<path d="M298.541 830.676H296.811V832.405H298.541V830.676Z" fill="black"/>
<path d="M248.378 832.405H246.649V834.135H248.378V832.405Z" fill="black"/>
<path d="M250.108 832.405H248.378V834.135H250.108V832.405Z" fill="black"/>
<path d="M255.297 832.405H253.568V834.135H255.297V832.405Z" fill="black"/>
<path d="M260.487 832.405H258.757V834.135H260.487V832.405Z" fill="black"/>
<path d="M263.946 832.405H262.216V834.135H263.946V832.405Z" fill="black"/>
<path d="M265.676 832.405H263.946V834.135H265.676V832.405Z" fill="black"/>
<path d="M267.406 832.405H265.676V834.135H267.406V832.405Z" fill="black"/>
<path d="M269.135 832.405H267.406V834.135H269.135V832.405Z" fill="black"/>
<path d="M270.865 832.405H269.135V834.135H270.865V832.405Z" fill="black"/>
<path d="M277.784 832.405H276.054V834.135H277.784V832.405Z" fill="black"/>
<path d="M279.513 832.405H277.784V834.135H279.513V832.405Z" fill="black"/>
<path d="M281.243 832.405H279.513V834.135H281.243V832.405Z" fill="black"/>
<path d="M289.892 832.405H288.162V834.135H289.892V832.405Z" fill="black"/>
<path d="M293.351 832.405H291.622V834.135H293.351V832.405Z" fill="black"/>
<path d="M298.541 832.405H296.811V834.135H298.541V832.405Z" fill="black"/>
<path d="M246.649 834.135H244.919V835.865H246.649V834.135Z" fill="black"/>
<path d="M248.378 834.135H246.649V835.865H248.378V834.135Z" fill="black"/>
<path d="M251.838 834.135H250.108V835.865H251.838V834.135Z" fill="black"/>
<path d="M253.568 834.135H251.838V835.865H253.568V834.135Z" fill="black"/>
<path d="M262.216 834.135H260.487V835.865H262.216V834.135Z" fill="black"/>
<path d="M263.946 834.135H262.216V835.865H263.946V834.135Z" fill="black"/>
<path d="M270.865 834.135H269.135V835.865H270.865V834.135Z" fill="black"/>
<path d="M272.595 834.135H270.865V835.865H272.595V834.135Z" fill="black"/>
<path d="M276.054 834.135H274.324V835.865H276.054V834.135Z" fill="black"/>
<path d="M279.513 834.135H277.784V835.865H279.513V834.135Z" fill="black"/>
<path d="M281.243 834.135H279.513V835.865H281.243V834.135Z" fill="black"/>
<path d="M286.432 834.135H284.703V835.865H286.432V834.135Z" fill="black"/>
<path d="M288.162 834.135H286.432V835.865H288.162V834.135Z" fill="black"/>
<path d="M295.081 834.135H293.351V835.865H295.081V834.135Z" fill="black"/>
<path d="M243.189 835.865H241.459V837.595H243.189V835.865Z" fill="black"/>
<path d="M246.649 835.865H244.919V837.595H246.649V835.865Z" fill="black"/>
<path d="M250.108 835.865H248.378V837.595H250.108V835.865Z" fill="black"/>
<path d="M251.838 835.865H250.108V837.595H251.838V835.865Z" fill="black"/>
<path d="M255.297 835.865H253.568V837.595H255.297V835.865Z" fill="black"/>
<path d="M258.757 835.865H257.027V837.595H258.757V835.865Z" fill="black"/>
<path d="M265.676 835.865H263.946V837.595H265.676V835.865Z" fill="black"/>
<path d="M267.406 835.865H265.676V837.595H267.406V835.865Z" fill="black"/>
<path d="M269.135 835.865H267.406V837.595H269.135V835.865Z" fill="black"/>
<path d="M272.595 835.865H270.865V837.595H272.595V835.865Z" fill="black"/>
<path d="M276.054 835.865H274.324V837.595H276.054V835.865Z" fill="black"/>
<path d="M277.784 835.865H276.054V837.595H277.784V835.865Z" fill="black"/>
<path d="M288.162 835.865H286.432V837.595H288.162V835.865Z" fill="black"/>
<path d="M293.351 835.865H291.622V837.595H293.351V835.865Z" fill="black"/>
<path d="M295.081 835.865H293.351V837.595H295.081V835.865Z" fill="black"/>
<path d="M296.811 835.865H295.081V837.595H296.811V835.865Z" fill="black"/>
<path d="M298.541 835.865H296.811V837.595H298.541V835.865Z" fill="black"/>
<path d="M244.919 837.595H243.189V839.324H244.919V837.595Z" fill="black"/>
<path d="M246.649 837.595H244.919V839.324H246.649V837.595Z" fill="black"/>
<path d="M250.108 837.595H248.378V839.324H250.108V837.595Z" fill="black"/>
<path d="M251.838 837.595H250.108V839.324H251.838V837.595Z" fill="black"/>
<path d="M253.568 837.595H251.838V839.324H253.568V837.595Z" fill="black"/>
<path d="M258.757 837.595H257.027V839.324H258.757V837.595Z" fill="black"/>
<path d="M260.487 837.595H258.757V839.324H260.487V837.595Z" fill="black"/>
<path d="M262.216 837.595H260.487V839.324H262.216V837.595Z" fill="black"/>
<path d="M265.676 837.595H263.946V839.324H265.676V837.595Z" fill="black"/>
<path d="M267.406 837.595H265.676V839.324H267.406V837.595Z" fill="black"/>
<path d="M276.054 837.595H274.324V839.324H276.054V837.595Z" fill="black"/>
<path d="M279.513 837.595H277.784V839.324H279.513V837.595Z" fill="black"/>
<path d="M286.432 837.595H284.703V839.324H286.432V837.595Z" fill="black"/>
<path d="M295.081 837.595H293.351V839.324H295.081V837.595Z" fill="black"/>
<path d="M296.811 837.595H295.081V839.324H296.811V837.595Z" fill="black"/>
<path d="M298.541 837.595H296.811V839.324H298.541V837.595Z" fill="black"/>
<path d="M243.189 839.324H241.459V841.054H243.189V839.324Z" fill="black"/>
<path d="M244.919 839.324H243.189V841.054H244.919V839.324Z" fill="black"/>
<path d="M250.108 839.324H248.378V841.054H250.108V839.324Z" fill="black"/>
<path d="M255.297 839.324H253.568V841.054H255.297V839.324Z" fill="black"/>
<path d="M257.027 839.324H255.297V841.054H257.027V839.324Z" fill="black"/>
<path d="M262.216 839.324H260.487V841.054H262.216V839.324Z" fill="black"/>
<path d="M265.676 839.324H263.946V841.054H265.676V839.324Z" fill="black"/>
<path d="M269.135 839.324H267.406V841.054H269.135V839.324Z" fill="black"/>
<path d="M270.865 839.324H269.135V841.054H270.865V839.324Z" fill="black"/>
<path d="M276.054 839.324H274.324V841.054H276.054V839.324Z" fill="black"/>
<path d="M279.513 839.324H277.784V841.054H279.513V839.324Z" fill="black"/>
<path d="M286.432 839.324H284.703V841.054H286.432V839.324Z" fill="black"/>
<path d="M288.162 839.324H286.432V841.054H288.162V839.324Z" fill="black"/>
<path d="M296.811 839.324H295.081V841.054H296.811V839.324Z" fill="black"/>
<path d="M298.541 839.324H296.811V841.054H298.541V839.324Z" fill="black"/>
<path d="M243.189 841.054H241.459V842.784H243.189V841.054Z" fill="black"/>
<path d="M244.919 841.054H243.189V842.784H244.919V841.054Z" fill="black"/>
<path d="M246.649 841.054H244.919V842.784H246.649V841.054Z" fill="black"/>
<path d="M251.838 841.054H250.108V842.784H251.838V841.054Z" fill="black"/>
<path d="M253.568 841.054H251.838V842.784H253.568V841.054Z" fill="black"/>
<path d="M257.027 841.054H255.297V842.784H257.027V841.054Z" fill="black"/>
<path d="M258.757 841.054H257.027V842.784H258.757V841.054Z" fill="black"/>
<path d="M274.324 841.054H272.595V842.784H274.324V841.054Z" fill="black"/>
<path d="M276.054 841.054H274.324V842.784H276.054V841.054Z" fill="black"/>
<path d="M279.513 841.054H277.784V842.784H279.513V841.054Z" fill="black"/>
<path d="M281.243 841.054H279.513V842.784H281.243V841.054Z" fill="black"/>
<path d="M286.432 841.054H284.703V842.784H286.432V841.054Z" fill="black"/>
<path d="M293.351 841.054H291.622V842.784H293.351V841.054Z" fill="black"/>
<path d="M296.811 841.054H295.081V842.784H296.811V841.054Z" fill="black"/>
<path d="M298.541 841.054H296.811V842.784H298.541V841.054Z" fill="black"/>
<path d="M244.919 842.784H243.189V844.514H244.919V842.784Z" fill="black"/>
<path d="M246.649 842.784H244.919V844.514H246.649V842.784Z" fill="black"/>
<path d="M250.108 842.784H248.378V844.514H250.108V842.784Z" fill="black"/>
<path d="M260.487 842.784H258.757V844.514H260.487V842.784Z" fill="black"/>
<path d="M262.216 842.784H260.487V844.514H262.216V842.784Z" fill="black"/>
<path d="M263.946 842.784H262.216V844.514H263.946V842.784Z" fill="black"/>
<path d="M270.865 842.784H269.135V844.514H270.865V842.784Z" fill="black"/>
<path d="M276.054 842.784H274.324V844.514H276.054V842.784Z" fill="black"/>
<path d="M277.784 842.784H276.054V844.514H277.784V842.784Z" fill="black"/>
<path d="M281.243 842.784H279.513V844.514H281.243V842.784Z" fill="black"/>
<path d="M282.973 842.784H281.243V844.514H282.973V842.784Z" fill="black"/>
<path d="M286.432 842.784H284.703V844.514H286.432V842.784Z" fill="black"/>
<path d="M296.811 842.784H295.081V844.514H296.811V842.784Z" fill="black"/>
<path d="M298.541 842.784H296.811V844.514H298.541V842.784Z" fill="black"/>
<path d="M243.189 844.514H241.459V846.243H243.189V844.514Z" fill="black"/>
<path d="M250.108 844.514H248.378V846.243H250.108V844.514Z" fill="black"/>
<path d="M253.568 844.514H251.838V846.243H253.568V844.514Z" fill="black"/>
<path d="M255.297 844.514H253.568V846.243H255.297V844.514Z" fill="black"/>
<path d="M260.487 844.514H258.757V846.243H260.487V844.514Z" fill="black"/>
<path d="M262.216 844.514H260.487V846.243H262.216V844.514Z" fill="black"/>
<path d="M263.946 844.514H262.216V846.243H263.946V844.514Z" fill="black"/>
<path d="M265.676 844.514H263.946V846.243H265.676V844.514Z" fill="black"/>
<path d="M267.406 844.514H265.676V846.243H267.406V844.514Z" fill="black"/>
<path d="M269.135 844.514H267.406V846.243H269.135V844.514Z" fill="black"/>
<path d="M274.324 844.514H272.595V846.243H274.324V844.514Z" fill="black"/>
<path d="M276.054 844.514H274.324V846.243H276.054V844.514Z" fill="black"/>
<path d="M281.243 844.514H279.513V846.243H281.243V844.514Z" fill="black"/>
<path d="M288.162 844.514H286.432V846.243H288.162V844.514Z" fill="black"/>
<path d="M289.892 844.514H288.162V846.243H289.892V844.514Z" fill="black"/>
<path d="M293.351 844.514H291.622V846.243H293.351V844.514Z" fill="black"/>
<path d="M295.081 844.514H293.351V846.243H295.081V844.514Z" fill="black"/>
<path d="M296.811 844.514H295.081V846.243H296.811V844.514Z" fill="black"/>
<path d="M298.541 844.514H296.811V846.243H298.541V844.514Z" fill="black"/>
<path d="M244.919 846.243H243.189V847.973H244.919V846.243Z" fill="black"/>
<path d="M246.649 846.243H244.919V847.973H246.649V846.243Z" fill="black"/>
<path d="M260.487 846.243H258.757V847.973H260.487V846.243Z" fill="black"/>
<path d="M262.216 846.243H260.487V847.973H262.216V846.243Z" fill="black"/>
<path d="M267.406 846.243H265.676V847.973H267.406V846.243Z" fill="black"/>
<path d="M269.135 846.243H267.406V847.973H269.135V846.243Z" fill="black"/>
<path d="M270.865 846.243H269.135V847.973H270.865V846.243Z" fill="black"/>
<path d="M272.595 846.243H270.865V847.973H272.595V846.243Z" fill="black"/>
<path d="M274.324 846.243H272.595V847.973H274.324V846.243Z" fill="black"/>
<path d="M279.513 846.243H277.784V847.973H279.513V846.243Z" fill="black"/>
<path d="M281.243 846.243H279.513V847.973H281.243V846.243Z" fill="black"/>
<path d="M282.973 846.243H281.243V847.973H282.973V846.243Z" fill="black"/>
<path d="M286.432 846.243H284.703V847.973H286.432V846.243Z" fill="black"/>
<path d="M289.892 846.243H288.162V847.973H289.892V846.243Z" fill="black"/>
<path d="M298.541 846.243H296.811V847.973H298.541V846.243Z" fill="black"/>
<path d="M243.189 847.973H241.459V849.703H243.189V847.973Z" fill="black"/>
<path d="M246.649 847.973H244.919V849.703H246.649V847.973Z" fill="black"/>
<path d="M248.378 847.973H246.649V849.703H248.378V847.973Z" fill="black"/>
<path d="M253.568 847.973H251.838V849.703H253.568V847.973Z" fill="black"/>
<path d="M255.297 847.973H253.568V849.703H255.297V847.973Z" fill="black"/>
<path d="M257.027 847.973H255.297V849.703H257.027V847.973Z" fill="black"/>
<path d="M260.487 847.973H258.757V849.703H260.487V847.973Z" fill="black"/>
<path d="M262.216 847.973H260.487V849.703H262.216V847.973Z" fill="black"/>
<path d="M265.676 847.973H263.946V849.703H265.676V847.973Z" fill="black"/>
<path d="M269.135 847.973H267.406V849.703H269.135V847.973Z" fill="black"/>
<path d="M274.324 847.973H272.595V849.703H274.324V847.973Z" fill="black"/>
<path d="M279.513 847.973H277.784V849.703H279.513V847.973Z" fill="black"/>
<path d="M284.703 847.973H282.973V849.703H284.703V847.973Z" fill="black"/>
<path d="M286.432 847.973H284.703V849.703H286.432V847.973Z" fill="black"/>
<path d="M288.162 847.973H286.432V849.703H288.162V847.973Z" fill="black"/>
<path d="M289.892 847.973H288.162V849.703H289.892V847.973Z" fill="black"/>
<path d="M291.622 847.973H289.892V849.703H291.622V847.973Z" fill="black"/>
<path d="M298.541 847.973H296.811V849.703H298.541V847.973Z" fill="black"/>
<path d="M257.027 849.703H255.297V851.432H257.027V849.703Z" fill="black"/>
<path d="M260.487 849.703H258.757V851.432H260.487V849.703Z" fill="black"/>
<path d="M262.216 849.703H260.487V851.432H262.216V849.703Z" fill="black"/>
<path d="M269.135 849.703H267.406V851.432H269.135V849.703Z" fill="black"/>
<path d="M270.865 849.703H269.135V851.432H270.865V849.703Z" fill="black"/>
<path d="M272.595 849.703H270.865V851.432H272.595V849.703Z" fill="black"/>
<path d="M277.784 849.703H276.054V851.432H277.784V849.703Z" fill="black"/>
<path d="M282.973 849.703H281.243V851.432H282.973V849.703Z" fill="black"/>
<path d="M284.703 849.703H282.973V851.432H284.703V849.703Z" fill="black"/>
<path d="M291.622 849.703H289.892V851.432H291.622V849.703Z" fill="black"/>
<path d="M296.811 849.703H295.081V851.432H296.811V849.703Z" fill="black"/>
<path d="M298.541 849.703H296.811V851.432H298.541V849.703Z" fill="black"/>
<path d="M243.189 851.432H241.459V853.162H243.189V851.432Z" fill="black"/>
<path d="M244.919 851.432H243.189V853.162H244.919V851.432Z" fill="black"/>
<path d="M246.649 851.432H244.919V853.162H246.649V851.432Z" fill="black"/>
<path d="M248.378 851.432H246.649V853.162H248.378V851.432Z" fill="black"/>
<path d="M250.108 851.432H248.378V853.162H250.108V851.432Z" fill="black"/>
<path d="M251.838 851.432H250.108V853.162H251.838V851.432Z" fill="black"/>
<path d="M253.568 851.432H251.838V853.162H253.568V851.432Z" fill="black"/>
<path d="M258.757 851.432H257.027V853.162H258.757V851.432Z" fill="black"/>
<path d="M265.676 851.432H263.946V853.162H265.676V851.432Z" fill="black"/>
<path d="M269.135 851.432H267.406V853.162H269.135V851.432Z" fill="black"/>
<path d="M272.595 851.432H270.865V853.162H272.595V851.432Z" fill="black"/>
<path d="M274.324 851.432H272.595V853.162H274.324V851.432Z" fill="black"/>
<path d="M276.054 851.432H274.324V853.162H276.054V851.432Z" fill="black"/>
<path d="M279.513 851.432H277.784V853.162H279.513V851.432Z" fill="black"/>
<path d="M282.973 851.432H281.243V853.162H282.973V851.432Z" fill="black"/>
<path d="M284.703 851.432H282.973V853.162H284.703V851.432Z" fill="black"/>
<path d="M288.162 851.432H286.432V853.162H288.162V851.432Z" fill="black"/>
<path d="M291.622 851.432H289.892V853.162H291.622V851.432Z" fill="black"/>
<path d="M293.351 851.432H291.622V853.162H293.351V851.432Z" fill="black"/>
<path d="M295.081 851.432H293.351V853.162H295.081V851.432Z" fill="black"/>
<path d="M296.811 851.432H295.081V853.162H296.811V851.432Z" fill="black"/>
<path d="M298.541 851.432H296.811V853.162H298.541V851.432Z" fill="black"/>
<path d="M243.189 853.162H241.459V854.892H243.189V853.162Z" fill="black"/>
<path d="M253.568 853.162H251.838V854.892H253.568V853.162Z" fill="black"/>
<path d="M257.027 853.162H255.297V854.892H257.027V853.162Z" fill="black"/>
<path d="M260.487 853.162H258.757V854.892H260.487V853.162Z" fill="black"/>
<path d="M267.406 853.162H265.676V854.892H267.406V853.162Z" fill="black"/>
<path d="M269.135 853.162H267.406V854.892H269.135V853.162Z" fill="black"/>
<path d="M272.595 853.162H270.865V854.892H272.595V853.162Z" fill="black"/>
<path d="M274.324 853.162H272.595V854.892H274.324V853.162Z" fill="black"/>
<path d="M276.054 853.162H274.324V854.892H276.054V853.162Z" fill="black"/>
<path d="M282.973 853.162H281.243V854.892H282.973V853.162Z" fill="black"/>
<path d="M284.703 853.162H282.973V854.892H284.703V853.162Z" fill="black"/>
<path d="M291.622 853.162H289.892V854.892H291.622V853.162Z" fill="black"/>
<path d="M298.541 853.162H296.811V854.892H298.541V853.162Z" fill="black"/>
<path d="M243.189 854.892H241.459V856.622H243.189V854.892Z" fill="black"/>
<path d="M246.649 854.892H244.919V856.622H246.649V854.892Z" fill="black"/>
<path d="M248.378 854.892H246.649V856.622H248.378V854.892Z" fill="black"/>
<path d="M250.108 854.892H248.378V856.622H250.108V854.892Z" fill="black"/>
<path d="M253.568 854.892H251.838V856.622H253.568V854.892Z" fill="black"/>
<path d="M257.027 854.892H255.297V856.622H257.027V854.892Z" fill="black"/>
<path d="M258.757 854.892H257.027V856.622H258.757V854.892Z" fill="black"/>
<path d="M262.216 854.892H260.487V856.622H262.216V854.892Z" fill="black"/>
<path d="M263.946 854.892H262.216V856.622H263.946V854.892Z" fill="black"/>
<path d="M265.676 854.892H263.946V856.622H265.676V854.892Z" fill="black"/>
<path d="M272.595 854.892H270.865V856.622H272.595V854.892Z" fill="black"/>
<path d="M274.324 854.892H272.595V856.622H274.324V854.892Z" fill="black"/>
<path d="M276.054 854.892H274.324V856.622H276.054V854.892Z" fill="black"/>
<path d="M284.703 854.892H282.973V856.622H284.703V854.892Z" fill="black"/>
<path d="M286.432 854.892H284.703V856.622H286.432V854.892Z" fill="black"/>
<path d="M288.162 854.892H286.432V856.622H288.162V854.892Z" fill="black"/>
<path d="M289.892 854.892H288.162V856.622H289.892V854.892Z" fill="black"/>
<path d="M291.622 854.892H289.892V856.622H291.622V854.892Z" fill="black"/>
<path d="M293.351 854.892H291.622V856.622H293.351V854.892Z" fill="black"/>
<path d="M296.811 854.892H295.081V856.622H296.811V854.892Z" fill="black"/>
<path d="M243.189 856.622H241.459V858.351H243.189V856.622Z" fill="black"/>
<path d="M246.649 856.622H244.919V858.351H246.649V856.622Z" fill="black"/>
<path d="M248.378 856.622H246.649V858.351H248.378V856.622Z" fill="black"/>
<path d="M250.108 856.622H248.378V858.351H250.108V856.622Z" fill="black"/>
<path d="M253.568 856.622H251.838V858.351H253.568V856.622Z" fill="black"/>
<path d="M262.216 856.622H260.487V858.351H262.216V856.622Z" fill="black"/>
<path d="M263.946 856.622H262.216V858.351H263.946V856.622Z" fill="black"/>
<path d="M265.676 856.622H263.946V858.351H265.676V856.622Z" fill="black"/>
<path d="M269.135 856.622H267.406V858.351H269.135V856.622Z" fill="black"/>
<path d="M272.595 856.622H270.865V858.351H272.595V856.622Z" fill="black"/>
<path d="M276.054 856.622H274.324V858.351H276.054V856.622Z" fill="black"/>
<path d="M277.784 856.622H276.054V858.351H277.784V856.622Z" fill="black"/>
<path d="M282.973 856.622H281.243V858.351H282.973V856.622Z" fill="black"/>
<path d="M284.703 856.622H282.973V858.351H284.703V856.622Z" fill="black"/>
<path d="M291.622 856.622H289.892V858.351H291.622V856.622Z" fill="black"/>
<path d="M295.081 856.622H293.351V858.351H295.081V856.622Z" fill="black"/>
<path d="M243.189 858.351H241.459V860.081H243.189V858.351Z" fill="black"/>
<path d="M246.649 858.351H244.919V860.081H246.649V858.351Z" fill="black"/>
<path d="M248.378 858.351H246.649V860.081H248.378V858.351Z" fill="black"/>
<path d="M250.108 858.351H248.378V860.081H250.108V858.351Z" fill="black"/>
<path d="M253.568 858.351H251.838V860.081H253.568V858.351Z" fill="black"/>
<path d="M257.027 858.351H255.297V860.081H257.027V858.351Z" fill="black"/>
<path d="M258.757 858.351H257.027V860.081H258.757V858.351Z" fill="black"/>
<path d="M260.487 858.351H258.757V860.081H260.487V858.351Z" fill="black"/>
<path d="M262.216 858.351H260.487V860.081H262.216V858.351Z" fill="black"/>
<path d="M265.676 858.351H263.946V860.081H265.676V858.351Z" fill="black"/>
<path d="M267.406 858.351H265.676V860.081H267.406V858.351Z" fill="black"/>
<path d="M270.865 858.351H269.135V860.081H270.865V858.351Z" fill="black"/>
<path d="M276.054 858.351H274.324V860.081H276.054V858.351Z" fill="black"/>
<path d="M277.784 858.351H276.054V860.081H277.784V858.351Z" fill="black"/>
<path d="M279.513 858.351H277.784V860.081H279.513V858.351Z" fill="black"/>
<path d="M284.703 858.351H282.973V860.081H284.703V858.351Z" fill="black"/>
<path d="M286.432 858.351H284.703V860.081H286.432V858.351Z" fill="black"/>
<path d="M289.892 858.351H288.162V860.081H289.892V858.351Z" fill="black"/>
<path d="M291.622 858.351H289.892V860.081H291.622V858.351Z" fill="black"/>
<path d="M298.541 858.351H296.811V860.081H298.541V858.351Z" fill="black"/>
<path d="M243.189 860.081H241.459V861.811H243.189V860.081Z" fill="black"/>
<path d="M253.568 860.081H251.838V861.811H253.568V860.081Z" fill="black"/>
<path d="M262.216 860.081H260.487V861.811H262.216V860.081Z" fill="black"/>
<path d="M265.676 860.081H263.946V861.811H265.676V860.081Z" fill="black"/>
<path d="M269.135 860.081H267.406V861.811H269.135V860.081Z" fill="black"/>
<path d="M279.513 860.081H277.784V861.811H279.513V860.081Z" fill="black"/>
<path d="M281.243 860.081H279.513V861.811H281.243V860.081Z" fill="black"/>
<path d="M284.703 860.081H282.973V861.811H284.703V860.081Z" fill="black"/>
<path d="M286.432 860.081H284.703V861.811H286.432V860.081Z" fill="black"/>
<path d="M289.892 860.081H288.162V861.811H289.892V860.081Z" fill="black"/>
<path d="M295.081 860.081H293.351V861.811H295.081V860.081Z" fill="black"/>
<path d="M296.811 860.081H295.081V861.811H296.811V860.081Z" fill="black"/>
<path d="M243.189 861.811H241.459V863.541H243.189V861.811Z" fill="black"/>
<path d="M244.919 861.811H243.189V863.541H244.919V861.811Z" fill="black"/>
<path d="M246.649 861.811H244.919V863.541H246.649V861.811Z" fill="black"/>
<path d="M248.378 861.811H246.649V863.541H248.378V861.811Z" fill="black"/>
<path d="M250.108 861.811H248.378V863.541H250.108V861.811Z" fill="black"/>
<path d="M251.838 861.811H250.108V863.541H251.838V861.811Z" fill="black"/>
<path d="M253.568 861.811H251.838V863.541H253.568V861.811Z" fill="black"/>
<path d="M260.487 861.811H258.757V863.541H260.487V861.811Z" fill="black"/>
<path d="M262.216 861.811H260.487V863.541H262.216V861.811Z" fill="black"/>
<path d="M263.946 861.811H262.216V863.541H263.946V861.811Z" fill="black"/>
<path d="M269.135 861.811H267.406V863.541H269.135V861.811Z" fill="black"/>
<path d="M279.513 861.811H277.784V863.541H279.513V861.811Z" fill="black"/>
<path d="M282.973 861.811H281.243V863.541H282.973V861.811Z" fill="black"/>
<path d="M284.703 861.811H282.973V863.541H284.703V861.811Z" fill="black"/>
<path d="M286.432 861.811H284.703V863.541H286.432V861.811Z" fill="black"/>
<path d="M288.162 861.811H286.432V863.541H288.162V861.811Z" fill="black"/>
<path d="M289.892 861.811H288.162V863.541H289.892V861.811Z" fill="black"/>
<path d="M291.622 861.811H289.892V863.541H291.622V861.811Z" fill="black"/>
<path d="M295.081 861.811H293.351V863.541H295.081V861.811Z" fill="black"/>
<path d="M296.811 861.811H295.081V863.541H296.811V861.811Z" fill="black"/>
<path d="M298.541 861.811H296.811V863.541H298.541V861.811Z" fill="black"/>
</g>
<path d="M209.84 155.464V161.992H265.968V155.464H209.84ZM213.936 165.896V172.36H263.088V165.896H213.936ZM219.824 188.872V195.336H256.88V188.872H219.824ZM220.016 175.88V182.152H254.448V198.728H262.128V175.88H220.016ZM214.96 175.88V183.816C214.96 190.408 214.192 199.432 207.152 205.896C208.816 206.856 212.016 209.608 213.168 211.08C220.976 203.784 222.576 192.136 222.576 183.944V175.88H214.96ZM233.904 150.6V169.352H241.712V150.6H233.904ZM234.16 178.056V192.904H241.584V178.056H234.16ZM278.448 154.184V161.096H289.712V186.44H278.448V193.48H296.816V154.184H278.448ZM278.512 170.184V177.032H292.528V170.184H278.512ZM305.84 153.224V160.328H325.488V153.224H305.84ZM305.84 168.52V175.432H325.488V168.52H305.84ZM305.712 183.688V190.536H325.424V183.688H305.712ZM274.352 154.184V199.048H281.456V154.184H274.352ZM322.608 153.224V201.864C322.608 203.016 322.224 203.4 321.072 203.4C319.984 203.4 316.08 203.464 312.624 203.272C313.712 205.256 314.928 208.584 315.248 210.696C320.688 210.696 324.336 210.504 326.896 209.288C329.392 208.072 330.224 205.96 330.224 201.992V153.224H322.608ZM301.232 153.224V176.392C301.232 186.184 300.272 198.216 289.456 206.088C291.12 207.112 294.064 209.736 295.216 211.272C307.056 202.568 308.784 187.528 308.784 176.456V153.224H301.232Z" fill="url(#paint0_linear_11450_63835)"/>
<path d="M115.505 278.8V281.68H141.815V278.8H115.505ZM120.395 292.27V295.15H136.775V292.27H120.395ZM127.115 272.71V300.52H130.115V272.71H127.115ZM124.565 279.79C122.645 285.34 118.835 290.86 114.575 293.59C115.235 294.16 116.165 295.18 116.675 295.9C121.145 292.63 124.955 286.87 127.145 280.57L124.565 279.79ZM132.575 279.88L130.025 280.63C132.185 286.87 135.935 292.63 140.435 295.81C140.945 295 141.935 293.89 142.685 293.32C138.305 290.65 134.495 285.34 132.575 279.88ZM156.875 272.77C156.755 277.6 157.115 291.76 144.725 298.18C145.625 298.81 146.555 299.71 147.065 300.46C159.725 293.38 159.935 278.47 160.085 272.77H156.875ZM159.785 276.43L157.055 276.73C157.475 279.52 158.615 294.61 170.675 300.31C171.095 299.5 171.905 298.54 172.745 297.88C161.135 292.69 160.025 278.71 159.785 276.43ZM264.221 274.96C266.951 276.76 270.281 279.43 271.781 281.23L274.181 279.58C272.501 277.72 269.111 275.2 266.441 273.52L264.221 274.96ZM248.621 282.34V284.86H275.711V282.34H248.621ZM263.351 286.09C261.341 287.35 257.501 288.58 254.621 289.18C255.281 289.75 255.971 290.59 256.391 291.16C259.421 290.38 263.201 289 265.691 287.35L263.351 286.09ZM265.841 289.54C263.291 291.37 258.311 292.81 254.111 293.5C254.681 294.1 255.341 295 255.701 295.66C260.231 294.73 265.181 293.08 268.241 290.71L265.841 289.54ZM269.531 292.66C266.201 295.81 259.391 297.46 252.161 298.12C252.671 298.78 253.241 299.83 253.511 300.61C261.281 299.65 268.211 297.76 272.141 293.89L269.531 292.66ZM259.061 278.95C257.171 284.2 253.241 288.1 248.081 290.29C248.711 290.83 249.791 291.97 250.211 292.54C255.431 289.93 259.661 285.61 261.941 279.64L259.061 278.95ZM266.981 282.97L264.581 283.9C266.771 287.47 270.551 290.71 274.331 292.45C274.751 291.73 275.621 290.68 276.251 290.14C272.621 288.76 268.901 285.91 266.981 282.97ZM252.371 280.51C252.371 279.97 254.111 279.28 254.111 279.28V279.19C256.841 277.93 259.781 276.01 262.391 273.85L259.811 272.44C257.681 274.54 254.711 276.43 253.751 276.94C252.881 277.45 252.191 277.78 251.531 277.87C251.831 278.59 252.221 279.94 252.371 280.51ZM252.371 280.51C253.541 280.09 255.281 280.06 271.001 279.37C270.851 278.83 270.611 277.84 270.551 277.15L254.111 277.66L252.341 278.56L252.371 280.51ZM284.351 284.17V286.81H301.901V284.17H284.351ZM285.761 276.61V279.34H303.551V276.61H285.761ZM278.711 290.56V293.29H297.431V290.56H278.711ZM301.211 284.17L301.181 284.62C300.521 292.48 299.711 296.17 298.541 297.1C298.121 297.43 297.701 297.46 296.951 297.46C296.021 297.46 293.621 297.46 291.251 297.25C291.851 298.03 292.301 299.23 292.361 300.07C294.491 300.19 296.681 300.22 297.821 300.16C299.231 300.04 300.131 299.83 301.001 298.93C302.381 297.55 303.191 294.01 304.031 285.46C304.091 285.07 304.151 284.17 304.151 284.17H301.211ZM284.771 273.28C284.051 277.57 282.851 283.33 281.921 286.78L284.921 286.81C285.761 283.51 286.871 277.9 287.651 273.55L284.771 273.28ZM309.191 275.02C310.841 276.58 312.761 278.8 313.571 280.27L315.941 278.59C315.041 277.15 313.031 275.05 311.381 273.55L309.191 275.02ZM315.161 283.87H308.501V286.54H312.371V295.06H315.161V283.87ZM313.721 293.56C312.191 293.56 310.061 295.06 307.991 297.28L309.971 300.07C311.321 298.12 312.701 296.26 313.661 296.26C314.321 296.26 315.311 297.22 316.661 298C318.791 299.29 321.341 299.59 325.091 299.59C328.061 299.59 333.191 299.44 335.321 299.32C335.351 298.45 335.831 296.98 336.191 296.2C333.221 296.56 328.541 296.83 325.181 296.83C321.851 296.83 319.181 296.62 317.171 295.45C315.461 294.46 314.741 293.56 313.721 293.56ZM317.111 277.99V280.66H335.381V277.99H317.111ZM328.541 272.83V291.67C328.541 292.21 328.331 292.36 327.701 292.39C327.101 292.42 324.971 292.42 322.901 292.33C323.291 293.14 323.771 294.4 323.891 295.21C326.711 295.21 328.631 295.15 329.801 294.7C331.001 294.25 331.421 293.47 331.421 291.7V272.83H328.541ZM318.281 283.81C319.781 285.7 321.641 288.31 322.451 289.9L324.851 288.43C323.981 286.84 322.061 284.35 320.561 282.55L318.281 283.81ZM362.861 273.28C359.141 274.63 352.871 275.83 347.351 276.52C347.651 277.18 348.071 278.26 348.191 278.95C353.831 278.29 360.431 277.21 364.961 275.68L362.861 273.28ZM346.421 285.4V288.13H365.981V285.4H346.421ZM347.621 296.71V299.44H365.561V296.71H347.621ZM355.031 277.09V297.52H357.881V277.09H355.031ZM342.431 280.99V300.52H345.251V278.26L345.221 278.2L342.431 280.99ZM345.581 272.74C343.781 277.33 340.811 281.86 337.661 284.71C338.201 285.43 339.071 286.96 339.371 287.65C342.881 284.2 346.241 278.86 348.341 273.61L345.581 272.74ZM377.441 275.47V278.17H396.101V275.47H377.441ZM391.211 276.46V296.92C391.211 297.49 391.031 297.67 390.401 297.67C389.771 297.7 387.611 297.7 385.391 297.61C385.811 298.45 386.261 299.71 386.381 300.52C389.261 300.55 391.271 300.46 392.471 300.04C393.641 299.56 394.061 298.75 394.061 296.95V276.46H391.211ZM378.101 281.98V294.64H380.771V281.98H378.101ZM379.301 281.98V284.47H385.151V290.11H379.301V292.6H387.791V281.98H379.301ZM374.861 272.68C373.331 277.06 370.781 281.44 368.051 284.23C368.561 284.89 369.341 286.45 369.611 287.11C372.731 283.75 375.701 278.56 377.531 273.52L374.861 272.68ZM372.101 280.78V300.49H374.921V277.99L374.891 277.96L372.101 280.78ZM401.321 274.24V283.03C401.321 287.8 401.051 294.49 397.961 299.11C398.681 299.41 399.941 300.13 400.481 300.61C403.721 295.72 404.171 288.16 404.171 283.03V274.24H401.321ZM403.241 274.24V276.76H420.881V279.52H403.241V282.01H423.731V274.24H403.241ZM403.211 285.01V287.56H425.351V285.01H403.211ZM407.531 297.07V299.56H421.871V297.07H407.531ZM413.171 281.83V291.58H416.021V281.83H413.171ZM406.091 290.62V300.52H408.821V293.14H420.431V300.49H423.251V290.62H406.091ZM428.441 288.94V291.37H455.801V288.94H428.441ZM447.101 289.87C444.761 295.6 439.091 297.52 428.861 298.06C429.341 298.72 429.821 299.74 430.001 300.55C440.981 299.68 447.131 297.4 449.891 290.62L447.101 289.87ZM428.771 278.77V281.2H455.351V278.77H428.771ZM440.651 275.05V286.78H443.441V275.05H440.651ZM439.421 279.37C437.051 282.16 432.401 284.59 428.051 285.73C428.621 286.24 429.401 287.26 429.761 287.95C434.261 286.54 439.001 283.72 441.701 280.33L439.421 279.37ZM444.641 279.4L442.361 280.36C445.091 283.63 449.801 286.45 454.271 287.77C454.661 287.05 455.471 286 456.101 285.43C451.721 284.38 447.011 282.07 444.641 279.4ZM450.461 272.71C445.991 273.7 437.741 274.27 430.901 274.39C431.141 274.99 431.441 275.98 431.501 276.61C438.521 276.49 447.011 275.95 452.531 274.72L450.461 272.71ZM432.551 294.82C440.711 296.47 448.331 298.6 452.861 300.34L455.411 298.3C450.461 296.59 442.421 294.46 434.711 292.96L432.551 294.82ZM432.581 294.82H436.031C437.831 292.93 440.441 289.6 442.001 286.69L439.121 285.97C437.561 288.94 434.771 292.54 432.581 294.82ZM459.761 287.68V290.44H484.661V287.68H459.761ZM465.071 281.89V284.5H479.261V281.89H465.071ZM475.361 292.42C477.941 294.82 480.791 298.24 482.051 300.52L484.601 298.96C483.251 296.71 480.431 293.5 477.791 291.16L475.361 292.42ZM472.121 272.62C469.331 276.58 463.991 280.33 458.171 282.67C458.831 283.21 459.821 284.44 460.211 285.16C466.241 282.43 471.431 278.53 474.761 273.82L472.121 272.62ZM472.691 273.91L470.801 275.47C473.471 278.56 478.901 282.7 484.181 284.83C484.631 284.08 485.561 282.91 486.191 282.34C480.791 280.54 475.211 276.82 472.691 273.91ZM461.831 299.95C461.831 299.35 463.871 298.48 463.871 298.48V298.39C466.691 296.23 469.601 293.17 471.971 290.08L469.301 288.31C467.231 291.52 464.201 294.67 463.211 295.48C462.251 296.35 461.591 296.89 460.871 297.04C461.201 297.82 461.681 299.32 461.831 299.95ZM461.831 299.95C463.181 299.44 465.071 299.32 481.661 298C481.481 297.4 481.211 296.23 481.121 295.45L463.721 296.62L461.801 297.67L461.831 299.95ZM69.23 317.77C69.35 331.54 71.9 345.58 77.96 345.58C80.48 345.58 81.5 344.14 81.98 338.77C81.17 338.47 80.12 337.78 79.49 337.12C79.31 341.02 78.98 342.61 78.23 342.61C75.02 342.61 72.14 330.67 72.26 317.77H69.23ZM73.85 319.45C75.59 320.32 77.69 321.67 78.71 322.66L80.48 320.71C79.4 319.72 77.27 318.46 75.53 317.71L73.85 319.45ZM77.33 326.98C75.11 334.36 70.94 340.12 64.94 343.45C65.57 343.96 66.71 345.07 67.16 345.64C73.19 341.83 77.63 335.68 80.18 327.64L77.33 326.98ZM54.83 322.33V325.12H81.23V322.33H54.83ZM54.68 340.75L55.22 343.66C58.79 342.91 63.71 341.83 68.27 340.81L68.03 338.11C63.17 339.13 58.01 340.15 54.68 340.75ZM59.03 329.86H64.46V334.33H59.03V329.86ZM56.42 327.43V336.73H67.22V327.43H56.42ZM97.4 323.98V326.68H112.1V323.98H97.4ZM106.04 317.71V341.86C106.04 342.4 105.83 342.58 105.26 342.58C104.66 342.61 102.77 342.61 100.79 342.55C101.24 343.39 101.69 344.71 101.81 345.52C104.45 345.55 106.31 345.46 107.39 344.98C108.5 344.53 108.92 343.69 108.92 341.86V317.71H106.04ZM97.88 330.52C99.41 332.8 100.97 335.83 101.51 337.75L104.06 336.46C103.49 334.51 101.84 331.6 100.22 329.41L97.88 330.52ZM84.47 324.01V326.71H96.53V324.01H84.47ZM89.51 317.68V345.52H92.24V317.68H89.51ZM89.36 325.78C88.37 329.95 86.09 334.84 83.69 337.51C84.17 338.2 84.89 339.37 85.19 340.18C87.74 337.15 90.05 331.33 91.22 326.44L89.36 325.78ZM92.12 328.87L90.62 330.31C91.7 331.63 94.16 334.84 95.06 336.46L96.83 334.09C96.14 333.22 93.02 329.71 92.12 328.87ZM114.32 333.94V336.37H141.68V333.94H114.32ZM132.98 334.87C130.64 340.6 124.97 342.52 114.74 343.06C115.22 343.72 115.7 344.74 115.88 345.55C126.86 344.68 133.01 342.4 135.77 335.62L132.98 334.87ZM114.65 323.77V326.2H141.23V323.77H114.65ZM126.53 320.05V331.78H129.32V320.05H126.53ZM125.3 324.37C122.93 327.16 118.28 329.59 113.93 330.73C114.5 331.24 115.28 332.26 115.64 332.95C120.14 331.54 124.88 328.72 127.58 325.33L125.3 324.37ZM130.52 324.4L128.24 325.36C130.97 328.63 135.68 331.45 140.15 332.77C140.54 332.05 141.35 331 141.98 330.43C137.6 329.38 132.89 327.07 130.52 324.4ZM136.34 317.71C131.87 318.7 123.62 319.27 116.78 319.39C117.02 319.99 117.32 320.98 117.38 321.61C124.4 321.49 132.89 320.95 138.41 319.72L136.34 317.71ZM118.43 339.82C126.59 341.47 134.21 343.6 138.74 345.34L141.29 343.3C136.34 341.59 128.3 339.46 120.59 337.96L118.43 339.82ZM118.46 339.82H121.91C123.71 337.93 126.32 334.6 127.88 331.69L125 330.97C123.44 333.94 120.65 337.54 118.46 339.82ZM145.64 332.68V335.44H170.54V332.68H145.64ZM150.95 326.89V329.5H165.14V326.89H150.95ZM161.24 337.42C163.82 339.82 166.67 343.24 167.93 345.52L170.48 343.96C169.13 341.71 166.31 338.5 163.67 336.16L161.24 337.42ZM158 317.62C155.21 321.58 149.87 325.33 144.05 327.67C144.71 328.21 145.7 329.44 146.09 330.16C152.12 327.43 157.31 323.53 160.64 318.82L158 317.62ZM158.57 318.91L156.68 320.47C159.35 323.56 164.78 327.7 170.06 329.83C170.51 329.08 171.44 327.91 172.07 327.34C166.67 325.54 161.09 321.82 158.57 318.91ZM147.71 344.95C147.71 344.35 149.75 343.48 149.75 343.48V343.39C152.57 341.23 155.48 338.17 157.85 335.08L155.18 333.31C153.11 336.52 150.08 339.67 149.09 340.48C148.13 341.35 147.47 341.89 146.75 342.04C147.08 342.82 147.56 344.32 147.71 344.95ZM147.71 344.95C149.06 344.44 150.95 344.32 167.54 343C167.36 342.4 167.09 341.23 167 340.45L149.6 341.62L147.68 342.67L147.71 344.95ZM175.97 323.53V326.32H199.97V323.53H175.97ZM177.44 332.32V335.08H198.65V332.32H177.44ZM174.62 341.77V344.56H201.47V341.77H174.62ZM186.44 325.87V343.24H189.53V325.87H186.44ZM183.83 319.33C185.81 320.77 188.21 322.87 189.32 324.25L191.81 322.45C190.58 321.04 188.09 319.03 186.17 317.74L183.83 319.33ZM228.74 318.28C225.02 319.63 218.75 320.83 213.23 321.52C213.53 322.18 213.95 323.26 214.07 323.95C219.71 323.29 226.31 322.21 230.84 320.68L228.74 318.28ZM212.3 330.4V333.13H231.86V330.4H212.3ZM213.5 341.71V344.44H231.44V341.71H213.5ZM220.91 322.09V342.52H223.76V322.09H220.91ZM208.31 325.99V345.52H211.13V323.26L211.1 323.2L208.31 325.99ZM211.46 317.74C209.66 322.33 206.69 326.86 203.54 329.71C204.08 330.43 204.95 331.96 205.25 332.65C208.76 329.2 212.12 323.86 214.22 318.61L211.46 317.74ZM240.95 344.86L243.5 342.67C241.79 340.63 239 337.81 236.84 336.07L234.38 338.2C236.48 339.97 239.06 342.55 240.95 344.86ZM282.86 321.31V338.11H285.35V321.31H282.86ZM288.05 318.28V342.01C288.05 342.52 287.84 342.7 287.33 342.7C286.76 342.73 285.05 342.73 283.22 342.67C283.64 343.48 284.03 344.74 284.15 345.52C286.73 345.55 288.38 345.46 289.4 344.98C290.42 344.53 290.81 343.72 290.81 342.01V318.28H288.05ZM264.59 319.03V321.43H281.21V319.03H264.59ZM266.51 341.83V344.05H279.23V341.83H266.51ZM266.72 337.12V339.22H279.02V337.12H266.72ZM271.73 333.73V342.91H274.28V333.73H271.73ZM265.28 332.47V345.46H267.89V334.69H278.15V345.19H280.85V332.47H265.28ZM268.91 325.54H276.95V328.39H268.91V325.54ZM266.33 323.29V330.58H279.65V323.29H266.33ZM295.97 323.53V326.32H319.97V323.53H295.97ZM297.44 332.32V335.08H318.65V332.32H297.44ZM294.62 341.77V344.56H321.47V341.77H294.62ZM306.44 325.87V343.24H309.53V325.87H306.44ZM303.83 319.33C305.81 320.77 308.21 322.87 309.32 324.25L311.81 322.45C310.58 321.04 308.09 319.03 306.17 317.74L303.83 319.33ZM348.74 318.28C345.02 319.63 338.75 320.83 333.23 321.52C333.53 322.18 333.95 323.26 334.07 323.95C339.71 323.29 346.31 322.21 350.84 320.68L348.74 318.28ZM332.3 330.4V333.13H351.86V330.4H332.3ZM333.5 341.71V344.44H351.44V341.71H333.5ZM340.91 322.09V342.52H343.76V322.09H340.91ZM328.31 325.99V345.52H331.13V323.26L331.1 323.2L328.31 325.99ZM331.46 317.74C329.66 322.33 326.69 326.86 323.54 329.71C324.08 330.43 324.95 331.96 325.25 332.65C328.76 329.2 332.12 323.86 334.22 318.61L331.46 317.74ZM360.95 344.86L363.5 342.67C361.79 340.63 359 337.81 356.84 336.07L354.38 338.2C356.48 339.97 359.06 342.55 360.95 344.86ZM384.32 333.94V336.37H411.68V333.94H384.32ZM402.98 334.87C400.64 340.6 394.97 342.52 384.74 343.06C385.22 343.72 385.7 344.74 385.88 345.55C396.86 344.68 403.01 342.4 405.77 335.62L402.98 334.87ZM384.65 323.77V326.2H411.23V323.77H384.65ZM396.53 320.05V331.78H399.32V320.05H396.53ZM395.3 324.37C392.93 327.16 388.28 329.59 383.93 330.73C384.5 331.24 385.28 332.26 385.64 332.95C390.14 331.54 394.88 328.72 397.58 325.33L395.3 324.37ZM400.52 324.4L398.24 325.36C400.97 328.63 405.68 331.45 410.15 332.77C410.54 332.05 411.35 331 411.98 330.43C407.6 329.38 402.89 327.07 400.52 324.4ZM406.34 317.71C401.87 318.7 393.62 319.27 386.78 319.39C387.02 319.99 387.32 320.98 387.38 321.61C394.4 321.49 402.89 320.95 408.41 319.72L406.34 317.71ZM388.43 339.82C396.59 341.47 404.21 343.6 408.74 345.34L411.29 343.3C406.34 341.59 398.3 339.46 390.59 337.96L388.43 339.82ZM388.46 339.82H391.91C393.71 337.93 396.32 334.6 397.88 331.69L395 330.97C393.44 333.94 390.65 337.54 388.46 339.82ZM421.49 321.4H434.54V324.34H421.49V321.4ZM418.52 318.97V326.77H437.69V318.97H418.52ZM426.29 333.43V336.13C426.29 338.35 425.42 341.38 414.8 343.39C415.49 343.99 416.36 345.1 416.72 345.73C427.79 343.24 429.35 339.37 429.35 336.19V333.43H426.29ZM428.96 341.35C432.5 342.55 437.39 344.47 439.82 345.7L441.26 343.3C438.71 342.07 433.76 340.33 430.34 339.25L428.96 341.35ZM417.38 329.14V340.18H420.32V331.78H435.89V339.88H438.95V329.14H417.38ZM447.08 322.54V325.03H453.65V339.88H447.08V342.4H456.23V322.54H447.08ZM445.4 322.54V344.71H448.01V322.54H445.4ZM446.93 330.73V333.22H454.94V330.73H446.93ZM449.87 317.65C449.66 319.24 449.15 321.52 448.67 323.02L450.95 323.56C451.55 322.18 452.3 320.08 452.93 318.13L449.87 317.65ZM460.37 322.39V325H469.4V322.39H460.37ZM468.41 322.39V322.96C468.05 335.86 467.6 340.93 466.61 341.98C466.28 342.4 465.92 342.49 465.32 342.49C464.6 342.49 462.8 342.46 460.85 342.31C461.36 343.06 461.72 344.26 461.78 345.07C463.49 345.13 465.29 345.19 466.37 345.07C467.51 344.92 468.26 344.62 468.98 343.63C470.21 342.1 470.6 337.39 471.02 323.74C471.05 323.38 471.05 322.39 471.05 322.39H468.41ZM460.76 317.62C459.8 321.7 458.15 325.81 456.11 328.42C456.77 328.78 457.94 329.59 458.45 330.04C460.49 327.19 462.35 322.72 463.49 318.25L460.76 317.62ZM459.35 330.55C460.91 332.74 462.86 335.71 463.73 337.54L466.16 336.07C465.2 334.3 463.16 331.39 461.57 329.29L459.35 330.55ZM62.54 374.09V376.58H81.62V374.09H62.54ZM66.08 367.67V370.1H80.36V367.67H66.08ZM70.91 363.83V375.11H73.73V363.83H70.91ZM66.05 364.61C65.33 367.25 64.07 369.89 62.45 371.6C63.11 371.93 64.28 372.68 64.82 373.1C66.41 371.18 67.91 368.21 68.75 365.18L66.05 364.61ZM73.19 375.47V382.82C73.19 385.49 73.76 386.33 76.28 386.33C76.76 386.33 78.41 386.33 78.92 386.33C80.96 386.33 81.68 385.34 81.95 381.44C81.17 381.23 80 380.81 79.46 380.33C79.37 383.3 79.25 383.69 78.62 383.69C78.29 383.69 76.97 383.69 76.73 383.69C76.07 383.69 76.01 383.6 76.01 382.79V375.47H73.19ZM67.88 375.47C67.49 379.52 66.59 382.55 61.82 384.26C62.45 384.8 63.23 385.85 63.56 386.57C68.99 384.38 70.25 380.54 70.73 375.47H67.88ZM54.59 366.2C56.3 367.67 58.31 369.77 59.18 371.24L61.52 369.47C60.56 368.03 58.49 366.02 56.75 364.64L54.59 366.2ZM60.8 375.23H54.53V377.87H58.07V386.72H60.8V375.23ZM60.53 385.61C58.73 385.61 56.36 387.2 54.17 389.21L56.06 391.67C57.71 389.78 59.36 388.16 60.47 388.16C61.13 388.16 62.06 389.03 63.26 389.78C65.24 390.92 67.7 391.25 71.21 391.25C74.15 391.25 78.98 391.1 81.26 390.95C81.29 390.17 81.74 388.76 82.04 388.01C79.1 388.37 74.51 388.61 71.27 388.61C68.12 388.61 65.57 388.43 63.68 387.29C62.18 386.39 61.46 385.61 60.53 385.61ZM84.59 369.44V372.02H111.47V369.44H84.59ZM105.44 364.01C104.6 365.69 103.07 368.09 101.84 369.59L104.18 370.49C105.47 369.08 107.12 366.95 108.47 364.97L105.44 364.01ZM87.41 365.45C88.61 366.83 89.93 368.75 90.47 369.98L93.05 368.63C92.42 367.4 91.04 365.54 89.81 364.25L87.41 365.45ZM94.64 364.55C95.72 366.02 96.86 368 97.31 369.26L99.83 368.09C99.35 366.8 98.12 364.91 97.01 363.5L94.64 364.55ZM92.27 370.79C90.59 374 87.23 376.94 83.69 378.35C84.29 378.89 85.13 379.91 85.55 380.54C89.27 378.8 92.75 375.47 94.67 371.63L92.27 370.79ZM103.88 370.73L101.51 371.57C103.46 375.2 106.82 378.56 110.39 380.27C110.81 379.55 111.68 378.5 112.31 377.96C108.89 376.61 105.56 373.73 103.88 370.73ZM90.14 377.45V380.09H105.98V377.45H90.14ZM85.7 383.3V385.97H110.57V383.3H85.7ZM96.59 373.94V391.55H99.44V373.94H96.59ZM118.19 392.63C121.58 391.52 123.68 388.94 123.68 385.61C123.68 383.33 122.69 381.86 120.83 381.86C119.45 381.86 118.25 382.73 118.25 384.26C118.25 385.82 119.42 386.63 120.77 386.63C121.4 386.63 122 386.48 122.45 385.97L120.8 383.51L121.22 386.24C121.22 388.25 119.87 389.75 117.38 390.68L118.19 392.63ZM150.71 375.62C152.87 378.2 155.27 381.8 156.38 384.11L158.51 382.07C157.37 379.76 154.91 376.34 152.66 373.79L150.71 375.62ZM164.09 373.46L161.75 374.81C162.83 380.09 165.11 387.26 169.85 391.1C170.3 390.26 171.32 389.03 171.95 388.49C167.33 385.28 165.05 378.53 164.09 373.46ZM150.47 364.25C150.05 375.32 148.88 384.32 143.99 389.45C144.74 389.9 146.27 390.95 146.78 391.43C151.67 385.55 153.02 376.22 153.59 364.37L150.47 364.25ZM162.05 364.22C161.48 375.68 159.95 384.47 154.13 389.39C154.91 389.84 156.41 390.89 156.89 391.37C162.74 385.76 164.45 376.61 165.17 364.37L162.05 364.22ZM174.74 375.83V378.65H201.35V375.83H174.74ZM176.93 368.42V371.24H199.25V368.42H176.93ZM186.44 363.71V391.52H189.44V363.71H186.44ZM185.84 377.39C183.32 381.47 178.43 385.58 173.81 387.59C174.5 388.19 175.43 389.3 175.91 390.02C180.59 387.62 185.45 383.18 188.3 378.41L185.84 377.39ZM190.07 377.39L187.7 378.41C190.58 383.12 195.38 387.65 200.03 390.05C200.51 389.3 201.44 388.16 202.1 387.59C197.51 385.58 192.59 381.47 190.07 377.39ZM226.838 365.96C229.568 367.76 232.898 370.43 234.398 372.23L236.798 370.58C235.118 368.72 231.728 366.2 229.058 364.52L226.838 365.96ZM211.238 373.34V375.86H238.328V373.34H211.238ZM225.968 377.09C223.958 378.35 220.118 379.58 217.238 380.18C217.898 380.75 218.588 381.59 219.008 382.16C222.038 381.38 225.818 380 228.308 378.35L225.968 377.09ZM228.458 380.54C225.908 382.37 220.928 383.81 216.728 384.5C217.298 385.1 217.958 386 218.318 386.66C222.848 385.73 227.798 384.08 230.858 381.71L228.458 380.54ZM232.148 383.66C228.818 386.81 222.008 388.46 214.778 389.12C215.288 389.78 215.858 390.83 216.128 391.61C223.898 390.65 230.828 388.76 234.758 384.89L232.148 383.66ZM221.678 369.95C219.788 375.2 215.858 379.1 210.698 381.29C211.328 381.83 212.408 382.97 212.828 383.54C218.048 380.93 222.278 376.61 224.558 370.64L221.678 369.95ZM229.598 373.97L227.198 374.9C229.388 378.47 233.168 381.71 236.948 383.45C237.368 382.73 238.238 381.68 238.868 381.14C235.238 379.76 231.518 376.91 229.598 373.97ZM214.988 371.51C214.988 370.97 216.728 370.28 216.728 370.28V370.19C219.458 368.93 222.398 367.01 225.008 364.85L222.428 363.44C220.298 365.54 217.328 367.43 216.368 367.94C215.498 368.45 214.808 368.78 214.148 368.87C214.448 369.59 214.838 370.94 214.988 371.51ZM214.988 371.51C216.158 371.09 217.898 371.06 233.618 370.37C233.468 369.83 233.228 368.84 233.168 368.15L216.728 368.66L214.958 369.56L214.988 371.51ZM246.968 375.17V377.81H264.518V375.17H246.968ZM248.378 367.61V370.34H266.168V367.61H248.378ZM241.328 381.56V384.29H260.048V381.56H241.328ZM263.828 375.17L263.798 375.62C263.138 383.48 262.328 387.17 261.158 388.1C260.738 388.43 260.318 388.46 259.568 388.46C258.638 388.46 256.238 388.46 253.868 388.25C254.468 389.03 254.918 390.23 254.978 391.07C257.108 391.19 259.298 391.22 260.438 391.16C261.848 391.04 262.748 390.83 263.618 389.93C264.998 388.55 265.808 385.01 266.648 376.46C266.708 376.07 266.768 375.17 266.768 375.17H263.828ZM247.388 364.28C246.668 368.57 245.468 374.33 244.538 377.78L247.538 377.81C248.378 374.51 249.488 368.9 250.268 364.55L247.388 364.28ZM271.808 366.02C273.458 367.58 275.378 369.8 276.188 371.27L278.558 369.59C277.658 368.15 275.648 366.05 273.998 364.55L271.808 366.02ZM277.778 374.87H271.118V377.54H274.988V386.06H277.778V374.87ZM276.338 384.56C274.808 384.56 272.678 386.06 270.608 388.28L272.588 391.07C273.938 389.12 275.318 387.26 276.278 387.26C276.938 387.26 277.928 388.22 279.278 389C281.408 390.29 283.958 390.59 287.708 390.59C290.678 390.59 295.808 390.44 297.938 390.32C297.968 389.45 298.448 387.98 298.808 387.2C295.838 387.56 291.158 387.83 287.798 387.83C284.468 387.83 281.798 387.62 279.788 386.45C278.078 385.46 277.358 384.56 276.338 384.56ZM279.728 368.99V371.66H297.998V368.99H279.728ZM291.158 363.83V382.67C291.158 383.21 290.948 383.36 290.318 383.39C289.718 383.42 287.588 383.42 285.518 383.33C285.908 384.14 286.388 385.4 286.508 386.21C289.328 386.21 291.248 386.15 292.418 385.7C293.618 385.25 294.038 384.47 294.038 382.7V363.83H291.158ZM280.898 374.81C282.398 376.7 284.258 379.31 285.068 380.9L287.468 379.43C286.598 377.84 284.678 375.35 283.178 373.55L280.898 374.81ZM302.408 366.32V368.66H327.158V366.32H302.408ZM303.428 388.37V390.71H326.258V388.37H303.428ZM308.468 370.34V372.41H320.918V370.34H308.468ZM308.468 374.15V376.22H320.918V374.15H308.468ZM300.908 378.02V380.36H328.538V378.02H300.908ZM307.448 383.42V385.7H322.058V383.42H307.448ZM306.788 363.68V379.31H309.638V363.68H306.788ZM319.928 363.71V379.31H322.808V363.71H319.928ZM313.208 381.17V389.69H316.118V381.17H313.208ZM308.498 378.68C306.878 381.23 303.698 383.66 300.638 384.86C301.238 385.37 302.048 386.36 302.468 387.02C305.738 385.52 309.008 382.67 310.868 379.55L308.498 378.68ZM321.098 378.68L318.848 379.52C320.648 382.49 323.828 385.31 327.008 386.69C327.428 386.03 328.268 385.01 328.898 384.5C325.778 383.39 322.688 381.11 321.098 378.68ZM333.458 365.06V373.88C333.458 378.62 333.218 385.37 330.518 390.05C331.238 390.29 332.498 391.01 333.068 391.46C335.918 386.54 336.338 378.98 336.338 373.88V365.06H333.458ZM335.528 365.06V367.49H353.648V370.61H335.528V373.04H356.498V365.06H335.528ZM338.918 375.32V377.78H355.988V375.32H338.918ZM337.088 380.51V382.97H358.058V380.51H337.088ZM350.228 384.5C351.788 386.81 353.708 389.99 354.608 391.85L357.248 390.59C356.288 388.79 354.278 385.7 352.718 383.48L350.228 384.5ZM338.678 391.22C338.678 390.71 340.418 389.87 340.418 389.87V389.81C342.428 387.92 344.708 385.01 346.358 382.16L343.148 381.38C341.948 383.99 339.968 386.63 339.368 387.32C338.738 388.04 338.168 388.55 337.658 388.67C337.988 389.39 338.498 390.68 338.678 391.22ZM338.678 391.22C339.728 390.83 341.318 390.71 354.578 389.72C354.398 389.18 354.128 388.19 353.978 387.47L340.238 388.31L338.558 389.18L338.678 391.22ZM372.968 363.77C372.848 368.6 373.208 382.76 360.818 389.18C361.718 389.81 362.648 390.71 363.158 391.46C375.818 384.38 376.028 369.47 376.178 363.77H372.968ZM375.878 367.43L373.148 367.73C373.568 370.52 374.708 385.61 386.768 391.31C387.188 390.5 387.998 389.54 388.838 388.88C377.228 383.69 376.118 369.71 375.878 367.43ZM391.508 372.08V374.99H418.028V372.08H391.508ZM406.478 373.25L403.628 373.91C405.878 382.07 409.808 388.34 416.468 391.46C416.948 390.65 417.878 389.42 418.598 388.79C412.328 386.21 408.368 380.33 406.478 373.25ZM403.178 363.71C403.088 371.3 403.478 383.57 390.938 389.09C391.748 389.69 392.618 390.71 393.068 391.46C406.088 385.37 406.148 372.14 406.268 363.71H403.178ZM429.638 373.91L430.058 376.61L448.508 374.21L448.088 371.54L429.638 373.91ZM441.188 365.48C442.868 366.98 444.848 369.11 445.718 370.46L447.968 368.99C447.008 367.61 444.998 365.57 443.288 364.13L441.188 365.48ZM428.738 363.98C426.818 368.63 423.578 373.16 420.188 376.04C420.698 376.7 421.538 378.17 421.808 378.86C425.558 375.47 429.158 370.13 431.438 364.85L428.738 363.98ZM425.468 372.23V391.49H428.378V369.41L428.348 369.35L425.468 372.23ZM435.878 364.13C436.478 379.91 438.368 390.95 445.268 391.49C446.888 391.58 448.298 390.11 448.988 384.65C448.448 384.38 447.188 383.66 446.648 383.06C446.378 386.48 445.928 388.16 445.148 388.1C441.008 387.65 439.088 377.33 438.758 364.13H435.878ZM452.798 366.14V368.57H476.858V366.14H452.798ZM454.298 370.7V372.98H475.598V370.7H454.298ZM451.568 375.23V377.66H477.848V375.23H451.568ZM463.208 363.68V377.18H466.088V363.68H463.208ZM462.728 375.86C460.178 378.89 455.078 381.83 450.608 383.24C451.208 383.81 452.048 384.86 452.468 385.55C457.058 383.87 462.188 380.6 465.188 377L462.728 375.86ZM466.808 376.61L464.258 377.27C466.538 383.81 470.588 388.52 476.978 390.65C477.398 389.9 478.238 388.79 478.868 388.19C472.808 386.45 468.728 382.22 466.808 376.61ZM474.908 378.56C473.348 380.09 470.678 382.07 468.698 383.3L470.528 384.8C472.568 383.69 475.148 381.92 477.248 380.27L474.908 378.56ZM457.058 391.52C457.838 391.01 459.068 390.62 467.528 387.98C467.378 387.38 467.138 386.24 467.078 385.46L458.048 388.07L456.788 389.09L457.058 391.52ZM457.058 391.52C457.058 390.59 460.118 388.97 460.118 388.97V380.84H457.178V386.81C457.178 388.07 456.428 388.67 455.858 388.97C456.308 389.57 456.878 390.83 457.058 391.52ZM57.08 413.54V416.03H63.65V430.88H57.08V433.4H66.23V413.54H57.08ZM55.4 413.54V435.71H58.01V413.54H55.4ZM56.93 421.73V424.22H64.94V421.73H56.93ZM59.87 408.65C59.66 410.24 59.15 412.52 58.67 414.02L60.95 414.56C61.55 413.18 62.3 411.08 62.93 409.13L59.87 408.65ZM70.37 413.39V416H79.4V413.39H70.37ZM78.41 413.39V413.96C78.05 426.86 77.6 431.93 76.61 432.98C76.28 433.4 75.92 433.49 75.32 433.49C74.6 433.49 72.8 433.46 70.85 433.31C71.36 434.06 71.72 435.26 71.78 436.07C73.49 436.13 75.29 436.19 76.37 436.07C77.51 435.92 78.26 435.62 78.98 434.63C80.21 433.1 80.6 428.39 81.02 414.74C81.05 414.38 81.05 413.39 81.05 413.39H78.41ZM70.76 408.62C69.8 412.7 68.15 416.81 66.11 419.42C66.77 419.78 67.94 420.59 68.45 421.04C70.49 418.19 72.35 413.72 73.49 409.25L70.76 408.62ZM69.35 421.55C70.91 423.74 72.86 426.71 73.73 428.54L76.16 427.07C75.2 425.3 73.16 422.39 71.57 420.29L69.35 421.55ZM92.54 419.09V421.58H111.62V419.09H92.54ZM96.08 412.67V415.1H110.36V412.67H96.08ZM100.91 408.83V420.11H103.73V408.83H100.91ZM96.05 409.61C95.33 412.25 94.07 414.89 92.45 416.6C93.11 416.93 94.28 417.68 94.82 418.1C96.41 416.18 97.91 413.21 98.75 410.18L96.05 409.61ZM103.19 420.47V427.82C103.19 430.49 103.76 431.33 106.28 431.33C106.76 431.33 108.41 431.33 108.92 431.33C110.96 431.33 111.68 430.34 111.95 426.44C111.17 426.23 110 425.81 109.46 425.33C109.37 428.3 109.25 428.69 108.62 428.69C108.29 428.69 106.97 428.69 106.73 428.69C106.07 428.69 106.01 428.6 106.01 427.79V420.47H103.19ZM97.88 420.47C97.49 424.52 96.59 427.55 91.82 429.26C92.45 429.8 93.23 430.85 93.56 431.57C98.99 429.38 100.25 425.54 100.73 420.47H97.88ZM84.59 411.2C86.3 412.67 88.31 414.77 89.18 416.24L91.52 414.47C90.56 413.03 88.49 411.02 86.75 409.64L84.59 411.2ZM90.8 420.23H84.53V422.87H88.07V431.72H90.8V420.23ZM90.53 430.61C88.73 430.61 86.36 432.2 84.17 434.21L86.06 436.67C87.71 434.78 89.36 433.16 90.47 433.16C91.13 433.16 92.06 434.03 93.26 434.78C95.24 435.92 97.7 436.25 101.21 436.25C104.15 436.25 108.98 436.1 111.26 435.95C111.29 435.17 111.74 433.76 112.04 433.01C109.1 433.37 104.51 433.61 101.27 433.61C98.12 433.61 95.57 433.43 93.68 432.29C92.18 431.39 91.46 430.61 90.53 430.61ZM114.59 414.44V417.02H141.47V414.44H114.59ZM135.44 409.01C134.6 410.69 133.07 413.09 131.84 414.59L134.18 415.49C135.47 414.08 137.12 411.95 138.47 409.97L135.44 409.01ZM117.41 410.45C118.61 411.83 119.93 413.75 120.47 414.98L123.05 413.63C122.42 412.4 121.04 410.54 119.81 409.25L117.41 410.45ZM124.64 409.55C125.72 411.02 126.86 413 127.31 414.26L129.83 413.09C129.35 411.8 128.12 409.91 127.01 408.5L124.64 409.55ZM122.27 415.79C120.59 419 117.23 421.94 113.69 423.35C114.29 423.89 115.13 424.91 115.55 425.54C119.27 423.8 122.75 420.47 124.67 416.63L122.27 415.79ZM133.88 415.73L131.51 416.57C133.46 420.2 136.82 423.56 140.39 425.27C140.81 424.55 141.68 423.5 142.31 422.96C138.89 421.61 135.56 418.73 133.88 415.73ZM120.14 422.45V425.09H135.98V422.45H120.14ZM115.7 428.3V430.97H140.57V428.3H115.7ZM126.59 418.94V436.55H129.44V418.94H126.59ZM148.19 437.63C151.58 436.52 153.68 433.94 153.68 430.61C153.68 428.33 152.69 426.86 150.83 426.86C149.45 426.86 148.25 427.73 148.25 429.26C148.25 430.82 149.42 431.63 150.77 431.63C151.4 431.63 152 431.48 152.45 430.97L150.8 428.51L151.22 431.24C151.22 433.25 149.87 434.75 147.38 435.68L148.19 437.63ZM180.71 420.62C182.87 423.2 185.27 426.8 186.38 429.11L188.51 427.07C187.37 424.76 184.91 421.34 182.66 418.79L180.71 420.62ZM194.09 418.46L191.75 419.81C192.83 425.09 195.11 432.26 199.85 436.1C200.3 435.26 201.32 434.03 201.95 433.49C197.33 430.28 195.05 423.53 194.09 418.46ZM180.47 409.25C180.05 420.32 178.88 429.32 173.99 434.45C174.74 434.9 176.27 435.95 176.78 436.43C181.67 430.55 183.02 421.22 183.59 409.37L180.47 409.25ZM192.05 409.22C191.48 420.68 189.95 429.47 184.13 434.39C184.91 434.84 186.41 435.89 186.89 436.37C192.74 430.76 194.45 421.61 195.17 409.37L192.05 409.22ZM204.74 420.83V423.65H231.35V420.83H204.74ZM206.93 413.42V416.24H229.25V413.42H206.93ZM216.44 408.71V436.52H219.44V408.71H216.44ZM215.84 422.39C213.32 426.47 208.43 430.58 203.81 432.59C204.5 433.19 205.43 434.3 205.91 435.02C210.59 432.62 215.45 428.18 218.3 423.41L215.84 422.39ZM220.07 422.39L217.7 423.41C220.58 428.12 225.38 432.65 230.03 435.05C230.51 434.3 231.44 433.16 232.1 432.59C227.51 430.58 222.59 426.47 220.07 422.39ZM242.528 413.81V436.52H245.348V416.57H265.238V413.81H242.528ZM264.218 413.81V433.01C264.218 433.55 264.038 433.7 263.468 433.7C262.838 433.73 260.768 433.76 258.788 433.64C259.208 434.42 259.628 435.74 259.748 436.55C262.478 436.55 264.368 436.49 265.538 436.04C266.678 435.59 267.068 434.72 267.068 433.04V413.81H264.218ZM252.578 408.65C252.098 410.54 251.168 413.15 250.328 414.89L253.058 415.52C253.988 413.9 255.188 411.47 256.148 409.19L252.578 408.65ZM248.828 420.11V432.32H251.438V420.11H248.828ZM249.998 420.11V422.6H257.978V427.67H249.998V430.19H260.618V420.11H249.998ZM295.478 409.28C291.758 410.63 285.488 411.83 279.968 412.52C280.268 413.18 280.688 414.26 280.808 414.95C286.448 414.29 293.048 413.21 297.578 411.68L295.478 409.28ZM279.038 421.4V424.13H298.598V421.4H279.038ZM280.238 432.71V435.44H298.178V432.71H280.238ZM287.648 413.09V433.52H290.498V413.09H287.648ZM275.048 416.99V436.52H277.868V414.26L277.838 414.2L275.048 416.99ZM278.198 408.74C276.398 413.33 273.428 417.86 270.278 420.71C270.818 421.43 271.688 422.96 271.988 423.65C275.498 420.2 278.858 414.86 280.958 409.61L278.198 408.74ZM310.058 411.47V414.17H328.718V411.47H310.058ZM323.828 412.46V432.92C323.828 433.49 323.648 433.67 323.018 433.67C322.388 433.7 320.228 433.7 318.008 433.61C318.428 434.45 318.878 435.71 318.998 436.52C321.878 436.55 323.888 436.46 325.088 436.04C326.258 435.56 326.678 434.75 326.678 432.95V412.46H323.828ZM310.718 417.98V430.64H313.388V417.98H310.718ZM311.918 417.98V420.47H317.768V426.11H311.918V428.6H320.408V417.98H311.918ZM307.478 408.68C305.948 413.06 303.398 417.44 300.668 420.23C301.178 420.89 301.958 422.45 302.228 423.11C305.348 419.75 308.318 414.56 310.148 409.52L307.478 408.68ZM304.718 416.78V436.49H307.538V413.99L307.508 413.96L304.718 416.78ZM344.978 411.65C344.678 421.73 343.628 430.01 339.368 434.9C340.058 435.26 341.378 436.16 341.858 436.61C346.148 431.09 347.288 422.63 347.798 411.74L344.978 411.65ZM341.738 410.6V413.24H353.588V410.6H341.738ZM351.818 418.58L351.038 421.04H355.778V418.58H351.818ZM354.998 418.58V419.15C353.528 426.8 349.418 431.84 344.048 434.42C344.648 434.87 345.638 435.92 346.058 436.58C351.548 433.67 355.988 428 357.788 419.15L356.048 418.46L355.538 418.58H354.998ZM347.108 419.03L344.708 419.72C347.018 427.13 351.068 433.43 356.978 436.46C357.398 435.74 358.268 434.69 358.898 434.18C353.228 431.57 349.118 425.63 347.108 419.03ZM352.328 410.6C351.638 413.93 350.438 418.31 349.508 421.04H352.298C353.138 418.4 354.338 414.08 355.238 410.6H352.328ZM331.568 428.93C331.568 428.39 333.398 427.55 333.398 427.55V427.49C336.338 424.52 339.338 420.41 341.738 416.3L339.398 414.86C337.328 419.03 334.118 423.29 333.068 424.4C332.108 425.54 331.418 426.26 330.698 426.41C330.998 427.1 331.418 428.39 331.568 428.93ZM331.568 428.93C332.288 428.42 333.398 427.97 341.288 425.66C341.168 425.06 341.108 423.98 341.138 423.26L332.558 425.6L331.328 426.56L331.568 428.93ZM331.388 421.46C331.388 420.95 332.978 420.05 332.978 420.05V419.99C335.168 417.32 337.418 413.48 338.978 409.82L336.368 408.59C335.168 412.19 332.978 416.03 332.288 417.02C331.598 418.01 331.088 418.7 330.488 418.85C330.818 419.57 331.238 420.89 331.388 421.46ZM331.388 421.46C331.928 421.19 332.828 420.98 337.688 420.41C337.688 419.84 337.808 418.79 337.928 418.1L332.558 418.61L331.328 419.42L331.388 421.46ZM330.938 432.08L331.628 434.9C334.508 433.76 338.228 432.26 341.738 430.82L341.168 428.36C337.418 429.8 333.488 431.27 330.938 432.08ZM378.158 412.31V429.11H380.918V412.31H378.158ZM384.488 409.28V433.01C384.488 433.52 384.308 433.7 383.738 433.7C383.198 433.73 381.458 433.73 379.568 433.67C379.988 434.48 380.408 435.77 380.528 436.55C383.168 436.58 384.848 436.49 385.898 436.01C386.918 435.53 387.308 434.72 387.308 433.01V409.28H384.488ZM364.928 412.52H371.828V417.59H364.928V412.52ZM362.348 410V420.14H374.558V410H362.348ZM361.358 423.11V425.69H373.508V423.11H361.358ZM372.398 423.11V423.59C372.158 430.25 371.858 432.71 371.348 433.31C371.108 433.58 370.838 433.64 370.418 433.64C369.938 433.64 368.858 433.64 367.688 433.52C368.138 434.27 368.408 435.38 368.468 436.22C369.788 436.28 371.078 436.28 371.798 436.16C372.638 436.07 373.208 435.83 373.748 435.14C374.528 434.18 374.828 431.42 375.128 424.28C375.158 423.89 375.188 423.11 375.188 423.11H372.398ZM366.368 420.83C366.128 427.07 365.618 431.9 360.548 434.54C361.148 435.02 361.958 435.98 362.288 436.67C367.928 433.55 368.738 427.94 369.068 420.83H366.368ZM402.968 408.77C402.848 413.6 403.208 427.76 390.818 434.18C391.718 434.81 392.648 435.71 393.158 436.46C405.818 429.38 406.028 414.47 406.178 408.77H402.968ZM405.878 412.43L403.148 412.73C403.568 415.52 404.708 430.61 416.768 436.31C417.188 435.5 417.998 434.54 418.838 433.88C407.228 428.69 406.118 414.71 405.878 412.43ZM421.508 417.08V419.99H448.028V417.08H421.508ZM436.478 418.25L433.628 418.91C435.878 427.07 439.808 433.34 446.468 436.46C446.948 435.65 447.878 434.42 448.598 433.79C442.328 431.21 438.368 425.33 436.478 418.25ZM433.178 408.71C433.088 416.3 433.478 428.57 420.938 434.09C421.748 434.69 422.618 435.71 423.068 436.46C436.088 430.37 436.148 417.14 436.268 408.71H433.178ZM459.638 418.91L460.058 421.61L478.508 419.21L478.088 416.54L459.638 418.91ZM471.188 410.48C472.868 411.98 474.848 414.11 475.718 415.46L477.968 413.99C477.008 412.61 474.998 410.57 473.288 409.13L471.188 410.48ZM458.738 408.98C456.818 413.63 453.578 418.16 450.188 421.04C450.698 421.7 451.538 423.17 451.808 423.86C455.558 420.47 459.158 415.13 461.438 409.85L458.738 408.98ZM455.468 417.23V436.49H458.378V414.41L458.348 414.35L455.468 417.23ZM465.878 409.13C466.478 424.91 468.368 435.95 475.268 436.49C476.888 436.58 478.298 435.11 478.988 429.65C478.448 429.38 477.188 428.66 476.648 428.06C476.378 431.48 475.928 433.16 475.148 433.1C471.008 432.65 469.088 422.33 468.758 409.13H465.878ZM56.06 457.14V459.57H80.12V457.14H56.06ZM57.56 461.7V463.98H78.86V461.7H57.56ZM54.83 466.23V468.66H81.11V466.23H54.83ZM66.47 454.68V468.18H69.35V454.68H66.47ZM65.99 466.86C63.44 469.89 58.34 472.83 53.87 474.24C54.47 474.81 55.31 475.86 55.73 476.55C60.32 474.87 65.45 471.6 68.45 468L65.99 466.86ZM70.07 467.61L67.52 468.27C69.8 474.81 73.85 479.52 80.24 481.65C80.66 480.9 81.5 479.79 82.13 479.19C76.07 477.45 71.99 473.22 70.07 467.61ZM78.17 469.56C76.61 471.09 73.94 473.07 71.96 474.3L73.79 475.8C75.83 474.69 78.41 472.92 80.51 471.27L78.17 469.56ZM60.32 482.52C61.1 482.01 62.33 481.62 70.79 478.98C70.64 478.38 70.4 477.24 70.34 476.46L61.31 479.07L60.05 480.09L60.32 482.52ZM60.32 482.52C60.32 481.59 63.38 479.97 63.38 479.97V471.84H60.44V477.81C60.44 479.07 59.69 479.67 59.12 479.97C59.57 480.57 60.14 481.83 60.32 482.52ZM89.66 463.62V466.38H106.7V463.62H89.66ZM87.77 457.2V465.27C87.77 469.92 87.5 476.4 84.41 480.93C85.13 481.23 86.36 482.1 86.9 482.61C90.2 477.78 90.68 470.31 90.68 465.27V457.2H87.77ZM105.98 463.62V464.16C103.85 472.71 97.34 477.81 89.57 479.82C90.14 480.45 90.86 481.59 91.19 482.37C99.65 479.82 106.43 474.48 109.04 464.31L107.06 463.5L106.55 463.62H105.98ZM94.85 465.21L92.27 465.9C95.18 474.48 100.46 479.91 109.52 482.25C109.91 481.5 110.72 480.33 111.32 479.76C102.62 477.81 97.31 472.77 94.85 465.21ZM107.12 454.89C102.68 456.21 94.7 456.93 87.77 457.2C88.1 457.86 88.46 459.03 88.52 459.75C95.57 459.54 103.88 458.79 109.46 457.17L107.12 454.89ZM124.25 469.2V471.78H142.07V469.2H124.25ZM126.02 459.36V470.19H128.57V461.91H137.81V470.19H140.45V459.36H126.02ZM131.69 454.89V466.38C131.69 472.02 130.73 477.15 122.69 480.36C123.26 480.84 124.1 481.86 124.46 482.46C133.19 478.92 134.3 472.89 134.3 466.38V454.89H131.69ZM134.66 470.28L132.29 470.79C133.64 476.28 136.16 480.45 140.39 482.64C140.81 481.92 141.62 480.87 142.25 480.36C138.29 478.65 135.8 474.9 134.66 470.28ZM116.42 456.75V459.33H120.86V474.27H116.42V476.82H123.44V456.75H116.42ZM116.6 465.39V467.88H122.45V465.39H116.6ZM115.1 456.75V479.37H117.71V456.75H115.1ZM145.07 457.02C146.72 458.58 148.64 460.8 149.45 462.27L151.82 460.59C150.92 459.15 148.91 457.05 147.26 455.55L145.07 457.02ZM151.04 465.87H144.38V468.54H148.25V477.06H151.04V465.87ZM149.6 475.56C148.07 475.56 145.94 477.06 143.87 479.28L145.85 482.07C147.2 480.12 148.58 478.26 149.54 478.26C150.2 478.26 151.19 479.22 152.54 480C154.67 481.29 157.22 481.59 160.97 481.59C163.94 481.59 169.07 481.44 171.2 481.32C171.23 480.45 171.71 478.98 172.07 478.2C169.1 478.56 164.42 478.83 161.06 478.83C157.73 478.83 155.06 478.62 153.05 477.45C151.34 476.46 150.62 475.56 149.6 475.56ZM152.99 459.99V462.66H171.26V459.99H152.99ZM164.42 454.83V473.67C164.42 474.21 164.21 474.36 163.58 474.39C162.98 474.42 160.85 474.42 158.78 474.33C159.17 475.14 159.65 476.4 159.77 477.21C162.59 477.21 164.51 477.15 165.68 476.7C166.88 476.25 167.3 475.47 167.3 473.7V454.83H164.42ZM154.16 465.81C155.66 467.7 157.52 470.31 158.33 471.9L160.73 470.43C159.86 468.84 157.94 466.35 156.44 464.55L154.16 465.81ZM181.76 475.53V479.1C181.76 481.56 182.6 482.25 185.99 482.25C186.68 482.25 190.58 482.25 191.33 482.25C193.91 482.25 194.72 481.44 195.02 478.05C194.3 477.9 193.19 477.54 192.59 477.15C192.44 479.58 192.26 479.94 191.06 479.94C190.16 479.94 186.92 479.94 186.26 479.94C184.79 479.94 184.52 479.82 184.52 479.07V475.53H181.76ZM185.03 475.14C186.71 476.01 188.78 477.39 189.74 478.32L191.51 476.58C190.43 475.62 188.33 474.33 186.68 473.58L185.03 475.14ZM195.05 475.92C196.52 477.57 198.11 479.82 198.71 481.32L201.14 480.18C200.45 478.65 198.8 476.49 197.3 474.9L195.05 475.92ZM178.19 475.2C177.41 476.97 176.06 479.07 174.53 480.39L176.87 481.77C178.43 480.33 179.66 478.11 180.56 476.25L178.19 475.2ZM176.48 456.66V458.91H199.43V456.66H176.48ZM175.1 461.52V463.77H201.02V461.52H175.1ZM180.89 459.36C181.37 460.29 181.85 461.55 181.97 462.36L184.7 461.7C184.52 460.89 184.01 459.69 183.5 458.79L180.89 459.36ZM192.47 458.73C192.17 459.69 191.54 461.04 191.06 461.97L193.55 462.57C194.09 461.7 194.72 460.59 195.38 459.33L192.47 458.73ZM181.25 470.46H194.81V472.2H181.25V470.46ZM181.25 466.98H194.81V468.69H181.25V466.98ZM178.55 465.12V474.06H197.63V465.12H178.55ZM186.02 454.95C186.56 455.97 187.13 457.38 187.34 458.28L190.25 457.62C190.01 456.72 189.38 455.37 188.78 454.38L186.02 454.95ZM218.27 470.97V478.05C218.27 480.96 219.23 481.74 222.47 481.74C223.13 481.74 226.79 481.74 227.51 481.74C230.48 481.74 231.26 480.57 231.62 475.71C230.84 475.53 229.64 475.11 229.01 474.63C228.89 478.56 228.65 479.13 227.3 479.13C226.43 479.13 223.4 479.13 222.74 479.13C221.3 479.13 221.06 478.98 221.06 478.02V470.97H218.27ZM216.23 461.67C215.96 471.81 215.69 477.48 204.2 480.12C204.8 480.72 205.55 481.83 205.85 482.58C218.12 479.46 218.9 472.74 219.23 461.67H216.23ZM208.01 456.21V473.49H210.98V459.12H224.81V473.49H227.9V456.21H208.01ZM249.74 475.98V478.71H258.92V475.98H249.74ZM248.72 457.5V481.14H251.48V460.2H257.36V480.93H260.27V457.5H248.72ZM240.08 457.41V482.49H242.9V457.41H240.08ZM234.41 463.59V466.23H247.79V463.59H234.41ZM239.9 464.55C238.79 468.57 236.24 473.28 233.72 475.89C234.2 476.61 234.89 477.72 235.19 478.53C237.92 475.59 240.5 469.98 241.85 465.24L239.9 464.55ZM245.84 454.95C243.17 456.03 238.58 456.96 234.62 457.5C234.92 458.13 235.28 459.12 235.4 459.75C239.51 459.27 244.37 458.4 247.73 457.17L245.84 454.95ZM242.69 466.62L241.28 468C242.42 469.44 245.09 473.1 246.08 474.78L247.76 472.44C247.01 471.48 243.62 467.55 242.69 466.62ZM264.47 470.85V473.31H291.53V470.85H264.47ZM264.95 455.88V458.37H290.96V455.88H264.95ZM283.4 471.87C280.91 477.57 275.06 479.55 264.77 480.09C265.22 480.72 265.67 481.71 265.88 482.52C276.89 481.62 283.25 479.34 286.1 472.62L283.4 471.87ZM268.4 476.97C276.35 478.53 283.94 480.69 288.47 482.52L290.81 480.3C285.95 478.53 277.91 476.4 270.35 474.99L268.4 476.97ZM273.02 456.84V467.22H275.69V456.84H273.02ZM279.92 456.84V467.22H282.62V456.84H279.92ZM269.06 462.84H287V466.35H269.06V462.84ZM266.39 460.56V468.63H289.82V460.56H266.39ZM268.4 476.97H271.79C273.47 475.08 275.87 471.78 277.31 468.96L274.4 468.27C272.99 471.18 270.44 474.69 268.4 476.97ZM294.83 459.51V462.27H321.26V459.51H294.83ZM309.17 461.94L306.92 462.6C309.41 470.25 313.73 476.85 320 479.97C320.48 479.19 321.41 478.05 322.1 477.45C315.95 474.84 311.39 468.69 309.17 461.94ZM317.69 463.38C316.13 465.6 313.4 468.45 311.42 470.16L313.46 471.72C315.5 470.07 318.17 467.43 320.15 465.15L317.69 463.38ZM311.78 456.57C313.67 457.53 316.07 459.03 317.24 460.08L319.04 458.04C317.78 457.05 315.32 455.67 313.49 454.77L311.78 456.57ZM296.18 465.24C298.04 466.95 300.17 469.35 301.07 471L303.38 469.29C302.39 467.67 300.17 465.36 298.34 463.74L296.18 465.24ZM306.47 454.74V478.89C306.47 479.46 306.26 479.61 305.69 479.64C305.09 479.64 303.17 479.67 301.19 479.58C301.64 480.45 302.06 481.77 302.21 482.58C304.88 482.58 306.74 482.52 307.85 482.01C308.96 481.53 309.38 480.72 309.38 478.89V454.74H306.47ZM294.08 477L295.88 479.58C299.33 477.54 303.92 474.75 308.06 472.11L307.22 469.74C302.51 472.44 297.23 475.41 294.08 477ZM328.79 472.65C326.24 472.65 324.11 474.75 324.11 477.33C324.11 479.94 326.24 482.04 328.79 482.04C331.4 482.04 333.5 479.94 333.5 477.33C333.5 474.75 331.4 472.65 328.79 472.65ZM328.79 480.24C327.23 480.24 325.91 478.95 325.91 477.33C325.91 475.74 327.23 474.45 328.79 474.45C330.41 474.45 331.7 475.74 331.7 477.33C331.7 478.95 330.41 480.24 328.79 480.24Z" fill="white"/>
<path d="M188.093 284.62C190.253 287.2 192.653 290.8 193.763 293.11L195.893 291.07C194.753 288.76 192.293 285.34 190.043 282.79L188.093 284.62ZM201.473 282.46L199.133 283.81C200.213 289.09 202.493 296.26 207.233 300.1C207.683 299.26 208.703 298.03 209.333 297.49C204.713 294.28 202.433 287.53 201.473 282.46ZM187.853 273.25C187.433 284.32 186.263 293.32 181.373 298.45C182.123 298.9 183.653 299.95 184.163 300.43C189.053 294.55 190.403 285.22 190.973 273.37L187.853 273.25ZM199.433 273.22C198.863 284.68 197.333 293.47 191.513 298.39C192.293 298.84 193.793 299.89 194.273 300.37C200.123 294.76 201.833 285.61 202.553 273.37L199.433 273.22ZM212.123 284.83V287.65H238.733V284.83H212.123ZM214.313 277.42V280.24H236.633V277.42H214.313ZM223.823 272.71V300.52H226.823V272.71H223.823ZM223.223 286.39C220.703 290.47 215.813 294.58 211.193 296.59C211.883 297.19 212.813 298.3 213.293 299.02C217.973 296.62 222.833 292.18 225.683 287.41L223.223 286.39ZM227.453 286.39L225.083 287.41C227.963 292.12 232.763 296.65 237.413 299.05C237.893 298.3 238.823 297.16 239.483 296.59C234.893 294.58 229.973 290.47 227.453 286.39Z" fill="#DDE4EE"/>
<defs>
<linearGradient id="paint0_linear_11450_63835" x1="206" y1="181" x2="334" y2="181" gradientUnits="userSpaceOnUse">
<stop stop-color="#FAE28F"/>
<stop offset="1" stop-color="#E39FF0"/>
</linearGradient>
<clipPath id="clip0_11450_63835">
<rect width="64" height="64" fill="white" transform="translate(238 803)"/>
</clipPath>
</defs>
</svg>
