<svg width="540" height="960" viewBox="0 0 540 960" fill="none" xmlns="http://www.w3.org/2000/svg">
<rect width="540" height="960" fill="#161820"/>
<rect x="265" y="265" width="72" height="43" rx="2" fill="#373A41"/>
<path d="M24.072 38.264C22.904 38.264 21.832 38.064 20.856 37.664C19.88 37.248 19.056 36.656 18.384 35.888L20.808 33.464C21.112 33.912 21.552 34.28 22.128 34.568C22.72 34.84 23.344 34.976 24 34.976C24.592 34.976 25.104 34.872 25.536 34.664C25.968 34.456 26.304 34.16 26.544 33.776C26.8 33.392 26.928 32.936 26.928 32.408C26.928 31.88 26.8 31.432 26.544 31.064C26.304 30.68 25.944 30.384 25.464 30.176C25 29.968 24.44 29.864 23.784 29.864C23.48 29.864 23.16 29.888 22.824 29.936C22.504 29.968 22.232 30.024 22.008 30.104L23.664 28.016C24.112 27.888 24.536 27.784 24.936 27.704C25.352 27.608 25.736 27.56 26.088 27.56C26.952 27.56 27.728 27.768 28.416 28.184C29.104 28.584 29.648 29.16 30.048 29.912C30.464 30.648 30.672 31.528 30.672 32.552C30.672 33.672 30.392 34.664 29.832 35.528C29.288 36.392 28.52 37.064 27.528 37.544C26.552 38.024 25.4 38.264 24.072 38.264ZM22.008 30.104V28.016L26.136 23.168L30.36 23.144L26.064 28.04L22.008 30.104ZM19.44 24.248V21.056H30.36V23.144L27.408 24.248H19.44ZM33.0383 38V21.056H35.6783L36.8063 24.44V38H33.0383ZM44.7263 38L34.7423 25.208L35.6783 21.056L45.6623 33.848L44.7263 38ZM44.7263 38L43.7183 34.616V21.056H47.4863V38H44.7263ZM50.757 38V21.056H54.525V38H50.757ZM53.637 38V34.736H62.925V38H53.637ZM53.637 30.92V27.776H62.085V30.92H53.637ZM53.637 24.296V21.056H62.805V24.296H53.637ZM70.4745 38L63.9465 21.056H67.9785L72.9465 34.76H71.2905L76.3305 21.056H80.3145L73.7145 38H70.4745ZM82.3039 38V21.056H86.0719V38H82.3039ZM85.1839 38V34.736H94.4719V38H85.1839ZM85.1839 30.92V27.776H93.6319V30.92H85.1839ZM85.1839 24.296V21.056H94.3519V24.296H85.1839ZM99.9495 31.016V28.232H103.526C104.278 28.232 104.854 28.04 105.254 27.656C105.67 27.272 105.878 26.752 105.878 26.096C105.878 25.488 105.678 24.984 105.278 24.584C104.878 24.184 104.302 23.984 103.55 23.984H99.9495V21.056H103.982C105.102 21.056 106.086 21.272 106.934 21.704C107.782 22.12 108.446 22.704 108.926 23.456C109.406 24.208 109.646 25.072 109.646 26.048C109.646 27.04 109.406 27.912 108.926 28.664C108.446 29.4 107.774 29.976 106.91 30.392C106.046 30.808 105.03 31.016 103.862 31.016H99.9495ZM97.0695 38V21.056H100.838V38H97.0695ZM106.286 38L101.006 30.704L104.462 29.768L110.75 38H106.286Z" fill="#FEFEFE" fill-opacity="0.54"/>
<path d="M218.324 887.86L218.696 889.252C219.944 888.952 221.54 888.544 223.016 888.16L222.848 886.84C221.24 887.236 219.5 887.644 218.324 887.86ZM218.48 884.008V885.34H222.848V884.008H218.48ZM220.076 881.872V891.532C220.076 891.7 220.016 891.76 219.848 891.76C219.692 891.76 219.188 891.76 218.72 891.748C218.888 892.108 219.08 892.684 219.116 893.056C219.968 893.056 220.544 893.02 220.952 892.792C221.36 892.588 221.492 892.228 221.492 891.532V881.872H220.076ZM222.98 890.956V892.3H228.296V890.956H222.98ZM223.352 886.66V888.088H228.308V886.66H223.352ZM223.076 882.904V884.224H227.66V892.972H229.04V882.904H223.076ZM234.308 883.372V884.668H241.52V883.372H234.308ZM235.688 881.812V886.024H237.068V881.812H235.688ZM238.712 881.812V886.024H240.104V881.812H238.712ZM234.716 886.396V893.008H236.012V887.656H239.78V892.948H241.148V886.396H234.716ZM235.448 888.796V890.02H240.392V888.796H235.448ZM235.484 891.184V892.444H240.428V891.184H235.484ZM237.224 887.02V892.12H238.52V887.02H237.224ZM230.24 887.896L230.564 889.288C231.632 888.988 232.964 888.604 234.212 888.22L234.032 886.924C232.664 887.296 231.212 887.692 230.24 887.896ZM230.432 884.092V885.412H234.08V884.092H230.432ZM231.68 881.824V891.388C231.68 891.556 231.632 891.604 231.488 891.604C231.344 891.604 230.924 891.604 230.48 891.592C230.66 891.976 230.816 892.564 230.852 892.924C231.632 892.924 232.16 892.876 232.52 892.648C232.892 892.432 233 892.06 233 891.4V881.824H231.68ZM243.644 883.468V885.052H252.356V883.468H243.644ZM242.648 890.428V892.084H253.364V890.428H242.648ZM254.78 889.972C254.78 889.732 255.644 889.336 255.644 889.336V889.3C256.784 888.112 257.96 886.468 258.836 884.86L257.732 884.164C256.94 885.832 255.716 887.536 255.308 887.98C254.936 888.424 254.672 888.7 254.36 888.772C254.516 889.108 254.72 889.72 254.78 889.972ZM254.78 889.972C255.104 889.792 255.596 889.648 258.572 889.084C258.56 888.796 258.572 888.244 258.62 887.884L255.308 888.436L254.696 888.856L254.78 889.972ZM254.684 887.044C254.684 886.804 255.428 886.384 255.428 886.384V886.348C256.28 885.292 257.156 883.78 257.732 882.376L256.436 881.776C256.028 883.18 255.224 884.68 254.96 885.064C254.696 885.448 254.492 885.712 254.252 885.772C254.408 886.132 254.624 886.78 254.684 887.044ZM254.684 887.044C254.924 886.936 255.296 886.852 257.096 886.66C257.096 886.384 257.156 885.892 257.228 885.544L255.224 885.7L254.648 886.084L254.684 887.044ZM254.384 891.184L254.648 892.552C255.86 892.228 257.444 891.82 258.932 891.412L258.788 890.212C257.18 890.584 255.488 890.98 254.384 891.184ZM260.216 886.288V887.572H265.148V886.288H260.216ZM260.24 888.592V889.876H265.172V888.592H260.24ZM260.12 890.968V892.3H265.604V890.968H260.12ZM262.304 884.404V891.676H263.636V884.404H262.304ZM260.828 883.96H260.276L259.484 884.788V893.104H260.828V885.256H265.448V883.96H260.828ZM260.456 881.848C260.084 883.24 259.28 885.052 258.368 886.144C258.56 886.492 258.86 887.14 258.992 887.5C260.204 886.132 261.2 884.08 261.836 882.244L260.456 881.848ZM261.968 882.376C262.292 882.928 262.64 883.66 262.76 884.14L264.044 883.552C263.888 883.084 263.54 882.388 263.18 881.86L261.968 882.376ZM276.008 887.02V887.236C275.816 890.152 275.552 891.34 275.264 891.64C275.132 891.772 275.012 891.796 274.82 891.796C274.592 891.796 274.136 891.796 273.632 891.736C273.848 892.096 273.992 892.636 274.016 893.032C274.592 893.044 275.132 893.044 275.468 892.996C275.852 892.96 276.14 892.84 276.416 892.504C276.848 892.048 277.1 890.752 277.352 887.584C277.364 887.404 277.388 887.02 277.388 887.02H276.008ZM271.256 882.424V883.72H275.66V882.424H271.256ZM271.832 884.188C271.748 885.484 271.58 887.176 271.4 888.232H272.756C272.9 887.224 273.08 885.568 273.176 884.26L271.832 884.188ZM271.784 887.02V888.232H276.404V887.02H271.784ZM271.016 889.396V890.668H275.312V889.396H271.016ZM275.12 882.424V882.568C275.048 883.78 274.82 886.084 274.592 887.788L275.948 887.896C276.176 886.204 276.404 884.08 276.512 882.472L275.492 882.376L275.276 882.424H275.12ZM266.516 882.34V883.648H270.836V882.34H266.516ZM267.848 886.084V887.344H269.336V890.356H267.848V891.616H270.572V886.084H267.848ZM267.908 883.012C267.608 884.836 267.092 886.576 266.24 887.704C266.444 888.124 266.696 889.036 266.756 889.42C268.004 887.932 268.76 885.592 269.216 883.312L267.908 883.012ZM267.236 886.084V892.516H268.46V886.084H267.236ZM278.456 886.54V888.112H289.568V886.54H278.456ZM291.716 881.764C291.404 882.88 290.852 883.96 290.192 884.668C290.432 884.944 290.828 885.556 290.972 885.832C291.8 884.92 292.52 883.492 292.952 882.1L291.716 881.764ZM291.74 882.928L291.476 884.224H294.008V882.928H291.74ZM291.824 893.008C292.016 892.744 292.364 892.456 294.296 891.016C294.152 890.776 293.972 890.272 293.888 889.924L291.836 891.4L291.548 891.832L291.824 893.008ZM290.996 885.208V886.444H294.02V885.208H290.996ZM290.564 887.608V888.904H294.104V887.608H290.564ZM291.824 893.008C291.824 892.54 292.916 891.616 292.916 891.616V885.796H291.752V890.704C291.752 891.292 291.356 891.796 291.104 891.988C291.332 892.216 291.704 892.72 291.824 893.008ZM298.196 881.884V891.376H299.288V881.884H298.196ZM296.624 884.26V885.304H301.616V884.26H296.624ZM296.72 889.204V890.272H301.316V889.204H296.72ZM297.008 887.512V888.58H301.088V887.512H297.008ZM294.152 882.376V883.696H295.892V882.376H294.152ZM295.64 885.892V886.108C295.508 889.168 294.86 891.316 293.468 892.192C293.708 892.444 293.984 892.9 294.152 893.212C295.844 891.988 296.576 889.816 296.744 885.94L296.06 885.88L295.856 885.892H295.64ZM294.992 887.956L294.068 888.304C295.016 892.072 296.9 892.876 299.42 892.876H301.34C301.4 892.54 301.556 891.988 301.712 891.7C301.232 891.724 299.876 891.724 299.492 891.724C297.452 891.712 295.724 891.088 294.992 887.956ZM297.056 882.676V883.648H299.96V885.94H297.056V886.912H300.944V882.676H297.056ZM294.764 885.892L294.416 887.056H295.988V885.892H294.764ZM294.392 887.296C294.392 887.068 295.244 886.684 295.244 886.684V886.66C295.808 885.652 296.432 884.164 296.876 882.712L296.132 882.22L295.7 882.4V882.46C295.4 883.768 294.788 885.196 294.596 885.556C294.404 885.94 294.056 886.324 293.828 886.384C293.996 886.6 294.284 887.056 294.392 887.296ZM302.72 882.712V883.936H313.244V882.712H302.72ZM303.488 884.668V885.88H312.704V884.668H303.488ZM304.592 888.976V890.188H311.54V888.976H304.592ZM304.628 886.54V887.716H311.084V890.824H312.524V886.54H304.628ZM303.68 886.54V888.028C303.68 889.264 303.536 890.956 302.216 892.168C302.528 892.348 303.128 892.864 303.344 893.14C304.808 891.772 305.108 889.588 305.108 888.052V886.54H303.68ZM307.232 881.8V885.316H308.696V881.8H307.232ZM307.28 886.948V889.732H308.672V886.948H307.28ZM315.584 882.472V883.768H317.696V888.52H315.584V889.84H319.028V882.472H315.584ZM315.596 885.472V886.756H318.224V885.472H315.596ZM320.72 882.292V883.624H324.404V882.292H320.72ZM320.72 885.16V886.456H324.404V885.16H320.72ZM320.696 888.004V889.288H324.392V888.004H320.696ZM314.816 882.472V890.884H316.148V882.472H314.816ZM323.864 882.292V891.412C323.864 891.628 323.792 891.7 323.576 891.7C323.372 891.7 322.64 891.712 321.992 891.676C322.196 892.048 322.424 892.672 322.484 893.068C323.504 893.068 324.188 893.032 324.668 892.804C325.136 892.576 325.292 892.18 325.292 891.436V882.292H323.864ZM319.856 882.292V886.636C319.856 888.472 319.676 890.728 317.648 892.204C317.96 892.396 318.512 892.888 318.728 893.176C320.948 891.544 321.272 888.724 321.272 886.648V882.292H319.856Z" fill="white" fill-opacity="0.69"/>
<g clip-path="url(#clip0_11528_63847)">
<path d="M302 803H238V867H302V803Z" fill="white"/>
<path d="M243.189 806.459H241.459V808.189H243.189V806.459Z" fill="black"/>
<path d="M244.919 806.459H243.189V808.189H244.919V806.459Z" fill="black"/>
<path d="M246.649 806.459H244.919V808.189H246.649V806.459Z" fill="black"/>
<path d="M248.378 806.459H246.649V808.189H248.378V806.459Z" fill="black"/>
<path d="M250.108 806.459H248.378V808.189H250.108V806.459Z" fill="black"/>
<path d="M251.838 806.459H250.108V808.189H251.838V806.459Z" fill="black"/>
<path d="M253.568 806.459H251.838V808.189H253.568V806.459Z" fill="black"/>
<path d="M257.027 806.459H255.297V808.189H257.027V806.459Z" fill="black"/>
<path d="M269.135 806.459H267.405V808.189H269.135V806.459Z" fill="black"/>
<path d="M270.865 806.459H269.135V808.189H270.865V806.459Z" fill="black"/>
<path d="M272.595 806.459H270.865V808.189H272.595V806.459Z" fill="black"/>
<path d="M277.784 806.459H276.054V808.189H277.784V806.459Z" fill="black"/>
<path d="M281.243 806.459H279.514V808.189H281.243V806.459Z" fill="black"/>
<path d="M282.973 806.459H281.243V808.189H282.973V806.459Z" fill="black"/>
<path d="M284.703 806.459H282.973V808.189H284.703V806.459Z" fill="black"/>
<path d="M288.162 806.459H286.432V808.189H288.162V806.459Z" fill="black"/>
<path d="M289.892 806.459H288.162V808.189H289.892V806.459Z" fill="black"/>
<path d="M291.622 806.459H289.892V808.189H291.622V806.459Z" fill="black"/>
<path d="M293.351 806.459H291.622V808.189H293.351V806.459Z" fill="black"/>
<path d="M295.081 806.459H293.351V808.189H295.081V806.459Z" fill="black"/>
<path d="M296.811 806.459H295.081V808.189H296.811V806.459Z" fill="black"/>
<path d="M298.541 806.459H296.811V808.189H298.541V806.459Z" fill="black"/>
<path d="M243.189 808.189H241.459V809.919H243.189V808.189Z" fill="black"/>
<path d="M253.568 808.189H251.838V809.919H253.568V808.189Z" fill="black"/>
<path d="M263.946 808.189H262.216V809.919H263.946V808.189Z" fill="black"/>
<path d="M265.676 808.189H263.946V809.919H265.676V808.189Z" fill="black"/>
<path d="M267.405 808.189H265.676V809.919H267.405V808.189Z" fill="black"/>
<path d="M270.865 808.189H269.135V809.919H270.865V808.189Z" fill="black"/>
<path d="M272.595 808.189H270.865V809.919H272.595V808.189Z" fill="black"/>
<path d="M274.324 808.189H272.595V809.919H274.324V808.189Z" fill="black"/>
<path d="M279.514 808.189H277.784V809.919H279.514V808.189Z" fill="black"/>
<path d="M281.243 808.189H279.514V809.919H281.243V808.189Z" fill="black"/>
<path d="M282.973 808.189H281.243V809.919H282.973V808.189Z" fill="black"/>
<path d="M288.162 808.189H286.432V809.919H288.162V808.189Z" fill="black"/>
<path d="M298.541 808.189H296.811V809.919H298.541V808.189Z" fill="black"/>
<path d="M243.189 809.919H241.459V811.649H243.189V809.919Z" fill="black"/>
<path d="M246.649 809.919H244.919V811.649H246.649V809.919Z" fill="black"/>
<path d="M248.378 809.919H246.649V811.649H248.378V809.919Z" fill="black"/>
<path d="M250.108 809.919H248.378V811.649H250.108V809.919Z" fill="black"/>
<path d="M253.568 809.919H251.838V811.649H253.568V809.919Z" fill="black"/>
<path d="M258.757 809.919H257.027V811.649H258.757V809.919Z" fill="black"/>
<path d="M260.486 809.919H258.757V811.649H260.486V809.919Z" fill="black"/>
<path d="M262.216 809.919H260.486V811.649H262.216V809.919Z" fill="black"/>
<path d="M263.946 809.919H262.216V811.649H263.946V809.919Z" fill="black"/>
<path d="M277.784 809.919H276.054V811.649H277.784V809.919Z" fill="black"/>
<path d="M282.973 809.919H281.243V811.649H282.973V809.919Z" fill="black"/>
<path d="M284.703 809.919H282.973V811.649H284.703V809.919Z" fill="black"/>
<path d="M288.162 809.919H286.432V811.649H288.162V809.919Z" fill="black"/>
<path d="M291.622 809.919H289.892V811.649H291.622V809.919Z" fill="black"/>
<path d="M293.351 809.919H291.622V811.649H293.351V809.919Z" fill="black"/>
<path d="M295.081 809.919H293.351V811.649H295.081V809.919Z" fill="black"/>
<path d="M298.541 809.919H296.811V811.649H298.541V809.919Z" fill="black"/>
<path d="M243.189 811.649H241.459V813.378H243.189V811.649Z" fill="black"/>
<path d="M246.649 811.649H244.919V813.378H246.649V811.649Z" fill="black"/>
<path d="M248.378 811.649H246.649V813.378H248.378V811.649Z" fill="black"/>
<path d="M250.108 811.649H248.378V813.378H250.108V811.649Z" fill="black"/>
<path d="M253.568 811.649H251.838V813.378H253.568V811.649Z" fill="black"/>
<path d="M257.027 811.649H255.297V813.378H257.027V811.649Z" fill="black"/>
<path d="M258.757 811.649H257.027V813.378H258.757V811.649Z" fill="black"/>
<path d="M262.216 811.649H260.486V813.378H262.216V811.649Z" fill="black"/>
<path d="M263.946 811.649H262.216V813.378H263.946V811.649Z" fill="black"/>
<path d="M267.405 811.649H265.676V813.378H267.405V811.649Z" fill="black"/>
<path d="M274.324 811.649H272.595V813.378H274.324V811.649Z" fill="black"/>
<path d="M276.054 811.649H274.324V813.378H276.054V811.649Z" fill="black"/>
<path d="M288.162 811.649H286.432V813.378H288.162V811.649Z" fill="black"/>
<path d="M291.622 811.649H289.892V813.378H291.622V811.649Z" fill="black"/>
<path d="M293.351 811.649H291.622V813.378H293.351V811.649Z" fill="black"/>
<path d="M295.081 811.649H293.351V813.378H295.081V811.649Z" fill="black"/>
<path d="M298.541 811.649H296.811V813.378H298.541V811.649Z" fill="black"/>
<path d="M243.189 813.378H241.459V815.108H243.189V813.378Z" fill="black"/>
<path d="M246.649 813.378H244.919V815.108H246.649V813.378Z" fill="black"/>
<path d="M248.378 813.378H246.649V815.108H248.378V813.378Z" fill="black"/>
<path d="M250.108 813.378H248.378V815.108H250.108V813.378Z" fill="black"/>
<path d="M253.568 813.378H251.838V815.108H253.568V813.378Z" fill="black"/>
<path d="M258.757 813.378H257.027V815.108H258.757V813.378Z" fill="black"/>
<path d="M260.486 813.378H258.757V815.108H260.486V813.378Z" fill="black"/>
<path d="M263.946 813.378H262.216V815.108H263.946V813.378Z" fill="black"/>
<path d="M267.405 813.378H265.676V815.108H267.405V813.378Z" fill="black"/>
<path d="M272.595 813.378H270.865V815.108H272.595V813.378Z" fill="black"/>
<path d="M279.514 813.378H277.784V815.108H279.514V813.378Z" fill="black"/>
<path d="M281.243 813.378H279.514V815.108H281.243V813.378Z" fill="black"/>
<path d="M288.162 813.378H286.432V815.108H288.162V813.378Z" fill="black"/>
<path d="M291.622 813.378H289.892V815.108H291.622V813.378Z" fill="black"/>
<path d="M293.351 813.378H291.622V815.108H293.351V813.378Z" fill="black"/>
<path d="M295.081 813.378H293.351V815.108H295.081V813.378Z" fill="black"/>
<path d="M298.541 813.378H296.811V815.108H298.541V813.378Z" fill="black"/>
<path d="M243.189 815.108H241.459V816.838H243.189V815.108Z" fill="black"/>
<path d="M253.568 815.108H251.838V816.838H253.568V815.108Z" fill="black"/>
<path d="M260.486 815.108H258.757V816.838H260.486V815.108Z" fill="black"/>
<path d="M262.216 815.108H260.486V816.838H262.216V815.108Z" fill="black"/>
<path d="M265.676 815.108H263.946V816.838H265.676V815.108Z" fill="black"/>
<path d="M267.405 815.108H265.676V816.838H267.405V815.108Z" fill="black"/>
<path d="M274.324 815.108H272.595V816.838H274.324V815.108Z" fill="black"/>
<path d="M276.054 815.108H274.324V816.838H276.054V815.108Z" fill="black"/>
<path d="M277.784 815.108H276.054V816.838H277.784V815.108Z" fill="black"/>
<path d="M279.514 815.108H277.784V816.838H279.514V815.108Z" fill="black"/>
<path d="M281.243 815.108H279.514V816.838H281.243V815.108Z" fill="black"/>
<path d="M288.162 815.108H286.432V816.838H288.162V815.108Z" fill="black"/>
<path d="M298.541 815.108H296.811V816.838H298.541V815.108Z" fill="black"/>
<path d="M243.189 816.838H241.459V818.568H243.189V816.838Z" fill="black"/>
<path d="M244.919 816.838H243.189V818.568H244.919V816.838Z" fill="black"/>
<path d="M246.649 816.838H244.919V818.568H246.649V816.838Z" fill="black"/>
<path d="M248.378 816.838H246.649V818.568H248.378V816.838Z" fill="black"/>
<path d="M250.108 816.838H248.378V818.568H250.108V816.838Z" fill="black"/>
<path d="M251.838 816.838H250.108V818.568H251.838V816.838Z" fill="black"/>
<path d="M253.568 816.838H251.838V818.568H253.568V816.838Z" fill="black"/>
<path d="M257.027 816.838H255.297V818.568H257.027V816.838Z" fill="black"/>
<path d="M260.486 816.838H258.757V818.568H260.486V816.838Z" fill="black"/>
<path d="M263.946 816.838H262.216V818.568H263.946V816.838Z" fill="black"/>
<path d="M267.405 816.838H265.676V818.568H267.405V816.838Z" fill="black"/>
<path d="M270.865 816.838H269.135V818.568H270.865V816.838Z" fill="black"/>
<path d="M274.324 816.838H272.595V818.568H274.324V816.838Z" fill="black"/>
<path d="M277.784 816.838H276.054V818.568H277.784V816.838Z" fill="black"/>
<path d="M281.243 816.838H279.514V818.568H281.243V816.838Z" fill="black"/>
<path d="M284.703 816.838H282.973V818.568H284.703V816.838Z" fill="black"/>
<path d="M288.162 816.838H286.432V818.568H288.162V816.838Z" fill="black"/>
<path d="M289.892 816.838H288.162V818.568H289.892V816.838Z" fill="black"/>
<path d="M291.622 816.838H289.892V818.568H291.622V816.838Z" fill="black"/>
<path d="M293.351 816.838H291.622V818.568H293.351V816.838Z" fill="black"/>
<path d="M295.081 816.838H293.351V818.568H295.081V816.838Z" fill="black"/>
<path d="M296.811 816.838H295.081V818.568H296.811V816.838Z" fill="black"/>
<path d="M298.541 816.838H296.811V818.568H298.541V816.838Z" fill="black"/>
<path d="M262.216 818.568H260.486V820.297H262.216V818.568Z" fill="black"/>
<path d="M265.676 818.568H263.946V820.297H265.676V818.568Z" fill="black"/>
<path d="M267.405 818.568H265.676V820.297H267.405V818.568Z" fill="black"/>
<path d="M270.865 818.568H269.135V820.297H270.865V818.568Z" fill="black"/>
<path d="M272.595 818.568H270.865V820.297H272.595V818.568Z" fill="black"/>
<path d="M277.784 818.568H276.054V820.297H277.784V818.568Z" fill="black"/>
<path d="M279.514 818.568H277.784V820.297H279.514V818.568Z" fill="black"/>
<path d="M284.703 818.568H282.973V820.297H284.703V818.568Z" fill="black"/>
<path d="M246.649 820.297H244.919V822.027H246.649V820.297Z" fill="black"/>
<path d="M250.108 820.297H248.378V822.027H250.108V820.297Z" fill="black"/>
<path d="M251.838 820.297H250.108V822.027H251.838V820.297Z" fill="black"/>
<path d="M253.568 820.297H251.838V822.027H253.568V820.297Z" fill="black"/>
<path d="M257.027 820.297H255.297V822.027H257.027V820.297Z" fill="black"/>
<path d="M258.757 820.297H257.027V822.027H258.757V820.297Z" fill="black"/>
<path d="M265.676 820.297H263.946V822.027H265.676V820.297Z" fill="black"/>
<path d="M270.865 820.297H269.135V822.027H270.865V820.297Z" fill="black"/>
<path d="M272.595 820.297H270.865V822.027H272.595V820.297Z" fill="black"/>
<path d="M274.324 820.297H272.595V822.027H274.324V820.297Z" fill="black"/>
<path d="M279.514 820.297H277.784V822.027H279.514V820.297Z" fill="black"/>
<path d="M282.973 820.297H281.243V822.027H282.973V820.297Z" fill="black"/>
<path d="M284.703 820.297H282.973V822.027H284.703V820.297Z" fill="black"/>
<path d="M286.432 820.297H284.703V822.027H286.432V820.297Z" fill="black"/>
<path d="M293.351 820.297H291.622V822.027H293.351V820.297Z" fill="black"/>
<path d="M298.541 820.297H296.811V822.027H298.541V820.297Z" fill="black"/>
<path d="M246.649 822.027H244.919V823.757H246.649V822.027Z" fill="black"/>
<path d="M250.108 822.027H248.378V823.757H250.108V822.027Z" fill="black"/>
<path d="M255.297 822.027H253.568V823.757H255.297V822.027Z" fill="black"/>
<path d="M258.757 822.027H257.027V823.757H258.757V822.027Z" fill="black"/>
<path d="M260.486 822.027H258.757V823.757H260.486V822.027Z" fill="black"/>
<path d="M262.216 822.027H260.486V823.757H262.216V822.027Z" fill="black"/>
<path d="M263.946 822.027H262.216V823.757H263.946V822.027Z" fill="black"/>
<path d="M276.054 822.027H274.324V823.757H276.054V822.027Z" fill="black"/>
<path d="M279.514 822.027H277.784V823.757H279.514V822.027Z" fill="black"/>
<path d="M284.703 822.027H282.973V823.757H284.703V822.027Z" fill="black"/>
<path d="M288.162 822.027H286.432V823.757H288.162V822.027Z" fill="black"/>
<path d="M295.081 822.027H293.351V823.757H295.081V822.027Z" fill="black"/>
<path d="M296.811 822.027H295.081V823.757H296.811V822.027Z" fill="black"/>
<path d="M298.541 822.027H296.811V823.757H298.541V822.027Z" fill="black"/>
<path d="M251.838 823.757H250.108V825.486H251.838V823.757Z" fill="black"/>
<path d="M253.568 823.757H251.838V825.486H253.568V823.757Z" fill="black"/>
<path d="M257.027 823.757H255.297V825.486H257.027V823.757Z" fill="black"/>
<path d="M258.757 823.757H257.027V825.486H258.757V823.757Z" fill="black"/>
<path d="M260.486 823.757H258.757V825.486H260.486V823.757Z" fill="black"/>
<path d="M263.946 823.757H262.216V825.486H263.946V823.757Z" fill="black"/>
<path d="M265.676 823.757H263.946V825.486H265.676V823.757Z" fill="black"/>
<path d="M270.865 823.757H269.135V825.486H270.865V823.757Z" fill="black"/>
<path d="M274.324 823.757H272.595V825.486H274.324V823.757Z" fill="black"/>
<path d="M277.784 823.757H276.054V825.486H277.784V823.757Z" fill="black"/>
<path d="M281.243 823.757H279.514V825.486H281.243V823.757Z" fill="black"/>
<path d="M284.703 823.757H282.973V825.486H284.703V823.757Z" fill="black"/>
<path d="M286.432 823.757H284.703V825.486H286.432V823.757Z" fill="black"/>
<path d="M291.622 823.757H289.892V825.486H291.622V823.757Z" fill="black"/>
<path d="M296.811 823.757H295.081V825.486H296.811V823.757Z" fill="black"/>
<path d="M298.541 823.757H296.811V825.486H298.541V823.757Z" fill="black"/>
<path d="M243.189 825.486H241.459V827.216H243.189V825.486Z" fill="black"/>
<path d="M246.649 825.486H244.919V827.216H246.649V825.486Z" fill="black"/>
<path d="M250.108 825.486H248.378V827.216H250.108V825.486Z" fill="black"/>
<path d="M255.297 825.486H253.568V827.216H255.297V825.486Z" fill="black"/>
<path d="M258.757 825.486H257.027V827.216H258.757V825.486Z" fill="black"/>
<path d="M260.486 825.486H258.757V827.216H260.486V825.486Z" fill="black"/>
<path d="M262.216 825.486H260.486V827.216H262.216V825.486Z" fill="black"/>
<path d="M263.946 825.486H262.216V827.216H263.946V825.486Z" fill="black"/>
<path d="M265.676 825.486H263.946V827.216H265.676V825.486Z" fill="black"/>
<path d="M269.135 825.486H267.405V827.216H269.135V825.486Z" fill="black"/>
<path d="M274.324 825.486H272.595V827.216H274.324V825.486Z" fill="black"/>
<path d="M276.054 825.486H274.324V827.216H276.054V825.486Z" fill="black"/>
<path d="M277.784 825.486H276.054V827.216H277.784V825.486Z" fill="black"/>
<path d="M279.514 825.486H277.784V827.216H279.514V825.486Z" fill="black"/>
<path d="M281.243 825.486H279.514V827.216H281.243V825.486Z" fill="black"/>
<path d="M284.703 825.486H282.973V827.216H284.703V825.486Z" fill="black"/>
<path d="M286.432 825.486H284.703V827.216H286.432V825.486Z" fill="black"/>
<path d="M296.811 825.486H295.081V827.216H296.811V825.486Z" fill="black"/>
<path d="M243.189 827.216H241.459V828.946H243.189V827.216Z" fill="black"/>
<path d="M244.919 827.216H243.189V828.946H244.919V827.216Z" fill="black"/>
<path d="M248.378 827.216H246.649V828.946H248.378V827.216Z" fill="black"/>
<path d="M250.108 827.216H248.378V828.946H250.108V827.216Z" fill="black"/>
<path d="M253.568 827.216H251.838V828.946H253.568V827.216Z" fill="black"/>
<path d="M255.297 827.216H253.568V828.946H255.297V827.216Z" fill="black"/>
<path d="M258.757 827.216H257.027V828.946H258.757V827.216Z" fill="black"/>
<path d="M260.486 827.216H258.757V828.946H260.486V827.216Z" fill="black"/>
<path d="M265.676 827.216H263.946V828.946H265.676V827.216Z" fill="black"/>
<path d="M267.405 827.216H265.676V828.946H267.405V827.216Z" fill="black"/>
<path d="M269.135 827.216H267.405V828.946H269.135V827.216Z" fill="black"/>
<path d="M274.324 827.216H272.595V828.946H274.324V827.216Z" fill="black"/>
<path d="M276.054 827.216H274.324V828.946H276.054V827.216Z" fill="black"/>
<path d="M281.243 827.216H279.514V828.946H281.243V827.216Z" fill="black"/>
<path d="M282.973 827.216H281.243V828.946H282.973V827.216Z" fill="black"/>
<path d="M284.703 827.216H282.973V828.946H284.703V827.216Z" fill="black"/>
<path d="M286.432 827.216H284.703V828.946H286.432V827.216Z" fill="black"/>
<path d="M288.162 827.216H286.432V828.946H288.162V827.216Z" fill="black"/>
<path d="M289.892 827.216H288.162V828.946H289.892V827.216Z" fill="black"/>
<path d="M291.622 827.216H289.892V828.946H291.622V827.216Z" fill="black"/>
<path d="M296.811 827.216H295.081V828.946H296.811V827.216Z" fill="black"/>
<path d="M298.541 827.216H296.811V828.946H298.541V827.216Z" fill="black"/>
<path d="M246.649 828.946H244.919V830.676H246.649V828.946Z" fill="black"/>
<path d="M248.378 828.946H246.649V830.676H248.378V828.946Z" fill="black"/>
<path d="M250.108 828.946H248.378V830.676H250.108V828.946Z" fill="black"/>
<path d="M251.838 828.946H250.108V830.676H251.838V828.946Z" fill="black"/>
<path d="M263.946 828.946H262.216V830.676H263.946V828.946Z" fill="black"/>
<path d="M265.676 828.946H263.946V830.676H265.676V828.946Z" fill="black"/>
<path d="M270.865 828.946H269.135V830.676H270.865V828.946Z" fill="black"/>
<path d="M272.595 828.946H270.865V830.676H272.595V828.946Z" fill="black"/>
<path d="M276.054 828.946H274.324V830.676H276.054V828.946Z" fill="black"/>
<path d="M277.784 828.946H276.054V830.676H277.784V828.946Z" fill="black"/>
<path d="M281.243 828.946H279.514V830.676H281.243V828.946Z" fill="black"/>
<path d="M284.703 828.946H282.973V830.676H284.703V828.946Z" fill="black"/>
<path d="M286.432 828.946H284.703V830.676H286.432V828.946Z" fill="black"/>
<path d="M288.162 828.946H286.432V830.676H288.162V828.946Z" fill="black"/>
<path d="M289.892 828.946H288.162V830.676H289.892V828.946Z" fill="black"/>
<path d="M296.811 828.946H295.081V830.676H296.811V828.946Z" fill="black"/>
<path d="M298.541 828.946H296.811V830.676H298.541V828.946Z" fill="black"/>
<path d="M243.189 830.676H241.459V832.405H243.189V830.676Z" fill="black"/>
<path d="M248.378 830.676H246.649V832.405H248.378V830.676Z" fill="black"/>
<path d="M251.838 830.676H250.108V832.405H251.838V830.676Z" fill="black"/>
<path d="M253.568 830.676H251.838V832.405H253.568V830.676Z" fill="black"/>
<path d="M257.027 830.676H255.297V832.405H257.027V830.676Z" fill="black"/>
<path d="M258.757 830.676H257.027V832.405H258.757V830.676Z" fill="black"/>
<path d="M260.486 830.676H258.757V832.405H260.486V830.676Z" fill="black"/>
<path d="M262.216 830.676H260.486V832.405H262.216V830.676Z" fill="black"/>
<path d="M274.324 830.676H272.595V832.405H274.324V830.676Z" fill="black"/>
<path d="M279.514 830.676H277.784V832.405H279.514V830.676Z" fill="black"/>
<path d="M284.703 830.676H282.973V832.405H284.703V830.676Z" fill="black"/>
<path d="M286.432 830.676H284.703V832.405H286.432V830.676Z" fill="black"/>
<path d="M288.162 830.676H286.432V832.405H288.162V830.676Z" fill="black"/>
<path d="M289.892 830.676H288.162V832.405H289.892V830.676Z" fill="black"/>
<path d="M291.622 830.676H289.892V832.405H291.622V830.676Z" fill="black"/>
<path d="M293.351 830.676H291.622V832.405H293.351V830.676Z" fill="black"/>
<path d="M295.081 830.676H293.351V832.405H295.081V830.676Z" fill="black"/>
<path d="M296.811 830.676H295.081V832.405H296.811V830.676Z" fill="black"/>
<path d="M298.541 830.676H296.811V832.405H298.541V830.676Z" fill="black"/>
<path d="M248.378 832.405H246.649V834.135H248.378V832.405Z" fill="black"/>
<path d="M250.108 832.405H248.378V834.135H250.108V832.405Z" fill="black"/>
<path d="M255.297 832.405H253.568V834.135H255.297V832.405Z" fill="black"/>
<path d="M260.486 832.405H258.757V834.135H260.486V832.405Z" fill="black"/>
<path d="M263.946 832.405H262.216V834.135H263.946V832.405Z" fill="black"/>
<path d="M265.676 832.405H263.946V834.135H265.676V832.405Z" fill="black"/>
<path d="M267.405 832.405H265.676V834.135H267.405V832.405Z" fill="black"/>
<path d="M269.135 832.405H267.405V834.135H269.135V832.405Z" fill="black"/>
<path d="M270.865 832.405H269.135V834.135H270.865V832.405Z" fill="black"/>
<path d="M277.784 832.405H276.054V834.135H277.784V832.405Z" fill="black"/>
<path d="M279.514 832.405H277.784V834.135H279.514V832.405Z" fill="black"/>
<path d="M281.243 832.405H279.514V834.135H281.243V832.405Z" fill="black"/>
<path d="M289.892 832.405H288.162V834.135H289.892V832.405Z" fill="black"/>
<path d="M293.351 832.405H291.622V834.135H293.351V832.405Z" fill="black"/>
<path d="M298.541 832.405H296.811V834.135H298.541V832.405Z" fill="black"/>
<path d="M246.649 834.135H244.919V835.865H246.649V834.135Z" fill="black"/>
<path d="M248.378 834.135H246.649V835.865H248.378V834.135Z" fill="black"/>
<path d="M251.838 834.135H250.108V835.865H251.838V834.135Z" fill="black"/>
<path d="M253.568 834.135H251.838V835.865H253.568V834.135Z" fill="black"/>
<path d="M262.216 834.135H260.486V835.865H262.216V834.135Z" fill="black"/>
<path d="M263.946 834.135H262.216V835.865H263.946V834.135Z" fill="black"/>
<path d="M270.865 834.135H269.135V835.865H270.865V834.135Z" fill="black"/>
<path d="M272.595 834.135H270.865V835.865H272.595V834.135Z" fill="black"/>
<path d="M276.054 834.135H274.324V835.865H276.054V834.135Z" fill="black"/>
<path d="M279.514 834.135H277.784V835.865H279.514V834.135Z" fill="black"/>
<path d="M281.243 834.135H279.514V835.865H281.243V834.135Z" fill="black"/>
<path d="M286.432 834.135H284.703V835.865H286.432V834.135Z" fill="black"/>
<path d="M288.162 834.135H286.432V835.865H288.162V834.135Z" fill="black"/>
<path d="M295.081 834.135H293.351V835.865H295.081V834.135Z" fill="black"/>
<path d="M243.189 835.865H241.459V837.595H243.189V835.865Z" fill="black"/>
<path d="M246.649 835.865H244.919V837.595H246.649V835.865Z" fill="black"/>
<path d="M250.108 835.865H248.378V837.595H250.108V835.865Z" fill="black"/>
<path d="M251.838 835.865H250.108V837.595H251.838V835.865Z" fill="black"/>
<path d="M255.297 835.865H253.568V837.595H255.297V835.865Z" fill="black"/>
<path d="M258.757 835.865H257.027V837.595H258.757V835.865Z" fill="black"/>
<path d="M265.676 835.865H263.946V837.595H265.676V835.865Z" fill="black"/>
<path d="M267.405 835.865H265.676V837.595H267.405V835.865Z" fill="black"/>
<path d="M269.135 835.865H267.405V837.595H269.135V835.865Z" fill="black"/>
<path d="M272.595 835.865H270.865V837.595H272.595V835.865Z" fill="black"/>
<path d="M276.054 835.865H274.324V837.595H276.054V835.865Z" fill="black"/>
<path d="M277.784 835.865H276.054V837.595H277.784V835.865Z" fill="black"/>
<path d="M288.162 835.865H286.432V837.595H288.162V835.865Z" fill="black"/>
<path d="M293.351 835.865H291.622V837.595H293.351V835.865Z" fill="black"/>
<path d="M295.081 835.865H293.351V837.595H295.081V835.865Z" fill="black"/>
<path d="M296.811 835.865H295.081V837.595H296.811V835.865Z" fill="black"/>
<path d="M298.541 835.865H296.811V837.595H298.541V835.865Z" fill="black"/>
<path d="M244.919 837.595H243.189V839.324H244.919V837.595Z" fill="black"/>
<path d="M246.649 837.595H244.919V839.324H246.649V837.595Z" fill="black"/>
<path d="M250.108 837.595H248.378V839.324H250.108V837.595Z" fill="black"/>
<path d="M251.838 837.595H250.108V839.324H251.838V837.595Z" fill="black"/>
<path d="M253.568 837.595H251.838V839.324H253.568V837.595Z" fill="black"/>
<path d="M258.757 837.595H257.027V839.324H258.757V837.595Z" fill="black"/>
<path d="M260.486 837.595H258.757V839.324H260.486V837.595Z" fill="black"/>
<path d="M262.216 837.595H260.486V839.324H262.216V837.595Z" fill="black"/>
<path d="M265.676 837.595H263.946V839.324H265.676V837.595Z" fill="black"/>
<path d="M267.405 837.595H265.676V839.324H267.405V837.595Z" fill="black"/>
<path d="M276.054 837.595H274.324V839.324H276.054V837.595Z" fill="black"/>
<path d="M279.514 837.595H277.784V839.324H279.514V837.595Z" fill="black"/>
<path d="M286.432 837.595H284.703V839.324H286.432V837.595Z" fill="black"/>
<path d="M295.081 837.595H293.351V839.324H295.081V837.595Z" fill="black"/>
<path d="M296.811 837.595H295.081V839.324H296.811V837.595Z" fill="black"/>
<path d="M298.541 837.595H296.811V839.324H298.541V837.595Z" fill="black"/>
<path d="M243.189 839.324H241.459V841.054H243.189V839.324Z" fill="black"/>
<path d="M244.919 839.324H243.189V841.054H244.919V839.324Z" fill="black"/>
<path d="M250.108 839.324H248.378V841.054H250.108V839.324Z" fill="black"/>
<path d="M255.297 839.324H253.568V841.054H255.297V839.324Z" fill="black"/>
<path d="M257.027 839.324H255.297V841.054H257.027V839.324Z" fill="black"/>
<path d="M262.216 839.324H260.486V841.054H262.216V839.324Z" fill="black"/>
<path d="M265.676 839.324H263.946V841.054H265.676V839.324Z" fill="black"/>
<path d="M269.135 839.324H267.405V841.054H269.135V839.324Z" fill="black"/>
<path d="M270.865 839.324H269.135V841.054H270.865V839.324Z" fill="black"/>
<path d="M276.054 839.324H274.324V841.054H276.054V839.324Z" fill="black"/>
<path d="M279.514 839.324H277.784V841.054H279.514V839.324Z" fill="black"/>
<path d="M286.432 839.324H284.703V841.054H286.432V839.324Z" fill="black"/>
<path d="M288.162 839.324H286.432V841.054H288.162V839.324Z" fill="black"/>
<path d="M296.811 839.324H295.081V841.054H296.811V839.324Z" fill="black"/>
<path d="M298.541 839.324H296.811V841.054H298.541V839.324Z" fill="black"/>
<path d="M243.189 841.054H241.459V842.784H243.189V841.054Z" fill="black"/>
<path d="M244.919 841.054H243.189V842.784H244.919V841.054Z" fill="black"/>
<path d="M246.649 841.054H244.919V842.784H246.649V841.054Z" fill="black"/>
<path d="M251.838 841.054H250.108V842.784H251.838V841.054Z" fill="black"/>
<path d="M253.568 841.054H251.838V842.784H253.568V841.054Z" fill="black"/>
<path d="M257.027 841.054H255.297V842.784H257.027V841.054Z" fill="black"/>
<path d="M258.757 841.054H257.027V842.784H258.757V841.054Z" fill="black"/>
<path d="M274.324 841.054H272.595V842.784H274.324V841.054Z" fill="black"/>
<path d="M276.054 841.054H274.324V842.784H276.054V841.054Z" fill="black"/>
<path d="M279.514 841.054H277.784V842.784H279.514V841.054Z" fill="black"/>
<path d="M281.243 841.054H279.514V842.784H281.243V841.054Z" fill="black"/>
<path d="M286.432 841.054H284.703V842.784H286.432V841.054Z" fill="black"/>
<path d="M293.351 841.054H291.622V842.784H293.351V841.054Z" fill="black"/>
<path d="M296.811 841.054H295.081V842.784H296.811V841.054Z" fill="black"/>
<path d="M298.541 841.054H296.811V842.784H298.541V841.054Z" fill="black"/>
<path d="M244.919 842.784H243.189V844.514H244.919V842.784Z" fill="black"/>
<path d="M246.649 842.784H244.919V844.514H246.649V842.784Z" fill="black"/>
<path d="M250.108 842.784H248.378V844.514H250.108V842.784Z" fill="black"/>
<path d="M260.486 842.784H258.757V844.514H260.486V842.784Z" fill="black"/>
<path d="M262.216 842.784H260.486V844.514H262.216V842.784Z" fill="black"/>
<path d="M263.946 842.784H262.216V844.514H263.946V842.784Z" fill="black"/>
<path d="M270.865 842.784H269.135V844.514H270.865V842.784Z" fill="black"/>
<path d="M276.054 842.784H274.324V844.514H276.054V842.784Z" fill="black"/>
<path d="M277.784 842.784H276.054V844.514H277.784V842.784Z" fill="black"/>
<path d="M281.243 842.784H279.514V844.514H281.243V842.784Z" fill="black"/>
<path d="M282.973 842.784H281.243V844.514H282.973V842.784Z" fill="black"/>
<path d="M286.432 842.784H284.703V844.514H286.432V842.784Z" fill="black"/>
<path d="M296.811 842.784H295.081V844.514H296.811V842.784Z" fill="black"/>
<path d="M298.541 842.784H296.811V844.514H298.541V842.784Z" fill="black"/>
<path d="M243.189 844.514H241.459V846.243H243.189V844.514Z" fill="black"/>
<path d="M250.108 844.514H248.378V846.243H250.108V844.514Z" fill="black"/>
<path d="M253.568 844.514H251.838V846.243H253.568V844.514Z" fill="black"/>
<path d="M255.297 844.514H253.568V846.243H255.297V844.514Z" fill="black"/>
<path d="M260.486 844.514H258.757V846.243H260.486V844.514Z" fill="black"/>
<path d="M262.216 844.514H260.486V846.243H262.216V844.514Z" fill="black"/>
<path d="M263.946 844.514H262.216V846.243H263.946V844.514Z" fill="black"/>
<path d="M265.676 844.514H263.946V846.243H265.676V844.514Z" fill="black"/>
<path d="M267.405 844.514H265.676V846.243H267.405V844.514Z" fill="black"/>
<path d="M269.135 844.514H267.405V846.243H269.135V844.514Z" fill="black"/>
<path d="M274.324 844.514H272.595V846.243H274.324V844.514Z" fill="black"/>
<path d="M276.054 844.514H274.324V846.243H276.054V844.514Z" fill="black"/>
<path d="M281.243 844.514H279.514V846.243H281.243V844.514Z" fill="black"/>
<path d="M288.162 844.514H286.432V846.243H288.162V844.514Z" fill="black"/>
<path d="M289.892 844.514H288.162V846.243H289.892V844.514Z" fill="black"/>
<path d="M293.351 844.514H291.622V846.243H293.351V844.514Z" fill="black"/>
<path d="M295.081 844.514H293.351V846.243H295.081V844.514Z" fill="black"/>
<path d="M296.811 844.514H295.081V846.243H296.811V844.514Z" fill="black"/>
<path d="M298.541 844.514H296.811V846.243H298.541V844.514Z" fill="black"/>
<path d="M244.919 846.243H243.189V847.973H244.919V846.243Z" fill="black"/>
<path d="M246.649 846.243H244.919V847.973H246.649V846.243Z" fill="black"/>
<path d="M260.486 846.243H258.757V847.973H260.486V846.243Z" fill="black"/>
<path d="M262.216 846.243H260.486V847.973H262.216V846.243Z" fill="black"/>
<path d="M267.405 846.243H265.676V847.973H267.405V846.243Z" fill="black"/>
<path d="M269.135 846.243H267.405V847.973H269.135V846.243Z" fill="black"/>
<path d="M270.865 846.243H269.135V847.973H270.865V846.243Z" fill="black"/>
<path d="M272.595 846.243H270.865V847.973H272.595V846.243Z" fill="black"/>
<path d="M274.324 846.243H272.595V847.973H274.324V846.243Z" fill="black"/>
<path d="M279.514 846.243H277.784V847.973H279.514V846.243Z" fill="black"/>
<path d="M281.243 846.243H279.514V847.973H281.243V846.243Z" fill="black"/>
<path d="M282.973 846.243H281.243V847.973H282.973V846.243Z" fill="black"/>
<path d="M286.432 846.243H284.703V847.973H286.432V846.243Z" fill="black"/>
<path d="M289.892 846.243H288.162V847.973H289.892V846.243Z" fill="black"/>
<path d="M298.541 846.243H296.811V847.973H298.541V846.243Z" fill="black"/>
<path d="M243.189 847.973H241.459V849.703H243.189V847.973Z" fill="black"/>
<path d="M246.649 847.973H244.919V849.703H246.649V847.973Z" fill="black"/>
<path d="M248.378 847.973H246.649V849.703H248.378V847.973Z" fill="black"/>
<path d="M253.568 847.973H251.838V849.703H253.568V847.973Z" fill="black"/>
<path d="M255.297 847.973H253.568V849.703H255.297V847.973Z" fill="black"/>
<path d="M257.027 847.973H255.297V849.703H257.027V847.973Z" fill="black"/>
<path d="M260.486 847.973H258.757V849.703H260.486V847.973Z" fill="black"/>
<path d="M262.216 847.973H260.486V849.703H262.216V847.973Z" fill="black"/>
<path d="M265.676 847.973H263.946V849.703H265.676V847.973Z" fill="black"/>
<path d="M269.135 847.973H267.405V849.703H269.135V847.973Z" fill="black"/>
<path d="M274.324 847.973H272.595V849.703H274.324V847.973Z" fill="black"/>
<path d="M279.514 847.973H277.784V849.703H279.514V847.973Z" fill="black"/>
<path d="M284.703 847.973H282.973V849.703H284.703V847.973Z" fill="black"/>
<path d="M286.432 847.973H284.703V849.703H286.432V847.973Z" fill="black"/>
<path d="M288.162 847.973H286.432V849.703H288.162V847.973Z" fill="black"/>
<path d="M289.892 847.973H288.162V849.703H289.892V847.973Z" fill="black"/>
<path d="M291.622 847.973H289.892V849.703H291.622V847.973Z" fill="black"/>
<path d="M298.541 847.973H296.811V849.703H298.541V847.973Z" fill="black"/>
<path d="M257.027 849.703H255.297V851.432H257.027V849.703Z" fill="black"/>
<path d="M260.486 849.703H258.757V851.432H260.486V849.703Z" fill="black"/>
<path d="M262.216 849.703H260.486V851.432H262.216V849.703Z" fill="black"/>
<path d="M269.135 849.703H267.405V851.432H269.135V849.703Z" fill="black"/>
<path d="M270.865 849.703H269.135V851.432H270.865V849.703Z" fill="black"/>
<path d="M272.595 849.703H270.865V851.432H272.595V849.703Z" fill="black"/>
<path d="M277.784 849.703H276.054V851.432H277.784V849.703Z" fill="black"/>
<path d="M282.973 849.703H281.243V851.432H282.973V849.703Z" fill="black"/>
<path d="M284.703 849.703H282.973V851.432H284.703V849.703Z" fill="black"/>
<path d="M291.622 849.703H289.892V851.432H291.622V849.703Z" fill="black"/>
<path d="M296.811 849.703H295.081V851.432H296.811V849.703Z" fill="black"/>
<path d="M298.541 849.703H296.811V851.432H298.541V849.703Z" fill="black"/>
<path d="M243.189 851.432H241.459V853.162H243.189V851.432Z" fill="black"/>
<path d="M244.919 851.432H243.189V853.162H244.919V851.432Z" fill="black"/>
<path d="M246.649 851.432H244.919V853.162H246.649V851.432Z" fill="black"/>
<path d="M248.378 851.432H246.649V853.162H248.378V851.432Z" fill="black"/>
<path d="M250.108 851.432H248.378V853.162H250.108V851.432Z" fill="black"/>
<path d="M251.838 851.432H250.108V853.162H251.838V851.432Z" fill="black"/>
<path d="M253.568 851.432H251.838V853.162H253.568V851.432Z" fill="black"/>
<path d="M258.757 851.432H257.027V853.162H258.757V851.432Z" fill="black"/>
<path d="M265.676 851.432H263.946V853.162H265.676V851.432Z" fill="black"/>
<path d="M269.135 851.432H267.405V853.162H269.135V851.432Z" fill="black"/>
<path d="M272.595 851.432H270.865V853.162H272.595V851.432Z" fill="black"/>
<path d="M274.324 851.432H272.595V853.162H274.324V851.432Z" fill="black"/>
<path d="M276.054 851.432H274.324V853.162H276.054V851.432Z" fill="black"/>
<path d="M279.514 851.432H277.784V853.162H279.514V851.432Z" fill="black"/>
<path d="M282.973 851.432H281.243V853.162H282.973V851.432Z" fill="black"/>
<path d="M284.703 851.432H282.973V853.162H284.703V851.432Z" fill="black"/>
<path d="M288.162 851.432H286.432V853.162H288.162V851.432Z" fill="black"/>
<path d="M291.622 851.432H289.892V853.162H291.622V851.432Z" fill="black"/>
<path d="M293.351 851.432H291.622V853.162H293.351V851.432Z" fill="black"/>
<path d="M295.081 851.432H293.351V853.162H295.081V851.432Z" fill="black"/>
<path d="M296.811 851.432H295.081V853.162H296.811V851.432Z" fill="black"/>
<path d="M298.541 851.432H296.811V853.162H298.541V851.432Z" fill="black"/>
<path d="M243.189 853.162H241.459V854.892H243.189V853.162Z" fill="black"/>
<path d="M253.568 853.162H251.838V854.892H253.568V853.162Z" fill="black"/>
<path d="M257.027 853.162H255.297V854.892H257.027V853.162Z" fill="black"/>
<path d="M260.486 853.162H258.757V854.892H260.486V853.162Z" fill="black"/>
<path d="M267.405 853.162H265.676V854.892H267.405V853.162Z" fill="black"/>
<path d="M269.135 853.162H267.405V854.892H269.135V853.162Z" fill="black"/>
<path d="M272.595 853.162H270.865V854.892H272.595V853.162Z" fill="black"/>
<path d="M274.324 853.162H272.595V854.892H274.324V853.162Z" fill="black"/>
<path d="M276.054 853.162H274.324V854.892H276.054V853.162Z" fill="black"/>
<path d="M282.973 853.162H281.243V854.892H282.973V853.162Z" fill="black"/>
<path d="M284.703 853.162H282.973V854.892H284.703V853.162Z" fill="black"/>
<path d="M291.622 853.162H289.892V854.892H291.622V853.162Z" fill="black"/>
<path d="M298.541 853.162H296.811V854.892H298.541V853.162Z" fill="black"/>
<path d="M243.189 854.892H241.459V856.622H243.189V854.892Z" fill="black"/>
<path d="M246.649 854.892H244.919V856.622H246.649V854.892Z" fill="black"/>
<path d="M248.378 854.892H246.649V856.622H248.378V854.892Z" fill="black"/>
<path d="M250.108 854.892H248.378V856.622H250.108V854.892Z" fill="black"/>
<path d="M253.568 854.892H251.838V856.622H253.568V854.892Z" fill="black"/>
<path d="M257.027 854.892H255.297V856.622H257.027V854.892Z" fill="black"/>
<path d="M258.757 854.892H257.027V856.622H258.757V854.892Z" fill="black"/>
<path d="M262.216 854.892H260.486V856.622H262.216V854.892Z" fill="black"/>
<path d="M263.946 854.892H262.216V856.622H263.946V854.892Z" fill="black"/>
<path d="M265.676 854.892H263.946V856.622H265.676V854.892Z" fill="black"/>
<path d="M272.595 854.892H270.865V856.622H272.595V854.892Z" fill="black"/>
<path d="M274.324 854.892H272.595V856.622H274.324V854.892Z" fill="black"/>
<path d="M276.054 854.892H274.324V856.622H276.054V854.892Z" fill="black"/>
<path d="M284.703 854.892H282.973V856.622H284.703V854.892Z" fill="black"/>
<path d="M286.432 854.892H284.703V856.622H286.432V854.892Z" fill="black"/>
<path d="M288.162 854.892H286.432V856.622H288.162V854.892Z" fill="black"/>
<path d="M289.892 854.892H288.162V856.622H289.892V854.892Z" fill="black"/>
<path d="M291.622 854.892H289.892V856.622H291.622V854.892Z" fill="black"/>
<path d="M293.351 854.892H291.622V856.622H293.351V854.892Z" fill="black"/>
<path d="M296.811 854.892H295.081V856.622H296.811V854.892Z" fill="black"/>
<path d="M243.189 856.622H241.459V858.351H243.189V856.622Z" fill="black"/>
<path d="M246.649 856.622H244.919V858.351H246.649V856.622Z" fill="black"/>
<path d="M248.378 856.622H246.649V858.351H248.378V856.622Z" fill="black"/>
<path d="M250.108 856.622H248.378V858.351H250.108V856.622Z" fill="black"/>
<path d="M253.568 856.622H251.838V858.351H253.568V856.622Z" fill="black"/>
<path d="M262.216 856.622H260.486V858.351H262.216V856.622Z" fill="black"/>
<path d="M263.946 856.622H262.216V858.351H263.946V856.622Z" fill="black"/>
<path d="M265.676 856.622H263.946V858.351H265.676V856.622Z" fill="black"/>
<path d="M269.135 856.622H267.405V858.351H269.135V856.622Z" fill="black"/>
<path d="M272.595 856.622H270.865V858.351H272.595V856.622Z" fill="black"/>
<path d="M276.054 856.622H274.324V858.351H276.054V856.622Z" fill="black"/>
<path d="M277.784 856.622H276.054V858.351H277.784V856.622Z" fill="black"/>
<path d="M282.973 856.622H281.243V858.351H282.973V856.622Z" fill="black"/>
<path d="M284.703 856.622H282.973V858.351H284.703V856.622Z" fill="black"/>
<path d="M291.622 856.622H289.892V858.351H291.622V856.622Z" fill="black"/>
<path d="M295.081 856.622H293.351V858.351H295.081V856.622Z" fill="black"/>
<path d="M243.189 858.351H241.459V860.081H243.189V858.351Z" fill="black"/>
<path d="M246.649 858.351H244.919V860.081H246.649V858.351Z" fill="black"/>
<path d="M248.378 858.351H246.649V860.081H248.378V858.351Z" fill="black"/>
<path d="M250.108 858.351H248.378V860.081H250.108V858.351Z" fill="black"/>
<path d="M253.568 858.351H251.838V860.081H253.568V858.351Z" fill="black"/>
<path d="M257.027 858.351H255.297V860.081H257.027V858.351Z" fill="black"/>
<path d="M258.757 858.351H257.027V860.081H258.757V858.351Z" fill="black"/>
<path d="M260.486 858.351H258.757V860.081H260.486V858.351Z" fill="black"/>
<path d="M262.216 858.351H260.486V860.081H262.216V858.351Z" fill="black"/>
<path d="M265.676 858.351H263.946V860.081H265.676V858.351Z" fill="black"/>
<path d="M267.405 858.351H265.676V860.081H267.405V858.351Z" fill="black"/>
<path d="M270.865 858.351H269.135V860.081H270.865V858.351Z" fill="black"/>
<path d="M276.054 858.351H274.324V860.081H276.054V858.351Z" fill="black"/>
<path d="M277.784 858.351H276.054V860.081H277.784V858.351Z" fill="black"/>
<path d="M279.514 858.351H277.784V860.081H279.514V858.351Z" fill="black"/>
<path d="M284.703 858.351H282.973V860.081H284.703V858.351Z" fill="black"/>
<path d="M286.432 858.351H284.703V860.081H286.432V858.351Z" fill="black"/>
<path d="M289.892 858.351H288.162V860.081H289.892V858.351Z" fill="black"/>
<path d="M291.622 858.351H289.892V860.081H291.622V858.351Z" fill="black"/>
<path d="M298.541 858.351H296.811V860.081H298.541V858.351Z" fill="black"/>
<path d="M243.189 860.081H241.459V861.811H243.189V860.081Z" fill="black"/>
<path d="M253.568 860.081H251.838V861.811H253.568V860.081Z" fill="black"/>
<path d="M262.216 860.081H260.486V861.811H262.216V860.081Z" fill="black"/>
<path d="M265.676 860.081H263.946V861.811H265.676V860.081Z" fill="black"/>
<path d="M269.135 860.081H267.405V861.811H269.135V860.081Z" fill="black"/>
<path d="M279.514 860.081H277.784V861.811H279.514V860.081Z" fill="black"/>
<path d="M281.243 860.081H279.514V861.811H281.243V860.081Z" fill="black"/>
<path d="M284.703 860.081H282.973V861.811H284.703V860.081Z" fill="black"/>
<path d="M286.432 860.081H284.703V861.811H286.432V860.081Z" fill="black"/>
<path d="M289.892 860.081H288.162V861.811H289.892V860.081Z" fill="black"/>
<path d="M295.081 860.081H293.351V861.811H295.081V860.081Z" fill="black"/>
<path d="M296.811 860.081H295.081V861.811H296.811V860.081Z" fill="black"/>
<path d="M243.189 861.811H241.459V863.541H243.189V861.811Z" fill="black"/>
<path d="M244.919 861.811H243.189V863.541H244.919V861.811Z" fill="black"/>
<path d="M246.649 861.811H244.919V863.541H246.649V861.811Z" fill="black"/>
<path d="M248.378 861.811H246.649V863.541H248.378V861.811Z" fill="black"/>
<path d="M250.108 861.811H248.378V863.541H250.108V861.811Z" fill="black"/>
<path d="M251.838 861.811H250.108V863.541H251.838V861.811Z" fill="black"/>
<path d="M253.568 861.811H251.838V863.541H253.568V861.811Z" fill="black"/>
<path d="M260.486 861.811H258.757V863.541H260.486V861.811Z" fill="black"/>
<path d="M262.216 861.811H260.486V863.541H262.216V861.811Z" fill="black"/>
<path d="M263.946 861.811H262.216V863.541H263.946V861.811Z" fill="black"/>
<path d="M269.135 861.811H267.405V863.541H269.135V861.811Z" fill="black"/>
<path d="M279.514 861.811H277.784V863.541H279.514V861.811Z" fill="black"/>
<path d="M282.973 861.811H281.243V863.541H282.973V861.811Z" fill="black"/>
<path d="M284.703 861.811H282.973V863.541H284.703V861.811Z" fill="black"/>
<path d="M286.432 861.811H284.703V863.541H286.432V861.811Z" fill="black"/>
<path d="M288.162 861.811H286.432V863.541H288.162V861.811Z" fill="black"/>
<path d="M289.892 861.811H288.162V863.541H289.892V861.811Z" fill="black"/>
<path d="M291.622 861.811H289.892V863.541H291.622V861.811Z" fill="black"/>
<path d="M295.081 861.811H293.351V863.541H295.081V861.811Z" fill="black"/>
<path d="M296.811 861.811H295.081V863.541H296.811V861.811Z" fill="black"/>
<path d="M298.541 861.811H296.811V863.541H298.541V861.811Z" fill="black"/>
</g>
<path d="M209.84 155.464V161.992H265.968V155.464H209.84ZM213.936 165.896V172.36H263.088V165.896H213.936ZM219.824 188.872V195.336H256.88V188.872H219.824ZM220.016 175.88V182.152H254.448V198.728H262.128V175.88H220.016ZM214.96 175.88V183.816C214.96 190.408 214.192 199.432 207.152 205.896C208.816 206.856 212.016 209.608 213.168 211.08C220.976 203.784 222.576 192.136 222.576 183.944V175.88H214.96ZM233.904 150.6V169.352H241.712V150.6H233.904ZM234.16 178.056V192.904H241.584V178.056H234.16ZM278.448 154.184V161.096H289.712V186.44H278.448V193.48H296.816V154.184H278.448ZM278.512 170.184V177.032H292.528V170.184H278.512ZM305.84 153.224V160.328H325.488V153.224H305.84ZM305.84 168.52V175.432H325.488V168.52H305.84ZM305.712 183.688V190.536H325.424V183.688H305.712ZM274.352 154.184V199.048H281.456V154.184H274.352ZM322.608 153.224V201.864C322.608 203.016 322.224 203.4 321.072 203.4C319.984 203.4 316.08 203.464 312.624 203.272C313.712 205.256 314.928 208.584 315.248 210.696C320.688 210.696 324.336 210.504 326.896 209.288C329.392 208.072 330.224 205.96 330.224 201.992V153.224H322.608ZM301.232 153.224V176.392C301.232 186.184 300.272 198.216 289.456 206.088C291.12 207.112 294.064 209.736 295.216 211.272C307.056 202.568 308.784 187.528 308.784 176.456V153.224H301.232Z" fill="url(#paint0_linear_11528_63847)"/>
<path d="M115.505 278.8V281.68H141.815V278.8H115.505ZM120.395 292.27V295.15H136.775V292.27H120.395ZM127.115 272.71V300.52H130.115V272.71H127.115ZM124.565 279.79C122.645 285.34 118.835 290.86 114.575 293.59C115.235 294.16 116.165 295.18 116.675 295.9C121.145 292.63 124.955 286.87 127.145 280.57L124.565 279.79ZM132.575 279.88L130.025 280.63C132.185 286.87 135.935 292.63 140.435 295.81C140.945 295 141.935 293.89 142.685 293.32C138.305 290.65 134.495 285.34 132.575 279.88ZM156.875 272.77C156.755 277.6 157.115 291.76 144.725 298.18C145.625 298.81 146.555 299.71 147.065 300.46C159.725 293.38 159.935 278.47 160.085 272.77H156.875ZM159.785 276.43L157.055 276.73C157.475 279.52 158.615 294.61 170.675 300.31C171.095 299.5 171.905 298.54 172.745 297.88C161.135 292.69 160.025 278.71 159.785 276.43ZM188.375 273.97V276.43H197.945V284.95H188.375V287.44H200.675V273.97H188.375ZM188.525 279.49V281.83H199.235V279.49H188.525ZM194.375 285.97L192.065 286.42C193.445 292.81 196.055 297.88 200.825 300.37C201.245 299.59 202.115 298.48 202.775 297.91C198.245 295.93 195.605 291.46 194.375 285.97ZM200.525 288.1C199.175 289.42 196.805 291.16 195.185 292.15L196.715 293.92C198.395 292.99 200.645 291.49 202.385 290.11L200.525 288.1ZM186.665 300.58C187.295 300.16 188.345 299.77 194.405 298.18C194.315 297.55 194.255 296.41 194.285 295.6L187.685 297.13L186.425 298.09L186.665 300.58ZM186.665 300.58C186.665 299.56 189.455 297.91 189.455 297.91V273.97H186.665V295.96C186.665 297.28 185.975 297.97 185.435 298.3C185.855 298.81 186.485 299.95 186.665 300.58ZM177.185 274.51V277.03H181.955V293.2H177.185V295.69H184.295V274.51H177.185ZM177.215 280.72V283.15H183.545V280.72H177.215ZM177.215 286.9V289.3H183.545V286.9H177.215ZM175.685 274.51V298.24H178.145V274.51H175.685ZM206.405 277.99V292.66H209.255V280.78H227.885V292.51H230.855V277.99H206.405ZM207.905 288.1V290.89H229.565V288.1H207.905ZM217.055 272.68V300.52H220.055V272.68H217.055ZM237.725 277.54V280.03H244.295V294.88H237.725V297.4H246.875V277.54H237.725ZM236.045 277.54V299.71H238.655V277.54H236.045ZM237.575 285.73V288.22H245.585V285.73H237.575ZM240.515 272.65C240.305 274.24 239.795 276.52 239.315 278.02L241.595 278.56C242.195 277.18 242.945 275.08 243.575 273.13L240.515 272.65ZM251.015 277.39V280H260.045V277.39H251.015ZM259.055 277.39V277.96C258.695 290.86 258.245 295.93 257.255 296.98C256.925 297.4 256.565 297.49 255.965 297.49C255.245 297.49 253.445 297.46 251.495 297.31C252.005 298.06 252.365 299.26 252.425 300.07C254.135 300.13 255.935 300.19 257.015 300.07C258.155 299.92 258.905 299.62 259.625 298.63C260.855 297.1 261.245 292.39 261.665 278.74C261.695 278.38 261.695 277.39 261.695 277.39H259.055ZM251.405 272.62C250.445 276.7 248.795 280.81 246.755 283.42C247.415 283.78 248.585 284.59 249.095 285.04C251.135 282.19 252.995 277.72 254.135 273.25L251.405 272.62ZM249.995 285.55C251.555 287.74 253.505 290.71 254.375 292.54L256.805 291.07C255.845 289.3 253.805 286.39 252.215 284.29L249.995 285.55ZM273.983 288.25V290.68H296.933V288.25H273.983ZM275.393 292.81V295.18H295.613V292.81H275.393ZM272.063 297.4V299.89H298.733V297.4H272.063ZM277.973 281.92H292.793V284.14H277.973V281.92ZM277.973 277.63H292.793V279.82H277.973V277.63ZM275.123 275.38V286.39H295.763V275.38H275.123ZM284.033 289.48V298.69H286.973V289.48H284.033ZM283.883 272.71C283.613 273.79 283.043 275.32 282.563 276.43L285.383 276.82C285.953 275.83 286.703 274.48 287.333 273.01L283.883 272.71ZM303.293 275.71V278.26H327.473V275.71H303.293ZM313.853 285.37V300.49H316.733V285.37H313.853ZM320.333 277.99C319.913 279.28 319.103 281.14 318.473 282.34L321.083 283C321.743 281.92 322.523 280.3 323.273 278.71L320.333 277.99ZM307.793 278.68C308.513 279.79 309.173 281.38 309.353 282.4L312.233 281.59C311.993 280.57 311.273 279.07 310.523 277.99L307.793 278.68ZM302.483 282.07V288.4H305.273V284.65H325.313V288.4H328.253V282.07H302.483ZM305.723 287.89V298.09H308.483V290.38H323.573V287.89H305.723ZM322.373 287.89V295.18C322.373 295.51 322.253 295.6 321.833 295.63C321.443 295.66 319.973 295.66 318.473 295.6C318.833 296.35 319.223 297.43 319.313 298.21C321.473 298.21 322.943 298.18 323.933 297.76C324.923 297.34 325.193 296.59 325.193 295.21V287.89H322.373ZM313.163 273.13C313.673 274.45 314.063 276.25 314.183 277.39L317.183 276.64C317.003 275.5 316.553 273.76 316.013 272.47L313.163 273.13ZM352.151 290.89V293.32H363.671V290.89H352.151ZM352.241 285.64V287.86H363.641V285.64H352.241ZM352.241 280.39V282.79H363.641V280.39H352.241ZM356.261 281.59V299.35H358.751V281.59H356.261ZM362.351 280.39V297.4C362.351 297.73 362.261 297.85 361.931 297.85C361.601 297.88 360.551 297.88 359.471 297.82C359.771 298.54 360.041 299.59 360.131 300.28C361.901 300.28 363.191 300.28 364.001 299.86C364.841 299.44 365.051 298.72 365.051 297.43V280.39H362.351ZM350.321 280.39V288.16C350.321 291.58 350.021 295.96 347.201 299.05C347.831 299.35 348.971 300.13 349.421 300.58C352.451 297.22 352.931 292.03 352.931 288.16V280.39H350.321ZM353.351 272.62C352.121 276.16 349.931 279.49 347.411 281.65C347.891 282.16 348.731 283.27 349.031 283.81C351.851 281.29 354.311 277.39 355.811 273.25L353.351 272.62ZM353.681 275.17L352.511 277.51H360.581V275.17H353.681ZM359.831 275.17V275.68C359.231 277.12 357.881 279.31 356.741 280.6C357.311 280.93 358.151 281.47 358.631 281.86C359.981 280.42 361.691 278.14 362.711 276.28L360.881 275.08L360.461 275.17H359.831ZM338.651 274.18V276.76H348.971V274.18H338.651ZM341.711 283.45V285.97H345.731V294.31H341.711V296.8H348.131V283.45H341.711ZM342.281 275.47C341.531 280.27 340.211 284.8 337.991 287.77C338.411 288.58 339.011 290.29 339.161 291.01C342.041 287.35 343.811 281.71 344.861 276.04L342.281 275.47ZM340.571 283.45V299.14H342.971V283.45H340.571ZM383.141 295.33C387.071 296.68 391.031 298.66 393.401 300.37L395.141 298.15C392.681 296.5 388.451 294.55 384.491 293.26L383.141 295.33ZM379.721 273.28C380.501 274.57 381.341 276.34 381.671 277.42L384.641 276.46C384.281 275.35 383.381 273.67 382.571 272.41L379.721 273.28ZM369.641 275.83V282.28H372.461V278.5H391.691V282.28H394.661V275.83H369.641ZM381.941 279.91C381.641 289.9 381.281 295.48 369.461 298C370.061 298.63 370.781 299.71 371.081 300.46C383.681 297.49 384.551 290.83 384.911 279.91H381.941ZM369.191 290.11V292.51H395.201V290.11H369.191ZM374.201 281.47C375.791 282.4 377.711 283.87 378.581 284.89L380.351 282.85C379.421 281.8 377.471 280.48 375.881 279.64L374.201 281.47ZM371.171 286.06C372.821 286.96 374.831 288.4 375.761 289.45L377.471 287.32C376.481 286.3 374.471 284.98 372.821 284.17L371.171 286.06ZM398.861 285.73V288.25H425.411V285.73H398.861ZM412.241 291.13V293.59H423.461V291.13H412.241ZM410.951 286.96V298.21H413.831V286.96H410.951ZM405.611 291.79L403.271 292.6C405.671 298.75 409.751 300.01 416.741 300.01H425.111C425.261 299.17 425.711 297.91 426.131 297.28C424.301 297.34 418.241 297.34 416.861 297.34C411.251 297.31 407.351 296.47 405.611 291.79ZM403.751 289.09C403.001 293.32 401.111 296.62 397.991 298.6C398.621 299.02 399.731 300.07 400.151 300.58C403.451 298.21 405.611 294.46 406.571 289.48L403.751 289.09ZM404.591 279.88H419.411V281.92H404.591V279.88ZM404.591 275.92H419.411V277.93H404.591V275.92ZM401.861 273.82V283.99H422.291V273.82H401.861ZM439.181 288.04V290.56H456.041V288.04H439.181ZM449.411 289.51L447.461 290.26C449.051 293.56 451.871 297.19 454.421 299.11C454.871 298.42 455.741 297.46 456.371 296.95C453.791 295.39 450.941 292.33 449.411 289.51ZM442.781 280.96H452.051V283.57H442.781V280.96ZM442.781 276.16H452.051V278.74H442.781V276.16ZM440.231 273.88V285.85H454.661V273.88H440.231ZM445.391 289.33C443.861 292.42 440.921 295.54 437.981 297.04C438.611 297.58 439.451 298.57 439.901 299.26C442.901 297.34 445.811 293.74 447.431 290.05L445.391 289.33ZM446.111 275.05V284.77H445.961V300.52H448.721V284.77H448.571V275.05H446.111ZM432.461 287.23V300.52H435.071V284.14L432.461 287.23ZM438.311 283.75C437.591 284.89 436.301 286.54 435.371 287.53L436.601 288.61C437.591 287.74 438.821 286.39 440.021 285.16L438.311 283.75ZM428.561 277.9V280.54H436.871V277.9H428.561ZM434.801 285.43L433.481 286.69C434.651 287.89 437.321 291.1 438.311 292.57L439.841 290.41C439.091 289.57 435.761 286.21 434.801 285.43ZM435.941 277.9V278.5C434.471 282.52 431.111 287.17 428.021 289.69C428.441 290.2 429.221 291.73 429.491 292.54C432.881 289.51 436.661 284.14 438.671 278.95L437.051 277.78L436.541 277.9H435.941ZM431.171 273.85C432.101 275.11 433.271 276.82 433.811 277.9L436.211 276.43C435.611 275.41 434.471 273.82 433.481 272.62L431.171 273.85ZM60.14 317.8C58.7 322.21 56.27 326.62 53.66 329.47C54.2 330.16 55.01 331.69 55.28 332.35C58.28 328.93 61.04 323.68 62.81 318.61L60.14 317.8ZM57.53 325.78V345.49H60.23V323.11L60.2 323.08L57.53 325.78ZM70.22 317.8V345.34H72.98V317.8H70.22ZM62.12 323.44V326.14H81.68V323.44H62.12ZM65.69 337.63V340.18H77.48V337.63H65.69ZM74.15 324.91L72.08 325.51C73.79 331.39 76.82 337.42 80.24 340.81C80.75 340.06 81.71 339.07 82.37 338.59C78.98 335.65 75.8 330.16 74.15 324.91ZM69.2 324.7C67.52 330.13 64.25 335.8 60.77 338.74C61.4 339.22 62.33 340.21 62.78 340.9C66.38 337.45 69.47 331.39 71.27 325.3L69.2 324.7ZM88.19 346.63C91.58 345.52 93.68 342.94 93.68 339.61C93.68 337.33 92.69 335.86 90.83 335.86C89.45 335.86 88.25 336.73 88.25 338.26C88.25 339.82 89.42 340.63 90.77 340.63C91.4 340.63 92 340.48 92.45 339.97L90.8 337.51L91.22 340.24C91.22 342.25 89.87 343.75 87.38 344.68L88.19 346.63ZM114.23 329.77V332.86H141.83V329.77H114.23ZM146.15 331.06C146.15 330.52 147.86 329.65 147.86 329.65V329.59C150.08 326.77 152.42 322.69 154.1 318.76L151.43 317.74C150.14 321.52 147.83 325.57 147.11 326.56C146.39 327.64 145.85 328.33 145.25 328.51C145.58 329.23 146 330.52 146.15 331.06ZM146.15 331.06C146.75 330.82 147.71 330.64 153.05 330.37C153.23 329.77 153.71 328.66 154.1 327.94L147.53 328.18L146.12 329.02L146.15 331.06ZM146.57 338.92C146.57 338.38 148.31 337.54 148.31 337.54V337.45C151.79 334.06 155.45 329.26 158.36 324.31L155.81 323.02C153.38 327.79 149.54 332.77 148.34 334.03C147.2 335.32 146.42 336.13 145.64 336.34C145.97 337.03 146.42 338.38 146.57 338.92ZM146.57 338.92C147.35 338.62 148.61 338.44 157.13 337.9C157.1 337.3 157.19 336.16 157.34 335.38L148.07 335.83L146.54 336.73L146.57 338.92ZM158.6 330.91C158.6 330.37 160.34 329.5 160.34 329.5V329.44C162.59 326.68 164.99 322.69 166.76 318.79L164.09 317.74C162.71 321.49 160.37 325.45 159.62 326.44C158.9 327.52 158.33 328.18 157.7 328.33C158.03 329.05 158.48 330.34 158.6 330.91ZM158.6 330.91C159.2 330.67 160.19 330.52 165.5 330.22C165.68 329.62 166.16 328.51 166.55 327.82L159.98 328.03L158.6 328.87V330.91ZM158.93 338.77C158.93 338.23 160.67 337.42 160.67 337.42V337.33C164.3 334.06 168.11 329.41 171.17 324.55L168.65 323.2C166.07 327.91 162.05 332.74 160.79 333.97C159.62 335.23 158.81 336.01 158.03 336.19C158.33 336.91 158.78 338.23 158.93 338.77ZM158.93 338.77C159.77 338.44 161.12 338.29 170.51 337.78C170.51 337.18 170.6 336.01 170.72 335.26L160.46 335.68L158.9 336.61L158.93 338.77ZM144.47 341.29V343.9H171.5V341.29H144.47ZM175.01 319.75V322.66H200.99V319.75H175.01ZM189.62 329.08C193.07 331.54 197.54 335.14 199.61 337.48L201.98 335.29C199.76 332.95 195.17 329.53 191.78 327.25L189.62 329.08ZM188.78 320.8C186.11 326.29 180.65 332.08 174.17 335.23C174.77 335.89 175.67 337.03 176.12 337.78C182.96 334.18 188.48 328.18 191.9 321.91L188.78 320.8ZM186.44 327.34V345.49H189.53V324.28L186.44 327.34ZM204.05 333.28L204.83 336.01C207.56 335.26 211.1 334.27 214.4 333.34L214.07 330.73C210.44 331.69 206.63 332.71 204.05 333.28ZM204.41 323.59V326.23H214.07V323.59H204.41ZM208.07 317.68V342.16C208.07 342.58 207.92 342.73 207.5 342.73C207.11 342.73 205.85 342.76 204.53 342.7C204.89 343.42 205.25 344.59 205.34 345.31C207.44 345.31 208.79 345.25 209.66 344.8C210.56 344.38 210.86 343.63 210.86 342.16V317.68H208.07ZM215.48 321.55V324.13H230.24V321.55H215.48ZM215.06 334.81V337.42H230.66V334.81H215.06ZM214.49 327.97V330.61H231.59V327.97H214.49ZM213.08 341.83V344.53H231.92V341.83H213.08ZM221.42 317.83V329.26H224.33V317.83H221.42ZM221.42 331.63V343.57H224.33V331.63H221.42ZM238.19 346.63C241.58 345.52 243.68 342.94 243.68 339.61C243.68 337.33 242.69 335.86 240.83 335.86C239.45 335.86 238.25 336.73 238.25 338.26C238.25 339.82 239.42 340.63 240.77 340.63C241.4 340.63 242 340.48 242.45 339.97L240.8 337.51L241.22 340.24C241.22 342.25 239.87 343.75 237.38 344.68L238.19 346.63ZM276.89 318.73V321.37H285.53V318.73H276.89ZM273.29 330.85V333.49H287.87V330.85H273.29ZM286.94 330.85V331.27C284.75 337.87 278.42 341.59 271.1 342.94C271.64 343.57 272.27 344.77 272.57 345.49C280.49 343.69 287.21 339.67 289.94 331.51L288.02 330.73L287.51 330.85H286.94ZM276.98 333.01L274.43 333.88C277.46 339.94 282.77 343.9 290.27 345.49C290.66 344.71 291.47 343.51 292.13 342.88C284.9 341.62 279.5 338.08 276.98 333.01ZM276.23 318.73V322.06C276.23 324.25 275.66 326.65 271.67 328.39C272.24 328.81 273.26 329.92 273.62 330.49C278.03 328.42 278.99 325.09 278.99 322.15V318.73H276.23ZM265.4 320.14C267.2 321.16 269.66 322.66 270.86 323.59L272.51 321.28C271.25 320.38 268.76 319 266.99 318.13L265.4 320.14ZM263.87 328.3C265.7 329.23 268.22 330.64 269.45 331.57L271.04 329.23C269.75 328.33 267.23 327.01 265.4 326.2L263.87 328.3ZM264.86 343.27L267.23 345.1C268.91 342.28 270.83 338.65 272.33 335.47L270.26 333.7C268.58 337.12 266.39 340.96 264.86 343.27ZM284.18 318.73V324.94C284.18 327.85 284.72 328.96 287.33 328.96C287.81 328.96 289.43 328.96 289.94 328.96C290.66 328.96 291.44 328.93 291.86 328.75C291.77 328 291.71 326.83 291.65 326.02C291.2 326.14 290.39 326.23 289.91 326.23C289.46 326.23 287.96 326.23 287.57 326.23C287.06 326.23 286.97 325.87 286.97 325V318.73H284.18ZM298.7 335.2V337.63H320.84V335.2H298.7ZM297.29 329.2V331.63H320V329.2H297.29ZM311.45 330.55V342.37C311.45 342.79 311.33 342.88 310.85 342.91C310.37 342.94 308.72 342.94 307.07 342.88C307.49 343.63 307.94 344.74 308.09 345.49C310.34 345.49 311.87 345.46 312.92 345.04C313.97 344.62 314.27 343.9 314.27 342.43V330.55H311.45ZM309.83 336.07C306.56 338.89 300.11 341.14 294.35 342.1C294.92 342.67 295.67 343.72 296.06 344.41C301.82 343.21 308.27 340.54 311.9 337.12L309.83 336.07ZM295.22 320.65V325.72H298.01V323.05H317.93V325.69H320.84V320.65H295.22ZM298.58 332.17C298.22 333.94 297.68 336.16 297.2 337.63H299.93C300.38 336.25 301.01 334.24 301.43 332.47L298.58 332.17ZM304.19 323.89C301.76 325.48 298.46 326.83 295.82 327.61L297.29 329.8C300.2 328.78 303.62 327.01 306.26 325.21L304.19 323.89ZM309.89 325.72C312.77 326.77 316.64 328.48 318.53 329.68L319.85 327.58C317.87 326.41 313.97 324.82 311.15 323.92L309.89 325.72ZM305.39 318.4C306.05 319.48 306.83 320.95 307.19 321.85L310.1 320.8C309.71 319.87 308.84 318.46 308.15 317.47L305.39 318.4ZM324.74 322.45V325.18H351.26V322.45H324.74ZM348.44 327.43C346.55 329.68 343.43 332.5 341.09 334.21L343.16 335.89C345.53 334.18 348.56 331.54 350.84 329.17L348.44 327.43ZM340.34 323.86L337.64 324.34C339.11 333.25 341.72 339.43 350.18 344.74C350.51 343.87 351.44 342.82 352.16 342.25C344.24 337.75 341.66 332.2 340.34 323.86ZM336.62 323.17C334.25 327.22 329.18 331.39 323.9 333.7C324.38 334.3 325.16 335.44 325.49 336.16C331.19 333.49 336.35 329.05 339.47 324.28L336.62 323.17ZM330.23 345.49C331.07 344.89 332.36 344.41 341.63 341.5C341.42 340.87 341.09 339.7 341 338.89L331.25 341.8L329.96 342.85L330.23 345.49ZM335.6 318.34C336.32 319.75 337.1 321.61 337.37 322.81L340.43 321.82C340.13 320.65 339.29 318.85 338.48 317.5L335.6 318.34ZM330.23 345.49C330.23 344.41 333.44 342.16 333.44 342.16V330.25H330.53V340.33C330.53 341.86 329.39 342.85 328.73 343.3C329.21 343.81 329.96 344.89 330.23 345.49ZM362.33 327.4H373.52V329.47H362.33V327.4ZM359.69 325.39V331.42H376.31V325.39H359.69ZM354.89 333.43V335.71H380.99V333.43H354.89ZM369.44 334.54L367.1 335.2C369.5 340.48 373.88 343.72 380.42 345.01C380.78 344.26 381.53 343.12 382.13 342.58C375.89 341.59 371.48 338.86 369.44 334.54ZM366.62 334.27C364.13 337.03 358.97 338.8 353.9 339.73C354.41 340.3 355.22 341.47 355.52 342.04C360.68 340.78 366.2 338.62 369.2 335.2L366.62 334.27ZM377.12 335.8C375.77 337.21 373.4 339.07 371.63 340.15L373.4 341.56C375.17 340.51 377.48 338.92 379.31 337.39L377.12 335.8ZM366.5 317.68V322.93H369.38V317.68H366.5ZM355.25 321.49V327.46H357.92V323.92H378.14V327.46H380.93V321.49H355.25ZM358.04 318.88C358.82 319.84 359.72 321.19 360.08 322.06L362.72 320.89C362.3 320.02 361.4 318.76 360.56 317.86L358.04 318.88ZM375.35 317.98C374.84 319.15 373.85 320.77 373.04 321.82L375.41 322.66C376.25 321.73 377.33 320.32 378.35 318.91L375.35 317.98ZM360.53 345.43C360.53 344.59 363.89 343.18 363.89 343.18V338.08L361.25 338.14V341.26C361.25 342.52 360.17 343.12 359.51 343.36C359.9 343.84 360.38 344.86 360.53 345.43ZM360.53 345.43C361.22 345.04 362.36 344.77 370.37 343.18C370.31 342.67 370.28 341.71 370.31 341.02L361.67 342.55L360.41 343.39L360.53 345.43ZM366.08 331.87C366.71 332.89 367.46 334.27 367.79 335.17L370.37 334.24C370.04 333.37 369.29 332.08 368.57 331.12L366.08 331.87ZM395.528 335.65C392.978 335.65 390.848 337.75 390.848 340.33C390.848 342.94 392.978 345.04 395.528 345.04C398.138 345.04 400.238 342.94 400.238 340.33C400.238 337.75 398.138 335.65 395.528 335.65ZM395.528 343.24C393.968 343.24 392.648 341.95 392.648 340.33C392.648 338.74 393.968 337.45 395.528 337.45C397.148 337.45 398.438 338.74 398.438 340.33C398.438 341.95 397.148 343.24 395.528 343.24Z" fill="white"/>
<defs>
<linearGradient id="paint0_linear_11528_63847" x1="206" y1="181" x2="334" y2="181" gradientUnits="userSpaceOnUse">
<stop stop-color="#FAE28F"/>
<stop offset="1" stop-color="#E39FF0"/>
</linearGradient>
<clipPath id="clip0_11528_63847">
<rect width="64" height="64" fill="white" transform="translate(238 803)"/>
</clipPath>
</defs>
</svg>
