<svg width="540" height="960" viewBox="0 0 540 960" fill="none" xmlns="http://www.w3.org/2000/svg">
<rect width="540" height="960" fill="#161820"/>
<rect x="428" y="265" width="41" height="43" rx="2" fill="#373A41"/>
<rect x="47" y="310" width="41" height="43" rx="2" fill="#373A41"/>
<rect x="175" y="265" width="72" height="43" rx="2" fill="#373A41"/>
<path d="M24.072 38.264C22.904 38.264 21.832 38.064 20.856 37.664C19.88 37.248 19.056 36.656 18.384 35.888L20.808 33.464C21.112 33.912 21.552 34.28 22.128 34.568C22.72 34.84 23.344 34.976 24 34.976C24.592 34.976 25.104 34.872 25.536 34.664C25.968 34.456 26.304 34.16 26.544 33.776C26.8 33.392 26.928 32.936 26.928 32.408C26.928 31.88 26.8 31.432 26.544 31.064C26.304 30.68 25.944 30.384 25.464 30.176C25 29.968 24.44 29.864 23.784 29.864C23.48 29.864 23.16 29.888 22.824 29.936C22.504 29.968 22.232 30.024 22.008 30.104L23.664 28.016C24.112 27.888 24.536 27.784 24.936 27.704C25.352 27.608 25.736 27.56 26.088 27.56C26.952 27.56 27.728 27.768 28.416 28.184C29.104 28.584 29.648 29.16 30.048 29.912C30.464 30.648 30.672 31.528 30.672 32.552C30.672 33.672 30.392 34.664 29.832 35.528C29.288 36.392 28.52 37.064 27.528 37.544C26.552 38.024 25.4 38.264 24.072 38.264ZM22.008 30.104V28.016L26.136 23.168L30.36 23.144L26.064 28.04L22.008 30.104ZM19.44 24.248V21.056H30.36V23.144L27.408 24.248H19.44ZM33.0383 38V21.056H35.6783L36.8063 24.44V38H33.0383ZM44.7263 38L34.7423 25.208L35.6783 21.056L45.6623 33.848L44.7263 38ZM44.7263 38L43.7183 34.616V21.056H47.4863V38H44.7263ZM50.757 38V21.056H54.525V38H50.757ZM53.637 38V34.736H62.925V38H53.637ZM53.637 30.92V27.776H62.085V30.92H53.637ZM53.637 24.296V21.056H62.805V24.296H53.637ZM70.4745 38L63.9465 21.056H67.9785L72.9465 34.76H71.2905L76.3305 21.056H80.3145L73.7145 38H70.4745ZM82.3039 38V21.056H86.0719V38H82.3039ZM85.1839 38V34.736H94.4719V38H85.1839ZM85.1839 30.92V27.776H93.6319V30.92H85.1839ZM85.1839 24.296V21.056H94.3519V24.296H85.1839ZM99.9495 31.016V28.232H103.526C104.278 28.232 104.854 28.04 105.254 27.656C105.67 27.272 105.878 26.752 105.878 26.096C105.878 25.488 105.678 24.984 105.278 24.584C104.878 24.184 104.302 23.984 103.55 23.984H99.9495V21.056H103.982C105.102 21.056 106.086 21.272 106.934 21.704C107.782 22.12 108.446 22.704 108.926 23.456C109.406 24.208 109.646 25.072 109.646 26.048C109.646 27.04 109.406 27.912 108.926 28.664C108.446 29.4 107.774 29.976 106.91 30.392C106.046 30.808 105.03 31.016 103.862 31.016H99.9495ZM97.0695 38V21.056H100.838V38H97.0695ZM106.286 38L101.006 30.704L104.462 29.768L110.75 38H106.286Z" fill="#FEFEFE" fill-opacity="0.54"/>
<path d="M218.324 887.86L218.696 889.252C219.944 888.952 221.54 888.544 223.016 888.16L222.848 886.84C221.24 887.236 219.5 887.644 218.324 887.86ZM218.48 884.008V885.34H222.848V884.008H218.48ZM220.076 881.872V891.532C220.076 891.7 220.016 891.76 219.848 891.76C219.692 891.76 219.188 891.76 218.72 891.748C218.888 892.108 219.08 892.684 219.116 893.056C219.968 893.056 220.544 893.02 220.952 892.792C221.36 892.588 221.492 892.228 221.492 891.532V881.872H220.076ZM222.98 890.956V892.3H228.296V890.956H222.98ZM223.352 886.66V888.088H228.308V886.66H223.352ZM223.076 882.904V884.224H227.66V892.972H229.04V882.904H223.076ZM234.308 883.372V884.668H241.52V883.372H234.308ZM235.688 881.812V886.024H237.068V881.812H235.688ZM238.712 881.812V886.024H240.104V881.812H238.712ZM234.716 886.396V893.008H236.012V887.656H239.78V892.948H241.148V886.396H234.716ZM235.448 888.796V890.02H240.392V888.796H235.448ZM235.484 891.184V892.444H240.428V891.184H235.484ZM237.224 887.02V892.12H238.52V887.02H237.224ZM230.24 887.896L230.564 889.288C231.632 888.988 232.964 888.604 234.212 888.22L234.032 886.924C232.664 887.296 231.212 887.692 230.24 887.896ZM230.432 884.092V885.412H234.08V884.092H230.432ZM231.68 881.824V891.388C231.68 891.556 231.632 891.604 231.488 891.604C231.344 891.604 230.924 891.604 230.48 891.592C230.66 891.976 230.816 892.564 230.852 892.924C231.632 892.924 232.16 892.876 232.52 892.648C232.892 892.432 233 892.06 233 891.4V881.824H231.68ZM243.644 883.468V885.052H252.356V883.468H243.644ZM242.648 890.428V892.084H253.364V890.428H242.648ZM254.78 889.972C254.78 889.732 255.644 889.336 255.644 889.336V889.3C256.784 888.112 257.96 886.468 258.836 884.86L257.732 884.164C256.94 885.832 255.716 887.536 255.308 887.98C254.936 888.424 254.672 888.7 254.36 888.772C254.516 889.108 254.72 889.72 254.78 889.972ZM254.78 889.972C255.104 889.792 255.596 889.648 258.572 889.084C258.56 888.796 258.572 888.244 258.62 887.884L255.308 888.436L254.696 888.856L254.78 889.972ZM254.684 887.044C254.684 886.804 255.428 886.384 255.428 886.384V886.348C256.28 885.292 257.156 883.78 257.732 882.376L256.436 881.776C256.028 883.18 255.224 884.68 254.96 885.064C254.696 885.448 254.492 885.712 254.252 885.772C254.408 886.132 254.624 886.78 254.684 887.044ZM254.684 887.044C254.924 886.936 255.296 886.852 257.096 886.66C257.096 886.384 257.156 885.892 257.228 885.544L255.224 885.7L254.648 886.084L254.684 887.044ZM254.384 891.184L254.648 892.552C255.86 892.228 257.444 891.82 258.932 891.412L258.788 890.212C257.18 890.584 255.488 890.98 254.384 891.184ZM260.216 886.288V887.572H265.148V886.288H260.216ZM260.24 888.592V889.876H265.172V888.592H260.24ZM260.12 890.968V892.3H265.604V890.968H260.12ZM262.304 884.404V891.676H263.636V884.404H262.304ZM260.828 883.96H260.276L259.484 884.788V893.104H260.828V885.256H265.448V883.96H260.828ZM260.456 881.848C260.084 883.24 259.28 885.052 258.368 886.144C258.56 886.492 258.86 887.14 258.992 887.5C260.204 886.132 261.2 884.08 261.836 882.244L260.456 881.848ZM261.968 882.376C262.292 882.928 262.64 883.66 262.76 884.14L264.044 883.552C263.888 883.084 263.54 882.388 263.18 881.86L261.968 882.376ZM276.008 887.02V887.236C275.816 890.152 275.552 891.34 275.264 891.64C275.132 891.772 275.012 891.796 274.82 891.796C274.592 891.796 274.136 891.796 273.632 891.736C273.848 892.096 273.992 892.636 274.016 893.032C274.592 893.044 275.132 893.044 275.468 892.996C275.852 892.96 276.14 892.84 276.416 892.504C276.848 892.048 277.1 890.752 277.352 887.584C277.364 887.404 277.388 887.02 277.388 887.02H276.008ZM271.256 882.424V883.72H275.66V882.424H271.256ZM271.832 884.188C271.748 885.484 271.58 887.176 271.4 888.232H272.756C272.9 887.224 273.08 885.568 273.176 884.26L271.832 884.188ZM271.784 887.02V888.232H276.404V887.02H271.784ZM271.016 889.396V890.668H275.312V889.396H271.016ZM275.12 882.424V882.568C275.048 883.78 274.82 886.084 274.592 887.788L275.948 887.896C276.176 886.204 276.404 884.08 276.512 882.472L275.492 882.376L275.276 882.424H275.12ZM266.516 882.34V883.648H270.836V882.34H266.516ZM267.848 886.084V887.344H269.336V890.356H267.848V891.616H270.572V886.084H267.848ZM267.908 883.012C267.608 884.836 267.092 886.576 266.24 887.704C266.444 888.124 266.696 889.036 266.756 889.42C268.004 887.932 268.76 885.592 269.216 883.312L267.908 883.012ZM267.236 886.084V892.516H268.46V886.084H267.236ZM278.456 886.54V888.112H289.568V886.54H278.456ZM291.716 881.764C291.404 882.88 290.852 883.96 290.192 884.668C290.432 884.944 290.828 885.556 290.972 885.832C291.8 884.92 292.52 883.492 292.952 882.1L291.716 881.764ZM291.74 882.928L291.476 884.224H294.008V882.928H291.74ZM291.824 893.008C292.016 892.744 292.364 892.456 294.296 891.016C294.152 890.776 293.972 890.272 293.888 889.924L291.836 891.4L291.548 891.832L291.824 893.008ZM290.996 885.208V886.444H294.02V885.208H290.996ZM290.564 887.608V888.904H294.104V887.608H290.564ZM291.824 893.008C291.824 892.54 292.916 891.616 292.916 891.616V885.796H291.752V890.704C291.752 891.292 291.356 891.796 291.104 891.988C291.332 892.216 291.704 892.72 291.824 893.008ZM298.196 881.884V891.376H299.288V881.884H298.196ZM296.624 884.26V885.304H301.616V884.26H296.624ZM296.72 889.204V890.272H301.316V889.204H296.72ZM297.008 887.512V888.58H301.088V887.512H297.008ZM294.152 882.376V883.696H295.892V882.376H294.152ZM295.64 885.892V886.108C295.508 889.168 294.86 891.316 293.468 892.192C293.708 892.444 293.984 892.9 294.152 893.212C295.844 891.988 296.576 889.816 296.744 885.94L296.06 885.88L295.856 885.892H295.64ZM294.992 887.956L294.068 888.304C295.016 892.072 296.9 892.876 299.42 892.876H301.34C301.4 892.54 301.556 891.988 301.712 891.7C301.232 891.724 299.876 891.724 299.492 891.724C297.452 891.712 295.724 891.088 294.992 887.956ZM297.056 882.676V883.648H299.96V885.94H297.056V886.912H300.944V882.676H297.056ZM294.764 885.892L294.416 887.056H295.988V885.892H294.764ZM294.392 887.296C294.392 887.068 295.244 886.684 295.244 886.684V886.66C295.808 885.652 296.432 884.164 296.876 882.712L296.132 882.22L295.7 882.4V882.46C295.4 883.768 294.788 885.196 294.596 885.556C294.404 885.94 294.056 886.324 293.828 886.384C293.996 886.6 294.284 887.056 294.392 887.296ZM302.72 882.712V883.936H313.244V882.712H302.72ZM303.488 884.668V885.88H312.704V884.668H303.488ZM304.592 888.976V890.188H311.54V888.976H304.592ZM304.628 886.54V887.716H311.084V890.824H312.524V886.54H304.628ZM303.68 886.54V888.028C303.68 889.264 303.536 890.956 302.216 892.168C302.528 892.348 303.128 892.864 303.344 893.14C304.808 891.772 305.108 889.588 305.108 888.052V886.54H303.68ZM307.232 881.8V885.316H308.696V881.8H307.232ZM307.28 886.948V889.732H308.672V886.948H307.28ZM315.584 882.472V883.768H317.696V888.52H315.584V889.84H319.028V882.472H315.584ZM315.596 885.472V886.756H318.224V885.472H315.596ZM320.72 882.292V883.624H324.404V882.292H320.72ZM320.72 885.16V886.456H324.404V885.16H320.72ZM320.696 888.004V889.288H324.392V888.004H320.696ZM314.816 882.472V890.884H316.148V882.472H314.816ZM323.864 882.292V891.412C323.864 891.628 323.792 891.7 323.576 891.7C323.372 891.7 322.64 891.712 321.992 891.676C322.196 892.048 322.424 892.672 322.484 893.068C323.504 893.068 324.188 893.032 324.668 892.804C325.136 892.576 325.292 892.18 325.292 891.436V882.292H323.864ZM319.856 882.292V886.636C319.856 888.472 319.676 890.728 317.648 892.204C317.96 892.396 318.512 892.888 318.728 893.176C320.948 891.544 321.272 888.724 321.272 886.648V882.292H319.856Z" fill="white" fill-opacity="0.69"/>
<g clip-path="url(#clip0_11531_62173)">
<path d="M302 803H238V867H302V803Z" fill="white"/>
<path d="M243.189 806.459H241.459V808.189H243.189V806.459Z" fill="black"/>
<path d="M244.919 806.459H243.189V808.189H244.919V806.459Z" fill="black"/>
<path d="M246.649 806.459H244.919V808.189H246.649V806.459Z" fill="black"/>
<path d="M248.378 806.459H246.649V808.189H248.378V806.459Z" fill="black"/>
<path d="M250.108 806.459H248.378V808.189H250.108V806.459Z" fill="black"/>
<path d="M251.838 806.459H250.108V808.189H251.838V806.459Z" fill="black"/>
<path d="M253.568 806.459H251.838V808.189H253.568V806.459Z" fill="black"/>
<path d="M257.027 806.459H255.297V808.189H257.027V806.459Z" fill="black"/>
<path d="M269.135 806.459H267.405V808.189H269.135V806.459Z" fill="black"/>
<path d="M270.865 806.459H269.135V808.189H270.865V806.459Z" fill="black"/>
<path d="M272.595 806.459H270.865V808.189H272.595V806.459Z" fill="black"/>
<path d="M277.784 806.459H276.054V808.189H277.784V806.459Z" fill="black"/>
<path d="M281.243 806.459H279.514V808.189H281.243V806.459Z" fill="black"/>
<path d="M282.973 806.459H281.243V808.189H282.973V806.459Z" fill="black"/>
<path d="M284.703 806.459H282.973V808.189H284.703V806.459Z" fill="black"/>
<path d="M288.162 806.459H286.432V808.189H288.162V806.459Z" fill="black"/>
<path d="M289.892 806.459H288.162V808.189H289.892V806.459Z" fill="black"/>
<path d="M291.622 806.459H289.892V808.189H291.622V806.459Z" fill="black"/>
<path d="M293.351 806.459H291.622V808.189H293.351V806.459Z" fill="black"/>
<path d="M295.081 806.459H293.351V808.189H295.081V806.459Z" fill="black"/>
<path d="M296.811 806.459H295.081V808.189H296.811V806.459Z" fill="black"/>
<path d="M298.541 806.459H296.811V808.189H298.541V806.459Z" fill="black"/>
<path d="M243.189 808.189H241.459V809.919H243.189V808.189Z" fill="black"/>
<path d="M253.568 808.189H251.838V809.919H253.568V808.189Z" fill="black"/>
<path d="M263.946 808.189H262.216V809.919H263.946V808.189Z" fill="black"/>
<path d="M265.676 808.189H263.946V809.919H265.676V808.189Z" fill="black"/>
<path d="M267.405 808.189H265.676V809.919H267.405V808.189Z" fill="black"/>
<path d="M270.865 808.189H269.135V809.919H270.865V808.189Z" fill="black"/>
<path d="M272.595 808.189H270.865V809.919H272.595V808.189Z" fill="black"/>
<path d="M274.324 808.189H272.595V809.919H274.324V808.189Z" fill="black"/>
<path d="M279.514 808.189H277.784V809.919H279.514V808.189Z" fill="black"/>
<path d="M281.243 808.189H279.514V809.919H281.243V808.189Z" fill="black"/>
<path d="M282.973 808.189H281.243V809.919H282.973V808.189Z" fill="black"/>
<path d="M288.162 808.189H286.432V809.919H288.162V808.189Z" fill="black"/>
<path d="M298.541 808.189H296.811V809.919H298.541V808.189Z" fill="black"/>
<path d="M243.189 809.919H241.459V811.649H243.189V809.919Z" fill="black"/>
<path d="M246.649 809.919H244.919V811.649H246.649V809.919Z" fill="black"/>
<path d="M248.378 809.919H246.649V811.649H248.378V809.919Z" fill="black"/>
<path d="M250.108 809.919H248.378V811.649H250.108V809.919Z" fill="black"/>
<path d="M253.568 809.919H251.838V811.649H253.568V809.919Z" fill="black"/>
<path d="M258.757 809.919H257.027V811.649H258.757V809.919Z" fill="black"/>
<path d="M260.486 809.919H258.757V811.649H260.486V809.919Z" fill="black"/>
<path d="M262.216 809.919H260.486V811.649H262.216V809.919Z" fill="black"/>
<path d="M263.946 809.919H262.216V811.649H263.946V809.919Z" fill="black"/>
<path d="M277.784 809.919H276.054V811.649H277.784V809.919Z" fill="black"/>
<path d="M282.973 809.919H281.243V811.649H282.973V809.919Z" fill="black"/>
<path d="M284.703 809.919H282.973V811.649H284.703V809.919Z" fill="black"/>
<path d="M288.162 809.919H286.432V811.649H288.162V809.919Z" fill="black"/>
<path d="M291.622 809.919H289.892V811.649H291.622V809.919Z" fill="black"/>
<path d="M293.351 809.919H291.622V811.649H293.351V809.919Z" fill="black"/>
<path d="M295.081 809.919H293.351V811.649H295.081V809.919Z" fill="black"/>
<path d="M298.541 809.919H296.811V811.649H298.541V809.919Z" fill="black"/>
<path d="M243.189 811.649H241.459V813.378H243.189V811.649Z" fill="black"/>
<path d="M246.649 811.649H244.919V813.378H246.649V811.649Z" fill="black"/>
<path d="M248.378 811.649H246.649V813.378H248.378V811.649Z" fill="black"/>
<path d="M250.108 811.649H248.378V813.378H250.108V811.649Z" fill="black"/>
<path d="M253.568 811.649H251.838V813.378H253.568V811.649Z" fill="black"/>
<path d="M257.027 811.649H255.297V813.378H257.027V811.649Z" fill="black"/>
<path d="M258.757 811.649H257.027V813.378H258.757V811.649Z" fill="black"/>
<path d="M262.216 811.649H260.486V813.378H262.216V811.649Z" fill="black"/>
<path d="M263.946 811.649H262.216V813.378H263.946V811.649Z" fill="black"/>
<path d="M267.405 811.649H265.676V813.378H267.405V811.649Z" fill="black"/>
<path d="M274.324 811.649H272.595V813.378H274.324V811.649Z" fill="black"/>
<path d="M276.054 811.649H274.324V813.378H276.054V811.649Z" fill="black"/>
<path d="M288.162 811.649H286.432V813.378H288.162V811.649Z" fill="black"/>
<path d="M291.622 811.649H289.892V813.378H291.622V811.649Z" fill="black"/>
<path d="M293.351 811.649H291.622V813.378H293.351V811.649Z" fill="black"/>
<path d="M295.081 811.649H293.351V813.378H295.081V811.649Z" fill="black"/>
<path d="M298.541 811.649H296.811V813.378H298.541V811.649Z" fill="black"/>
<path d="M243.189 813.378H241.459V815.108H243.189V813.378Z" fill="black"/>
<path d="M246.649 813.378H244.919V815.108H246.649V813.378Z" fill="black"/>
<path d="M248.378 813.378H246.649V815.108H248.378V813.378Z" fill="black"/>
<path d="M250.108 813.378H248.378V815.108H250.108V813.378Z" fill="black"/>
<path d="M253.568 813.378H251.838V815.108H253.568V813.378Z" fill="black"/>
<path d="M258.757 813.378H257.027V815.108H258.757V813.378Z" fill="black"/>
<path d="M260.486 813.378H258.757V815.108H260.486V813.378Z" fill="black"/>
<path d="M263.946 813.378H262.216V815.108H263.946V813.378Z" fill="black"/>
<path d="M267.405 813.378H265.676V815.108H267.405V813.378Z" fill="black"/>
<path d="M272.595 813.378H270.865V815.108H272.595V813.378Z" fill="black"/>
<path d="M279.514 813.378H277.784V815.108H279.514V813.378Z" fill="black"/>
<path d="M281.243 813.378H279.514V815.108H281.243V813.378Z" fill="black"/>
<path d="M288.162 813.378H286.432V815.108H288.162V813.378Z" fill="black"/>
<path d="M291.622 813.378H289.892V815.108H291.622V813.378Z" fill="black"/>
<path d="M293.351 813.378H291.622V815.108H293.351V813.378Z" fill="black"/>
<path d="M295.081 813.378H293.351V815.108H295.081V813.378Z" fill="black"/>
<path d="M298.541 813.378H296.811V815.108H298.541V813.378Z" fill="black"/>
<path d="M243.189 815.108H241.459V816.838H243.189V815.108Z" fill="black"/>
<path d="M253.568 815.108H251.838V816.838H253.568V815.108Z" fill="black"/>
<path d="M260.486 815.108H258.757V816.838H260.486V815.108Z" fill="black"/>
<path d="M262.216 815.108H260.486V816.838H262.216V815.108Z" fill="black"/>
<path d="M265.676 815.108H263.946V816.838H265.676V815.108Z" fill="black"/>
<path d="M267.405 815.108H265.676V816.838H267.405V815.108Z" fill="black"/>
<path d="M274.324 815.108H272.595V816.838H274.324V815.108Z" fill="black"/>
<path d="M276.054 815.108H274.324V816.838H276.054V815.108Z" fill="black"/>
<path d="M277.784 815.108H276.054V816.838H277.784V815.108Z" fill="black"/>
<path d="M279.514 815.108H277.784V816.838H279.514V815.108Z" fill="black"/>
<path d="M281.243 815.108H279.514V816.838H281.243V815.108Z" fill="black"/>
<path d="M288.162 815.108H286.432V816.838H288.162V815.108Z" fill="black"/>
<path d="M298.541 815.108H296.811V816.838H298.541V815.108Z" fill="black"/>
<path d="M243.189 816.838H241.459V818.568H243.189V816.838Z" fill="black"/>
<path d="M244.919 816.838H243.189V818.568H244.919V816.838Z" fill="black"/>
<path d="M246.649 816.838H244.919V818.568H246.649V816.838Z" fill="black"/>
<path d="M248.378 816.838H246.649V818.568H248.378V816.838Z" fill="black"/>
<path d="M250.108 816.838H248.378V818.568H250.108V816.838Z" fill="black"/>
<path d="M251.838 816.838H250.108V818.568H251.838V816.838Z" fill="black"/>
<path d="M253.568 816.838H251.838V818.568H253.568V816.838Z" fill="black"/>
<path d="M257.027 816.838H255.297V818.568H257.027V816.838Z" fill="black"/>
<path d="M260.486 816.838H258.757V818.568H260.486V816.838Z" fill="black"/>
<path d="M263.946 816.838H262.216V818.568H263.946V816.838Z" fill="black"/>
<path d="M267.405 816.838H265.676V818.568H267.405V816.838Z" fill="black"/>
<path d="M270.865 816.838H269.135V818.568H270.865V816.838Z" fill="black"/>
<path d="M274.324 816.838H272.595V818.568H274.324V816.838Z" fill="black"/>
<path d="M277.784 816.838H276.054V818.568H277.784V816.838Z" fill="black"/>
<path d="M281.243 816.838H279.514V818.568H281.243V816.838Z" fill="black"/>
<path d="M284.703 816.838H282.973V818.568H284.703V816.838Z" fill="black"/>
<path d="M288.162 816.838H286.432V818.568H288.162V816.838Z" fill="black"/>
<path d="M289.892 816.838H288.162V818.568H289.892V816.838Z" fill="black"/>
<path d="M291.622 816.838H289.892V818.568H291.622V816.838Z" fill="black"/>
<path d="M293.351 816.838H291.622V818.568H293.351V816.838Z" fill="black"/>
<path d="M295.081 816.838H293.351V818.568H295.081V816.838Z" fill="black"/>
<path d="M296.811 816.838H295.081V818.568H296.811V816.838Z" fill="black"/>
<path d="M298.541 816.838H296.811V818.568H298.541V816.838Z" fill="black"/>
<path d="M262.216 818.568H260.486V820.297H262.216V818.568Z" fill="black"/>
<path d="M265.676 818.568H263.946V820.297H265.676V818.568Z" fill="black"/>
<path d="M267.405 818.568H265.676V820.297H267.405V818.568Z" fill="black"/>
<path d="M270.865 818.568H269.135V820.297H270.865V818.568Z" fill="black"/>
<path d="M272.595 818.568H270.865V820.297H272.595V818.568Z" fill="black"/>
<path d="M277.784 818.568H276.054V820.297H277.784V818.568Z" fill="black"/>
<path d="M279.514 818.568H277.784V820.297H279.514V818.568Z" fill="black"/>
<path d="M284.703 818.568H282.973V820.297H284.703V818.568Z" fill="black"/>
<path d="M246.649 820.297H244.919V822.027H246.649V820.297Z" fill="black"/>
<path d="M250.108 820.297H248.378V822.027H250.108V820.297Z" fill="black"/>
<path d="M251.838 820.297H250.108V822.027H251.838V820.297Z" fill="black"/>
<path d="M253.568 820.297H251.838V822.027H253.568V820.297Z" fill="black"/>
<path d="M257.027 820.297H255.297V822.027H257.027V820.297Z" fill="black"/>
<path d="M258.757 820.297H257.027V822.027H258.757V820.297Z" fill="black"/>
<path d="M265.676 820.297H263.946V822.027H265.676V820.297Z" fill="black"/>
<path d="M270.865 820.297H269.135V822.027H270.865V820.297Z" fill="black"/>
<path d="M272.595 820.297H270.865V822.027H272.595V820.297Z" fill="black"/>
<path d="M274.324 820.297H272.595V822.027H274.324V820.297Z" fill="black"/>
<path d="M279.514 820.297H277.784V822.027H279.514V820.297Z" fill="black"/>
<path d="M282.973 820.297H281.243V822.027H282.973V820.297Z" fill="black"/>
<path d="M284.703 820.297H282.973V822.027H284.703V820.297Z" fill="black"/>
<path d="M286.432 820.297H284.703V822.027H286.432V820.297Z" fill="black"/>
<path d="M293.351 820.297H291.622V822.027H293.351V820.297Z" fill="black"/>
<path d="M298.541 820.297H296.811V822.027H298.541V820.297Z" fill="black"/>
<path d="M246.649 822.027H244.919V823.757H246.649V822.027Z" fill="black"/>
<path d="M250.108 822.027H248.378V823.757H250.108V822.027Z" fill="black"/>
<path d="M255.297 822.027H253.568V823.757H255.297V822.027Z" fill="black"/>
<path d="M258.757 822.027H257.027V823.757H258.757V822.027Z" fill="black"/>
<path d="M260.486 822.027H258.757V823.757H260.486V822.027Z" fill="black"/>
<path d="M262.216 822.027H260.486V823.757H262.216V822.027Z" fill="black"/>
<path d="M263.946 822.027H262.216V823.757H263.946V822.027Z" fill="black"/>
<path d="M276.054 822.027H274.324V823.757H276.054V822.027Z" fill="black"/>
<path d="M279.514 822.027H277.784V823.757H279.514V822.027Z" fill="black"/>
<path d="M284.703 822.027H282.973V823.757H284.703V822.027Z" fill="black"/>
<path d="M288.162 822.027H286.432V823.757H288.162V822.027Z" fill="black"/>
<path d="M295.081 822.027H293.351V823.757H295.081V822.027Z" fill="black"/>
<path d="M296.811 822.027H295.081V823.757H296.811V822.027Z" fill="black"/>
<path d="M298.541 822.027H296.811V823.757H298.541V822.027Z" fill="black"/>
<path d="M251.838 823.757H250.108V825.486H251.838V823.757Z" fill="black"/>
<path d="M253.568 823.757H251.838V825.486H253.568V823.757Z" fill="black"/>
<path d="M257.027 823.757H255.297V825.486H257.027V823.757Z" fill="black"/>
<path d="M258.757 823.757H257.027V825.486H258.757V823.757Z" fill="black"/>
<path d="M260.486 823.757H258.757V825.486H260.486V823.757Z" fill="black"/>
<path d="M263.946 823.757H262.216V825.486H263.946V823.757Z" fill="black"/>
<path d="M265.676 823.757H263.946V825.486H265.676V823.757Z" fill="black"/>
<path d="M270.865 823.757H269.135V825.486H270.865V823.757Z" fill="black"/>
<path d="M274.324 823.757H272.595V825.486H274.324V823.757Z" fill="black"/>
<path d="M277.784 823.757H276.054V825.486H277.784V823.757Z" fill="black"/>
<path d="M281.243 823.757H279.514V825.486H281.243V823.757Z" fill="black"/>
<path d="M284.703 823.757H282.973V825.486H284.703V823.757Z" fill="black"/>
<path d="M286.432 823.757H284.703V825.486H286.432V823.757Z" fill="black"/>
<path d="M291.622 823.757H289.892V825.486H291.622V823.757Z" fill="black"/>
<path d="M296.811 823.757H295.081V825.486H296.811V823.757Z" fill="black"/>
<path d="M298.541 823.757H296.811V825.486H298.541V823.757Z" fill="black"/>
<path d="M243.189 825.486H241.459V827.216H243.189V825.486Z" fill="black"/>
<path d="M246.649 825.486H244.919V827.216H246.649V825.486Z" fill="black"/>
<path d="M250.108 825.486H248.378V827.216H250.108V825.486Z" fill="black"/>
<path d="M255.297 825.486H253.568V827.216H255.297V825.486Z" fill="black"/>
<path d="M258.757 825.486H257.027V827.216H258.757V825.486Z" fill="black"/>
<path d="M260.486 825.486H258.757V827.216H260.486V825.486Z" fill="black"/>
<path d="M262.216 825.486H260.486V827.216H262.216V825.486Z" fill="black"/>
<path d="M263.946 825.486H262.216V827.216H263.946V825.486Z" fill="black"/>
<path d="M265.676 825.486H263.946V827.216H265.676V825.486Z" fill="black"/>
<path d="M269.135 825.486H267.405V827.216H269.135V825.486Z" fill="black"/>
<path d="M274.324 825.486H272.595V827.216H274.324V825.486Z" fill="black"/>
<path d="M276.054 825.486H274.324V827.216H276.054V825.486Z" fill="black"/>
<path d="M277.784 825.486H276.054V827.216H277.784V825.486Z" fill="black"/>
<path d="M279.514 825.486H277.784V827.216H279.514V825.486Z" fill="black"/>
<path d="M281.243 825.486H279.514V827.216H281.243V825.486Z" fill="black"/>
<path d="M284.703 825.486H282.973V827.216H284.703V825.486Z" fill="black"/>
<path d="M286.432 825.486H284.703V827.216H286.432V825.486Z" fill="black"/>
<path d="M296.811 825.486H295.081V827.216H296.811V825.486Z" fill="black"/>
<path d="M243.189 827.216H241.459V828.946H243.189V827.216Z" fill="black"/>
<path d="M244.919 827.216H243.189V828.946H244.919V827.216Z" fill="black"/>
<path d="M248.378 827.216H246.649V828.946H248.378V827.216Z" fill="black"/>
<path d="M250.108 827.216H248.378V828.946H250.108V827.216Z" fill="black"/>
<path d="M253.568 827.216H251.838V828.946H253.568V827.216Z" fill="black"/>
<path d="M255.297 827.216H253.568V828.946H255.297V827.216Z" fill="black"/>
<path d="M258.757 827.216H257.027V828.946H258.757V827.216Z" fill="black"/>
<path d="M260.486 827.216H258.757V828.946H260.486V827.216Z" fill="black"/>
<path d="M265.676 827.216H263.946V828.946H265.676V827.216Z" fill="black"/>
<path d="M267.405 827.216H265.676V828.946H267.405V827.216Z" fill="black"/>
<path d="M269.135 827.216H267.405V828.946H269.135V827.216Z" fill="black"/>
<path d="M274.324 827.216H272.595V828.946H274.324V827.216Z" fill="black"/>
<path d="M276.054 827.216H274.324V828.946H276.054V827.216Z" fill="black"/>
<path d="M281.243 827.216H279.514V828.946H281.243V827.216Z" fill="black"/>
<path d="M282.973 827.216H281.243V828.946H282.973V827.216Z" fill="black"/>
<path d="M284.703 827.216H282.973V828.946H284.703V827.216Z" fill="black"/>
<path d="M286.432 827.216H284.703V828.946H286.432V827.216Z" fill="black"/>
<path d="M288.162 827.216H286.432V828.946H288.162V827.216Z" fill="black"/>
<path d="M289.892 827.216H288.162V828.946H289.892V827.216Z" fill="black"/>
<path d="M291.622 827.216H289.892V828.946H291.622V827.216Z" fill="black"/>
<path d="M296.811 827.216H295.081V828.946H296.811V827.216Z" fill="black"/>
<path d="M298.541 827.216H296.811V828.946H298.541V827.216Z" fill="black"/>
<path d="M246.649 828.946H244.919V830.676H246.649V828.946Z" fill="black"/>
<path d="M248.378 828.946H246.649V830.676H248.378V828.946Z" fill="black"/>
<path d="M250.108 828.946H248.378V830.676H250.108V828.946Z" fill="black"/>
<path d="M251.838 828.946H250.108V830.676H251.838V828.946Z" fill="black"/>
<path d="M263.946 828.946H262.216V830.676H263.946V828.946Z" fill="black"/>
<path d="M265.676 828.946H263.946V830.676H265.676V828.946Z" fill="black"/>
<path d="M270.865 828.946H269.135V830.676H270.865V828.946Z" fill="black"/>
<path d="M272.595 828.946H270.865V830.676H272.595V828.946Z" fill="black"/>
<path d="M276.054 828.946H274.324V830.676H276.054V828.946Z" fill="black"/>
<path d="M277.784 828.946H276.054V830.676H277.784V828.946Z" fill="black"/>
<path d="M281.243 828.946H279.514V830.676H281.243V828.946Z" fill="black"/>
<path d="M284.703 828.946H282.973V830.676H284.703V828.946Z" fill="black"/>
<path d="M286.432 828.946H284.703V830.676H286.432V828.946Z" fill="black"/>
<path d="M288.162 828.946H286.432V830.676H288.162V828.946Z" fill="black"/>
<path d="M289.892 828.946H288.162V830.676H289.892V828.946Z" fill="black"/>
<path d="M296.811 828.946H295.081V830.676H296.811V828.946Z" fill="black"/>
<path d="M298.541 828.946H296.811V830.676H298.541V828.946Z" fill="black"/>
<path d="M243.189 830.676H241.459V832.405H243.189V830.676Z" fill="black"/>
<path d="M248.378 830.676H246.649V832.405H248.378V830.676Z" fill="black"/>
<path d="M251.838 830.676H250.108V832.405H251.838V830.676Z" fill="black"/>
<path d="M253.568 830.676H251.838V832.405H253.568V830.676Z" fill="black"/>
<path d="M257.027 830.676H255.297V832.405H257.027V830.676Z" fill="black"/>
<path d="M258.757 830.676H257.027V832.405H258.757V830.676Z" fill="black"/>
<path d="M260.486 830.676H258.757V832.405H260.486V830.676Z" fill="black"/>
<path d="M262.216 830.676H260.486V832.405H262.216V830.676Z" fill="black"/>
<path d="M274.324 830.676H272.595V832.405H274.324V830.676Z" fill="black"/>
<path d="M279.514 830.676H277.784V832.405H279.514V830.676Z" fill="black"/>
<path d="M284.703 830.676H282.973V832.405H284.703V830.676Z" fill="black"/>
<path d="M286.432 830.676H284.703V832.405H286.432V830.676Z" fill="black"/>
<path d="M288.162 830.676H286.432V832.405H288.162V830.676Z" fill="black"/>
<path d="M289.892 830.676H288.162V832.405H289.892V830.676Z" fill="black"/>
<path d="M291.622 830.676H289.892V832.405H291.622V830.676Z" fill="black"/>
<path d="M293.351 830.676H291.622V832.405H293.351V830.676Z" fill="black"/>
<path d="M295.081 830.676H293.351V832.405H295.081V830.676Z" fill="black"/>
<path d="M296.811 830.676H295.081V832.405H296.811V830.676Z" fill="black"/>
<path d="M298.541 830.676H296.811V832.405H298.541V830.676Z" fill="black"/>
<path d="M248.378 832.405H246.649V834.135H248.378V832.405Z" fill="black"/>
<path d="M250.108 832.405H248.378V834.135H250.108V832.405Z" fill="black"/>
<path d="M255.297 832.405H253.568V834.135H255.297V832.405Z" fill="black"/>
<path d="M260.486 832.405H258.757V834.135H260.486V832.405Z" fill="black"/>
<path d="M263.946 832.405H262.216V834.135H263.946V832.405Z" fill="black"/>
<path d="M265.676 832.405H263.946V834.135H265.676V832.405Z" fill="black"/>
<path d="M267.405 832.405H265.676V834.135H267.405V832.405Z" fill="black"/>
<path d="M269.135 832.405H267.405V834.135H269.135V832.405Z" fill="black"/>
<path d="M270.865 832.405H269.135V834.135H270.865V832.405Z" fill="black"/>
<path d="M277.784 832.405H276.054V834.135H277.784V832.405Z" fill="black"/>
<path d="M279.514 832.405H277.784V834.135H279.514V832.405Z" fill="black"/>
<path d="M281.243 832.405H279.514V834.135H281.243V832.405Z" fill="black"/>
<path d="M289.892 832.405H288.162V834.135H289.892V832.405Z" fill="black"/>
<path d="M293.351 832.405H291.622V834.135H293.351V832.405Z" fill="black"/>
<path d="M298.541 832.405H296.811V834.135H298.541V832.405Z" fill="black"/>
<path d="M246.649 834.135H244.919V835.865H246.649V834.135Z" fill="black"/>
<path d="M248.378 834.135H246.649V835.865H248.378V834.135Z" fill="black"/>
<path d="M251.838 834.135H250.108V835.865H251.838V834.135Z" fill="black"/>
<path d="M253.568 834.135H251.838V835.865H253.568V834.135Z" fill="black"/>
<path d="M262.216 834.135H260.486V835.865H262.216V834.135Z" fill="black"/>
<path d="M263.946 834.135H262.216V835.865H263.946V834.135Z" fill="black"/>
<path d="M270.865 834.135H269.135V835.865H270.865V834.135Z" fill="black"/>
<path d="M272.595 834.135H270.865V835.865H272.595V834.135Z" fill="black"/>
<path d="M276.054 834.135H274.324V835.865H276.054V834.135Z" fill="black"/>
<path d="M279.514 834.135H277.784V835.865H279.514V834.135Z" fill="black"/>
<path d="M281.243 834.135H279.514V835.865H281.243V834.135Z" fill="black"/>
<path d="M286.432 834.135H284.703V835.865H286.432V834.135Z" fill="black"/>
<path d="M288.162 834.135H286.432V835.865H288.162V834.135Z" fill="black"/>
<path d="M295.081 834.135H293.351V835.865H295.081V834.135Z" fill="black"/>
<path d="M243.189 835.865H241.459V837.595H243.189V835.865Z" fill="black"/>
<path d="M246.649 835.865H244.919V837.595H246.649V835.865Z" fill="black"/>
<path d="M250.108 835.865H248.378V837.595H250.108V835.865Z" fill="black"/>
<path d="M251.838 835.865H250.108V837.595H251.838V835.865Z" fill="black"/>
<path d="M255.297 835.865H253.568V837.595H255.297V835.865Z" fill="black"/>
<path d="M258.757 835.865H257.027V837.595H258.757V835.865Z" fill="black"/>
<path d="M265.676 835.865H263.946V837.595H265.676V835.865Z" fill="black"/>
<path d="M267.405 835.865H265.676V837.595H267.405V835.865Z" fill="black"/>
<path d="M269.135 835.865H267.405V837.595H269.135V835.865Z" fill="black"/>
<path d="M272.595 835.865H270.865V837.595H272.595V835.865Z" fill="black"/>
<path d="M276.054 835.865H274.324V837.595H276.054V835.865Z" fill="black"/>
<path d="M277.784 835.865H276.054V837.595H277.784V835.865Z" fill="black"/>
<path d="M288.162 835.865H286.432V837.595H288.162V835.865Z" fill="black"/>
<path d="M293.351 835.865H291.622V837.595H293.351V835.865Z" fill="black"/>
<path d="M295.081 835.865H293.351V837.595H295.081V835.865Z" fill="black"/>
<path d="M296.811 835.865H295.081V837.595H296.811V835.865Z" fill="black"/>
<path d="M298.541 835.865H296.811V837.595H298.541V835.865Z" fill="black"/>
<path d="M244.919 837.595H243.189V839.324H244.919V837.595Z" fill="black"/>
<path d="M246.649 837.595H244.919V839.324H246.649V837.595Z" fill="black"/>
<path d="M250.108 837.595H248.378V839.324H250.108V837.595Z" fill="black"/>
<path d="M251.838 837.595H250.108V839.324H251.838V837.595Z" fill="black"/>
<path d="M253.568 837.595H251.838V839.324H253.568V837.595Z" fill="black"/>
<path d="M258.757 837.595H257.027V839.324H258.757V837.595Z" fill="black"/>
<path d="M260.486 837.595H258.757V839.324H260.486V837.595Z" fill="black"/>
<path d="M262.216 837.595H260.486V839.324H262.216V837.595Z" fill="black"/>
<path d="M265.676 837.595H263.946V839.324H265.676V837.595Z" fill="black"/>
<path d="M267.405 837.595H265.676V839.324H267.405V837.595Z" fill="black"/>
<path d="M276.054 837.595H274.324V839.324H276.054V837.595Z" fill="black"/>
<path d="M279.514 837.595H277.784V839.324H279.514V837.595Z" fill="black"/>
<path d="M286.432 837.595H284.703V839.324H286.432V837.595Z" fill="black"/>
<path d="M295.081 837.595H293.351V839.324H295.081V837.595Z" fill="black"/>
<path d="M296.811 837.595H295.081V839.324H296.811V837.595Z" fill="black"/>
<path d="M298.541 837.595H296.811V839.324H298.541V837.595Z" fill="black"/>
<path d="M243.189 839.324H241.459V841.054H243.189V839.324Z" fill="black"/>
<path d="M244.919 839.324H243.189V841.054H244.919V839.324Z" fill="black"/>
<path d="M250.108 839.324H248.378V841.054H250.108V839.324Z" fill="black"/>
<path d="M255.297 839.324H253.568V841.054H255.297V839.324Z" fill="black"/>
<path d="M257.027 839.324H255.297V841.054H257.027V839.324Z" fill="black"/>
<path d="M262.216 839.324H260.486V841.054H262.216V839.324Z" fill="black"/>
<path d="M265.676 839.324H263.946V841.054H265.676V839.324Z" fill="black"/>
<path d="M269.135 839.324H267.405V841.054H269.135V839.324Z" fill="black"/>
<path d="M270.865 839.324H269.135V841.054H270.865V839.324Z" fill="black"/>
<path d="M276.054 839.324H274.324V841.054H276.054V839.324Z" fill="black"/>
<path d="M279.514 839.324H277.784V841.054H279.514V839.324Z" fill="black"/>
<path d="M286.432 839.324H284.703V841.054H286.432V839.324Z" fill="black"/>
<path d="M288.162 839.324H286.432V841.054H288.162V839.324Z" fill="black"/>
<path d="M296.811 839.324H295.081V841.054H296.811V839.324Z" fill="black"/>
<path d="M298.541 839.324H296.811V841.054H298.541V839.324Z" fill="black"/>
<path d="M243.189 841.054H241.459V842.784H243.189V841.054Z" fill="black"/>
<path d="M244.919 841.054H243.189V842.784H244.919V841.054Z" fill="black"/>
<path d="M246.649 841.054H244.919V842.784H246.649V841.054Z" fill="black"/>
<path d="M251.838 841.054H250.108V842.784H251.838V841.054Z" fill="black"/>
<path d="M253.568 841.054H251.838V842.784H253.568V841.054Z" fill="black"/>
<path d="M257.027 841.054H255.297V842.784H257.027V841.054Z" fill="black"/>
<path d="M258.757 841.054H257.027V842.784H258.757V841.054Z" fill="black"/>
<path d="M274.324 841.054H272.595V842.784H274.324V841.054Z" fill="black"/>
<path d="M276.054 841.054H274.324V842.784H276.054V841.054Z" fill="black"/>
<path d="M279.514 841.054H277.784V842.784H279.514V841.054Z" fill="black"/>
<path d="M281.243 841.054H279.514V842.784H281.243V841.054Z" fill="black"/>
<path d="M286.432 841.054H284.703V842.784H286.432V841.054Z" fill="black"/>
<path d="M293.351 841.054H291.622V842.784H293.351V841.054Z" fill="black"/>
<path d="M296.811 841.054H295.081V842.784H296.811V841.054Z" fill="black"/>
<path d="M298.541 841.054H296.811V842.784H298.541V841.054Z" fill="black"/>
<path d="M244.919 842.784H243.189V844.514H244.919V842.784Z" fill="black"/>
<path d="M246.649 842.784H244.919V844.514H246.649V842.784Z" fill="black"/>
<path d="M250.108 842.784H248.378V844.514H250.108V842.784Z" fill="black"/>
<path d="M260.486 842.784H258.757V844.514H260.486V842.784Z" fill="black"/>
<path d="M262.216 842.784H260.486V844.514H262.216V842.784Z" fill="black"/>
<path d="M263.946 842.784H262.216V844.514H263.946V842.784Z" fill="black"/>
<path d="M270.865 842.784H269.135V844.514H270.865V842.784Z" fill="black"/>
<path d="M276.054 842.784H274.324V844.514H276.054V842.784Z" fill="black"/>
<path d="M277.784 842.784H276.054V844.514H277.784V842.784Z" fill="black"/>
<path d="M281.243 842.784H279.514V844.514H281.243V842.784Z" fill="black"/>
<path d="M282.973 842.784H281.243V844.514H282.973V842.784Z" fill="black"/>
<path d="M286.432 842.784H284.703V844.514H286.432V842.784Z" fill="black"/>
<path d="M296.811 842.784H295.081V844.514H296.811V842.784Z" fill="black"/>
<path d="M298.541 842.784H296.811V844.514H298.541V842.784Z" fill="black"/>
<path d="M243.189 844.514H241.459V846.243H243.189V844.514Z" fill="black"/>
<path d="M250.108 844.514H248.378V846.243H250.108V844.514Z" fill="black"/>
<path d="M253.568 844.514H251.838V846.243H253.568V844.514Z" fill="black"/>
<path d="M255.297 844.514H253.568V846.243H255.297V844.514Z" fill="black"/>
<path d="M260.486 844.514H258.757V846.243H260.486V844.514Z" fill="black"/>
<path d="M262.216 844.514H260.486V846.243H262.216V844.514Z" fill="black"/>
<path d="M263.946 844.514H262.216V846.243H263.946V844.514Z" fill="black"/>
<path d="M265.676 844.514H263.946V846.243H265.676V844.514Z" fill="black"/>
<path d="M267.405 844.514H265.676V846.243H267.405V844.514Z" fill="black"/>
<path d="M269.135 844.514H267.405V846.243H269.135V844.514Z" fill="black"/>
<path d="M274.324 844.514H272.595V846.243H274.324V844.514Z" fill="black"/>
<path d="M276.054 844.514H274.324V846.243H276.054V844.514Z" fill="black"/>
<path d="M281.243 844.514H279.514V846.243H281.243V844.514Z" fill="black"/>
<path d="M288.162 844.514H286.432V846.243H288.162V844.514Z" fill="black"/>
<path d="M289.892 844.514H288.162V846.243H289.892V844.514Z" fill="black"/>
<path d="M293.351 844.514H291.622V846.243H293.351V844.514Z" fill="black"/>
<path d="M295.081 844.514H293.351V846.243H295.081V844.514Z" fill="black"/>
<path d="M296.811 844.514H295.081V846.243H296.811V844.514Z" fill="black"/>
<path d="M298.541 844.514H296.811V846.243H298.541V844.514Z" fill="black"/>
<path d="M244.919 846.243H243.189V847.973H244.919V846.243Z" fill="black"/>
<path d="M246.649 846.243H244.919V847.973H246.649V846.243Z" fill="black"/>
<path d="M260.486 846.243H258.757V847.973H260.486V846.243Z" fill="black"/>
<path d="M262.216 846.243H260.486V847.973H262.216V846.243Z" fill="black"/>
<path d="M267.405 846.243H265.676V847.973H267.405V846.243Z" fill="black"/>
<path d="M269.135 846.243H267.405V847.973H269.135V846.243Z" fill="black"/>
<path d="M270.865 846.243H269.135V847.973H270.865V846.243Z" fill="black"/>
<path d="M272.595 846.243H270.865V847.973H272.595V846.243Z" fill="black"/>
<path d="M274.324 846.243H272.595V847.973H274.324V846.243Z" fill="black"/>
<path d="M279.514 846.243H277.784V847.973H279.514V846.243Z" fill="black"/>
<path d="M281.243 846.243H279.514V847.973H281.243V846.243Z" fill="black"/>
<path d="M282.973 846.243H281.243V847.973H282.973V846.243Z" fill="black"/>
<path d="M286.432 846.243H284.703V847.973H286.432V846.243Z" fill="black"/>
<path d="M289.892 846.243H288.162V847.973H289.892V846.243Z" fill="black"/>
<path d="M298.541 846.243H296.811V847.973H298.541V846.243Z" fill="black"/>
<path d="M243.189 847.973H241.459V849.703H243.189V847.973Z" fill="black"/>
<path d="M246.649 847.973H244.919V849.703H246.649V847.973Z" fill="black"/>
<path d="M248.378 847.973H246.649V849.703H248.378V847.973Z" fill="black"/>
<path d="M253.568 847.973H251.838V849.703H253.568V847.973Z" fill="black"/>
<path d="M255.297 847.973H253.568V849.703H255.297V847.973Z" fill="black"/>
<path d="M257.027 847.973H255.297V849.703H257.027V847.973Z" fill="black"/>
<path d="M260.486 847.973H258.757V849.703H260.486V847.973Z" fill="black"/>
<path d="M262.216 847.973H260.486V849.703H262.216V847.973Z" fill="black"/>
<path d="M265.676 847.973H263.946V849.703H265.676V847.973Z" fill="black"/>
<path d="M269.135 847.973H267.405V849.703H269.135V847.973Z" fill="black"/>
<path d="M274.324 847.973H272.595V849.703H274.324V847.973Z" fill="black"/>
<path d="M279.514 847.973H277.784V849.703H279.514V847.973Z" fill="black"/>
<path d="M284.703 847.973H282.973V849.703H284.703V847.973Z" fill="black"/>
<path d="M286.432 847.973H284.703V849.703H286.432V847.973Z" fill="black"/>
<path d="M288.162 847.973H286.432V849.703H288.162V847.973Z" fill="black"/>
<path d="M289.892 847.973H288.162V849.703H289.892V847.973Z" fill="black"/>
<path d="M291.622 847.973H289.892V849.703H291.622V847.973Z" fill="black"/>
<path d="M298.541 847.973H296.811V849.703H298.541V847.973Z" fill="black"/>
<path d="M257.027 849.703H255.297V851.432H257.027V849.703Z" fill="black"/>
<path d="M260.486 849.703H258.757V851.432H260.486V849.703Z" fill="black"/>
<path d="M262.216 849.703H260.486V851.432H262.216V849.703Z" fill="black"/>
<path d="M269.135 849.703H267.405V851.432H269.135V849.703Z" fill="black"/>
<path d="M270.865 849.703H269.135V851.432H270.865V849.703Z" fill="black"/>
<path d="M272.595 849.703H270.865V851.432H272.595V849.703Z" fill="black"/>
<path d="M277.784 849.703H276.054V851.432H277.784V849.703Z" fill="black"/>
<path d="M282.973 849.703H281.243V851.432H282.973V849.703Z" fill="black"/>
<path d="M284.703 849.703H282.973V851.432H284.703V849.703Z" fill="black"/>
<path d="M291.622 849.703H289.892V851.432H291.622V849.703Z" fill="black"/>
<path d="M296.811 849.703H295.081V851.432H296.811V849.703Z" fill="black"/>
<path d="M298.541 849.703H296.811V851.432H298.541V849.703Z" fill="black"/>
<path d="M243.189 851.432H241.459V853.162H243.189V851.432Z" fill="black"/>
<path d="M244.919 851.432H243.189V853.162H244.919V851.432Z" fill="black"/>
<path d="M246.649 851.432H244.919V853.162H246.649V851.432Z" fill="black"/>
<path d="M248.378 851.432H246.649V853.162H248.378V851.432Z" fill="black"/>
<path d="M250.108 851.432H248.378V853.162H250.108V851.432Z" fill="black"/>
<path d="M251.838 851.432H250.108V853.162H251.838V851.432Z" fill="black"/>
<path d="M253.568 851.432H251.838V853.162H253.568V851.432Z" fill="black"/>
<path d="M258.757 851.432H257.027V853.162H258.757V851.432Z" fill="black"/>
<path d="M265.676 851.432H263.946V853.162H265.676V851.432Z" fill="black"/>
<path d="M269.135 851.432H267.405V853.162H269.135V851.432Z" fill="black"/>
<path d="M272.595 851.432H270.865V853.162H272.595V851.432Z" fill="black"/>
<path d="M274.324 851.432H272.595V853.162H274.324V851.432Z" fill="black"/>
<path d="M276.054 851.432H274.324V853.162H276.054V851.432Z" fill="black"/>
<path d="M279.514 851.432H277.784V853.162H279.514V851.432Z" fill="black"/>
<path d="M282.973 851.432H281.243V853.162H282.973V851.432Z" fill="black"/>
<path d="M284.703 851.432H282.973V853.162H284.703V851.432Z" fill="black"/>
<path d="M288.162 851.432H286.432V853.162H288.162V851.432Z" fill="black"/>
<path d="M291.622 851.432H289.892V853.162H291.622V851.432Z" fill="black"/>
<path d="M293.351 851.432H291.622V853.162H293.351V851.432Z" fill="black"/>
<path d="M295.081 851.432H293.351V853.162H295.081V851.432Z" fill="black"/>
<path d="M296.811 851.432H295.081V853.162H296.811V851.432Z" fill="black"/>
<path d="M298.541 851.432H296.811V853.162H298.541V851.432Z" fill="black"/>
<path d="M243.189 853.162H241.459V854.892H243.189V853.162Z" fill="black"/>
<path d="M253.568 853.162H251.838V854.892H253.568V853.162Z" fill="black"/>
<path d="M257.027 853.162H255.297V854.892H257.027V853.162Z" fill="black"/>
<path d="M260.486 853.162H258.757V854.892H260.486V853.162Z" fill="black"/>
<path d="M267.405 853.162H265.676V854.892H267.405V853.162Z" fill="black"/>
<path d="M269.135 853.162H267.405V854.892H269.135V853.162Z" fill="black"/>
<path d="M272.595 853.162H270.865V854.892H272.595V853.162Z" fill="black"/>
<path d="M274.324 853.162H272.595V854.892H274.324V853.162Z" fill="black"/>
<path d="M276.054 853.162H274.324V854.892H276.054V853.162Z" fill="black"/>
<path d="M282.973 853.162H281.243V854.892H282.973V853.162Z" fill="black"/>
<path d="M284.703 853.162H282.973V854.892H284.703V853.162Z" fill="black"/>
<path d="M291.622 853.162H289.892V854.892H291.622V853.162Z" fill="black"/>
<path d="M298.541 853.162H296.811V854.892H298.541V853.162Z" fill="black"/>
<path d="M243.189 854.892H241.459V856.622H243.189V854.892Z" fill="black"/>
<path d="M246.649 854.892H244.919V856.622H246.649V854.892Z" fill="black"/>
<path d="M248.378 854.892H246.649V856.622H248.378V854.892Z" fill="black"/>
<path d="M250.108 854.892H248.378V856.622H250.108V854.892Z" fill="black"/>
<path d="M253.568 854.892H251.838V856.622H253.568V854.892Z" fill="black"/>
<path d="M257.027 854.892H255.297V856.622H257.027V854.892Z" fill="black"/>
<path d="M258.757 854.892H257.027V856.622H258.757V854.892Z" fill="black"/>
<path d="M262.216 854.892H260.486V856.622H262.216V854.892Z" fill="black"/>
<path d="M263.946 854.892H262.216V856.622H263.946V854.892Z" fill="black"/>
<path d="M265.676 854.892H263.946V856.622H265.676V854.892Z" fill="black"/>
<path d="M272.595 854.892H270.865V856.622H272.595V854.892Z" fill="black"/>
<path d="M274.324 854.892H272.595V856.622H274.324V854.892Z" fill="black"/>
<path d="M276.054 854.892H274.324V856.622H276.054V854.892Z" fill="black"/>
<path d="M284.703 854.892H282.973V856.622H284.703V854.892Z" fill="black"/>
<path d="M286.432 854.892H284.703V856.622H286.432V854.892Z" fill="black"/>
<path d="M288.162 854.892H286.432V856.622H288.162V854.892Z" fill="black"/>
<path d="M289.892 854.892H288.162V856.622H289.892V854.892Z" fill="black"/>
<path d="M291.622 854.892H289.892V856.622H291.622V854.892Z" fill="black"/>
<path d="M293.351 854.892H291.622V856.622H293.351V854.892Z" fill="black"/>
<path d="M296.811 854.892H295.081V856.622H296.811V854.892Z" fill="black"/>
<path d="M243.189 856.622H241.459V858.351H243.189V856.622Z" fill="black"/>
<path d="M246.649 856.622H244.919V858.351H246.649V856.622Z" fill="black"/>
<path d="M248.378 856.622H246.649V858.351H248.378V856.622Z" fill="black"/>
<path d="M250.108 856.622H248.378V858.351H250.108V856.622Z" fill="black"/>
<path d="M253.568 856.622H251.838V858.351H253.568V856.622Z" fill="black"/>
<path d="M262.216 856.622H260.486V858.351H262.216V856.622Z" fill="black"/>
<path d="M263.946 856.622H262.216V858.351H263.946V856.622Z" fill="black"/>
<path d="M265.676 856.622H263.946V858.351H265.676V856.622Z" fill="black"/>
<path d="M269.135 856.622H267.405V858.351H269.135V856.622Z" fill="black"/>
<path d="M272.595 856.622H270.865V858.351H272.595V856.622Z" fill="black"/>
<path d="M276.054 856.622H274.324V858.351H276.054V856.622Z" fill="black"/>
<path d="M277.784 856.622H276.054V858.351H277.784V856.622Z" fill="black"/>
<path d="M282.973 856.622H281.243V858.351H282.973V856.622Z" fill="black"/>
<path d="M284.703 856.622H282.973V858.351H284.703V856.622Z" fill="black"/>
<path d="M291.622 856.622H289.892V858.351H291.622V856.622Z" fill="black"/>
<path d="M295.081 856.622H293.351V858.351H295.081V856.622Z" fill="black"/>
<path d="M243.189 858.351H241.459V860.081H243.189V858.351Z" fill="black"/>
<path d="M246.649 858.351H244.919V860.081H246.649V858.351Z" fill="black"/>
<path d="M248.378 858.351H246.649V860.081H248.378V858.351Z" fill="black"/>
<path d="M250.108 858.351H248.378V860.081H250.108V858.351Z" fill="black"/>
<path d="M253.568 858.351H251.838V860.081H253.568V858.351Z" fill="black"/>
<path d="M257.027 858.351H255.297V860.081H257.027V858.351Z" fill="black"/>
<path d="M258.757 858.351H257.027V860.081H258.757V858.351Z" fill="black"/>
<path d="M260.486 858.351H258.757V860.081H260.486V858.351Z" fill="black"/>
<path d="M262.216 858.351H260.486V860.081H262.216V858.351Z" fill="black"/>
<path d="M265.676 858.351H263.946V860.081H265.676V858.351Z" fill="black"/>
<path d="M267.405 858.351H265.676V860.081H267.405V858.351Z" fill="black"/>
<path d="M270.865 858.351H269.135V860.081H270.865V858.351Z" fill="black"/>
<path d="M276.054 858.351H274.324V860.081H276.054V858.351Z" fill="black"/>
<path d="M277.784 858.351H276.054V860.081H277.784V858.351Z" fill="black"/>
<path d="M279.514 858.351H277.784V860.081H279.514V858.351Z" fill="black"/>
<path d="M284.703 858.351H282.973V860.081H284.703V858.351Z" fill="black"/>
<path d="M286.432 858.351H284.703V860.081H286.432V858.351Z" fill="black"/>
<path d="M289.892 858.351H288.162V860.081H289.892V858.351Z" fill="black"/>
<path d="M291.622 858.351H289.892V860.081H291.622V858.351Z" fill="black"/>
<path d="M298.541 858.351H296.811V860.081H298.541V858.351Z" fill="black"/>
<path d="M243.189 860.081H241.459V861.811H243.189V860.081Z" fill="black"/>
<path d="M253.568 860.081H251.838V861.811H253.568V860.081Z" fill="black"/>
<path d="M262.216 860.081H260.486V861.811H262.216V860.081Z" fill="black"/>
<path d="M265.676 860.081H263.946V861.811H265.676V860.081Z" fill="black"/>
<path d="M269.135 860.081H267.405V861.811H269.135V860.081Z" fill="black"/>
<path d="M279.514 860.081H277.784V861.811H279.514V860.081Z" fill="black"/>
<path d="M281.243 860.081H279.514V861.811H281.243V860.081Z" fill="black"/>
<path d="M284.703 860.081H282.973V861.811H284.703V860.081Z" fill="black"/>
<path d="M286.432 860.081H284.703V861.811H286.432V860.081Z" fill="black"/>
<path d="M289.892 860.081H288.162V861.811H289.892V860.081Z" fill="black"/>
<path d="M295.081 860.081H293.351V861.811H295.081V860.081Z" fill="black"/>
<path d="M296.811 860.081H295.081V861.811H296.811V860.081Z" fill="black"/>
<path d="M243.189 861.811H241.459V863.541H243.189V861.811Z" fill="black"/>
<path d="M244.919 861.811H243.189V863.541H244.919V861.811Z" fill="black"/>
<path d="M246.649 861.811H244.919V863.541H246.649V861.811Z" fill="black"/>
<path d="M248.378 861.811H246.649V863.541H248.378V861.811Z" fill="black"/>
<path d="M250.108 861.811H248.378V863.541H250.108V861.811Z" fill="black"/>
<path d="M251.838 861.811H250.108V863.541H251.838V861.811Z" fill="black"/>
<path d="M253.568 861.811H251.838V863.541H253.568V861.811Z" fill="black"/>
<path d="M260.486 861.811H258.757V863.541H260.486V861.811Z" fill="black"/>
<path d="M262.216 861.811H260.486V863.541H262.216V861.811Z" fill="black"/>
<path d="M263.946 861.811H262.216V863.541H263.946V861.811Z" fill="black"/>
<path d="M269.135 861.811H267.405V863.541H269.135V861.811Z" fill="black"/>
<path d="M279.514 861.811H277.784V863.541H279.514V861.811Z" fill="black"/>
<path d="M282.973 861.811H281.243V863.541H282.973V861.811Z" fill="black"/>
<path d="M284.703 861.811H282.973V863.541H284.703V861.811Z" fill="black"/>
<path d="M286.432 861.811H284.703V863.541H286.432V861.811Z" fill="black"/>
<path d="M288.162 861.811H286.432V863.541H288.162V861.811Z" fill="black"/>
<path d="M289.892 861.811H288.162V863.541H289.892V861.811Z" fill="black"/>
<path d="M291.622 861.811H289.892V863.541H291.622V861.811Z" fill="black"/>
<path d="M295.081 861.811H293.351V863.541H295.081V861.811Z" fill="black"/>
<path d="M296.811 861.811H295.081V863.541H296.811V861.811Z" fill="black"/>
<path d="M298.541 861.811H296.811V863.541H298.541V861.811Z" fill="black"/>
</g>
<path d="M209.84 155.464V161.992H265.968V155.464H209.84ZM213.936 165.896V172.36H263.088V165.896H213.936ZM219.824 188.872V195.336H256.88V188.872H219.824ZM220.016 175.88V182.152H254.448V198.728H262.128V175.88H220.016ZM214.96 175.88V183.816C214.96 190.408 214.192 199.432 207.152 205.896C208.816 206.856 212.016 209.608 213.168 211.08C220.976 203.784 222.576 192.136 222.576 183.944V175.88H214.96ZM233.904 150.6V169.352H241.712V150.6H233.904ZM234.16 178.056V192.904H241.584V178.056H234.16ZM278.448 154.184V161.096H289.712V186.44H278.448V193.48H296.816V154.184H278.448ZM278.512 170.184V177.032H292.528V170.184H278.512ZM305.84 153.224V160.328H325.488V153.224H305.84ZM305.84 168.52V175.432H325.488V168.52H305.84ZM305.712 183.688V190.536H325.424V183.688H305.712ZM274.352 154.184V199.048H281.456V154.184H274.352ZM322.608 153.224V201.864C322.608 203.016 322.224 203.4 321.072 203.4C319.984 203.4 316.08 203.464 312.624 203.272C313.712 205.256 314.928 208.584 315.248 210.696C320.688 210.696 324.336 210.504 326.896 209.288C329.392 208.072 330.224 205.96 330.224 201.992V153.224H322.608ZM301.232 153.224V176.392C301.232 186.184 300.272 198.216 289.456 206.088C291.12 207.112 294.064 209.736 295.216 211.272C307.056 202.568 308.784 187.528 308.784 176.456V153.224H301.232Z" fill="url(#paint0_linear_11531_62173)"/>
<path d="M133.115 283.87V286.45H141.965V283.87H133.115ZM133.115 290.53V293.11H142.235V290.53H133.115ZM131.225 278.41V300.55H134.045V278.41H131.225ZM129.515 272.65C128.555 276.73 126.905 280.81 124.805 283.39C125.405 283.9 126.485 285.01 126.935 285.55C129.215 282.55 131.135 277.9 132.335 273.28L129.515 272.65ZM128.915 277.51L127.865 280.15H142.655V277.51H128.915ZM117.215 275.08V277.63H122.285V292.45H117.215V295H124.985V275.08H117.215ZM117.275 283.63V286.15H123.545V283.63H117.275ZM115.775 275.08V297.31H118.475V275.08H115.775ZM159.845 272.71C158.795 275.47 156.815 278.83 153.785 281.32C154.415 281.68 155.315 282.58 155.735 283.18C159.065 280.24 161.225 276.58 162.605 273.16L159.845 272.71ZM160.145 275.29L158.705 277.66H166.655V275.29H160.145ZM162.425 281.11C162.065 289.33 161.465 295.42 151.745 298.3C152.375 298.87 153.125 299.92 153.425 300.64C163.685 297.25 164.675 290.32 165.125 281.11H162.425ZM163.745 288.49V296.62C163.745 299.26 164.345 300.04 166.835 300.04C167.345 300.04 169.175 300.04 169.715 300.04C171.815 300.04 172.505 298.99 172.775 294.85C172.055 294.64 170.915 294.22 170.375 293.77C170.285 297.07 170.165 297.52 169.445 297.52C169.025 297.52 167.555 297.52 167.255 297.52C166.535 297.52 166.415 297.43 166.415 296.59V288.49H163.745ZM147.215 274.93V277.45H151.745V292.24H147.215V294.76H154.325V274.93H147.215ZM147.275 283.48V285.97H152.855V283.48H147.275ZM145.775 274.93V297.1H148.325V274.93H145.775ZM158.675 282.73H168.875V287.5H158.675V282.73ZM156.185 280.36V289.87H171.515V280.36H156.185ZM165.725 275.29V275.77C165.155 277.18 163.985 279.31 162.905 280.63C163.475 280.9 164.315 281.41 164.825 281.8C166.025 280.39 167.585 278.17 168.455 276.31L166.715 275.17L166.295 275.29H165.725ZM194.483 282.1V284.95H206.873V282.1H194.483ZM181.793 296.23V299.08H208.973V296.23H181.793ZM192.863 273.1V297.79H195.893V273.1H192.863ZM222.743 280.96C222.293 285.76 221.393 292.21 220.613 296.08H223.373C224.003 292.33 224.873 285.91 225.413 280.96H222.743ZM227.183 284.17C228.353 285.13 229.703 286.48 230.303 287.41L231.893 286.3C231.233 285.4 229.853 284.08 228.713 283.18L227.183 284.17ZM226.403 290.47C227.633 291.49 229.133 292.99 229.823 293.98L231.473 292.81C230.753 291.85 229.223 290.41 227.993 289.45L226.403 290.47ZM223.103 275.92V278.5H238.613V275.92H223.103ZM223.913 280.96V283.42H235.553V280.96H223.913ZM218.963 287.05V289.63H239.393V287.05H218.963ZM222.053 293.65V296.08H238.583V293.65H222.053ZM223.463 272.65C222.413 276.1 220.583 279.58 218.513 281.8C219.203 282.16 220.403 282.91 220.973 283.36C222.983 280.93 224.963 277.12 226.223 273.37L223.463 272.65ZM234.743 280.96V281.53C234.353 292.54 233.843 296.62 233.033 297.55C232.733 297.91 232.433 298 231.923 298C231.323 298 230.033 297.97 228.563 297.85C228.983 298.51 229.253 299.53 229.313 300.22C230.753 300.31 232.223 300.34 233.093 300.22C234.053 300.1 234.743 299.86 235.373 299.02C236.393 297.73 236.873 293.74 237.323 282.25C237.353 281.86 237.383 280.96 237.383 280.96H234.743ZM213.173 275.05C214.973 275.95 217.253 277.36 218.393 278.35L220.043 276.19C218.873 275.23 216.533 273.91 214.763 273.13L213.173 275.05ZM211.523 283.69C213.233 284.56 215.423 285.94 216.443 286.93L218.063 284.77C216.983 283.81 214.793 282.55 213.083 281.77L211.523 283.69ZM212.393 298.48L214.883 300.04C216.173 297.16 217.613 293.5 218.723 290.32L216.563 288.76C215.303 292.24 213.623 296.14 212.393 298.48ZM251.201 277.54V280.03H257.771V294.88H251.201V297.4H260.351V277.54H251.201ZM249.521 277.54V299.71H252.131V277.54H249.521ZM251.051 285.73V288.22H259.061V285.73H251.051ZM253.991 272.65C253.781 274.24 253.271 276.52 252.791 278.02L255.071 278.56C255.671 277.18 256.421 275.08 257.051 273.13L253.991 272.65ZM264.491 277.39V280H273.521V277.39H264.491ZM272.531 277.39V277.96C272.171 290.86 271.721 295.93 270.731 296.98C270.401 297.4 270.041 297.49 269.441 297.49C268.721 297.49 266.921 297.46 264.971 297.31C265.481 298.06 265.841 299.26 265.901 300.07C267.611 300.13 269.411 300.19 270.491 300.07C271.631 299.92 272.381 299.62 273.101 298.63C274.331 297.1 274.721 292.39 275.141 278.74C275.171 278.38 275.171 277.39 275.171 277.39H272.531ZM264.881 272.62C263.921 276.7 262.271 280.81 260.231 283.42C260.891 283.78 262.061 284.59 262.571 285.04C264.611 282.19 266.471 277.72 267.611 273.25L264.881 272.62ZM263.471 285.55C265.031 287.74 266.981 290.71 267.851 292.54L270.281 291.07C269.321 289.3 267.281 286.39 265.691 284.29L263.471 285.55ZM288.881 288.64V300.52H291.491V291.25H301.451V300.37H304.181V288.64H288.881ZM302.501 272.74C299.171 274 293.291 274.96 288.131 275.5C288.431 276.13 288.821 277.24 288.941 277.93C294.281 277.42 300.461 276.49 304.721 274.96L302.501 272.74ZM295.211 275.68V290.14H297.911V275.68H295.211ZM286.841 281.47V284.17H305.951V281.47H286.841ZM290.711 296.68V299.26H302.651V296.68H290.711ZM279.731 275.11C281.531 276.1 284.051 277.54 285.281 278.44L286.961 276.13C285.671 275.29 283.091 273.94 281.321 273.07L279.731 275.11ZM278.261 283.39C280.091 284.35 282.611 285.79 283.841 286.63L285.431 284.29C284.141 283.45 281.561 282.13 279.821 281.29L278.261 283.39ZM278.861 298.24L281.261 300.16C283.061 297.31 285.071 293.71 286.661 290.53L284.591 288.67C282.821 292.09 280.481 295.96 278.861 298.24ZM322.271 279.43V282.16H334.211V279.43H322.271ZM332.771 279.43V280.06C332.471 291.76 332.111 296.05 331.331 297.01C331.001 297.37 330.701 297.46 330.191 297.46C329.531 297.46 328.091 297.46 326.501 297.31C327.011 298.09 327.311 299.29 327.371 300.1C328.961 300.19 330.551 300.19 331.481 300.07C332.501 299.92 333.131 299.65 333.791 298.75C334.841 297.4 335.171 293.08 335.531 280.78C335.531 280.42 335.561 279.43 335.561 279.43H332.771ZM326.231 273.22C326.201 283.45 326.261 293.17 320.651 298.39C321.371 298.84 322.331 299.83 322.811 300.49C328.841 294.67 328.991 284.2 329.021 273.22H326.231ZM309.671 275.08V277.6H321.371V275.08H309.671ZM308.651 282.16V284.74H321.911V282.16H308.651ZM317.381 287.68C318.491 290.35 319.721 293.92 320.171 296.02L322.661 295.21C322.121 293.14 320.831 289.66 319.691 287.05L317.381 287.68ZM309.821 297.04C310.631 296.53 311.891 296.14 321.041 293.95C320.891 293.35 320.711 292.27 320.651 291.52L310.871 293.68L309.551 294.64L309.821 297.04ZM309.791 297.01C309.791 296.47 311.711 295.51 311.711 295.51V295.45C313.211 292.42 314.801 288.04 315.701 284.05L312.911 283.21C312.251 287.05 310.781 291.31 310.331 292.39C309.821 293.53 309.431 294.28 308.891 294.43C309.221 295.15 309.641 296.47 309.791 297.01ZM338.861 285.73V288.25H365.411V285.73H338.861ZM352.241 291.13V293.59H363.461V291.13H352.241ZM350.951 286.96V298.21H353.831V286.96H350.951ZM345.611 291.79L343.271 292.6C345.671 298.75 349.751 300.01 356.741 300.01H365.111C365.261 299.17 365.711 297.91 366.131 297.28C364.301 297.34 358.241 297.34 356.861 297.34C351.251 297.31 347.351 296.47 345.611 291.79ZM343.751 289.09C343.001 293.32 341.111 296.62 337.991 298.6C338.621 299.02 339.731 300.07 340.151 300.58C343.451 298.21 345.611 294.46 346.571 289.48L343.751 289.09ZM344.591 279.88H359.411V281.92H344.591V279.88ZM344.591 275.92H359.411V277.93H344.591V275.92ZM341.861 273.82V283.99H362.291V273.82H341.861ZM368.981 278.8V281.68H395.291V278.8H368.981ZM373.871 292.27V295.15H390.251V292.27H373.871ZM380.591 272.71V300.52H383.591V272.71H380.591ZM378.041 279.79C376.121 285.34 372.311 290.86 368.051 293.59C368.711 294.16 369.641 295.18 370.151 295.9C374.621 292.63 378.431 286.87 380.621 280.57L378.041 279.79ZM386.051 279.88L383.501 280.63C385.661 286.87 389.411 292.63 393.911 295.81C394.421 295 395.411 293.89 396.161 293.32C391.781 290.65 387.971 285.34 386.051 279.88ZM410.351 272.77C410.231 277.6 410.591 291.76 398.201 298.18C399.101 298.81 400.031 299.71 400.541 300.46C413.201 293.38 413.411 278.47 413.561 272.77H410.351ZM413.261 276.43L410.531 276.73C410.951 279.52 412.091 294.61 424.151 300.31C424.571 299.5 425.381 298.54 426.221 297.88C414.611 292.69 413.501 278.71 413.261 276.43ZM437.609 276.28V278.68H460.469V276.28H437.609ZM441.179 279.46C442.019 280.9 442.829 282.85 443.129 284.05L445.859 283.3C445.529 282.07 444.629 280.18 443.759 278.8L441.179 279.46ZM453.689 278.95C453.149 280.54 452.099 282.82 451.259 284.26L453.809 284.83C454.679 283.45 455.699 281.41 456.599 279.49L453.689 278.95ZM435.869 283.3V285.82H461.819V283.3H435.869ZM436.589 288.58V291.1H461.369V288.58H436.589ZM446.279 273.31C446.999 274.66 447.689 276.43 447.959 277.57L450.899 276.79C450.629 275.68 449.849 273.91 449.099 272.65L446.279 273.31ZM441.509 292.03C440.369 294.16 438.359 296.32 436.319 297.7C437.009 298.12 438.179 298.93 438.719 299.41C440.669 297.82 442.889 295.33 444.269 292.84L441.509 292.03ZM452.969 293.23C454.949 295.09 457.289 297.73 458.339 299.38L460.859 297.82C459.719 296.14 457.289 293.62 455.339 291.85L452.969 293.23ZM447.509 285.25V297.43C447.509 297.82 447.359 297.94 446.939 297.94C446.489 297.97 444.929 297.97 443.429 297.91C443.819 298.66 444.209 299.74 444.359 300.49C446.549 300.52 448.049 300.49 449.069 300.07C450.119 299.65 450.419 298.96 450.419 297.49V285.25H447.509ZM59.54 328.3V330.94H76.49V328.3H59.54ZM59.54 334.78V337.42H76.49V334.78H59.54ZM59.54 341.29V343.93H76.49V341.29H59.54ZM57.62 321.7V345.55H60.5V324.43H75.8V345.43H78.8V321.7H57.62ZM66.29 317.65C66.02 319.15 65.45 321.28 64.91 322.72L67.49 323.2C68.15 321.88 68.96 319.93 69.65 318.04L66.29 317.65ZM101.228 342.34V344.92H118.598V342.34H101.228ZM105.608 326.8V329.35H115.118V326.8H105.608ZM105.638 334.54V337.06H115.148V334.54H105.638ZM104.078 319.18V343.69H106.778V321.76H113.258V343.69H116.078V319.18H104.078ZM91.9583 337.72C91.9583 337.21 93.7283 336.4 93.7283 336.4V336.34C96.7583 333.46 99.8483 329.44 102.338 325.39L100.118 323.98C97.8983 328.09 94.5983 332.26 93.5483 333.34C92.5583 334.42 91.8083 335.14 91.1183 335.29C91.4183 335.95 91.8383 337.18 91.9583 337.72ZM91.9583 337.72C92.6783 337.33 93.8183 337 101.828 335.41C101.798 334.87 101.798 333.82 101.888 333.1L93.0983 334.66L91.8083 335.56L91.9583 337.72ZM91.7483 330.46C91.7483 329.95 93.3383 329.08 93.3383 329.08V328.99C95.5583 326.32 97.8083 322.48 99.4283 318.82L96.8783 317.62C95.6183 321.22 93.3983 325.09 92.6783 326.05C91.9883 327.07 91.4483 327.73 90.8783 327.88C91.1783 328.6 91.5983 329.92 91.7483 330.46ZM91.7483 330.46C92.2883 330.19 93.1883 329.98 98.3183 329.38C98.3183 328.81 98.4383 327.82 98.5583 327.13L92.9183 327.67L91.6883 328.48L91.7483 330.46ZM91.1183 341.02L91.6583 343.72C94.5083 342.97 98.2283 342.01 101.798 341.05L101.498 338.68C97.6883 339.58 93.7283 340.51 91.1183 341.02ZM121.778 337.99C121.778 337.48 123.578 336.64 123.578 336.64V336.58C126.548 333.67 129.578 329.65 131.978 325.6L129.668 324.19C127.568 328.27 124.328 332.44 123.278 333.52C122.318 334.63 121.628 335.32 120.908 335.47C121.208 336.19 121.628 337.45 121.778 337.99ZM121.778 337.99C122.528 337.57 123.668 337.24 131.648 335.68C131.588 335.08 131.618 333.97 131.678 333.22L122.918 334.78L121.598 335.71L121.778 337.99ZM121.568 330.73C121.568 330.19 123.188 329.29 123.188 329.29V329.2C125.378 326.53 127.628 322.66 129.188 319L126.458 317.77C125.288 321.34 123.098 325.21 122.438 326.2C121.778 327.22 121.238 327.88 120.638 328.03C120.968 328.78 121.418 330.16 121.568 330.73ZM121.568 330.73C122.108 330.46 122.978 330.28 127.928 329.68C127.928 329.11 128.048 328.12 128.168 327.43L122.738 327.94L121.508 328.75L121.568 330.73ZM120.818 341.23L121.358 344.02C124.268 343.27 128.078 342.34 131.738 341.41L131.468 338.92C127.538 339.82 123.488 340.69 120.818 341.23ZM135.578 322.42H143.768V330.76H135.578V322.42ZM132.788 319.72V333.46H146.678V319.72H132.788ZM141.608 337C143.198 339.64 144.848 343.15 145.478 345.31L148.298 344.2C147.668 342.04 145.868 338.65 144.218 336.07L141.608 337ZM134.798 336.16C133.958 339.13 132.428 342.04 130.448 343.87C131.168 344.26 132.428 345.07 132.968 345.52C134.948 343.45 136.748 340.18 137.768 336.82L134.798 336.16ZM153.818 322.54V325.03H160.388V339.88H153.818V342.4H162.968V322.54H153.818ZM152.138 322.54V344.71H154.748V322.54H152.138ZM153.668 330.73V333.22H161.678V330.73H153.668ZM156.608 317.65C156.398 319.24 155.888 321.52 155.408 323.02L157.688 323.56C158.288 322.18 159.038 320.08 159.668 318.13L156.608 317.65ZM167.108 322.39V325H176.138V322.39H167.108ZM175.148 322.39V322.96C174.788 335.86 174.338 340.93 173.348 341.98C173.018 342.4 172.658 342.49 172.058 342.49C171.338 342.49 169.538 342.46 167.588 342.31C168.098 343.06 168.458 344.26 168.518 345.07C170.228 345.13 172.028 345.19 173.108 345.07C174.248 344.92 174.998 344.62 175.718 343.63C176.948 342.1 177.338 337.39 177.758 323.74C177.788 323.38 177.788 322.39 177.788 322.39H175.148ZM167.498 317.62C166.538 321.7 164.888 325.81 162.848 328.42C163.508 328.78 164.678 329.59 165.188 330.04C167.228 327.19 169.088 322.72 170.228 318.25L167.498 317.62ZM166.088 330.55C167.648 332.74 169.598 335.71 170.468 337.54L172.898 336.07C171.938 334.3 169.898 331.39 168.308 329.29L166.088 330.55ZM185.528 335.65C182.978 335.65 180.848 337.75 180.848 340.33C180.848 342.94 182.978 345.04 185.528 345.04C188.138 345.04 190.238 342.94 190.238 340.33C190.238 337.75 188.138 335.65 185.528 335.65ZM185.528 343.24C183.968 343.24 182.648 341.95 182.648 340.33C182.648 338.74 183.968 337.45 185.528 337.45C187.148 337.45 188.438 338.74 188.438 340.33C188.438 341.95 187.148 343.24 185.528 343.24Z" fill="white"/>
<defs>
<linearGradient id="paint0_linear_11531_62173" x1="206" y1="181" x2="334" y2="181" gradientUnits="userSpaceOnUse">
<stop stop-color="#FAE28F"/>
<stop offset="1" stop-color="#E39FF0"/>
</linearGradient>
<clipPath id="clip0_11531_62173">
<rect width="64" height="64" fill="white" transform="translate(238 803)"/>
</clipPath>
</defs>
</svg>
