<svg width="540" height="960" viewBox="0 0 540 960" fill="none" xmlns="http://www.w3.org/2000/svg">
<rect width="540" height="960" fill="#161820"/>
<rect x="236" y="311" width="72" height="43" rx="2" fill="#373A41"/>
<rect x="233" y="265" width="72" height="43" rx="2" fill="#373A41"/>
<rect x="175" y="357" width="72" height="43" rx="2" fill="#373A41"/>
<path d="M24.072 38.264C22.904 38.264 21.832 38.064 20.856 37.664C19.88 37.248 19.056 36.656 18.384 35.888L20.808 33.464C21.112 33.912 21.552 34.28 22.128 34.568C22.72 34.84 23.344 34.976 24 34.976C24.592 34.976 25.104 34.872 25.536 34.664C25.968 34.456 26.304 34.16 26.544 33.776C26.8 33.392 26.928 32.936 26.928 32.408C26.928 31.88 26.8 31.432 26.544 31.064C26.304 30.68 25.944 30.384 25.464 30.176C25 29.968 24.44 29.864 23.784 29.864C23.48 29.864 23.16 29.888 22.824 29.936C22.504 29.968 22.232 30.024 22.008 30.104L23.664 28.016C24.112 27.888 24.536 27.784 24.936 27.704C25.352 27.608 25.736 27.56 26.088 27.56C26.952 27.56 27.728 27.768 28.416 28.184C29.104 28.584 29.648 29.16 30.048 29.912C30.464 30.648 30.672 31.528 30.672 32.552C30.672 33.672 30.392 34.664 29.832 35.528C29.288 36.392 28.52 37.064 27.528 37.544C26.552 38.024 25.4 38.264 24.072 38.264ZM22.008 30.104V28.016L26.136 23.168L30.36 23.144L26.064 28.04L22.008 30.104ZM19.44 24.248V21.056H30.36V23.144L27.408 24.248H19.44ZM33.0383 38V21.056H35.6783L36.8063 24.44V38H33.0383ZM44.7263 38L34.7423 25.208L35.6783 21.056L45.6623 33.848L44.7263 38ZM44.7263 38L43.7183 34.616V21.056H47.4863V38H44.7263ZM50.757 38V21.056H54.525V38H50.757ZM53.637 38V34.736H62.925V38H53.637ZM53.637 30.92V27.776H62.085V30.92H53.637ZM53.637 24.296V21.056H62.805V24.296H53.637ZM70.4745 38L63.9465 21.056H67.9785L72.9465 34.76H71.2905L76.3305 21.056H80.3145L73.7145 38H70.4745ZM82.3039 38V21.056H86.0719V38H82.3039ZM85.1839 38V34.736H94.4719V38H85.1839ZM85.1839 30.92V27.776H93.6319V30.92H85.1839ZM85.1839 24.296V21.056H94.3519V24.296H85.1839ZM99.9495 31.016V28.232H103.526C104.278 28.232 104.854 28.04 105.254 27.656C105.67 27.272 105.878 26.752 105.878 26.096C105.878 25.488 105.678 24.984 105.278 24.584C104.878 24.184 104.302 23.984 103.55 23.984H99.9495V21.056H103.982C105.102 21.056 106.086 21.272 106.934 21.704C107.782 22.12 108.446 22.704 108.926 23.456C109.406 24.208 109.646 25.072 109.646 26.048C109.646 27.04 109.406 27.912 108.926 28.664C108.446 29.4 107.774 29.976 106.91 30.392C106.046 30.808 105.03 31.016 103.862 31.016H99.9495ZM97.0695 38V21.056H100.838V38H97.0695ZM106.286 38L101.006 30.704L104.462 29.768L110.75 38H106.286Z" fill="#FEFEFE" fill-opacity="0.54"/>
<path d="M218.324 887.86L218.696 889.252C219.944 888.952 221.54 888.544 223.016 888.16L222.848 886.84C221.24 887.236 219.5 887.644 218.324 887.86ZM218.48 884.008V885.34H222.848V884.008H218.48ZM220.076 881.872V891.532C220.076 891.7 220.016 891.76 219.848 891.76C219.692 891.76 219.188 891.76 218.72 891.748C218.888 892.108 219.08 892.684 219.116 893.056C219.968 893.056 220.544 893.02 220.952 892.792C221.36 892.588 221.492 892.228 221.492 891.532V881.872H220.076ZM222.98 890.956V892.3H228.296V890.956H222.98ZM223.352 886.66V888.088H228.308V886.66H223.352ZM223.076 882.904V884.224H227.66V892.972H229.04V882.904H223.076ZM234.308 883.372V884.668H241.52V883.372H234.308ZM235.688 881.812V886.024H237.068V881.812H235.688ZM238.712 881.812V886.024H240.104V881.812H238.712ZM234.716 886.396V893.008H236.012V887.656H239.78V892.948H241.148V886.396H234.716ZM235.448 888.796V890.02H240.392V888.796H235.448ZM235.484 891.184V892.444H240.428V891.184H235.484ZM237.224 887.02V892.12H238.52V887.02H237.224ZM230.24 887.896L230.564 889.288C231.632 888.988 232.964 888.604 234.212 888.22L234.032 886.924C232.664 887.296 231.212 887.692 230.24 887.896ZM230.432 884.092V885.412H234.08V884.092H230.432ZM231.68 881.824V891.388C231.68 891.556 231.632 891.604 231.488 891.604C231.344 891.604 230.924 891.604 230.48 891.592C230.66 891.976 230.816 892.564 230.852 892.924C231.632 892.924 232.16 892.876 232.52 892.648C232.892 892.432 233 892.06 233 891.4V881.824H231.68ZM243.644 883.468V885.052H252.356V883.468H243.644ZM242.648 890.428V892.084H253.364V890.428H242.648ZM254.78 889.972C254.78 889.732 255.644 889.336 255.644 889.336V889.3C256.784 888.112 257.96 886.468 258.836 884.86L257.732 884.164C256.94 885.832 255.716 887.536 255.308 887.98C254.936 888.424 254.672 888.7 254.36 888.772C254.516 889.108 254.72 889.72 254.78 889.972ZM254.78 889.972C255.104 889.792 255.596 889.648 258.572 889.084C258.56 888.796 258.572 888.244 258.62 887.884L255.308 888.436L254.696 888.856L254.78 889.972ZM254.684 887.044C254.684 886.804 255.428 886.384 255.428 886.384V886.348C256.28 885.292 257.156 883.78 257.732 882.376L256.436 881.776C256.028 883.18 255.224 884.68 254.96 885.064C254.696 885.448 254.492 885.712 254.252 885.772C254.408 886.132 254.624 886.78 254.684 887.044ZM254.684 887.044C254.924 886.936 255.296 886.852 257.096 886.66C257.096 886.384 257.156 885.892 257.228 885.544L255.224 885.7L254.648 886.084L254.684 887.044ZM254.384 891.184L254.648 892.552C255.86 892.228 257.444 891.82 258.932 891.412L258.788 890.212C257.18 890.584 255.488 890.98 254.384 891.184ZM260.216 886.288V887.572H265.148V886.288H260.216ZM260.24 888.592V889.876H265.172V888.592H260.24ZM260.12 890.968V892.3H265.604V890.968H260.12ZM262.304 884.404V891.676H263.636V884.404H262.304ZM260.828 883.96H260.276L259.484 884.788V893.104H260.828V885.256H265.448V883.96H260.828ZM260.456 881.848C260.084 883.24 259.28 885.052 258.368 886.144C258.56 886.492 258.86 887.14 258.992 887.5C260.204 886.132 261.2 884.08 261.836 882.244L260.456 881.848ZM261.968 882.376C262.292 882.928 262.64 883.66 262.76 884.14L264.044 883.552C263.888 883.084 263.54 882.388 263.18 881.86L261.968 882.376ZM276.008 887.02V887.236C275.816 890.152 275.552 891.34 275.264 891.64C275.132 891.772 275.012 891.796 274.82 891.796C274.592 891.796 274.136 891.796 273.632 891.736C273.848 892.096 273.992 892.636 274.016 893.032C274.592 893.044 275.132 893.044 275.468 892.996C275.852 892.96 276.14 892.84 276.416 892.504C276.848 892.048 277.1 890.752 277.352 887.584C277.364 887.404 277.388 887.02 277.388 887.02H276.008ZM271.256 882.424V883.72H275.66V882.424H271.256ZM271.832 884.188C271.748 885.484 271.58 887.176 271.4 888.232H272.756C272.9 887.224 273.08 885.568 273.176 884.26L271.832 884.188ZM271.784 887.02V888.232H276.404V887.02H271.784ZM271.016 889.396V890.668H275.312V889.396H271.016ZM275.12 882.424V882.568C275.048 883.78 274.82 886.084 274.592 887.788L275.948 887.896C276.176 886.204 276.404 884.08 276.512 882.472L275.492 882.376L275.276 882.424H275.12ZM266.516 882.34V883.648H270.836V882.34H266.516ZM267.848 886.084V887.344H269.336V890.356H267.848V891.616H270.572V886.084H267.848ZM267.908 883.012C267.608 884.836 267.092 886.576 266.24 887.704C266.444 888.124 266.696 889.036 266.756 889.42C268.004 887.932 268.76 885.592 269.216 883.312L267.908 883.012ZM267.236 886.084V892.516H268.46V886.084H267.236ZM278.456 886.54V888.112H289.568V886.54H278.456ZM291.716 881.764C291.404 882.88 290.852 883.96 290.192 884.668C290.432 884.944 290.828 885.556 290.972 885.832C291.8 884.92 292.52 883.492 292.952 882.1L291.716 881.764ZM291.74 882.928L291.476 884.224H294.008V882.928H291.74ZM291.824 893.008C292.016 892.744 292.364 892.456 294.296 891.016C294.152 890.776 293.972 890.272 293.888 889.924L291.836 891.4L291.548 891.832L291.824 893.008ZM290.996 885.208V886.444H294.02V885.208H290.996ZM290.564 887.608V888.904H294.104V887.608H290.564ZM291.824 893.008C291.824 892.54 292.916 891.616 292.916 891.616V885.796H291.752V890.704C291.752 891.292 291.356 891.796 291.104 891.988C291.332 892.216 291.704 892.72 291.824 893.008ZM298.196 881.884V891.376H299.288V881.884H298.196ZM296.624 884.26V885.304H301.616V884.26H296.624ZM296.72 889.204V890.272H301.316V889.204H296.72ZM297.008 887.512V888.58H301.088V887.512H297.008ZM294.152 882.376V883.696H295.892V882.376H294.152ZM295.64 885.892V886.108C295.508 889.168 294.86 891.316 293.468 892.192C293.708 892.444 293.984 892.9 294.152 893.212C295.844 891.988 296.576 889.816 296.744 885.94L296.06 885.88L295.856 885.892H295.64ZM294.992 887.956L294.068 888.304C295.016 892.072 296.9 892.876 299.42 892.876H301.34C301.4 892.54 301.556 891.988 301.712 891.7C301.232 891.724 299.876 891.724 299.492 891.724C297.452 891.712 295.724 891.088 294.992 887.956ZM297.056 882.676V883.648H299.96V885.94H297.056V886.912H300.944V882.676H297.056ZM294.764 885.892L294.416 887.056H295.988V885.892H294.764ZM294.392 887.296C294.392 887.068 295.244 886.684 295.244 886.684V886.66C295.808 885.652 296.432 884.164 296.876 882.712L296.132 882.22L295.7 882.4V882.46C295.4 883.768 294.788 885.196 294.596 885.556C294.404 885.94 294.056 886.324 293.828 886.384C293.996 886.6 294.284 887.056 294.392 887.296ZM302.72 882.712V883.936H313.244V882.712H302.72ZM303.488 884.668V885.88H312.704V884.668H303.488ZM304.592 888.976V890.188H311.54V888.976H304.592ZM304.628 886.54V887.716H311.084V890.824H312.524V886.54H304.628ZM303.68 886.54V888.028C303.68 889.264 303.536 890.956 302.216 892.168C302.528 892.348 303.128 892.864 303.344 893.14C304.808 891.772 305.108 889.588 305.108 888.052V886.54H303.68ZM307.232 881.8V885.316H308.696V881.8H307.232ZM307.28 886.948V889.732H308.672V886.948H307.28ZM315.584 882.472V883.768H317.696V888.52H315.584V889.84H319.028V882.472H315.584ZM315.596 885.472V886.756H318.224V885.472H315.596ZM320.72 882.292V883.624H324.404V882.292H320.72ZM320.72 885.16V886.456H324.404V885.16H320.72ZM320.696 888.004V889.288H324.392V888.004H320.696ZM314.816 882.472V890.884H316.148V882.472H314.816ZM323.864 882.292V891.412C323.864 891.628 323.792 891.7 323.576 891.7C323.372 891.7 322.64 891.712 321.992 891.676C322.196 892.048 322.424 892.672 322.484 893.068C323.504 893.068 324.188 893.032 324.668 892.804C325.136 892.576 325.292 892.18 325.292 891.436V882.292H323.864ZM319.856 882.292V886.636C319.856 888.472 319.676 890.728 317.648 892.204C317.96 892.396 318.512 892.888 318.728 893.176C320.948 891.544 321.272 888.724 321.272 886.648V882.292H319.856Z" fill="white" fill-opacity="0.69"/>
<g clip-path="url(#clip0_11526_63289)">
<path d="M302 803H238V867H302V803Z" fill="white"/>
<path d="M243.189 806.459H241.459V808.189H243.189V806.459Z" fill="black"/>
<path d="M244.919 806.459H243.189V808.189H244.919V806.459Z" fill="black"/>
<path d="M246.649 806.459H244.919V808.189H246.649V806.459Z" fill="black"/>
<path d="M248.378 806.459H246.649V808.189H248.378V806.459Z" fill="black"/>
<path d="M250.108 806.459H248.378V808.189H250.108V806.459Z" fill="black"/>
<path d="M251.838 806.459H250.108V808.189H251.838V806.459Z" fill="black"/>
<path d="M253.568 806.459H251.838V808.189H253.568V806.459Z" fill="black"/>
<path d="M257.027 806.459H255.297V808.189H257.027V806.459Z" fill="black"/>
<path d="M269.135 806.459H267.406V808.189H269.135V806.459Z" fill="black"/>
<path d="M270.865 806.459H269.135V808.189H270.865V806.459Z" fill="black"/>
<path d="M272.595 806.459H270.865V808.189H272.595V806.459Z" fill="black"/>
<path d="M277.784 806.459H276.054V808.189H277.784V806.459Z" fill="black"/>
<path d="M281.243 806.459H279.513V808.189H281.243V806.459Z" fill="black"/>
<path d="M282.973 806.459H281.243V808.189H282.973V806.459Z" fill="black"/>
<path d="M284.703 806.459H282.973V808.189H284.703V806.459Z" fill="black"/>
<path d="M288.162 806.459H286.432V808.189H288.162V806.459Z" fill="black"/>
<path d="M289.892 806.459H288.162V808.189H289.892V806.459Z" fill="black"/>
<path d="M291.622 806.459H289.892V808.189H291.622V806.459Z" fill="black"/>
<path d="M293.351 806.459H291.622V808.189H293.351V806.459Z" fill="black"/>
<path d="M295.081 806.459H293.351V808.189H295.081V806.459Z" fill="black"/>
<path d="M296.811 806.459H295.081V808.189H296.811V806.459Z" fill="black"/>
<path d="M298.541 806.459H296.811V808.189H298.541V806.459Z" fill="black"/>
<path d="M243.189 808.189H241.459V809.919H243.189V808.189Z" fill="black"/>
<path d="M253.568 808.189H251.838V809.919H253.568V808.189Z" fill="black"/>
<path d="M263.946 808.189H262.216V809.919H263.946V808.189Z" fill="black"/>
<path d="M265.676 808.189H263.946V809.919H265.676V808.189Z" fill="black"/>
<path d="M267.406 808.189H265.676V809.919H267.406V808.189Z" fill="black"/>
<path d="M270.865 808.189H269.135V809.919H270.865V808.189Z" fill="black"/>
<path d="M272.595 808.189H270.865V809.919H272.595V808.189Z" fill="black"/>
<path d="M274.324 808.189H272.595V809.919H274.324V808.189Z" fill="black"/>
<path d="M279.513 808.189H277.784V809.919H279.513V808.189Z" fill="black"/>
<path d="M281.243 808.189H279.513V809.919H281.243V808.189Z" fill="black"/>
<path d="M282.973 808.189H281.243V809.919H282.973V808.189Z" fill="black"/>
<path d="M288.162 808.189H286.432V809.919H288.162V808.189Z" fill="black"/>
<path d="M298.541 808.189H296.811V809.919H298.541V808.189Z" fill="black"/>
<path d="M243.189 809.919H241.459V811.649H243.189V809.919Z" fill="black"/>
<path d="M246.649 809.919H244.919V811.649H246.649V809.919Z" fill="black"/>
<path d="M248.378 809.919H246.649V811.649H248.378V809.919Z" fill="black"/>
<path d="M250.108 809.919H248.378V811.649H250.108V809.919Z" fill="black"/>
<path d="M253.568 809.919H251.838V811.649H253.568V809.919Z" fill="black"/>
<path d="M258.757 809.919H257.027V811.649H258.757V809.919Z" fill="black"/>
<path d="M260.487 809.919H258.757V811.649H260.487V809.919Z" fill="black"/>
<path d="M262.216 809.919H260.487V811.649H262.216V809.919Z" fill="black"/>
<path d="M263.946 809.919H262.216V811.649H263.946V809.919Z" fill="black"/>
<path d="M277.784 809.919H276.054V811.649H277.784V809.919Z" fill="black"/>
<path d="M282.973 809.919H281.243V811.649H282.973V809.919Z" fill="black"/>
<path d="M284.703 809.919H282.973V811.649H284.703V809.919Z" fill="black"/>
<path d="M288.162 809.919H286.432V811.649H288.162V809.919Z" fill="black"/>
<path d="M291.622 809.919H289.892V811.649H291.622V809.919Z" fill="black"/>
<path d="M293.351 809.919H291.622V811.649H293.351V809.919Z" fill="black"/>
<path d="M295.081 809.919H293.351V811.649H295.081V809.919Z" fill="black"/>
<path d="M298.541 809.919H296.811V811.649H298.541V809.919Z" fill="black"/>
<path d="M243.189 811.649H241.459V813.378H243.189V811.649Z" fill="black"/>
<path d="M246.649 811.649H244.919V813.378H246.649V811.649Z" fill="black"/>
<path d="M248.378 811.649H246.649V813.378H248.378V811.649Z" fill="black"/>
<path d="M250.108 811.649H248.378V813.378H250.108V811.649Z" fill="black"/>
<path d="M253.568 811.649H251.838V813.378H253.568V811.649Z" fill="black"/>
<path d="M257.027 811.649H255.297V813.378H257.027V811.649Z" fill="black"/>
<path d="M258.757 811.649H257.027V813.378H258.757V811.649Z" fill="black"/>
<path d="M262.216 811.649H260.487V813.378H262.216V811.649Z" fill="black"/>
<path d="M263.946 811.649H262.216V813.378H263.946V811.649Z" fill="black"/>
<path d="M267.406 811.649H265.676V813.378H267.406V811.649Z" fill="black"/>
<path d="M274.324 811.649H272.595V813.378H274.324V811.649Z" fill="black"/>
<path d="M276.054 811.649H274.324V813.378H276.054V811.649Z" fill="black"/>
<path d="M288.162 811.649H286.432V813.378H288.162V811.649Z" fill="black"/>
<path d="M291.622 811.649H289.892V813.378H291.622V811.649Z" fill="black"/>
<path d="M293.351 811.649H291.622V813.378H293.351V811.649Z" fill="black"/>
<path d="M295.081 811.649H293.351V813.378H295.081V811.649Z" fill="black"/>
<path d="M298.541 811.649H296.811V813.378H298.541V811.649Z" fill="black"/>
<path d="M243.189 813.378H241.459V815.108H243.189V813.378Z" fill="black"/>
<path d="M246.649 813.378H244.919V815.108H246.649V813.378Z" fill="black"/>
<path d="M248.378 813.378H246.649V815.108H248.378V813.378Z" fill="black"/>
<path d="M250.108 813.378H248.378V815.108H250.108V813.378Z" fill="black"/>
<path d="M253.568 813.378H251.838V815.108H253.568V813.378Z" fill="black"/>
<path d="M258.757 813.378H257.027V815.108H258.757V813.378Z" fill="black"/>
<path d="M260.487 813.378H258.757V815.108H260.487V813.378Z" fill="black"/>
<path d="M263.946 813.378H262.216V815.108H263.946V813.378Z" fill="black"/>
<path d="M267.406 813.378H265.676V815.108H267.406V813.378Z" fill="black"/>
<path d="M272.595 813.378H270.865V815.108H272.595V813.378Z" fill="black"/>
<path d="M279.513 813.378H277.784V815.108H279.513V813.378Z" fill="black"/>
<path d="M281.243 813.378H279.513V815.108H281.243V813.378Z" fill="black"/>
<path d="M288.162 813.378H286.432V815.108H288.162V813.378Z" fill="black"/>
<path d="M291.622 813.378H289.892V815.108H291.622V813.378Z" fill="black"/>
<path d="M293.351 813.378H291.622V815.108H293.351V813.378Z" fill="black"/>
<path d="M295.081 813.378H293.351V815.108H295.081V813.378Z" fill="black"/>
<path d="M298.541 813.378H296.811V815.108H298.541V813.378Z" fill="black"/>
<path d="M243.189 815.108H241.459V816.838H243.189V815.108Z" fill="black"/>
<path d="M253.568 815.108H251.838V816.838H253.568V815.108Z" fill="black"/>
<path d="M260.487 815.108H258.757V816.838H260.487V815.108Z" fill="black"/>
<path d="M262.216 815.108H260.487V816.838H262.216V815.108Z" fill="black"/>
<path d="M265.676 815.108H263.946V816.838H265.676V815.108Z" fill="black"/>
<path d="M267.406 815.108H265.676V816.838H267.406V815.108Z" fill="black"/>
<path d="M274.324 815.108H272.595V816.838H274.324V815.108Z" fill="black"/>
<path d="M276.054 815.108H274.324V816.838H276.054V815.108Z" fill="black"/>
<path d="M277.784 815.108H276.054V816.838H277.784V815.108Z" fill="black"/>
<path d="M279.513 815.108H277.784V816.838H279.513V815.108Z" fill="black"/>
<path d="M281.243 815.108H279.513V816.838H281.243V815.108Z" fill="black"/>
<path d="M288.162 815.108H286.432V816.838H288.162V815.108Z" fill="black"/>
<path d="M298.541 815.108H296.811V816.838H298.541V815.108Z" fill="black"/>
<path d="M243.189 816.838H241.459V818.568H243.189V816.838Z" fill="black"/>
<path d="M244.919 816.838H243.189V818.568H244.919V816.838Z" fill="black"/>
<path d="M246.649 816.838H244.919V818.568H246.649V816.838Z" fill="black"/>
<path d="M248.378 816.838H246.649V818.568H248.378V816.838Z" fill="black"/>
<path d="M250.108 816.838H248.378V818.568H250.108V816.838Z" fill="black"/>
<path d="M251.838 816.838H250.108V818.568H251.838V816.838Z" fill="black"/>
<path d="M253.568 816.838H251.838V818.568H253.568V816.838Z" fill="black"/>
<path d="M257.027 816.838H255.297V818.568H257.027V816.838Z" fill="black"/>
<path d="M260.487 816.838H258.757V818.568H260.487V816.838Z" fill="black"/>
<path d="M263.946 816.838H262.216V818.568H263.946V816.838Z" fill="black"/>
<path d="M267.406 816.838H265.676V818.568H267.406V816.838Z" fill="black"/>
<path d="M270.865 816.838H269.135V818.568H270.865V816.838Z" fill="black"/>
<path d="M274.324 816.838H272.595V818.568H274.324V816.838Z" fill="black"/>
<path d="M277.784 816.838H276.054V818.568H277.784V816.838Z" fill="black"/>
<path d="M281.243 816.838H279.513V818.568H281.243V816.838Z" fill="black"/>
<path d="M284.703 816.838H282.973V818.568H284.703V816.838Z" fill="black"/>
<path d="M288.162 816.838H286.432V818.568H288.162V816.838Z" fill="black"/>
<path d="M289.892 816.838H288.162V818.568H289.892V816.838Z" fill="black"/>
<path d="M291.622 816.838H289.892V818.568H291.622V816.838Z" fill="black"/>
<path d="M293.351 816.838H291.622V818.568H293.351V816.838Z" fill="black"/>
<path d="M295.081 816.838H293.351V818.568H295.081V816.838Z" fill="black"/>
<path d="M296.811 816.838H295.081V818.568H296.811V816.838Z" fill="black"/>
<path d="M298.541 816.838H296.811V818.568H298.541V816.838Z" fill="black"/>
<path d="M262.216 818.568H260.487V820.297H262.216V818.568Z" fill="black"/>
<path d="M265.676 818.568H263.946V820.297H265.676V818.568Z" fill="black"/>
<path d="M267.406 818.568H265.676V820.297H267.406V818.568Z" fill="black"/>
<path d="M270.865 818.568H269.135V820.297H270.865V818.568Z" fill="black"/>
<path d="M272.595 818.568H270.865V820.297H272.595V818.568Z" fill="black"/>
<path d="M277.784 818.568H276.054V820.297H277.784V818.568Z" fill="black"/>
<path d="M279.513 818.568H277.784V820.297H279.513V818.568Z" fill="black"/>
<path d="M284.703 818.568H282.973V820.297H284.703V818.568Z" fill="black"/>
<path d="M246.649 820.297H244.919V822.027H246.649V820.297Z" fill="black"/>
<path d="M250.108 820.297H248.378V822.027H250.108V820.297Z" fill="black"/>
<path d="M251.838 820.297H250.108V822.027H251.838V820.297Z" fill="black"/>
<path d="M253.568 820.297H251.838V822.027H253.568V820.297Z" fill="black"/>
<path d="M257.027 820.297H255.297V822.027H257.027V820.297Z" fill="black"/>
<path d="M258.757 820.297H257.027V822.027H258.757V820.297Z" fill="black"/>
<path d="M265.676 820.297H263.946V822.027H265.676V820.297Z" fill="black"/>
<path d="M270.865 820.297H269.135V822.027H270.865V820.297Z" fill="black"/>
<path d="M272.595 820.297H270.865V822.027H272.595V820.297Z" fill="black"/>
<path d="M274.324 820.297H272.595V822.027H274.324V820.297Z" fill="black"/>
<path d="M279.513 820.297H277.784V822.027H279.513V820.297Z" fill="black"/>
<path d="M282.973 820.297H281.243V822.027H282.973V820.297Z" fill="black"/>
<path d="M284.703 820.297H282.973V822.027H284.703V820.297Z" fill="black"/>
<path d="M286.432 820.297H284.703V822.027H286.432V820.297Z" fill="black"/>
<path d="M293.351 820.297H291.622V822.027H293.351V820.297Z" fill="black"/>
<path d="M298.541 820.297H296.811V822.027H298.541V820.297Z" fill="black"/>
<path d="M246.649 822.027H244.919V823.757H246.649V822.027Z" fill="black"/>
<path d="M250.108 822.027H248.378V823.757H250.108V822.027Z" fill="black"/>
<path d="M255.297 822.027H253.568V823.757H255.297V822.027Z" fill="black"/>
<path d="M258.757 822.027H257.027V823.757H258.757V822.027Z" fill="black"/>
<path d="M260.487 822.027H258.757V823.757H260.487V822.027Z" fill="black"/>
<path d="M262.216 822.027H260.487V823.757H262.216V822.027Z" fill="black"/>
<path d="M263.946 822.027H262.216V823.757H263.946V822.027Z" fill="black"/>
<path d="M276.054 822.027H274.324V823.757H276.054V822.027Z" fill="black"/>
<path d="M279.513 822.027H277.784V823.757H279.513V822.027Z" fill="black"/>
<path d="M284.703 822.027H282.973V823.757H284.703V822.027Z" fill="black"/>
<path d="M288.162 822.027H286.432V823.757H288.162V822.027Z" fill="black"/>
<path d="M295.081 822.027H293.351V823.757H295.081V822.027Z" fill="black"/>
<path d="M296.811 822.027H295.081V823.757H296.811V822.027Z" fill="black"/>
<path d="M298.541 822.027H296.811V823.757H298.541V822.027Z" fill="black"/>
<path d="M251.838 823.757H250.108V825.486H251.838V823.757Z" fill="black"/>
<path d="M253.568 823.757H251.838V825.486H253.568V823.757Z" fill="black"/>
<path d="M257.027 823.757H255.297V825.486H257.027V823.757Z" fill="black"/>
<path d="M258.757 823.757H257.027V825.486H258.757V823.757Z" fill="black"/>
<path d="M260.487 823.757H258.757V825.486H260.487V823.757Z" fill="black"/>
<path d="M263.946 823.757H262.216V825.486H263.946V823.757Z" fill="black"/>
<path d="M265.676 823.757H263.946V825.486H265.676V823.757Z" fill="black"/>
<path d="M270.865 823.757H269.135V825.486H270.865V823.757Z" fill="black"/>
<path d="M274.324 823.757H272.595V825.486H274.324V823.757Z" fill="black"/>
<path d="M277.784 823.757H276.054V825.486H277.784V823.757Z" fill="black"/>
<path d="M281.243 823.757H279.513V825.486H281.243V823.757Z" fill="black"/>
<path d="M284.703 823.757H282.973V825.486H284.703V823.757Z" fill="black"/>
<path d="M286.432 823.757H284.703V825.486H286.432V823.757Z" fill="black"/>
<path d="M291.622 823.757H289.892V825.486H291.622V823.757Z" fill="black"/>
<path d="M296.811 823.757H295.081V825.486H296.811V823.757Z" fill="black"/>
<path d="M298.541 823.757H296.811V825.486H298.541V823.757Z" fill="black"/>
<path d="M243.189 825.486H241.459V827.216H243.189V825.486Z" fill="black"/>
<path d="M246.649 825.486H244.919V827.216H246.649V825.486Z" fill="black"/>
<path d="M250.108 825.486H248.378V827.216H250.108V825.486Z" fill="black"/>
<path d="M255.297 825.486H253.568V827.216H255.297V825.486Z" fill="black"/>
<path d="M258.757 825.486H257.027V827.216H258.757V825.486Z" fill="black"/>
<path d="M260.487 825.486H258.757V827.216H260.487V825.486Z" fill="black"/>
<path d="M262.216 825.486H260.487V827.216H262.216V825.486Z" fill="black"/>
<path d="M263.946 825.486H262.216V827.216H263.946V825.486Z" fill="black"/>
<path d="M265.676 825.486H263.946V827.216H265.676V825.486Z" fill="black"/>
<path d="M269.135 825.486H267.406V827.216H269.135V825.486Z" fill="black"/>
<path d="M274.324 825.486H272.595V827.216H274.324V825.486Z" fill="black"/>
<path d="M276.054 825.486H274.324V827.216H276.054V825.486Z" fill="black"/>
<path d="M277.784 825.486H276.054V827.216H277.784V825.486Z" fill="black"/>
<path d="M279.513 825.486H277.784V827.216H279.513V825.486Z" fill="black"/>
<path d="M281.243 825.486H279.513V827.216H281.243V825.486Z" fill="black"/>
<path d="M284.703 825.486H282.973V827.216H284.703V825.486Z" fill="black"/>
<path d="M286.432 825.486H284.703V827.216H286.432V825.486Z" fill="black"/>
<path d="M296.811 825.486H295.081V827.216H296.811V825.486Z" fill="black"/>
<path d="M243.189 827.216H241.459V828.946H243.189V827.216Z" fill="black"/>
<path d="M244.919 827.216H243.189V828.946H244.919V827.216Z" fill="black"/>
<path d="M248.378 827.216H246.649V828.946H248.378V827.216Z" fill="black"/>
<path d="M250.108 827.216H248.378V828.946H250.108V827.216Z" fill="black"/>
<path d="M253.568 827.216H251.838V828.946H253.568V827.216Z" fill="black"/>
<path d="M255.297 827.216H253.568V828.946H255.297V827.216Z" fill="black"/>
<path d="M258.757 827.216H257.027V828.946H258.757V827.216Z" fill="black"/>
<path d="M260.487 827.216H258.757V828.946H260.487V827.216Z" fill="black"/>
<path d="M265.676 827.216H263.946V828.946H265.676V827.216Z" fill="black"/>
<path d="M267.406 827.216H265.676V828.946H267.406V827.216Z" fill="black"/>
<path d="M269.135 827.216H267.406V828.946H269.135V827.216Z" fill="black"/>
<path d="M274.324 827.216H272.595V828.946H274.324V827.216Z" fill="black"/>
<path d="M276.054 827.216H274.324V828.946H276.054V827.216Z" fill="black"/>
<path d="M281.243 827.216H279.513V828.946H281.243V827.216Z" fill="black"/>
<path d="M282.973 827.216H281.243V828.946H282.973V827.216Z" fill="black"/>
<path d="M284.703 827.216H282.973V828.946H284.703V827.216Z" fill="black"/>
<path d="M286.432 827.216H284.703V828.946H286.432V827.216Z" fill="black"/>
<path d="M288.162 827.216H286.432V828.946H288.162V827.216Z" fill="black"/>
<path d="M289.892 827.216H288.162V828.946H289.892V827.216Z" fill="black"/>
<path d="M291.622 827.216H289.892V828.946H291.622V827.216Z" fill="black"/>
<path d="M296.811 827.216H295.081V828.946H296.811V827.216Z" fill="black"/>
<path d="M298.541 827.216H296.811V828.946H298.541V827.216Z" fill="black"/>
<path d="M246.649 828.946H244.919V830.676H246.649V828.946Z" fill="black"/>
<path d="M248.378 828.946H246.649V830.676H248.378V828.946Z" fill="black"/>
<path d="M250.108 828.946H248.378V830.676H250.108V828.946Z" fill="black"/>
<path d="M251.838 828.946H250.108V830.676H251.838V828.946Z" fill="black"/>
<path d="M263.946 828.946H262.216V830.676H263.946V828.946Z" fill="black"/>
<path d="M265.676 828.946H263.946V830.676H265.676V828.946Z" fill="black"/>
<path d="M270.865 828.946H269.135V830.676H270.865V828.946Z" fill="black"/>
<path d="M272.595 828.946H270.865V830.676H272.595V828.946Z" fill="black"/>
<path d="M276.054 828.946H274.324V830.676H276.054V828.946Z" fill="black"/>
<path d="M277.784 828.946H276.054V830.676H277.784V828.946Z" fill="black"/>
<path d="M281.243 828.946H279.513V830.676H281.243V828.946Z" fill="black"/>
<path d="M284.703 828.946H282.973V830.676H284.703V828.946Z" fill="black"/>
<path d="M286.432 828.946H284.703V830.676H286.432V828.946Z" fill="black"/>
<path d="M288.162 828.946H286.432V830.676H288.162V828.946Z" fill="black"/>
<path d="M289.892 828.946H288.162V830.676H289.892V828.946Z" fill="black"/>
<path d="M296.811 828.946H295.081V830.676H296.811V828.946Z" fill="black"/>
<path d="M298.541 828.946H296.811V830.676H298.541V828.946Z" fill="black"/>
<path d="M243.189 830.676H241.459V832.405H243.189V830.676Z" fill="black"/>
<path d="M248.378 830.676H246.649V832.405H248.378V830.676Z" fill="black"/>
<path d="M251.838 830.676H250.108V832.405H251.838V830.676Z" fill="black"/>
<path d="M253.568 830.676H251.838V832.405H253.568V830.676Z" fill="black"/>
<path d="M257.027 830.676H255.297V832.405H257.027V830.676Z" fill="black"/>
<path d="M258.757 830.676H257.027V832.405H258.757V830.676Z" fill="black"/>
<path d="M260.487 830.676H258.757V832.405H260.487V830.676Z" fill="black"/>
<path d="M262.216 830.676H260.487V832.405H262.216V830.676Z" fill="black"/>
<path d="M274.324 830.676H272.595V832.405H274.324V830.676Z" fill="black"/>
<path d="M279.513 830.676H277.784V832.405H279.513V830.676Z" fill="black"/>
<path d="M284.703 830.676H282.973V832.405H284.703V830.676Z" fill="black"/>
<path d="M286.432 830.676H284.703V832.405H286.432V830.676Z" fill="black"/>
<path d="M288.162 830.676H286.432V832.405H288.162V830.676Z" fill="black"/>
<path d="M289.892 830.676H288.162V832.405H289.892V830.676Z" fill="black"/>
<path d="M291.622 830.676H289.892V832.405H291.622V830.676Z" fill="black"/>
<path d="M293.351 830.676H291.622V832.405H293.351V830.676Z" fill="black"/>
<path d="M295.081 830.676H293.351V832.405H295.081V830.676Z" fill="black"/>
<path d="M296.811 830.676H295.081V832.405H296.811V830.676Z" fill="black"/>
<path d="M298.541 830.676H296.811V832.405H298.541V830.676Z" fill="black"/>
<path d="M248.378 832.405H246.649V834.135H248.378V832.405Z" fill="black"/>
<path d="M250.108 832.405H248.378V834.135H250.108V832.405Z" fill="black"/>
<path d="M255.297 832.405H253.568V834.135H255.297V832.405Z" fill="black"/>
<path d="M260.487 832.405H258.757V834.135H260.487V832.405Z" fill="black"/>
<path d="M263.946 832.405H262.216V834.135H263.946V832.405Z" fill="black"/>
<path d="M265.676 832.405H263.946V834.135H265.676V832.405Z" fill="black"/>
<path d="M267.406 832.405H265.676V834.135H267.406V832.405Z" fill="black"/>
<path d="M269.135 832.405H267.406V834.135H269.135V832.405Z" fill="black"/>
<path d="M270.865 832.405H269.135V834.135H270.865V832.405Z" fill="black"/>
<path d="M277.784 832.405H276.054V834.135H277.784V832.405Z" fill="black"/>
<path d="M279.513 832.405H277.784V834.135H279.513V832.405Z" fill="black"/>
<path d="M281.243 832.405H279.513V834.135H281.243V832.405Z" fill="black"/>
<path d="M289.892 832.405H288.162V834.135H289.892V832.405Z" fill="black"/>
<path d="M293.351 832.405H291.622V834.135H293.351V832.405Z" fill="black"/>
<path d="M298.541 832.405H296.811V834.135H298.541V832.405Z" fill="black"/>
<path d="M246.649 834.135H244.919V835.865H246.649V834.135Z" fill="black"/>
<path d="M248.378 834.135H246.649V835.865H248.378V834.135Z" fill="black"/>
<path d="M251.838 834.135H250.108V835.865H251.838V834.135Z" fill="black"/>
<path d="M253.568 834.135H251.838V835.865H253.568V834.135Z" fill="black"/>
<path d="M262.216 834.135H260.487V835.865H262.216V834.135Z" fill="black"/>
<path d="M263.946 834.135H262.216V835.865H263.946V834.135Z" fill="black"/>
<path d="M270.865 834.135H269.135V835.865H270.865V834.135Z" fill="black"/>
<path d="M272.595 834.135H270.865V835.865H272.595V834.135Z" fill="black"/>
<path d="M276.054 834.135H274.324V835.865H276.054V834.135Z" fill="black"/>
<path d="M279.513 834.135H277.784V835.865H279.513V834.135Z" fill="black"/>
<path d="M281.243 834.135H279.513V835.865H281.243V834.135Z" fill="black"/>
<path d="M286.432 834.135H284.703V835.865H286.432V834.135Z" fill="black"/>
<path d="M288.162 834.135H286.432V835.865H288.162V834.135Z" fill="black"/>
<path d="M295.081 834.135H293.351V835.865H295.081V834.135Z" fill="black"/>
<path d="M243.189 835.865H241.459V837.595H243.189V835.865Z" fill="black"/>
<path d="M246.649 835.865H244.919V837.595H246.649V835.865Z" fill="black"/>
<path d="M250.108 835.865H248.378V837.595H250.108V835.865Z" fill="black"/>
<path d="M251.838 835.865H250.108V837.595H251.838V835.865Z" fill="black"/>
<path d="M255.297 835.865H253.568V837.595H255.297V835.865Z" fill="black"/>
<path d="M258.757 835.865H257.027V837.595H258.757V835.865Z" fill="black"/>
<path d="M265.676 835.865H263.946V837.595H265.676V835.865Z" fill="black"/>
<path d="M267.406 835.865H265.676V837.595H267.406V835.865Z" fill="black"/>
<path d="M269.135 835.865H267.406V837.595H269.135V835.865Z" fill="black"/>
<path d="M272.595 835.865H270.865V837.595H272.595V835.865Z" fill="black"/>
<path d="M276.054 835.865H274.324V837.595H276.054V835.865Z" fill="black"/>
<path d="M277.784 835.865H276.054V837.595H277.784V835.865Z" fill="black"/>
<path d="M288.162 835.865H286.432V837.595H288.162V835.865Z" fill="black"/>
<path d="M293.351 835.865H291.622V837.595H293.351V835.865Z" fill="black"/>
<path d="M295.081 835.865H293.351V837.595H295.081V835.865Z" fill="black"/>
<path d="M296.811 835.865H295.081V837.595H296.811V835.865Z" fill="black"/>
<path d="M298.541 835.865H296.811V837.595H298.541V835.865Z" fill="black"/>
<path d="M244.919 837.595H243.189V839.324H244.919V837.595Z" fill="black"/>
<path d="M246.649 837.595H244.919V839.324H246.649V837.595Z" fill="black"/>
<path d="M250.108 837.595H248.378V839.324H250.108V837.595Z" fill="black"/>
<path d="M251.838 837.595H250.108V839.324H251.838V837.595Z" fill="black"/>
<path d="M253.568 837.595H251.838V839.324H253.568V837.595Z" fill="black"/>
<path d="M258.757 837.595H257.027V839.324H258.757V837.595Z" fill="black"/>
<path d="M260.487 837.595H258.757V839.324H260.487V837.595Z" fill="black"/>
<path d="M262.216 837.595H260.487V839.324H262.216V837.595Z" fill="black"/>
<path d="M265.676 837.595H263.946V839.324H265.676V837.595Z" fill="black"/>
<path d="M267.406 837.595H265.676V839.324H267.406V837.595Z" fill="black"/>
<path d="M276.054 837.595H274.324V839.324H276.054V837.595Z" fill="black"/>
<path d="M279.513 837.595H277.784V839.324H279.513V837.595Z" fill="black"/>
<path d="M286.432 837.595H284.703V839.324H286.432V837.595Z" fill="black"/>
<path d="M295.081 837.595H293.351V839.324H295.081V837.595Z" fill="black"/>
<path d="M296.811 837.595H295.081V839.324H296.811V837.595Z" fill="black"/>
<path d="M298.541 837.595H296.811V839.324H298.541V837.595Z" fill="black"/>
<path d="M243.189 839.324H241.459V841.054H243.189V839.324Z" fill="black"/>
<path d="M244.919 839.324H243.189V841.054H244.919V839.324Z" fill="black"/>
<path d="M250.108 839.324H248.378V841.054H250.108V839.324Z" fill="black"/>
<path d="M255.297 839.324H253.568V841.054H255.297V839.324Z" fill="black"/>
<path d="M257.027 839.324H255.297V841.054H257.027V839.324Z" fill="black"/>
<path d="M262.216 839.324H260.487V841.054H262.216V839.324Z" fill="black"/>
<path d="M265.676 839.324H263.946V841.054H265.676V839.324Z" fill="black"/>
<path d="M269.135 839.324H267.406V841.054H269.135V839.324Z" fill="black"/>
<path d="M270.865 839.324H269.135V841.054H270.865V839.324Z" fill="black"/>
<path d="M276.054 839.324H274.324V841.054H276.054V839.324Z" fill="black"/>
<path d="M279.513 839.324H277.784V841.054H279.513V839.324Z" fill="black"/>
<path d="M286.432 839.324H284.703V841.054H286.432V839.324Z" fill="black"/>
<path d="M288.162 839.324H286.432V841.054H288.162V839.324Z" fill="black"/>
<path d="M296.811 839.324H295.081V841.054H296.811V839.324Z" fill="black"/>
<path d="M298.541 839.324H296.811V841.054H298.541V839.324Z" fill="black"/>
<path d="M243.189 841.054H241.459V842.784H243.189V841.054Z" fill="black"/>
<path d="M244.919 841.054H243.189V842.784H244.919V841.054Z" fill="black"/>
<path d="M246.649 841.054H244.919V842.784H246.649V841.054Z" fill="black"/>
<path d="M251.838 841.054H250.108V842.784H251.838V841.054Z" fill="black"/>
<path d="M253.568 841.054H251.838V842.784H253.568V841.054Z" fill="black"/>
<path d="M257.027 841.054H255.297V842.784H257.027V841.054Z" fill="black"/>
<path d="M258.757 841.054H257.027V842.784H258.757V841.054Z" fill="black"/>
<path d="M274.324 841.054H272.595V842.784H274.324V841.054Z" fill="black"/>
<path d="M276.054 841.054H274.324V842.784H276.054V841.054Z" fill="black"/>
<path d="M279.513 841.054H277.784V842.784H279.513V841.054Z" fill="black"/>
<path d="M281.243 841.054H279.513V842.784H281.243V841.054Z" fill="black"/>
<path d="M286.432 841.054H284.703V842.784H286.432V841.054Z" fill="black"/>
<path d="M293.351 841.054H291.622V842.784H293.351V841.054Z" fill="black"/>
<path d="M296.811 841.054H295.081V842.784H296.811V841.054Z" fill="black"/>
<path d="M298.541 841.054H296.811V842.784H298.541V841.054Z" fill="black"/>
<path d="M244.919 842.784H243.189V844.514H244.919V842.784Z" fill="black"/>
<path d="M246.649 842.784H244.919V844.514H246.649V842.784Z" fill="black"/>
<path d="M250.108 842.784H248.378V844.514H250.108V842.784Z" fill="black"/>
<path d="M260.487 842.784H258.757V844.514H260.487V842.784Z" fill="black"/>
<path d="M262.216 842.784H260.487V844.514H262.216V842.784Z" fill="black"/>
<path d="M263.946 842.784H262.216V844.514H263.946V842.784Z" fill="black"/>
<path d="M270.865 842.784H269.135V844.514H270.865V842.784Z" fill="black"/>
<path d="M276.054 842.784H274.324V844.514H276.054V842.784Z" fill="black"/>
<path d="M277.784 842.784H276.054V844.514H277.784V842.784Z" fill="black"/>
<path d="M281.243 842.784H279.513V844.514H281.243V842.784Z" fill="black"/>
<path d="M282.973 842.784H281.243V844.514H282.973V842.784Z" fill="black"/>
<path d="M286.432 842.784H284.703V844.514H286.432V842.784Z" fill="black"/>
<path d="M296.811 842.784H295.081V844.514H296.811V842.784Z" fill="black"/>
<path d="M298.541 842.784H296.811V844.514H298.541V842.784Z" fill="black"/>
<path d="M243.189 844.514H241.459V846.243H243.189V844.514Z" fill="black"/>
<path d="M250.108 844.514H248.378V846.243H250.108V844.514Z" fill="black"/>
<path d="M253.568 844.514H251.838V846.243H253.568V844.514Z" fill="black"/>
<path d="M255.297 844.514H253.568V846.243H255.297V844.514Z" fill="black"/>
<path d="M260.487 844.514H258.757V846.243H260.487V844.514Z" fill="black"/>
<path d="M262.216 844.514H260.487V846.243H262.216V844.514Z" fill="black"/>
<path d="M263.946 844.514H262.216V846.243H263.946V844.514Z" fill="black"/>
<path d="M265.676 844.514H263.946V846.243H265.676V844.514Z" fill="black"/>
<path d="M267.406 844.514H265.676V846.243H267.406V844.514Z" fill="black"/>
<path d="M269.135 844.514H267.406V846.243H269.135V844.514Z" fill="black"/>
<path d="M274.324 844.514H272.595V846.243H274.324V844.514Z" fill="black"/>
<path d="M276.054 844.514H274.324V846.243H276.054V844.514Z" fill="black"/>
<path d="M281.243 844.514H279.513V846.243H281.243V844.514Z" fill="black"/>
<path d="M288.162 844.514H286.432V846.243H288.162V844.514Z" fill="black"/>
<path d="M289.892 844.514H288.162V846.243H289.892V844.514Z" fill="black"/>
<path d="M293.351 844.514H291.622V846.243H293.351V844.514Z" fill="black"/>
<path d="M295.081 844.514H293.351V846.243H295.081V844.514Z" fill="black"/>
<path d="M296.811 844.514H295.081V846.243H296.811V844.514Z" fill="black"/>
<path d="M298.541 844.514H296.811V846.243H298.541V844.514Z" fill="black"/>
<path d="M244.919 846.243H243.189V847.973H244.919V846.243Z" fill="black"/>
<path d="M246.649 846.243H244.919V847.973H246.649V846.243Z" fill="black"/>
<path d="M260.487 846.243H258.757V847.973H260.487V846.243Z" fill="black"/>
<path d="M262.216 846.243H260.487V847.973H262.216V846.243Z" fill="black"/>
<path d="M267.406 846.243H265.676V847.973H267.406V846.243Z" fill="black"/>
<path d="M269.135 846.243H267.406V847.973H269.135V846.243Z" fill="black"/>
<path d="M270.865 846.243H269.135V847.973H270.865V846.243Z" fill="black"/>
<path d="M272.595 846.243H270.865V847.973H272.595V846.243Z" fill="black"/>
<path d="M274.324 846.243H272.595V847.973H274.324V846.243Z" fill="black"/>
<path d="M279.513 846.243H277.784V847.973H279.513V846.243Z" fill="black"/>
<path d="M281.243 846.243H279.513V847.973H281.243V846.243Z" fill="black"/>
<path d="M282.973 846.243H281.243V847.973H282.973V846.243Z" fill="black"/>
<path d="M286.432 846.243H284.703V847.973H286.432V846.243Z" fill="black"/>
<path d="M289.892 846.243H288.162V847.973H289.892V846.243Z" fill="black"/>
<path d="M298.541 846.243H296.811V847.973H298.541V846.243Z" fill="black"/>
<path d="M243.189 847.973H241.459V849.703H243.189V847.973Z" fill="black"/>
<path d="M246.649 847.973H244.919V849.703H246.649V847.973Z" fill="black"/>
<path d="M248.378 847.973H246.649V849.703H248.378V847.973Z" fill="black"/>
<path d="M253.568 847.973H251.838V849.703H253.568V847.973Z" fill="black"/>
<path d="M255.297 847.973H253.568V849.703H255.297V847.973Z" fill="black"/>
<path d="M257.027 847.973H255.297V849.703H257.027V847.973Z" fill="black"/>
<path d="M260.487 847.973H258.757V849.703H260.487V847.973Z" fill="black"/>
<path d="M262.216 847.973H260.487V849.703H262.216V847.973Z" fill="black"/>
<path d="M265.676 847.973H263.946V849.703H265.676V847.973Z" fill="black"/>
<path d="M269.135 847.973H267.406V849.703H269.135V847.973Z" fill="black"/>
<path d="M274.324 847.973H272.595V849.703H274.324V847.973Z" fill="black"/>
<path d="M279.513 847.973H277.784V849.703H279.513V847.973Z" fill="black"/>
<path d="M284.703 847.973H282.973V849.703H284.703V847.973Z" fill="black"/>
<path d="M286.432 847.973H284.703V849.703H286.432V847.973Z" fill="black"/>
<path d="M288.162 847.973H286.432V849.703H288.162V847.973Z" fill="black"/>
<path d="M289.892 847.973H288.162V849.703H289.892V847.973Z" fill="black"/>
<path d="M291.622 847.973H289.892V849.703H291.622V847.973Z" fill="black"/>
<path d="M298.541 847.973H296.811V849.703H298.541V847.973Z" fill="black"/>
<path d="M257.027 849.703H255.297V851.432H257.027V849.703Z" fill="black"/>
<path d="M260.487 849.703H258.757V851.432H260.487V849.703Z" fill="black"/>
<path d="M262.216 849.703H260.487V851.432H262.216V849.703Z" fill="black"/>
<path d="M269.135 849.703H267.406V851.432H269.135V849.703Z" fill="black"/>
<path d="M270.865 849.703H269.135V851.432H270.865V849.703Z" fill="black"/>
<path d="M272.595 849.703H270.865V851.432H272.595V849.703Z" fill="black"/>
<path d="M277.784 849.703H276.054V851.432H277.784V849.703Z" fill="black"/>
<path d="M282.973 849.703H281.243V851.432H282.973V849.703Z" fill="black"/>
<path d="M284.703 849.703H282.973V851.432H284.703V849.703Z" fill="black"/>
<path d="M291.622 849.703H289.892V851.432H291.622V849.703Z" fill="black"/>
<path d="M296.811 849.703H295.081V851.432H296.811V849.703Z" fill="black"/>
<path d="M298.541 849.703H296.811V851.432H298.541V849.703Z" fill="black"/>
<path d="M243.189 851.432H241.459V853.162H243.189V851.432Z" fill="black"/>
<path d="M244.919 851.432H243.189V853.162H244.919V851.432Z" fill="black"/>
<path d="M246.649 851.432H244.919V853.162H246.649V851.432Z" fill="black"/>
<path d="M248.378 851.432H246.649V853.162H248.378V851.432Z" fill="black"/>
<path d="M250.108 851.432H248.378V853.162H250.108V851.432Z" fill="black"/>
<path d="M251.838 851.432H250.108V853.162H251.838V851.432Z" fill="black"/>
<path d="M253.568 851.432H251.838V853.162H253.568V851.432Z" fill="black"/>
<path d="M258.757 851.432H257.027V853.162H258.757V851.432Z" fill="black"/>
<path d="M265.676 851.432H263.946V853.162H265.676V851.432Z" fill="black"/>
<path d="M269.135 851.432H267.406V853.162H269.135V851.432Z" fill="black"/>
<path d="M272.595 851.432H270.865V853.162H272.595V851.432Z" fill="black"/>
<path d="M274.324 851.432H272.595V853.162H274.324V851.432Z" fill="black"/>
<path d="M276.054 851.432H274.324V853.162H276.054V851.432Z" fill="black"/>
<path d="M279.513 851.432H277.784V853.162H279.513V851.432Z" fill="black"/>
<path d="M282.973 851.432H281.243V853.162H282.973V851.432Z" fill="black"/>
<path d="M284.703 851.432H282.973V853.162H284.703V851.432Z" fill="black"/>
<path d="M288.162 851.432H286.432V853.162H288.162V851.432Z" fill="black"/>
<path d="M291.622 851.432H289.892V853.162H291.622V851.432Z" fill="black"/>
<path d="M293.351 851.432H291.622V853.162H293.351V851.432Z" fill="black"/>
<path d="M295.081 851.432H293.351V853.162H295.081V851.432Z" fill="black"/>
<path d="M296.811 851.432H295.081V853.162H296.811V851.432Z" fill="black"/>
<path d="M298.541 851.432H296.811V853.162H298.541V851.432Z" fill="black"/>
<path d="M243.189 853.162H241.459V854.892H243.189V853.162Z" fill="black"/>
<path d="M253.568 853.162H251.838V854.892H253.568V853.162Z" fill="black"/>
<path d="M257.027 853.162H255.297V854.892H257.027V853.162Z" fill="black"/>
<path d="M260.487 853.162H258.757V854.892H260.487V853.162Z" fill="black"/>
<path d="M267.406 853.162H265.676V854.892H267.406V853.162Z" fill="black"/>
<path d="M269.135 853.162H267.406V854.892H269.135V853.162Z" fill="black"/>
<path d="M272.595 853.162H270.865V854.892H272.595V853.162Z" fill="black"/>
<path d="M274.324 853.162H272.595V854.892H274.324V853.162Z" fill="black"/>
<path d="M276.054 853.162H274.324V854.892H276.054V853.162Z" fill="black"/>
<path d="M282.973 853.162H281.243V854.892H282.973V853.162Z" fill="black"/>
<path d="M284.703 853.162H282.973V854.892H284.703V853.162Z" fill="black"/>
<path d="M291.622 853.162H289.892V854.892H291.622V853.162Z" fill="black"/>
<path d="M298.541 853.162H296.811V854.892H298.541V853.162Z" fill="black"/>
<path d="M243.189 854.892H241.459V856.622H243.189V854.892Z" fill="black"/>
<path d="M246.649 854.892H244.919V856.622H246.649V854.892Z" fill="black"/>
<path d="M248.378 854.892H246.649V856.622H248.378V854.892Z" fill="black"/>
<path d="M250.108 854.892H248.378V856.622H250.108V854.892Z" fill="black"/>
<path d="M253.568 854.892H251.838V856.622H253.568V854.892Z" fill="black"/>
<path d="M257.027 854.892H255.297V856.622H257.027V854.892Z" fill="black"/>
<path d="M258.757 854.892H257.027V856.622H258.757V854.892Z" fill="black"/>
<path d="M262.216 854.892H260.487V856.622H262.216V854.892Z" fill="black"/>
<path d="M263.946 854.892H262.216V856.622H263.946V854.892Z" fill="black"/>
<path d="M265.676 854.892H263.946V856.622H265.676V854.892Z" fill="black"/>
<path d="M272.595 854.892H270.865V856.622H272.595V854.892Z" fill="black"/>
<path d="M274.324 854.892H272.595V856.622H274.324V854.892Z" fill="black"/>
<path d="M276.054 854.892H274.324V856.622H276.054V854.892Z" fill="black"/>
<path d="M284.703 854.892H282.973V856.622H284.703V854.892Z" fill="black"/>
<path d="M286.432 854.892H284.703V856.622H286.432V854.892Z" fill="black"/>
<path d="M288.162 854.892H286.432V856.622H288.162V854.892Z" fill="black"/>
<path d="M289.892 854.892H288.162V856.622H289.892V854.892Z" fill="black"/>
<path d="M291.622 854.892H289.892V856.622H291.622V854.892Z" fill="black"/>
<path d="M293.351 854.892H291.622V856.622H293.351V854.892Z" fill="black"/>
<path d="M296.811 854.892H295.081V856.622H296.811V854.892Z" fill="black"/>
<path d="M243.189 856.622H241.459V858.351H243.189V856.622Z" fill="black"/>
<path d="M246.649 856.622H244.919V858.351H246.649V856.622Z" fill="black"/>
<path d="M248.378 856.622H246.649V858.351H248.378V856.622Z" fill="black"/>
<path d="M250.108 856.622H248.378V858.351H250.108V856.622Z" fill="black"/>
<path d="M253.568 856.622H251.838V858.351H253.568V856.622Z" fill="black"/>
<path d="M262.216 856.622H260.487V858.351H262.216V856.622Z" fill="black"/>
<path d="M263.946 856.622H262.216V858.351H263.946V856.622Z" fill="black"/>
<path d="M265.676 856.622H263.946V858.351H265.676V856.622Z" fill="black"/>
<path d="M269.135 856.622H267.406V858.351H269.135V856.622Z" fill="black"/>
<path d="M272.595 856.622H270.865V858.351H272.595V856.622Z" fill="black"/>
<path d="M276.054 856.622H274.324V858.351H276.054V856.622Z" fill="black"/>
<path d="M277.784 856.622H276.054V858.351H277.784V856.622Z" fill="black"/>
<path d="M282.973 856.622H281.243V858.351H282.973V856.622Z" fill="black"/>
<path d="M284.703 856.622H282.973V858.351H284.703V856.622Z" fill="black"/>
<path d="M291.622 856.622H289.892V858.351H291.622V856.622Z" fill="black"/>
<path d="M295.081 856.622H293.351V858.351H295.081V856.622Z" fill="black"/>
<path d="M243.189 858.351H241.459V860.081H243.189V858.351Z" fill="black"/>
<path d="M246.649 858.351H244.919V860.081H246.649V858.351Z" fill="black"/>
<path d="M248.378 858.351H246.649V860.081H248.378V858.351Z" fill="black"/>
<path d="M250.108 858.351H248.378V860.081H250.108V858.351Z" fill="black"/>
<path d="M253.568 858.351H251.838V860.081H253.568V858.351Z" fill="black"/>
<path d="M257.027 858.351H255.297V860.081H257.027V858.351Z" fill="black"/>
<path d="M258.757 858.351H257.027V860.081H258.757V858.351Z" fill="black"/>
<path d="M260.487 858.351H258.757V860.081H260.487V858.351Z" fill="black"/>
<path d="M262.216 858.351H260.487V860.081H262.216V858.351Z" fill="black"/>
<path d="M265.676 858.351H263.946V860.081H265.676V858.351Z" fill="black"/>
<path d="M267.406 858.351H265.676V860.081H267.406V858.351Z" fill="black"/>
<path d="M270.865 858.351H269.135V860.081H270.865V858.351Z" fill="black"/>
<path d="M276.054 858.351H274.324V860.081H276.054V858.351Z" fill="black"/>
<path d="M277.784 858.351H276.054V860.081H277.784V858.351Z" fill="black"/>
<path d="M279.513 858.351H277.784V860.081H279.513V858.351Z" fill="black"/>
<path d="M284.703 858.351H282.973V860.081H284.703V858.351Z" fill="black"/>
<path d="M286.432 858.351H284.703V860.081H286.432V858.351Z" fill="black"/>
<path d="M289.892 858.351H288.162V860.081H289.892V858.351Z" fill="black"/>
<path d="M291.622 858.351H289.892V860.081H291.622V858.351Z" fill="black"/>
<path d="M298.541 858.351H296.811V860.081H298.541V858.351Z" fill="black"/>
<path d="M243.189 860.081H241.459V861.811H243.189V860.081Z" fill="black"/>
<path d="M253.568 860.081H251.838V861.811H253.568V860.081Z" fill="black"/>
<path d="M262.216 860.081H260.487V861.811H262.216V860.081Z" fill="black"/>
<path d="M265.676 860.081H263.946V861.811H265.676V860.081Z" fill="black"/>
<path d="M269.135 860.081H267.406V861.811H269.135V860.081Z" fill="black"/>
<path d="M279.513 860.081H277.784V861.811H279.513V860.081Z" fill="black"/>
<path d="M281.243 860.081H279.513V861.811H281.243V860.081Z" fill="black"/>
<path d="M284.703 860.081H282.973V861.811H284.703V860.081Z" fill="black"/>
<path d="M286.432 860.081H284.703V861.811H286.432V860.081Z" fill="black"/>
<path d="M289.892 860.081H288.162V861.811H289.892V860.081Z" fill="black"/>
<path d="M295.081 860.081H293.351V861.811H295.081V860.081Z" fill="black"/>
<path d="M296.811 860.081H295.081V861.811H296.811V860.081Z" fill="black"/>
<path d="M243.189 861.811H241.459V863.541H243.189V861.811Z" fill="black"/>
<path d="M244.919 861.811H243.189V863.541H244.919V861.811Z" fill="black"/>
<path d="M246.649 861.811H244.919V863.541H246.649V861.811Z" fill="black"/>
<path d="M248.378 861.811H246.649V863.541H248.378V861.811Z" fill="black"/>
<path d="M250.108 861.811H248.378V863.541H250.108V861.811Z" fill="black"/>
<path d="M251.838 861.811H250.108V863.541H251.838V861.811Z" fill="black"/>
<path d="M253.568 861.811H251.838V863.541H253.568V861.811Z" fill="black"/>
<path d="M260.487 861.811H258.757V863.541H260.487V861.811Z" fill="black"/>
<path d="M262.216 861.811H260.487V863.541H262.216V861.811Z" fill="black"/>
<path d="M263.946 861.811H262.216V863.541H263.946V861.811Z" fill="black"/>
<path d="M269.135 861.811H267.406V863.541H269.135V861.811Z" fill="black"/>
<path d="M279.513 861.811H277.784V863.541H279.513V861.811Z" fill="black"/>
<path d="M282.973 861.811H281.243V863.541H282.973V861.811Z" fill="black"/>
<path d="M284.703 861.811H282.973V863.541H284.703V861.811Z" fill="black"/>
<path d="M286.432 861.811H284.703V863.541H286.432V861.811Z" fill="black"/>
<path d="M288.162 861.811H286.432V863.541H288.162V861.811Z" fill="black"/>
<path d="M289.892 861.811H288.162V863.541H289.892V861.811Z" fill="black"/>
<path d="M291.622 861.811H289.892V863.541H291.622V861.811Z" fill="black"/>
<path d="M295.081 861.811H293.351V863.541H295.081V861.811Z" fill="black"/>
<path d="M296.811 861.811H295.081V863.541H296.811V861.811Z" fill="black"/>
<path d="M298.541 861.811H296.811V863.541H298.541V861.811Z" fill="black"/>
</g>
<path d="M209.84 155.464V161.992H265.968V155.464H209.84ZM213.936 165.896V172.36H263.088V165.896H213.936ZM219.824 188.872V195.336H256.88V188.872H219.824ZM220.016 175.88V182.152H254.448V198.728H262.128V175.88H220.016ZM214.96 175.88V183.816C214.96 190.408 214.192 199.432 207.152 205.896C208.816 206.856 212.016 209.608 213.168 211.08C220.976 203.784 222.576 192.136 222.576 183.944V175.88H214.96ZM233.904 150.6V169.352H241.712V150.6H233.904ZM234.16 178.056V192.904H241.584V178.056H234.16ZM278.448 154.184V161.096H289.712V186.44H278.448V193.48H296.816V154.184H278.448ZM278.512 170.184V177.032H292.528V170.184H278.512ZM305.84 153.224V160.328H325.488V153.224H305.84ZM305.84 168.52V175.432H325.488V168.52H305.84ZM305.712 183.688V190.536H325.424V183.688H305.712ZM274.352 154.184V199.048H281.456V154.184H274.352ZM322.608 153.224V201.864C322.608 203.016 322.224 203.4 321.072 203.4C319.984 203.4 316.08 203.464 312.624 203.272C313.712 205.256 314.928 208.584 315.248 210.696C320.688 210.696 324.336 210.504 326.896 209.288C329.392 208.072 330.224 205.96 330.224 201.992V153.224H322.608ZM301.232 153.224V176.392C301.232 186.184 300.272 198.216 289.456 206.088C291.12 207.112 294.064 209.736 295.216 211.272C307.056 202.568 308.784 187.528 308.784 176.456V153.224H301.232Z" fill="url(#paint0_linear_11526_63289)"/>
<path d="M115.505 278.8V281.68H141.815V278.8H115.505ZM120.395 292.27V295.15H136.775V292.27H120.395ZM127.115 272.71V300.52H130.115V272.71H127.115ZM124.565 279.79C122.645 285.34 118.835 290.86 114.575 293.59C115.235 294.16 116.165 295.18 116.675 295.9C121.145 292.63 124.955 286.87 127.145 280.57L124.565 279.79ZM132.575 279.88L130.025 280.63C132.185 286.87 135.935 292.63 140.435 295.81C140.945 295 141.935 293.89 142.685 293.32C138.305 290.65 134.495 285.34 132.575 279.88ZM156.875 272.77C156.755 277.6 157.115 291.76 144.725 298.18C145.625 298.81 146.555 299.71 147.065 300.46C159.725 293.38 159.935 278.47 160.085 272.77H156.875ZM159.785 276.43L157.055 276.73C157.475 279.52 158.615 294.61 170.675 300.31C171.095 299.5 171.905 298.54 172.745 297.88C161.135 292.69 160.025 278.71 159.785 276.43ZM176.525 278.47V281.26H197.915V278.47H176.525ZM196.775 278.47V279.13C193.685 284.11 186.515 290.83 180.155 294.31C180.815 294.85 181.715 295.72 182.165 296.35C188.735 292.57 196.085 285.82 200.135 279.73L198.005 278.32L197.435 278.47H196.775ZM185.795 273.79C186.935 275.35 188.375 277.54 188.975 278.86L191.675 277.33C190.985 276.07 189.485 273.97 188.345 272.44L185.795 273.79ZM180.845 293.71C179.225 293.71 177.065 295.33 174.995 297.58L177.095 300.22C178.415 298.27 179.795 296.38 180.785 296.38C181.415 296.38 182.405 297.4 183.635 298.18C185.705 299.44 188.105 299.8 191.795 299.8C194.735 299.8 199.625 299.62 201.815 299.47C201.845 298.69 202.325 297.19 202.625 296.44C199.745 296.8 195.215 297.04 191.885 297.04C188.585 297.04 186.035 296.83 184.145 295.6C182.525 294.58 181.805 293.71 180.845 293.71ZM205.115 277.3V279.91H232.145V277.3H205.115ZM208.415 287.2V289.36H216.545V287.2H208.415ZM208.415 291.91V294.07H216.545V291.91H208.415ZM221.465 282.61V294.91H224.105V282.61H221.465ZM215.555 282.31V297.49C215.555 297.88 215.435 298 215.015 298C214.625 298.03 213.305 298.03 211.985 297.97C212.345 298.66 212.765 299.71 212.915 300.43C214.865 300.43 216.215 300.4 217.115 299.98C218.015 299.56 218.285 298.84 218.285 297.55V282.31H215.555ZM227.525 281.74V297.22C227.525 297.64 227.375 297.76 226.895 297.76C226.385 297.79 224.795 297.79 223.085 297.73C223.505 298.48 223.955 299.68 224.105 300.43C226.385 300.46 227.945 300.37 228.965 299.95C230.015 299.5 230.315 298.75 230.315 297.25V281.74H227.525ZM209.555 273.61C210.665 274.87 211.835 276.64 212.285 277.75L215.135 276.73C214.595 275.59 213.335 273.88 212.225 272.65L209.555 273.61ZM224.975 272.56C224.255 274.21 222.965 276.46 221.885 277.87L224.435 278.77C225.515 277.42 226.865 275.41 228.035 273.52L224.975 272.56ZM206.915 282.31V300.37H209.585V284.71H216.395V282.31H206.915ZM325.361 295.12V297.85H333.311V295.12H325.361ZM308.651 278.23V281.02H319.961V278.23H308.651ZM324.101 276.28V300.01H326.831V279.04H331.781V299.8H334.631V276.28H324.101ZM319.241 278.23V278.89C319.001 291.43 318.761 295.81 318.101 296.71C317.831 297.13 317.531 297.25 317.081 297.22C316.541 297.22 315.341 297.22 314.021 297.1C314.501 297.91 314.801 299.14 314.831 299.95C316.211 300.04 317.561 300.04 318.431 299.89C319.361 299.74 319.961 299.44 320.561 298.57C321.521 297.22 321.731 292.72 321.971 279.61C321.971 279.22 321.971 278.23 321.971 278.23H319.241ZM312.611 273.1C312.581 283.81 312.701 293.26 307.841 298.54C308.561 298.96 309.521 299.89 309.971 300.55C315.221 294.73 315.371 284.5 315.401 273.1H312.611ZM345.641 275.56C354.581 281.65 354.581 294.52 364.811 300.25C364.991 299.38 365.741 297.79 366.221 297.01C356.351 290.98 357.011 280.03 347.411 273.13L345.641 275.56ZM350.531 279.79C348.731 288.37 344.981 294.55 338.231 297.97C338.981 298.51 340.301 299.68 340.811 300.28C347.561 296.32 351.581 289.75 353.771 280.36L350.531 279.79ZM369.191 275.02C370.841 276.58 372.761 278.8 373.571 280.27L375.941 278.59C375.041 277.15 373.031 275.05 371.381 273.55L369.191 275.02ZM375.161 283.87H368.501V286.54H372.371V295.06H375.161V283.87ZM373.721 293.56C372.191 293.56 370.061 295.06 367.991 297.28L369.971 300.07C371.321 298.12 372.701 296.26 373.661 296.26C374.321 296.26 375.311 297.22 376.661 298C378.791 299.29 381.341 299.59 385.091 299.59C388.061 299.59 393.191 299.44 395.321 299.32C395.351 298.45 395.831 296.98 396.191 296.2C393.221 296.56 388.541 296.83 385.181 296.83C381.851 296.83 379.181 296.62 377.171 295.45C375.461 294.46 374.741 293.56 373.721 293.56ZM377.111 277.99V280.66H395.381V277.99H377.111ZM388.541 272.83V291.67C388.541 292.21 388.331 292.36 387.701 292.39C387.101 292.42 384.971 292.42 382.901 292.33C383.291 293.14 383.771 294.4 383.891 295.21C386.711 295.21 388.631 295.15 389.801 294.7C391.001 294.25 391.421 293.47 391.421 291.7V272.83H388.541ZM378.281 283.81C379.781 285.7 381.641 288.31 382.451 289.9L384.851 288.43C383.981 286.84 382.061 284.35 380.561 282.55L378.281 283.81ZM399.881 277.99V292.66H402.731V280.78H421.361V292.51H424.331V277.99H399.881ZM401.381 288.1V290.89H423.041V288.1H401.381ZM410.531 272.68V300.52H413.531V272.68H410.531ZM434.441 278.74V281.23H449.591V278.74H434.441ZM435.281 284.89V287.32H448.901V284.89H435.281ZM434.081 291.73V294.1H450.191V291.73H434.081ZM440.621 279.52V292.99H443.261V279.52H440.621ZM444.731 288.49C445.721 289.48 446.891 290.86 447.431 291.76L449.351 290.65C448.781 289.78 447.581 288.43 446.561 287.53L444.731 288.49ZM429.551 273.97V300.52H432.431V276.58H451.601V300.52H454.631V273.97H429.551ZM431.111 296.41V299.02H453.011V296.41H431.111ZM465.251 272.92V289.9H468.191V272.92H465.251ZM476.021 272.92V289.9H478.991V272.92H476.021ZM458.501 288.07V290.83H485.831V288.07H458.501ZM459.641 278.8V281.53H484.811V278.8H459.641ZM474.491 293.68C477.251 295.78 480.881 298.72 482.621 300.52L485.381 298.84C483.461 297.01 479.711 294.19 477.041 292.24L474.491 293.68ZM466.631 292.33C465.011 294.46 461.711 297.01 458.801 298.57C459.461 299.05 460.511 299.95 461.081 300.55C464.081 298.84 467.441 296.08 469.631 293.47L466.631 292.33ZM58.16 328.99V331.78H80.93V328.99H58.16ZM56.18 321.07V323.77H80.21V321.07H56.18ZM56.54 328.99V333.13C56.54 336.25 56.27 340.63 53.9 343.81C54.53 344.17 55.79 345.25 56.27 345.82C58.97 342.28 59.51 336.85 59.51 333.19V328.99H56.54ZM60.65 324.88C61.64 326.2 62.69 328.03 63.11 329.2L65.75 328.03C65.24 326.86 64.1 325.09 63.14 323.83L60.65 324.88ZM73.43 324.04C72.89 325.57 71.87 327.73 71 329.14L73.25 330.04C74.21 328.78 75.44 326.83 76.58 325.06L73.43 324.04ZM65.45 318.34C66.29 319.48 67.16 321.04 67.46 322.09L70.49 321.19C70.1 320.17 69.2 318.67 68.33 317.62L65.45 318.34ZM92.54 330.37H103.31V334.18H92.54V330.37ZM89.69 327.85V336.7H106.31V327.85H89.69ZM99.53 334.72V341.65C99.53 344.47 100.28 345.31 103.46 345.31C104.09 345.31 107.33 345.31 108.02 345.31C110.6 345.31 111.41 344.26 111.74 340.12C110.96 339.94 109.76 339.49 109.13 339.01C109.04 342.19 108.83 342.64 107.75 342.64C107 342.64 104.36 342.64 103.79 342.64C102.56 342.64 102.35 342.49 102.35 341.62V334.72H99.53ZM93.59 334.72C93.08 339.1 91.76 341.65 84.23 342.94C84.8 343.54 85.52 344.77 85.79 345.49C94.16 343.75 95.96 340.33 96.62 334.72H93.59ZM96.47 317.68V323.56H99.38V317.68H96.47ZM84.92 323.17V329.98H87.68V325.72H108.29V329.98H111.17V323.17H84.92ZM87.89 319.3C89.03 320.59 90.26 322.45 90.77 323.62L93.29 322.15C92.72 320.98 91.46 319.27 90.29 318.01L87.89 319.3ZM105.56 318.04C104.93 319.66 103.7 321.88 102.71 323.29L105.08 324.13C106.1 322.81 107.42 320.83 108.56 318.97L105.56 318.04ZM118.19 346.63C121.58 345.52 123.68 342.94 123.68 339.61C123.68 337.33 122.69 335.86 120.83 335.86C119.45 335.86 118.25 336.73 118.25 338.26C118.25 339.82 119.42 340.63 120.77 340.63C121.4 340.63 122 340.48 122.45 339.97L120.8 337.51L121.22 340.24C121.22 342.25 119.87 343.75 117.38 344.68L118.19 346.63ZM145.88 323.47V326.26H167.27V323.47H145.88ZM166.13 323.47V324.13C163.04 329.11 155.87 335.83 149.51 339.31C150.17 339.85 151.07 340.72 151.52 341.35C158.09 337.57 165.44 330.82 169.49 324.73L167.36 323.32L166.79 323.47H166.13ZM155.15 318.79C156.29 320.35 157.73 322.54 158.33 323.86L161.03 322.33C160.34 321.07 158.84 318.97 157.7 317.44L155.15 318.79ZM150.2 338.71C148.58 338.71 146.42 340.33 144.35 342.58L146.45 345.22C147.77 343.27 149.15 341.38 150.14 341.38C150.77 341.38 151.76 342.4 152.99 343.18C155.06 344.44 157.46 344.8 161.15 344.8C164.09 344.8 168.98 344.62 171.17 344.47C171.2 343.69 171.68 342.19 171.98 341.44C169.1 341.8 164.57 342.04 161.24 342.04C157.94 342.04 155.39 341.83 153.5 340.6C151.88 339.58 151.16 338.71 150.2 338.71ZM178.79 325.99V328.69H201.8V325.99H178.79ZM183.74 341.44V344.08H197.81V341.44H183.74ZM197.45 317.86C192.71 319.06 184.49 319.9 177.35 320.32C177.65 320.95 178.01 322.09 178.07 322.81C185.39 322.45 193.88 321.61 199.79 320.17L197.45 317.86ZM182.39 332.56V345.55H185.24V335.2H196.67V345.49H199.67V332.56H182.39ZM177.35 320.32V328.3C177.35 332.89 177.05 339.22 173.81 343.66C174.47 344.02 175.67 345.01 176.18 345.58C179.72 340.81 180.26 333.34 180.26 328.33V320.32H177.35ZM203.78 329.83L204.56 332.41L228.17 325L227.45 322.51L203.78 329.83ZM226.55 322.99C226.52 328.48 226.4 331.9 225.92 333.31C225.53 334.45 225.08 334.66 224.42 334.66C223.88 334.66 222.59 334.66 221.6 334.57C221.96 335.23 222.26 336.49 222.32 337.18C223.43 337.24 224.99 337.18 225.98 336.97C227 336.76 227.87 336.13 228.41 334.54C229.04 332.8 229.25 329.17 229.34 323.53L229.49 323.02L227.48 322.12L226.88 322.54L226.28 322.99H226.55ZM217.49 317.74V338.98H220.31V317.74H217.49ZM209.15 319.75V339.7C209.15 343.87 210.62 344.92 215.45 344.92C216.59 344.92 224.33 344.92 225.53 344.92C230.12 344.92 231.14 343.33 231.68 338.38C230.9 338.23 229.73 337.75 229.04 337.27C228.62 341.44 228.14 342.34 225.38 342.34C223.7 342.34 216.83 342.34 215.42 342.34C212.45 342.34 211.94 341.92 211.94 339.73V319.75H209.15ZM324.717 340.12V342.85H332.667V340.12H324.717ZM308.007 323.23V326.02H319.317V323.23H308.007ZM323.457 321.28V345.01H326.187V324.04H331.137V344.8H333.987V321.28H323.457ZM318.597 323.23V323.89C318.357 336.43 318.117 340.81 317.457 341.71C317.187 342.13 316.887 342.25 316.437 342.22C315.897 342.22 314.697 342.22 313.377 342.1C313.857 342.91 314.157 344.14 314.187 344.95C315.567 345.04 316.917 345.04 317.787 344.89C318.717 344.74 319.317 344.44 319.917 343.57C320.877 342.22 321.087 337.72 321.327 324.61C321.327 324.22 321.327 323.23 321.327 323.23H318.597ZM311.967 318.1C311.937 328.81 312.057 338.26 307.197 343.54C307.917 343.96 308.877 344.89 309.327 345.55C314.577 339.73 314.727 329.5 314.757 318.1H311.967ZM344.997 320.56C353.937 326.65 353.937 339.52 364.167 345.25C364.347 344.38 365.097 342.79 365.577 342.01C355.707 335.98 356.367 325.03 346.767 318.13L344.997 320.56ZM349.887 324.79C348.087 333.37 344.337 339.55 337.587 342.97C338.337 343.51 339.657 344.68 340.167 345.28C346.917 341.32 350.937 334.75 353.127 325.36L349.887 324.79ZM372.267 335.65C369.717 335.65 367.587 337.75 367.587 340.33C367.587 342.94 369.717 345.04 372.267 345.04C374.877 345.04 376.977 342.94 376.977 340.33C376.977 337.75 374.877 335.65 372.267 335.65ZM372.267 343.24C370.707 343.24 369.387 341.95 369.387 340.33C369.387 338.74 370.707 337.45 372.267 337.45C373.887 337.45 375.177 338.74 375.177 340.33C375.177 341.95 373.887 343.24 372.267 343.24ZM397.767 323.77V326.38H409.107V323.77H397.767ZM408.237 323.77V324.28C407.517 334.96 403.947 340.93 397.677 343.24C398.277 343.81 398.967 344.89 399.387 345.61C406.377 342.49 410.157 336.43 411.027 323.95L409.257 323.68L408.747 323.77H408.237ZM399.027 334.12C402.507 336.79 407.007 340.6 409.077 343.09L410.997 340.72C408.867 338.32 404.187 334.66 400.767 332.08L399.027 334.12ZM413.877 339.82V342.49H422.817V339.82H413.877ZM412.317 320.86V344.77H415.017V323.56H421.497V344.29H424.317V320.86H412.317ZM399.027 334.12L401.547 335.08C402.927 330.61 404.547 323.56 405.327 317.95L402.507 317.74C401.967 323.08 400.407 329.98 399.027 334.12ZM435.327 341.56V344.11H450.447V341.56H435.327ZM439.017 324.49C436.977 331.09 432.987 336.1 427.257 338.98C427.887 339.52 428.937 340.69 429.357 341.26C435.177 337.93 439.437 332.47 441.897 325.18L439.017 324.49ZM433.947 334.09V345.46H436.707V336.64H449.547V345.4H452.427V334.09H433.947ZM428.007 327.85V330.49H454.947V327.85H428.007ZM428.247 320.38V323.02H454.767V320.38H428.247ZM434.757 317.71V325.87H437.577V317.71H434.757ZM445.347 317.71V325.87H448.167V317.71H445.347ZM458.247 321.46V324.13H484.737V321.46H458.247ZM465.927 332.23V334.63H479.547V332.23H465.927ZM463.857 327.13V345.52H466.647V329.65H479.097V327.13H463.857ZM478.497 327.13V342.22C478.497 342.64 478.347 342.79 477.837 342.82C477.297 342.82 475.497 342.85 473.697 342.76C474.087 343.51 474.477 344.71 474.597 345.49C477.117 345.49 478.797 345.49 479.877 345.04C480.987 344.59 481.287 343.78 481.287 342.25V327.13H478.497ZM467.847 317.68C466.257 323.62 462.807 330.01 457.467 333.64C458.007 334.18 458.907 335.2 459.297 335.83C465.087 331.78 468.687 325 470.757 318.34L467.847 317.68ZM465.927 337.24V339.64H479.547V337.24H465.927ZM63.02 368.24V377.96H65.87V368.24H63.02ZM55.04 366.68V369.2H80.96V366.68H55.04ZM59.21 370.22C58.37 372.23 56.9 374.3 55.25 375.65C55.88 375.98 56.96 376.73 57.47 377.15C59.06 375.62 60.77 373.25 61.76 370.88L59.21 370.22ZM73.52 371.6C75.32 373.19 77.51 375.59 78.59 377.18L80.78 375.65C79.73 374.18 77.54 371.9 75.59 370.31L73.52 371.6ZM65.69 364.04C66.32 365.12 67.1 366.59 67.43 367.52L70.31 366.77C69.92 365.84 69.14 364.4 68.45 363.38L65.69 364.04ZM70.04 367.97V377.93H72.89V367.97H70.04ZM61.37 379.91L59 380.93C63.17 387.08 70.58 390.44 80.15 391.58C80.51 390.86 81.2 389.72 81.77 389.12C72.38 388.19 64.88 385.19 61.37 379.91ZM56.84 378.74V381.23H75.68V378.74H56.84ZM75.14 378.74V379.19C71.9 385.13 63.53 388.04 54.35 389.09C54.86 389.69 55.52 390.89 55.73 391.61C65.09 390.2 74 386.96 78.02 379.85L76.22 378.62L75.74 378.74H75.14ZM88.19 392.63C91.58 391.52 93.68 388.94 93.68 385.61C93.68 383.33 92.69 381.86 90.83 381.86C89.45 381.86 88.25 382.73 88.25 384.26C88.25 385.82 89.42 386.63 90.77 386.63C91.4 386.63 92 386.48 92.45 385.97L90.8 383.51L91.22 386.24C91.22 388.25 89.87 389.75 87.38 390.68L88.19 392.63ZM114.86 383.72C114.86 383.21 116.66 382.4 116.66 382.4V382.34C119.6 379.46 122.6 375.41 125 371.39L122.75 369.98C120.65 374.06 117.41 378.23 116.39 379.31C115.43 380.42 114.71 381.11 114.02 381.26C114.32 381.95 114.74 383.18 114.86 383.72ZM114.86 383.72C115.58 383.3 116.72 383 124.79 381.41C124.73 380.84 124.76 379.76 124.82 379.04L116 380.63L114.71 381.53L114.86 383.72ZM114.74 376.46C114.74 375.95 116.36 375.08 116.36 375.08V374.99C118.55 372.29 120.83 368.39 122.42 364.73L119.81 363.5C118.58 367.1 116.36 371 115.67 371.99C114.98 373.01 114.44 373.7 113.84 373.85C114.17 374.57 114.62 375.89 114.74 376.46ZM114.74 376.46C115.34 376.19 116.3 375.95 121.76 375.32C121.76 374.75 121.88 373.73 122.03 372.98L115.97 373.55L114.68 374.39L114.74 376.46ZM114.05 387.23L114.53 389.93C117.53 389.15 121.49 388.19 125.24 387.23L125 384.86C120.95 385.76 116.75 386.69 114.05 387.23ZM131.96 373.13V380.96H134.39V373.13H131.96ZM129.74 366.59L128.51 369.05H136.16V366.59H129.74ZM135.74 366.59V367.1C135.2 368.6 134.03 370.82 132.98 372.17C133.43 372.53 134.18 373.28 134.57 373.79C135.95 372.23 137.54 369.77 138.65 367.64L136.91 366.41L136.37 366.59H135.74ZM126.11 372.23V386.93C126.11 390.23 127.19 391.07 130.76 391.07C131.54 391.07 136.64 391.07 137.48 391.07C140.63 391.07 141.44 389.81 141.83 385.73C141.08 385.55 139.97 385.13 139.34 384.68C139.16 387.92 138.89 388.58 137.3 388.58C136.19 388.58 131.84 388.58 130.94 388.58C129.05 388.58 128.72 388.31 128.72 386.93V372.23H126.11ZM129.68 363.41C128.39 366.86 126.2 370.31 123.83 372.53C124.43 372.92 125.51 373.82 125.96 374.3C128.39 371.84 130.79 368 132.29 364.13L129.68 363.41ZM127.88 379.61V382.04H140.24V372.23H127.88V374.66H137.63V379.61H127.88ZM161.51 368.03V370.79H171.32V368.03H161.51ZM161.48 381.74V384.53H171.83V381.74H161.48ZM161.33 374.87V377.57H170.66V374.87H161.33ZM145.22 368V370.79H154.4V368H145.22ZM145.64 374.84V377.54H154.28V374.84H145.64ZM160.1 363.83V391.52H163.07V363.83H160.1ZM153.2 363.8V391.49H156.14V363.8H153.2ZM144.53 381.8V384.59H154.88V381.8H144.53ZM252.267 381.65C249.717 381.65 247.587 383.75 247.587 386.33C247.587 388.94 249.717 391.04 252.267 391.04C254.877 391.04 256.977 388.94 256.977 386.33C256.977 383.75 254.877 381.65 252.267 381.65ZM252.267 389.24C250.707 389.24 249.387 387.95 249.387 386.33C249.387 384.74 250.707 383.45 252.267 383.45C253.887 383.45 255.177 384.74 255.177 386.33C255.177 387.95 253.887 389.24 252.267 389.24Z" fill="white"/>
<path d="M254.273 273.73V276.37H262.913V273.73H254.273ZM250.673 285.85V288.49H265.253V285.85H250.673ZM264.323 285.85V286.27C262.133 292.87 255.803 296.59 248.483 297.94C249.023 298.57 249.653 299.77 249.953 300.49C257.873 298.69 264.593 294.67 267.323 286.51L265.403 285.73L264.893 285.85H264.323ZM254.363 288.01L251.813 288.88C254.843 294.94 260.153 298.9 267.653 300.49C268.043 299.71 268.853 298.51 269.513 297.88C262.283 296.62 256.883 293.08 254.363 288.01ZM253.613 273.73V277.06C253.613 279.25 253.043 281.65 249.053 283.39C249.623 283.81 250.643 284.92 251.003 285.49C255.413 283.42 256.373 280.09 256.373 277.15V273.73H253.613ZM242.783 275.14C244.583 276.16 247.043 277.66 248.243 278.59L249.893 276.28C248.633 275.38 246.143 274 244.373 273.13L242.783 275.14ZM241.253 283.3C243.083 284.23 245.603 285.64 246.833 286.57L248.423 284.23C247.133 283.33 244.613 282.01 242.783 281.2L241.253 283.3ZM242.243 298.27L244.613 300.1C246.293 297.28 248.213 293.65 249.713 290.47L247.643 288.7C245.963 292.12 243.773 295.96 242.243 298.27ZM261.563 273.73V279.94C261.563 282.85 262.103 283.96 264.713 283.96C265.193 283.96 266.813 283.96 267.323 283.96C268.043 283.96 268.823 283.93 269.243 283.75C269.153 283 269.093 281.83 269.033 281.02C268.583 281.14 267.773 281.23 267.293 281.23C266.843 281.23 265.343 281.23 264.953 281.23C264.443 281.23 264.353 280.87 264.353 280V273.73H261.563ZM272.153 276.46V279.13H298.643V276.46H272.153ZM279.833 287.23V289.63H293.453V287.23H279.833ZM277.763 282.13V300.52H280.553V284.65H293.003V282.13H277.763ZM292.403 282.13V297.22C292.403 297.64 292.253 297.79 291.743 297.82C291.203 297.82 289.403 297.85 287.603 297.76C287.993 298.51 288.383 299.71 288.503 300.49C291.023 300.49 292.703 300.49 293.783 300.04C294.893 299.59 295.193 298.78 295.193 297.25V282.13H292.403ZM281.753 272.68C280.163 278.62 276.713 285.01 271.373 288.64C271.913 289.18 272.813 290.2 273.203 290.83C278.993 286.78 282.593 280 284.663 273.34L281.753 272.68ZM279.833 292.24V294.64H293.453V292.24H279.833ZM241.748 319.75V322.66H267.728V319.75H241.748ZM256.358 329.08C259.808 331.54 264.278 335.14 266.348 337.48L268.718 335.29C266.498 332.95 261.908 329.53 258.518 327.25L256.358 329.08ZM255.518 320.8C252.848 326.29 247.388 332.08 240.908 335.23C241.508 335.89 242.408 337.03 242.858 337.78C249.698 334.18 255.218 328.18 258.638 321.91L255.518 320.8ZM253.178 327.34V345.49H256.268V324.28L253.178 327.34ZM272.378 332.68V335.44H297.278V332.68H272.378ZM277.688 326.89V329.5H291.878V326.89H277.688ZM287.978 337.42C290.558 339.82 293.408 343.24 294.668 345.52L297.218 343.96C295.868 341.71 293.048 338.5 290.408 336.16L287.978 337.42ZM284.738 317.62C281.948 321.58 276.608 325.33 270.788 327.67C271.448 328.21 272.438 329.44 272.828 330.16C278.858 327.43 284.048 323.53 287.378 318.82L284.738 317.62ZM285.308 318.91L283.418 320.47C286.088 323.56 291.518 327.7 296.798 329.83C297.248 329.08 298.178 327.91 298.808 327.34C293.408 325.54 287.828 321.82 285.308 318.91ZM274.448 344.95C274.448 344.35 276.488 343.48 276.488 343.48V343.39C279.308 341.23 282.218 338.17 284.588 335.08L281.918 333.31C279.848 336.52 276.818 339.67 275.828 340.48C274.868 341.35 274.208 341.89 273.488 342.04C273.818 342.82 274.298 344.32 274.448 344.95ZM274.448 344.95C275.798 344.44 277.688 344.32 294.278 343C294.098 342.4 293.828 341.23 293.738 340.45L276.338 341.62L274.418 342.67L274.448 344.95ZM186.278 374.3V376.94H203.228V374.3H186.278ZM186.278 380.78V383.42H203.228V380.78H186.278ZM186.278 387.29V389.93H203.228V387.29H186.278ZM184.358 367.7V391.55H187.238V370.43H202.538V391.43H205.538V367.7H184.358ZM193.028 363.65C192.758 365.15 192.188 367.28 191.648 368.72L194.228 369.2C194.888 367.88 195.698 365.93 196.388 364.04L193.028 363.65ZM220.598 383.72V387.95C220.598 390.38 221.408 391.07 224.678 391.07C225.338 391.07 229.418 391.07 230.108 391.07C232.628 391.07 233.378 390.29 233.678 386.96C232.988 386.84 231.938 386.48 231.398 386.09C231.278 388.49 231.068 388.79 229.868 388.79C228.968 388.79 225.578 388.79 224.888 388.79C223.358 388.79 223.088 388.67 223.088 387.92V383.72H220.598ZM224.768 383.87C225.908 384.98 227.378 386.54 228.068 387.47L230.018 386.09C229.298 385.19 227.768 383.72 226.658 382.67L224.768 383.87ZM229.868 378.65C231.578 379.79 233.888 381.44 235.028 382.43L236.948 380.75C235.748 379.79 233.408 378.23 231.698 377.21L229.868 378.65ZM232.718 383.9C233.888 385.52 235.328 387.77 236.018 389.06L238.328 388.04C237.578 386.75 236.078 384.59 234.878 383.03L232.718 383.9ZM217.358 383.57C216.878 385.4 216.038 387.71 215.048 389.15L217.208 390.11C218.168 388.61 218.948 386.24 219.488 384.38L217.358 383.57ZM214.628 364.79V367.04H237.368V364.79H214.628ZM220.808 373.79H232.838V375.41H220.808V373.79ZM220.808 370.55H232.838V372.17H220.808V370.55ZM218.228 368.87V377.09H235.538V368.87H218.228ZM225.368 376.01V380.03C225.368 380.3 225.278 380.42 224.918 380.42C224.558 380.42 223.358 380.42 222.128 380.39C222.458 380.99 222.878 381.83 222.998 382.46C224.798 382.46 226.028 382.46 226.868 382.13C227.768 381.8 227.978 381.26 227.978 380.09V376.01H225.368ZM213.098 364.79V373.19C213.098 378.11 212.918 385.19 210.578 390.2C211.178 390.44 212.378 391.25 212.828 391.73C215.378 386.45 215.738 378.38 215.738 373.19V364.79H213.098ZM224.888 366.98C224.798 367.73 224.498 368.87 224.288 369.68L226.748 370.25C227.108 369.53 227.618 368.57 228.128 367.49L224.888 366.98ZM220.598 377.33C219.398 378.53 217.598 379.91 215.978 380.81C216.578 381.2 217.568 381.98 218.048 382.46C219.578 381.35 221.648 379.64 223.028 378.2L220.598 377.33Z" fill="#DDE4EE"/>
<defs>
<linearGradient id="paint0_linear_11526_63289" x1="206" y1="181" x2="334" y2="181" gradientUnits="userSpaceOnUse">
<stop stop-color="#FAE28F"/>
<stop offset="1" stop-color="#E39FF0"/>
</linearGradient>
<clipPath id="clip0_11526_63289">
<rect width="64" height="64" fill="white" transform="translate(238 803)"/>
</clipPath>
</defs>
</svg>
